<svg xmlns="http://www.w3.org/2000/svg" xmlns:xlink="http://www.w3.org/1999/xlink" width="1000" zoomAndPan="magnify" viewBox="0 0 750 749.999995" height="1000" preserveAspectRatio="xMidYMid meet" version="1.0"><defs><clipPath id="e0bba24c28"><path d="M 463 46.363281 L 515 46.363281 L 515 127 L 463 127 Z M 463 46.363281 " clip-rule="nonzero"/></clipPath><clipPath id="5de6a7b455"><path d="M 297 616 L 332 616 L 332 703.363281 L 297 703.363281 Z M 297 616 " clip-rule="nonzero"/></clipPath></defs><path fill="#000000" d="M 441.546875 202.621094 C 437.285156 203.339844 433.023438 204.210938 428.660156 205.546875 C 425.527344 206.46875 422.496094 207.652344 419.46875 208.933594 C 417.3125 206.523438 415.257812 204.417969 413.101562 203.492188 C 413 203.234375 412.894531 202.980469 412.691406 202.773438 C 412.074219 202.15625 411.199219 201.746094 410.378906 201.847656 C 357.695312 204.980469 333.457031 205.03125 317.4375 205.082031 C 312.714844 205.082031 308.757812 205.082031 304.960938 205.1875 C 298.386719 205.339844 286.730469 205.546875 273.945312 205.804688 C 249.964844 206.265625 222.902344 206.726562 216.792969 206.984375 C 216.332031 206.882812 215.816406 206.984375 215.355469 207.085938 C 212.378906 208.164062 211.144531 210.9375 201.386719 271.785156 C 198.820312 287.601562 196.457031 302.542969 194.457031 313.175781 C 188.449219 345.265625 184.03125 372.175781 183.980469 372.429688 C 183.878906 373.203125 184.03125 373.972656 184.496094 374.585938 C 184.957031 375.203125 185.625 375.664062 186.394531 375.769531 C 187.164062 375.871094 187.832031 376.027344 188.601562 376.179688 C 194.558594 380.75 205.496094 385.679688 205.496094 385.679688 C 228.550781 389.324219 244.882812 398.105469 261.054688 403.085938 C 278 377.257812 296.539062 368.886719 312.40625 371.507812 C 328.941406 387.167969 337.054688 418.441406 323.34375 446.9375 C 315.230469 463.882812 297.925781 474.359375 282.210938 471.792969 C 280.210938 471.484375 278.308594 470.917969 276.460938 470.25 C 272.300781 463.320312 269.167969 454.179688 267.679688 442.523438 C 260.441406 439.75 255.714844 432.613281 252.019531 429.789062 C 252.019531 429.632812 252.019531 429.480469 251.96875 429.324219 C 251.863281 428.503906 251.402344 427.734375 250.734375 427.273438 C 250.066406 426.808594 249.195312 426.65625 248.371094 426.859375 C 221.515625 433.640625 202.414062 437.542969 188.449219 440.417969 C 184.546875 441.238281 181.054688 441.90625 177.972656 442.574219 C 176.484375 442.882812 175.507812 444.269531 175.664062 445.757812 C 178.691406 473.382812 198.667969 509.585938 244.214844 528.480469 C 254.636719 535.054688 266.910156 540.652344 281.390625 544.605469 C 319.390625 555.027344 369.351562 549.175781 398.519531 510.917969 C 407.554688 520.058594 417.671875 526.890625 428.660156 531.152344 C 442.214844 537.980469 456.746094 540.855469 470.765625 540.855469 C 490.382812 540.855469 508.917969 535.308594 522.0625 527.402344 C 550.769531 510.199219 571.566406 474.820312 580.652344 427.886719 C 593.800781 359.800781 578.804688 284.878906 542.398438 236.972656 C 517.648438 204.3125 478.261719 191.015625 441.546875 202.515625 Z M 352.199219 320.875 C 329.8125 308.550781 304.136719 305.164062 281.339844 310.8125 C 282.316406 302.648438 283.394531 294.226562 283.855469 284.625 C 306.910156 281.59375 334.023438 281.234375 360.828125 281.234375 C 356.875 293.25 353.894531 306.445312 352.148438 320.875 Z M 480.832031 429.324219 C 475.695312 434.152344 470.097656 437.285156 464.5 438.671875 C 438.722656 427.066406 429.226562 390.402344 433.539062 356.667969 C 436.824219 330.839844 449.097656 305.472656 469.535156 300.59375 C 484.21875 308.347656 498.75 328.785156 502.191406 355.589844 C 505.890625 384.753906 497.570312 413.664062 480.933594 429.324219 Z M 480.832031 429.324219 " fill-opacity="1" fill-rule="nonzero"/><path fill="#000000" d="M 658.140625 177.664062 C 671.59375 168.0625 694.03125 158.304688 731.3125 151.527344 C 732.902344 151.21875 733.929688 149.730469 733.675781 148.136719 C 733.367188 146.546875 731.824219 145.519531 730.285156 145.777344 C 691.003906 152.914062 667.28125 163.441406 653.054688 174.019531 C 643.96875 168.574219 634.3125 169.035156 624.917969 175.402344 C 606.6875 187.675781 595.183594 218.484375 598.574219 230.089844 C 598.933594 231.375 600.113281 232.195312 601.398438 232.195312 C 601.65625 232.195312 601.964844 232.195312 602.21875 232.09375 C 603.761719 231.632812 604.683594 230.039062 604.222656 228.449219 C 601.449219 218.84375 612.4375 190.859375 628.203125 180.230469 C 634.929688 175.710938 641.605469 174.941406 648.125 178.023438 C 634.929688 189.679688 632.414062 201.027344 632.3125 207.601562 C 632.105469 218.898438 638.625 227.0625 645.046875 228.449219 C 652.695312 230.089844 662.503906 223.570312 667.226562 213.503906 C 673.183594 200.875 669.746094 187.625 658.089844 177.714844 Z M 661.9375 210.988281 C 658.089844 219.203125 650.746094 223.722656 646.277344 222.695312 C 642.785156 221.925781 638.011719 216.277344 638.164062 207.652344 C 638.265625 202.925781 640.167969 192.503906 653.363281 181.359375 C 668.152344 193.171875 664.300781 206.007812 661.9375 210.988281 Z M 661.9375 210.988281 " fill-opacity="1" fill-rule="nonzero"/><path fill="#000000" d="M 118.511719 402.828125 C 119.949219 403.546875 121.695312 402.984375 122.464844 401.546875 C 123.183594 400.109375 122.617188 398.363281 121.179688 397.59375 C 100.742188 387.066406 87.136719 396.101562 80.820312 402.417969 C 74.554688 408.683594 70.34375 417.414062 68.652344 426.140625 C 66.855469 426.398438 65.003906 426.808594 63.003906 427.375 C 3.386719 445.242188 0.871094 499.007812 1.484375 515.078125 C 1.539062 516.671875 2.820312 517.902344 4.414062 517.902344 L 4.515625 517.902344 C 6.109375 517.851562 7.390625 516.464844 7.339844 514.875 C 6.570312 495.667969 10.574219 449.199219 64.75 433.074219 C 65.878906 432.765625 66.90625 432.457031 67.984375 432.253906 C 67.675781 438.15625 68.597656 443.804688 71.011719 448.429688 C 75.328125 456.746094 83.542969 460.339844 94.070312 458.542969 C 97.40625 457.980469 99.820312 455.925781 100.847656 452.792969 C 102.542969 447.503906 99.972656 440.160156 94.480469 434.511719 C 91.707031 431.636719 85.082031 426.296875 74.8125 425.886719 C 76.457031 418.746094 80 411.714844 85.082031 406.628906 C 91.398438 400.3125 102.335938 394.511719 118.613281 402.882812 Z M 90.21875 438.570312 C 94.632812 443.085938 96.070312 448.324219 95.199219 450.945312 C 94.839844 451.972656 94.171875 452.535156 92.992188 452.742188 C 85.03125 454.128906 79.175781 451.664062 76.097656 445.707031 C 74.09375 441.804688 73.375 436.875 73.734375 431.6875 C 82.414062 431.789062 87.855469 436.207031 90.167969 438.570312 Z M 90.21875 438.570312 " fill-opacity="1" fill-rule="nonzero"/><path fill="#000000" d="M 715.753906 489.148438 C 715.238281 489.046875 714.316406 488.992188 713.082031 488.941406 C 705.175781 488.429688 684.226562 487.144531 673.648438 469.738281 C 672.824219 468.351562 671.027344 467.941406 669.640625 468.761719 C 668.253906 469.582031 667.84375 471.378906 668.664062 472.765625 C 680.835938 492.742188 704.816406 494.230469 712.722656 494.746094 C 713.699219 494.796875 714.417969 494.847656 714.828125 494.898438 C 714.984375 494.898438 715.136719 494.898438 715.292969 494.898438 C 716.675781 494.898438 717.910156 493.871094 718.167969 492.433594 C 718.421875 490.84375 717.34375 489.351562 715.753906 489.097656 Z M 715.753906 489.148438 " fill-opacity="1" fill-rule="nonzero"/><g clip-path="url(#e0bba24c28)"><path fill="#000000" d="M 466.042969 126.570312 C 466.300781 126.671875 466.605469 126.671875 466.863281 126.671875 C 468.148438 126.671875 469.277344 125.851562 469.6875 124.570312 C 481.140625 86.160156 483.65625 82.871094 513.335938 51.808594 C 514.464844 50.625 514.414062 48.777344 513.230469 47.648438 C 512.050781 46.519531 510.203125 46.570312 509.074219 47.75 C 478.929688 79.328125 475.851562 83.386719 464.039062 122.925781 C 463.578125 124.464844 464.449219 126.109375 465.992188 126.570312 Z M 466.042969 126.570312 " fill-opacity="1" fill-rule="nonzero"/></g><g clip-path="url(#5de6a7b455)"><path fill="#000000" d="M 328.476562 616.183594 C 326.886719 616.183594 325.550781 617.519531 325.550781 619.113281 C 325.652344 651.875 315.847656 680.886719 298.59375 698.703125 C 297.460938 699.882812 297.515625 701.734375 298.644531 702.8125 C 299.207031 703.375 299.925781 703.632812 300.699219 703.632812 C 301.46875 703.632812 302.238281 703.324219 302.804688 702.761719 C 321.082031 683.8125 331.507812 653.3125 331.351562 619.0625 C 331.351562 617.46875 330.019531 616.132812 328.425781 616.132812 Z M 328.476562 616.183594 " fill-opacity="1" fill-rule="nonzero"/></g><path fill="#000000" d="M 39.175781 288.578125 C 39.742188 288.578125 40.304688 288.421875 40.820312 288.0625 C 46.058594 284.574219 60.742188 280.722656 101.050781 282.519531 C 102.4375 282.570312 103.363281 282.621094 103.671875 282.621094 C 105.261719 282.621094 106.546875 281.285156 106.546875 279.644531 C 106.546875 278.050781 105.210938 276.765625 103.621094 276.765625 C 103.363281 276.765625 102.542969 276.765625 101.359375 276.664062 C 67.726562 275.175781 46.261719 277.382812 37.636719 283.1875 C 36.300781 284.109375 35.941406 285.90625 36.8125 287.242188 C 37.378906 288.0625 38.304688 288.527344 39.226562 288.527344 Z M 39.175781 288.578125 " fill-opacity="1" fill-rule="nonzero"/><path fill="#000000" d="M 255.765625 98.636719 C 256.792969 98.738281 257.925781 98.792969 259.15625 98.792969 C 261.929688 98.792969 265.164062 98.535156 268.5 98.175781 C 267.117188 100.691406 265.882812 103 264.703125 105.261719 C 263.777344 107.058594 262.800781 108.855469 261.773438 110.753906 C 261.003906 112.191406 261.519531 113.9375 262.957031 114.710938 C 263.417969 114.964844 263.878906 115.070312 264.34375 115.070312 C 265.371094 115.070312 266.394531 114.503906 266.910156 113.527344 C 267.9375 111.578125 268.914062 109.78125 269.886719 107.929688 C 271.324219 105.160156 272.816406 102.335938 274.664062 99.046875 C 275.894531 104.183594 277.28125 110.089844 278.667969 119.332031 C 278.875 120.769531 280.105469 121.847656 281.542969 121.847656 C 281.699219 121.847656 281.851562 121.847656 281.957031 121.847656 C 283.546875 121.589844 284.675781 120.101562 284.421875 118.507812 C 283.546875 112.65625 282.675781 108.085938 281.800781 104.183594 C 284.007812 106.132812 286.578125 108.289062 289.914062 111.113281 L 294.585938 115.121094 C 295.152344 115.582031 295.820312 115.839844 296.488281 115.839844 C 297.308594 115.839844 298.128906 115.480469 298.695312 114.8125 C 299.722656 113.578125 299.621094 111.730469 298.386719 110.703125 L 293.714844 106.699219 C 288.324219 102.078125 284.882812 99.152344 281.648438 96.273438 C 285.703125 95.554688 289.246094 94.886719 291.300781 94.476562 C 292.171875 94.324219 292.738281 94.222656 292.945312 94.167969 C 294.535156 93.914062 295.664062 92.425781 295.410156 90.832031 C 295.152344 89.238281 293.714844 88.160156 292.070312 88.367188 C 291.867188 88.367188 291.199219 88.519531 290.171875 88.726562 C 286.421875 89.445312 283.035156 90.113281 279.796875 90.625 C 281.902344 87.339844 284.421875 83.695312 287.605469 79.328125 C 288.527344 78.046875 288.269531 76.199219 286.9375 75.273438 C 285.601562 74.347656 283.804688 74.605469 282.828125 75.941406 C 280.773438 78.765625 279.027344 81.28125 277.4375 83.644531 C 276.921875 78.816406 276.820312 73.066406 277.386719 64.234375 C 277.488281 62.640625 276.253906 61.253906 274.664062 61.152344 C 272.96875 61 271.683594 62.28125 271.582031 63.875 C 270.914062 75.015625 271.222656 81.691406 272.097656 87.390625 C 269.785156 85.132812 267.0625 82.511719 263.625 79.175781 C 262.492188 78.046875 260.644531 78.097656 259.464844 79.175781 C 258.335938 80.355469 258.335938 82.207031 259.464844 83.335938 C 263.265625 87.03125 266.191406 89.90625 268.707031 92.320312 C 263.265625 92.988281 259.054688 93.144531 256.230469 92.886719 C 254.535156 92.679688 253.199219 93.914062 253.046875 95.503906 C 252.890625 97.097656 254.074219 98.535156 255.664062 98.6875 Z M 255.765625 98.636719 " fill-opacity="1" fill-rule="nonzero"/><path fill="#000000" d="M 563.8125 622.707031 L 563.554688 622.707031 C 560.214844 622.707031 555.800781 623.375 551.179688 624.296875 C 552.359375 621.679688 553.335938 619.265625 554.3125 616.90625 C 555.082031 615.003906 555.851562 613.105469 556.726562 611.152344 C 557.339844 609.664062 556.726562 607.96875 555.234375 607.300781 C 553.746094 606.632812 552.050781 607.300781 551.382812 608.792969 C 550.511719 610.792969 549.742188 612.746094 548.917969 614.644531 C 547.738281 617.519531 546.507812 620.5 544.914062 623.886719 C 543.21875 618.90625 541.320312 613.15625 539.113281 604.066406 C 538.753906 602.527344 537.160156 601.550781 535.570312 601.910156 C 533.976562 602.269531 533.050781 603.863281 533.414062 605.453125 C 534.796875 611.203125 536.082031 615.722656 537.261719 619.472656 C 534.851562 617.726562 532.078125 615.722656 528.484375 613.207031 L 523.554688 609.714844 C 522.269531 608.792969 520.421875 609.097656 519.496094 610.382812 C 518.570312 611.71875 518.878906 613.515625 520.164062 614.441406 L 525.09375 617.929688 C 530.949219 622.089844 534.644531 624.761719 538.085938 627.328125 C 534.078125 628.40625 530.691406 629.382812 528.636719 629.945312 C 527.765625 630.203125 527.199219 630.359375 526.992188 630.410156 C 525.402344 630.769531 524.425781 632.359375 524.835938 633.953125 C 525.144531 635.289062 526.378906 636.210938 527.660156 636.210938 C 527.867188 636.210938 528.125 636.210938 528.328125 636.109375 C 528.535156 636.109375 529.203125 635.851562 530.230469 635.59375 C 533.875 634.515625 537.210938 633.59375 540.34375 632.769531 C 538.496094 636.210938 536.339844 640.0625 533.566406 644.683594 C 532.746094 646.070312 533.207031 647.867188 534.59375 648.691406 C 535.054688 648.945312 535.570312 649.101562 536.082031 649.101562 C 537.058594 649.101562 538.035156 648.585938 538.597656 647.664062 C 540.394531 644.632812 541.9375 642.015625 543.324219 639.5 C 544.246094 644.222656 544.863281 649.972656 545.121094 658.855469 C 545.121094 660.449219 546.453125 661.679688 548.046875 661.679688 L 548.097656 661.679688 C 549.691406 661.679688 550.972656 660.292969 550.921875 658.703125 C 550.613281 647.558594 549.742188 640.9375 548.355469 635.339844 C 550.871094 637.394531 553.796875 639.753906 557.496094 642.785156 C 558.058594 643.246094 558.675781 643.453125 559.34375 643.453125 C 560.164062 643.453125 561.039062 643.09375 561.601562 642.375 C 562.628906 641.140625 562.425781 639.292969 561.191406 638.265625 C 557.085938 634.875 553.902344 632.308594 551.230469 630.152344 C 556.46875 629.074219 560.574219 628.507812 563.398438 628.507812 C 563.453125 628.507812 563.453125 628.507812 563.605469 628.507812 C 565.199219 628.507812 566.53125 627.226562 566.53125 625.632812 C 566.53125 624.042969 565.25 622.707031 563.65625 622.707031 Z M 563.8125 622.707031 " fill-opacity="1" fill-rule="nonzero"/><path fill="#000000" d="M 174.789062 570.484375 C 169.398438 566.121094 160.667969 559.496094 159.4375 558.519531 C 144.441406 586.25 116.917969 602.578125 107.164062 603.914062 C 107.675781 606.582031 109.214844 611.976562 109.164062 612.28125 C 108.855469 613.414062 109.269531 614.644531 110.191406 615.363281 C 116.457031 620.191406 119.742188 623.425781 121.695312 625.375 C 123.183594 626.867188 124.519531 628.199219 126.109375 628.199219 C 126.574219 628.199219 127.085938 628.097656 127.601562 627.839844 C 147.472656 618.136719 167.804688 605.710938 182.132812 581.113281 C 182.800781 579.933594 182.542969 578.496094 181.617188 577.570312 C 180.488281 575.464844 177.304688 572.589844 174.789062 570.535156 Z M 153.171875 605.503906 C 144.648438 612.230469 135.507812 617.367188 126.417969 621.832031 C 126.214844 621.628906 126.007812 621.421875 125.800781 621.21875 C 124.828125 620.242188 123.335938 618.804688 121.285156 616.957031 C 120.359375 616.132812 119.382812 615.261719 118.203125 614.285156 C 130.785156 609.355469 151.992188 594.3125 165.085938 572.078125 C 167.804688 574.234375 172.066406 577.570312 175.714844 580.34375 C 169.242188 590.871094 161.488281 598.933594 153.121094 605.503906 Z M 153.171875 605.503906 " fill-opacity="1" fill-rule="nonzero"/><path fill="#000000" d="M 748.71875 361.90625 C 746.972656 356.101562 744.507812 347.21875 743.738281 344.394531 C 743.480469 343.574219 742.917969 342.855469 742.09375 342.496094 C 741.632812 342.289062 735.265625 340.082031 732.75 339.617188 C 702.609375 354.664062 669.488281 354.046875 660.605469 350.144531 C 661.476562 353.019531 664.558594 368.734375 665.328125 370.429688 C 665.6875 371.300781 668.613281 373.765625 670.667969 374.945312 C 671.128906 375.359375 671.695312 375.71875 672.566406 375.769531 C 679.296875 376.4375 686.277344 376.898438 693.417969 376.898438 C 710.15625 376.898438 727.972656 374.332031 747.179688 365.34375 C 748.515625 364.730469 749.179688 363.238281 748.71875 361.851562 Z M 738.808594 362.570312 C 715.652344 371.917969 694.441406 371.96875 674.828125 370.222656 C 674.828125 370.070312 674.828125 369.914062 674.777344 369.710938 C 674.519531 367.808594 674.058594 364.625 672.875 359.953125 C 686.175781 362.46875 713.699219 361.03125 738.964844 349.375 C 739.066406 349.835938 739.21875 350.351562 739.375 350.8125 C 740.246094 353.84375 741.324219 357.746094 742.351562 361.183594 C 741.171875 361.699219 739.988281 362.109375 738.808594 362.570312 Z M 738.808594 362.570312 " fill-opacity="1" fill-rule="nonzero"/><path fill="#000000" d="M 141.875 191.066406 C 142.441406 191.683594 143.210938 191.988281 144.03125 191.988281 C 144.542969 191.988281 145.058594 191.835938 145.519531 191.578125 C 150.808594 188.5 158.871094 184.03125 161.183594 182.746094 L 161.644531 182.492188 C 162.464844 182.027344 162.980469 181.257812 163.132812 180.332031 C 163.183594 179.871094 163.339844 172.9375 163.441406 170.988281 C 139.769531 146.957031 130.9375 116.199219 132.273438 106.957031 C 129.652344 108.496094 114.761719 115.378906 113.273438 116.507812 C 112.503906 117.070312 110.757812 120.5625 110.242188 122.71875 C 110.039062 123.234375 109.933594 123.847656 110.089844 124.621094 C 114.402344 146.03125 121.230469 168.933594 141.925781 191.015625 Z M 116.609375 125.234375 C 118.511719 124.464844 121.644531 123.234375 126.109375 120.871094 C 127.34375 133.914062 136.378906 158.5625 155.480469 179.253906 C 155.070312 179.511719 154.558594 179.769531 154.097656 180.027344 C 151.273438 181.617188 147.730469 183.621094 144.597656 185.367188 C 143.722656 184.390625 143.003906 183.414062 142.183594 182.492188 C 126.214844 163.542969 120 143.925781 116.199219 125.390625 C 116.355469 125.339844 116.457031 125.289062 116.609375 125.234375 Z M 116.609375 125.234375 " fill-opacity="1" fill-rule="nonzero"/><path fill="#fffefe" d="M 499.675781 220.539062 C 482.988281 208.882812 463.886719 204.878906 442.78125 208.371094 C 438.671875 209.039062 434.566406 209.910156 430.304688 211.144531 C 428.609375 211.65625 427.015625 212.222656 425.425781 212.835938 C 424.808594 213.042969 424.191406 213.25 423.628906 213.453125 C 423.730469 213.554688 423.78125 213.609375 423.882812 213.710938 C 424.65625 214.429688 425.425781 215.148438 426.195312 215.765625 C 427.171875 216.535156 428.144531 217.203125 429.226562 217.664062 C 425.628906 247.804688 427.222656 266.035156 425.320312 280.566406 C 410.378906 281.285156 393.742188 281.335938 376.59375 281.285156 C 375.511719 281.285156 374.488281 281.285156 373.40625 281.285156 C 372.433594 281.285156 371.40625 281.285156 370.429688 281.285156 C 369.453125 281.285156 368.425781 281.285156 367.453125 281.285156 C 363.136719 294.6875 360.261719 309.324219 358.671875 324.777344 C 359.492188 325.292969 360.261719 325.804688 361.03125 326.371094 C 361.957031 326.988281 362.832031 327.601562 363.703125 328.21875 C 364.628906 328.886719 365.550781 329.65625 366.476562 330.324219 C 371.304688 334.125 375.71875 338.230469 379.722656 342.699219 C 389.6875 349.890625 398.570312 359.082031 405.605469 370.121094 C 405.605469 364.625 405.859375 359.132812 406.527344 353.6875 C 410.480469 321.492188 428.09375 289.707031 458.492188 291.351562 C 462.292969 291.554688 466.246094 292.632812 470.203125 294.429688 C 471.691406 295.097656 473.179688 295.972656 474.667969 296.84375 C 476.054688 297.71875 477.492188 298.695312 478.878906 299.71875 C 492.539062 310.09375 504.65625 329.453125 507.890625 354.816406 C 511.898438 386.242188 503.066406 416.4375 484.835938 433.535156 C 481.191406 436.925781 477.339844 439.59375 473.386719 441.546875 C 471.945312 442.265625 470.457031 442.882812 468.96875 443.394531 C 467.273438 443.960938 465.632812 444.421875 463.9375 444.730469 C 461.933594 445.089844 459.878906 445.347656 457.878906 445.347656 C 455.875 445.347656 453.820312 445.140625 451.816406 444.78125 C 439.339844 442.367188 429.585938 435.539062 422.292969 426.039062 C 422.496094 430.816406 422.445312 435.746094 422.136719 440.828125 C 420.394531 467.117188 413.613281 487.710938 403.652344 503.628906 C 403.140625 504.449219 402.625 505.269531 402.113281 506.09375 C 410.738281 515.027344 420.496094 521.703125 431.023438 525.8125 C 442.882812 530.382812 455.667969 531.765625 468.917969 529.457031 C 536.957031 517.542969 567.40625 430.402344 562.320312 350.453125 C 561.398438 335.613281 546.710938 253.351562 499.777344 220.539062 Z M 499.675781 220.539062 " fill-opacity="1" fill-rule="nonzero"/><path fill="#fffefe" d="M 739.425781 350.8125 C 739.269531 350.300781 739.117188 349.785156 739.015625 349.375 C 713.699219 361.03125 686.226562 362.46875 672.929688 359.953125 C 674.058594 364.625 674.519531 367.808594 674.828125 369.710938 C 674.828125 369.914062 674.828125 370.070312 674.878906 370.222656 C 694.496094 372.019531 715.703125 371.917969 738.859375 362.570312 C 740.042969 362.109375 741.222656 361.699219 742.402344 361.183594 C 741.375 357.746094 740.296875 353.84375 739.425781 350.8125 Z M 739.425781 350.8125 " fill-opacity="1" fill-rule="nonzero"/><path fill="#fffefe" d="M 362.933594 210.117188 C 341.109375 210.9375 327.605469 210.9375 317.4375 210.988281 C 312.765625 210.988281 308.8125 210.988281 305.0625 211.09375 C 298.488281 211.246094 286.832031 211.453125 273.996094 211.707031 C 251.195312 212.117188 225.523438 212.582031 217.972656 212.890625 C 215.664062 219.511719 210.734375 250.117188 207.089844 272.8125 C 204.519531 288.628906 202.105469 303.621094 200.105469 314.355469 C 196.714844 332.480469 193.839844 348.914062 191.992188 359.851562 C 191.171875 364.574219 190.554688 368.273438 190.144531 370.632812 C 204.570312 373.253906 216.535156 377.824219 227.113281 381.878906 C 231.941406 383.726562 236.5625 385.472656 241.082031 386.960938 C 260.695312 358.105469 285.34375 348.246094 307.167969 360.621094 C 313.84375 364.367188 319.234375 369.554688 323.496094 375.5625 C 338.234375 396.257812 339.105469 427.425781 328.476562 449.609375 C 319.390625 468.554688 299.925781 480.316406 282.007812 477.800781 C 281.75 477.800781 281.441406 477.800781 281.183594 477.695312 C 263.058594 474.769531 250.582031 458.699219 246.574219 433.484375 C 239.488281 435.28125 232.96875 436.824219 226.960938 438.210938 C 211.453125 441.804688 199.28125 444.320312 189.578125 446.324219 C 186.753906 446.886719 184.1875 447.453125 181.773438 447.914062 C 184.699219 467.582031 196.664062 491.355469 221.054688 509.171875 C 232.402344 517.441406 246.421875 524.476562 263.519531 529.199219 C 297.515625 538.546875 332.894531 533.359375 358.15625 515.386719 C 367.761719 508.558594 375.769531 500.085938 382.1875 490.070312 C 382.753906 489.199219 383.214844 488.222656 383.730469 487.300781 C 384.039062 486.785156 384.292969 486.273438 384.550781 485.808594 C 384.859375 485.246094 385.167969 484.730469 385.476562 484.167969 C 385.730469 483.757812 385.9375 483.34375 386.195312 482.882812 C 386.757812 481.804688 387.425781 480.777344 387.941406 479.699219 C 394.976562 465.117188 399.132812 447.863281 400.46875 428.042969 C 402.933594 390.710938 390.457031 358.566406 365.808594 337.566406 C 364.882812 336.792969 363.960938 336.023438 362.984375 335.304688 C 362.058594 334.585938 361.136719 333.867188 360.210938 333.148438 C 359.492188 332.582031 358.722656 332.070312 357.953125 331.558594 C 357.386719 331.144531 356.769531 330.785156 356.15625 330.375 C 355.589844 330.015625 355.023438 329.605469 354.410156 329.195312 C 354.050781 328.988281 353.691406 328.734375 353.332031 328.476562 C 352.664062 328.066406 351.996094 327.757812 351.378906 327.347656 C 329.042969 314.355469 303.058594 310.863281 280.464844 317.179688 C 273.996094 318.976562 267.78125 321.542969 262.082031 324.984375 C 261.160156 325.550781 260.027344 325.550781 259.105469 324.984375 C 258.179688 324.472656 257.617188 323.445312 257.667969 322.417969 C 257.820312 313.226562 258.847656 304.855469 259.925781 296.074219 C 260.851562 288.476562 261.773438 280.617188 262.238281 271.835938 C 262.289062 270.453125 263.367188 269.269531 264.753906 269.066406 C 291.25 265.574219 322.933594 265.625 353.535156 265.675781 C 358.003906 265.675781 362.472656 265.675781 366.835938 265.675781 C 368.121094 265.675781 369.300781 265.675781 370.585938 265.675781 C 371.507812 265.675781 372.382812 265.675781 373.304688 265.675781 C 374.332031 265.675781 375.410156 265.675781 376.4375 265.675781 C 377.464844 265.675781 378.542969 265.675781 379.570312 265.675781 C 380.699219 265.675781 381.726562 265.675781 382.855469 265.675781 C 390.148438 265.574219 397.234375 265.46875 404.011719 265.164062 C 404.578125 259.769531 404.730469 253.710938 404.886719 246.832031 C 404.988281 242.414062 405.140625 237.535156 405.398438 232.195312 C 405.449219 230.808594 405.554688 229.421875 405.605469 227.933594 C 405.707031 226.496094 405.757812 225.007812 405.859375 223.46875 C 405.859375 223.46875 405.859375 223.46875 405.859375 223.414062 C 405.914062 222.386719 406.015625 221.363281 406.066406 220.335938 C 406.167969 219 406.273438 217.664062 406.375 216.277344 C 406.578125 213.660156 406.835938 210.988281 407.144531 208.164062 C 389.273438 209.191406 374.792969 209.859375 362.832031 210.320312 Z M 362.933594 210.117188 " fill-opacity="1" fill-rule="nonzero"/><path fill="#fffefe" d="M 118.253906 614.285156 C 119.433594 615.261719 120.410156 616.132812 121.335938 616.957031 C 123.390625 618.804688 124.878906 620.242188 125.855469 621.21875 C 126.109375 621.472656 126.316406 621.679688 126.46875 621.832031 C 135.558594 617.316406 144.699219 612.179688 153.222656 605.503906 C 161.542969 598.933594 169.296875 590.871094 175.816406 580.34375 C 172.171875 577.570312 167.910156 574.234375 165.1875 572.078125 C 152.042969 594.3125 130.835938 609.355469 118.304688 614.285156 Z M 118.253906 614.285156 " fill-opacity="1" fill-rule="nonzero"/><path fill="#fffefe" d="M 144.597656 185.367188 C 147.730469 183.570312 151.273438 181.566406 154.097656 180.027344 C 154.558594 179.769531 155.070312 179.460938 155.480469 179.253906 C 136.378906 158.613281 127.34375 133.914062 126.109375 120.871094 C 121.644531 123.234375 118.511719 124.464844 116.609375 125.234375 C 116.457031 125.289062 116.304688 125.339844 116.199219 125.390625 C 120.050781 143.925781 126.214844 163.492188 142.183594 182.492188 C 143.003906 183.464844 143.722656 184.441406 144.597656 185.367188 Z M 144.597656 185.367188 " fill-opacity="1" fill-rule="nonzero"/></svg>