<svg xmlns="http://www.w3.org/2000/svg" xmlns:xlink="http://www.w3.org/1999/xlink" width="1000" zoomAndPan="magnify" viewBox="0 0 750 749.999995" height="1000" preserveAspectRatio="xMidYMid meet" version="1.0"><defs><clipPath id="b408f88c81"><path d="M 42 317 L 441 317 L 441 671.660156 L 42 671.660156 Z M 42 317 " clip-rule="nonzero"/></clipPath></defs><path fill="#000000" d="M 601.730469 398.335938 C 602.964844 408.398438 602.257812 417.753906 598.730469 427.289062 C 592.902344 443.707031 571.371094 462.769531 554.246094 466.832031 C 519.296875 474.953125 494.410156 456.769531 478.523438 427.289062 C 457.167969 387.746094 473.933594 343.082031 514.886719 326.664062 L 517.179688 321.191406 C 517.179688 320.308594 508.53125 311.128906 507.121094 309.363281 C 494.058594 293.300781 472.347656 258.523438 486.644531 238.398438 C 499.882812 219.683594 529.535156 236.808594 541.890625 248.460938 C 554.246094 260.109375 557.425781 269.820312 567.839844 278.648438 C 578.253906 287.472656 572.78125 282.707031 575.078125 283.414062 C 576.3125 283.058594 580.902344 272.292969 581.605469 270.351562 C 589.375 247.222656 589.726562 225.335938 606.671875 205.914062 C 623.617188 186.496094 669.511719 190.203125 691.042969 208.917969 C 710.285156 225.6875 711.519531 269.113281 696.691406 288.886719 C 685.574219 303.539062 667.390625 305.480469 651.507812 312.011719 C 635.621094 318.542969 636.324219 318.71875 636.324219 320.308594 C 651.507812 331.785156 668.980469 340.257812 683.277344 352.96875 C 695.632812 363.914062 707.285156 381.390625 697.398438 397.984375 C 687.515625 414.402344 665.273438 411.753906 649.566406 406.808594 C 637.5625 402.925781 625.910156 396.570312 614.792969 390.746094 L 601.730469 398.511719 Z M 613.203125 205.03125 C 605.261719 213.152344 598.199219 227.804688 595.199219 238.574219 C 592.199219 249.34375 587.785156 274.058594 580.019531 283.765625 C 572.253906 293.476562 553.011719 295.59375 560.25 311.835938 C 566.605469 326.3125 581.429688 341.316406 596.082031 347.320312 C 610.730469 353.320312 611.085938 352.96875 615.851562 351.554688 C 621.144531 349.964844 623.617188 333.902344 625.734375 328.78125 C 635.621094 305.128906 675.335938 308.835938 691.75 289.0625 C 701.28125 277.410156 703.929688 252.695312 700.578125 238.398438 C 697.222656 224.097656 686.808594 208.5625 668.273438 200.265625 C 650.269531 192.324219 628.382812 189.496094 613.378906 204.855469 Z M 572.957031 285.355469 C 561.308594 279.351562 554.953125 267.703125 546.835938 258.167969 C 535.890625 245.28125 509.0625 226.921875 492.644531 239.632812 C 473.757812 254.285156 494.410156 286.945312 504.824219 300.890625 C 515.238281 314.835938 529.535156 326.132812 546.480469 338.492188 C 574.722656 358.96875 602.964844 381.917969 635.089844 395.863281 C 651.328125 402.925781 678.160156 412.28125 692.105469 396.746094 C 706.753906 380.332031 690.339844 362.675781 677.277344 352.4375 C 665.628906 343.257812 645.859375 334.429688 636.324219 324.546875 C 635.796875 323.839844 635.089844 321.015625 633.855469 322.605469 C 623.792969 336.726562 631.03125 356.5 607.730469 354.734375 C 584.433594 352.96875 581.253906 344.492188 572.605469 336.375 C 565.191406 329.488281 554.25 312.894531 554.601562 302.65625 C 554.953125 292.417969 568.015625 290.121094 572.605469 286.414062 L 572.957031 285.53125 Z M 612.144531 389.6875 C 612.496094 389.15625 603.847656 384.390625 602.964844 383.859375 C 579.664062 369.03125 554.777344 350.847656 532.535156 334.253906 C 510.296875 317.660156 523.535156 326.132812 518.945312 322.605469 C 514.355469 319.074219 518.417969 321.542969 517.886719 322.425781 C 514.355469 339.375 520.886719 359.851562 531.125 373.445312 C 541.363281 387.039062 558.660156 398.867188 579.136719 399.394531 C 590.785156 399.75 601.90625 395.335938 611.96875 389.863281 Z M 514.710938 329.664062 C 495.46875 336.195312 479.40625 355.617188 475.347656 375.386719 C 463.519531 433.464844 535.359375 497.546875 582.667969 444.941406 C 592.726562 433.820312 596.964844 422.523438 597.671875 407.339844 C 598.375 392.15625 598.199219 400.632812 596.609375 400.632812 C 595.023438 400.632812 591.667969 402.21875 589.902344 402.574219 C 584.429688 403.632812 579.3125 403.808594 573.839844 403.632812 C 578.253906 433.464844 542.597656 452.179688 518.0625 437.527344 C 507.472656 431.171875 499.351562 414.753906 497.410156 402.925781 C 494.761719 385.625 501.472656 365.679688 518.59375 358.617188 C 515.414062 349.261719 513.121094 339.550781 514.710938 329.664062 Z M 520.003906 360.910156 C 510.296875 364.265625 505.355469 372.5625 503.234375 382.273438 C 497.058594 410.515625 521.769531 449.179688 553.71875 434.878906 C 566.25 429.230469 570.488281 415.988281 569.074219 403.101562 C 552.835938 401.867188 541.007812 392.511719 531.125 380.507812 C 526.535156 375.035156 521.769531 367.972656 520.003906 360.910156 Z M 520.003906 360.910156 " fill-opacity="1" fill-rule="nonzero"/><g clip-path="url(#b408f88c81)"><path fill="#000000" d="M 137.679688 317.132812 L 440.222656 438.761719 L 350.90625 671.257812 L 42.363281 552.804688 Z M 46.597656 553.15625 L 346.667969 667.550781 L 435.984375 439.117188 L 140.152344 319.25 L 46.421875 553.15625 Z M 46.597656 553.15625 " fill-opacity="1" fill-rule="nonzero"/></g><path fill="#000000" d="M 321.253906 80.222656 C 340.84375 78.8125 365.734375 83.226562 385.324219 86.753906 C 404.035156 90.109375 414.273438 91.699219 413.566406 113.234375 C 412.863281 134.773438 413.566406 135.832031 412.683594 145.71875 C 411.804688 155.605469 409.332031 161.074219 402.449219 166.546875 L 404.390625 189.496094 C 406.683594 202.914062 411.097656 212.976562 410.039062 226.921875 C 408.273438 248.988281 401.035156 265.761719 380.558594 275.824219 C 360.085938 285.886719 345.082031 293.476562 327.253906 301.242188 C 300.246094 312.894531 245 330.195312 225.9375 298.59375 C 208.109375 268.9375 225.054688 237.515625 247.117188 216.507812 C 259.824219 204.503906 288.421875 182.613281 291.949219 165.84375 C 295.480469 149.070312 291.949219 158.605469 293.363281 155.25 C 287.714844 146.070312 284.539062 133.007812 285.242188 122.0625 C 285.949219 111.117188 286.125 103.351562 288.246094 97.171875 C 292.65625 83.929688 309.074219 81.105469 321.253906 80.222656 Z M 326.371094 83.226562 C 308.542969 84.460938 293.363281 87.460938 292.128906 108.117188 C 290.890625 126.652344 288.773438 156.132812 311.191406 161.957031 C 330.253906 166.902344 353.90625 166.371094 373.5 165.664062 C 381.796875 165.3125 395.210938 166.726562 400.859375 159.488281 C 408.097656 150.484375 406.859375 139.539062 407.566406 128.769531 C 408.097656 121.003906 410.039062 111.46875 409.332031 104.054688 C 408.625 94.875 403.332031 93.464844 395.738281 91.699219 C 390.796875 90.640625 386.207031 90.285156 381.441406 89.402344 C 363.96875 86.226562 343.84375 81.988281 326.195312 83.046875 Z M 297.421875 158.78125 L 297.421875 166.019531 C 297.421875 173.257812 286.125 185.4375 281.359375 190.378906 C 261.945312 210.503906 235.996094 226.921875 226.816406 254.460938 C 217.640625 282 232.289062 316.070312 266.886719 314.484375 C 301.484375 312.894531 334.667969 294.003906 365.203125 279.351562 C 395.738281 264.699219 389.03125 270.171875 397.152344 256.582031 C 405.273438 242.988281 405.273438 233.101562 405.800781 223.921875 C 406.507812 210.152344 399.976562 197.265625 399.269531 183.496094 C 398.5625 169.726562 399.625 173.433594 399.625 168.667969 L 399.09375 167.785156 C 391.679688 170.433594 383.738281 170.078125 375.972656 170.433594 C 356.90625 171.136719 337.84375 171.492188 319.132812 168.136719 C 311.367188 166.726562 303.777344 164.253906 297.597656 159.132812 Z M 297.421875 158.78125 " fill-opacity="1" fill-rule="nonzero"/><path fill="#000000" d="M 162.746094 188.792969 C 162.390625 188.792969 161.863281 188.085938 161.15625 188.4375 L 161.683594 186.851562 L 170.6875 179.082031 C 170.335938 175.375 169.097656 170.609375 168.921875 166.902344 C 168.746094 163.195312 169.097656 164.078125 171.394531 164.078125 C 175.101562 164.078125 178.628906 168.84375 181.808594 170.609375 C 184.632812 168.667969 190.457031 161.429688 194.339844 164.253906 C 198.222656 167.078125 192.75 174.84375 193.105469 177.316406 C 195.046875 179.789062 198.046875 181.199219 200.164062 183.320312 C 202.28125 185.4375 201.929688 184.730469 201.578125 185.4375 C 197.164062 188.4375 191.164062 184.90625 186.042969 187.378906 C 184.632812 190.558594 182.691406 193.558594 181.101562 196.734375 C 179.511719 199.914062 180.042969 202.386719 177.042969 202.738281 C 174.039062 203.089844 174.570312 202.738281 174.039062 201.855469 C 172.628906 198.675781 173.335938 192.5 172.804688 188.96875 C 169.628906 188.617188 165.746094 189.320312 162.566406 188.96875 Z M 189.574219 169.550781 C 186.21875 170.609375 185.515625 173.964844 181.453125 173.964844 C 177.394531 173.964844 177.042969 170.609375 174.21875 169.550781 C 174.746094 172.902344 175.628906 176.433594 174.746094 179.964844 C 172.097656 181.730469 169.273438 183.496094 167.15625 185.789062 C 165.039062 188.085938 166.273438 186.144531 166.449219 187.027344 C 166.980469 187.378906 175.277344 185.085938 176.160156 188.085938 L 177.746094 192.675781 L 181.453125 185.789062 C 185.160156 184.203125 189.398438 183.671875 193.28125 183.496094 C 191.339844 181.378906 188.515625 179.789062 187.457031 176.964844 L 189.398438 169.550781 Z M 189.574219 169.550781 " fill-opacity="1" fill-rule="nonzero"/><path fill="#000000" d="M 34.242188 480.425781 C 32.832031 481.835938 26.652344 482.191406 24.535156 481.484375 L 17.296875 494.722656 C 9.53125 497.019531 11.648438 487.664062 10.414062 482.894531 C 9.355469 482.191406 0.882812 486.957031 0 482.894531 L 9.53125 471.949219 C 8.824219 467.890625 6.707031 464.007812 7.414062 459.59375 C 12.003906 458.179688 14.652344 462.59375 18.535156 463.832031 C 21.535156 462.066406 24.359375 459.0625 28.066406 459.417969 C 31.773438 459.769531 30.359375 461.535156 30.007812 464.007812 C 29.652344 466.476562 28.949219 469.480469 27.890625 471.949219 C 30.007812 473.894531 32.476562 475.835938 34.066406 478.304688 C 35.65625 480.777344 34.949219 479.71875 34.066406 480.246094 Z M 20.652344 479.1875 L 28.769531 479.1875 C 28.242188 475.65625 24.710938 474.773438 22.945312 472.304688 L 24.886719 464.359375 C 20.300781 469.304688 16.945312 467.359375 12.355469 464.007812 L 13.589844 473.363281 C 13.238281 474.953125 9.003906 478.128906 7.765625 479.71875 C 6.53125 481.308594 6.882812 480.246094 7.058594 480.953125 C 7.414062 481.308594 14.121094 477.953125 15.53125 483.074219 C 16.945312 488.191406 15.179688 486.957031 16.59375 486.601562 C 17.296875 484.835938 18.886719 479.542969 20.652344 479.1875 Z M 20.652344 479.1875 " fill-opacity="1" fill-rule="nonzero"/><path fill="#000000" d="M 455.578125 588.816406 C 456.285156 589.523438 456.8125 598.703125 456.988281 600.46875 C 459.992188 600.996094 463.699219 601.171875 466.519531 602.054688 C 475.171875 604.703125 459.109375 609.648438 458.402344 610.882812 L 458.402344 624.296875 C 454.164062 627.476562 449.578125 616.707031 447.28125 616.355469 C 444.105469 616.355469 433.160156 621.121094 431.21875 618.296875 C 432.277344 613.882812 435.277344 610.351562 437.21875 606.46875 C 437.042969 605.410156 429.628906 600.289062 428.570312 598.523438 C 427.511719 596.757812 428.042969 597.640625 428.21875 596.9375 L 443.929688 595.878906 C 446.222656 595.523438 446.929688 593.230469 448.339844 591.640625 C 449.753906 590.050781 452.929688 586.167969 455.578125 588.816406 Z M 463.519531 603.644531 C 461.050781 603.113281 454.695312 603.292969 453.105469 601.703125 C 451.519531 600.113281 452.578125 592.875 451.164062 592.699219 L 447.457031 595.347656 L 447.8125 596.757812 C 446.046875 598.878906 443.398438 597.820312 441.105469 597.820312 C 438.808594 597.820312 435.808594 598.523438 433.160156 598.347656 C 433.160156 599.230469 433.691406 599.585938 434.21875 600.113281 C 435.457031 601.347656 441.28125 605.054688 441.457031 606.46875 L 436.160156 616.179688 C 437.042969 616.882812 444.988281 613.53125 446.753906 613.53125 C 449.578125 613.53125 451.519531 616.179688 453.460938 617.765625 C 453.988281 615.472656 452.402344 611.058594 453.460938 609.292969 C 454.519531 607.527344 462.285156 606.46875 463.34375 603.46875 Z M 463.519531 603.644531 " fill-opacity="1" fill-rule="nonzero"/><path fill="#000000" d="M 733.230469 310.246094 C 734.289062 311.480469 735.527344 317.835938 736.761719 318.542969 C 738.878906 318.542969 748.585938 316.601562 749.292969 319.074219 C 750 321.542969 749.292969 319.957031 748.941406 320.308594 C 747.527344 322.25 739.234375 328.605469 739.054688 329.488281 C 738.878906 333.550781 742.9375 343.433594 735.171875 340.082031 C 732.878906 339.019531 731.644531 336.726562 729.523438 335.667969 C 728.464844 335.667969 723.347656 340.964844 721.582031 341.492188 C 719.816406 342.023438 716.640625 342.023438 716.285156 340.082031 C 715.933594 338.140625 721.226562 329.488281 720.699219 328.605469 C 718.582031 327.722656 714.875 327.195312 712.933594 326.132812 C 710.992188 325.074219 711.695312 325.605469 712.050781 324.546875 C 712.402344 323.308594 722.992188 320.660156 724.933594 320.308594 C 725.464844 318.71875 726.523438 316.953125 726.875 315.542969 C 727.230469 314.128906 726.699219 313.953125 726.875 313.777344 C 727.054688 313.246094 727.9375 313.246094 728.113281 313.070312 C 728.289062 312.894531 727.40625 310.953125 728.820312 309.71875 C 730.230469 308.480469 732.523438 309.363281 733.230469 310.246094 Z M 742.9375 320.484375 C 739.761719 320.308594 735.347656 323.132812 732.878906 319.777344 C 730.40625 316.425781 730.9375 314.660156 730.230469 315.1875 C 729.523438 316.777344 728.289062 321.367188 727.230469 322.425781 C 726.171875 323.488281 718.582031 323.488281 716.816406 325.78125 C 718.226562 325.957031 724.230469 327.546875 724.933594 328.429688 C 725.816406 329.839844 723.171875 333.550781 723.347656 335.3125 C 723.699219 335.667969 726.523438 333.195312 727.230469 332.84375 C 730.582031 331.785156 732.878906 334.078125 734.996094 336.195312 C 735.347656 334.078125 733.585938 329.839844 734.46875 328.078125 C 735.347656 326.3125 741.703125 322.425781 742.761719 320.660156 Z M 742.9375 320.484375 " fill-opacity="1" fill-rule="nonzero"/><path fill="#000000" d="M 427.160156 390.214844 C 430.160156 389.332031 434.75 391.628906 437.042969 393.570312 C 440.574219 396.570312 440.75 399.042969 438.28125 402.925781 C 432.984375 411.046875 415.507812 405.042969 424.160156 393.039062 C 432.808594 381.035156 426.628906 390.214844 427.335938 390.039062 Z M 428.570312 392.6875 C 425.746094 393.570312 424.511719 404.691406 430.160156 403.984375 C 435.808594 403.28125 434.75 399.21875 434.394531 396.925781 C 434.042969 394.628906 430.335938 392.335938 428.570312 392.863281 Z M 428.570312 392.6875 " fill-opacity="1" fill-rule="nonzero"/><path fill="#000000" d="M 527.242188 134.066406 C 531.476562 133.183594 541.1875 138.832031 538.007812 143.953125 C 534.832031 148.894531 527.949219 149.777344 523.535156 145.894531 C 519.121094 142.011719 522.828125 135.125 527.242188 134.066406 Z M 529.007812 136.714844 C 524.066406 139.363281 524.769531 148.894531 531.125 143.953125 C 537.480469 139.007812 533.417969 137.242188 529.007812 136.714844 Z M 529.007812 136.714844 " fill-opacity="1" fill-rule="nonzero"/><path fill="#000000" d="M 534.125 568.515625 C 537.125 568.515625 542.246094 570.808594 542.597656 574.164062 C 542.953125 577.519531 541.714844 579.636719 540.480469 581.046875 C 537.125 585.109375 528.652344 583.34375 525.652344 579.8125 C 522.652344 576.28125 529.007812 568.335938 534.125 568.515625 Z M 533.242188 570.632812 C 532.890625 570.632812 529.007812 573.28125 528.832031 573.632812 C 525.300781 578.753906 533.417969 584.753906 536.773438 578.929688 C 540.128906 573.105469 538.183594 575.222656 538.183594 574.164062 C 538.183594 572.398438 535.007812 569.925781 533.242188 570.457031 Z M 533.242188 570.632812 " fill-opacity="1" fill-rule="nonzero"/><path fill="#000000" d="M 479.761719 508.492188 C 480.996094 509.730469 481.523438 512.023438 481.171875 513.613281 C 480.820312 515.203125 477.640625 517.847656 476.9375 518.203125 C 472.875 521.027344 465.109375 518.910156 465.460938 513.789062 C 465.816406 508.667969 467.226562 508.316406 467.757812 507.964844 C 468.285156 507.609375 468.816406 507.964844 469.34375 507.785156 C 470.933594 506.726562 470.40625 504.785156 473.582031 505.316406 C 476.757812 505.84375 479.054688 507.609375 479.761719 508.492188 Z M 468.640625 508.847656 C 468.640625 508.847656 468.992188 509.730469 468.992188 510.257812 C 468.816406 512.023438 467.933594 512.730469 468.992188 514.847656 C 471.109375 520.320312 476.582031 514.847656 476.582031 512.023438 C 476.582031 509.199219 473.230469 506.199219 470.933594 507.257812 C 468.640625 508.316406 470.226562 508.316406 469.875 508.492188 C 469.523438 508.667969 468.816406 508.492188 468.640625 508.492188 Z M 468.640625 508.847656 " fill-opacity="1" fill-rule="nonzero"/><path fill="#000000" d="M 49.953125 344.140625 C 61.425781 343.082031 56.835938 356.675781 47.304688 356.5 C 37.773438 356.320312 39.363281 354.203125 41.304688 350.320312 C 44.128906 349.964844 43.597656 352.085938 45.1875 353.496094 C 48.894531 356.5 53.308594 349.613281 50.128906 346.789062 C 48.1875 347.140625 46.246094 347.496094 44.480469 347.496094 C 42.714844 347.496094 42.539062 347.847656 42.714844 346.964844 C 42.890625 346.082031 48.894531 344.316406 49.953125 344.316406 Z M 49.953125 344.140625 " fill-opacity="1" fill-rule="nonzero"/><path fill="#000000" d="M 10.0625 597.640625 C 10.0625 597.640625 13.238281 595.171875 13.414062 595.347656 C 14.121094 596.9375 12.53125 597.113281 12.53125 597.640625 C 12.53125 601.347656 17.476562 603.644531 19.945312 600.644531 C 23.828125 595.878906 18.710938 593.933594 14.828125 593.050781 L 14.828125 591.816406 C 21.003906 591.464844 30.183594 594.816406 24.183594 601.878906 C 18.179688 608.941406 19.59375 604.351562 16.414062 603.996094 C 13.238281 603.644531 7.941406 601.347656 10.238281 597.640625 Z M 10.0625 597.640625 " fill-opacity="1" fill-rule="nonzero"/><path fill="#000000" d="M 173.335938 277.941406 C 176.335938 277.589844 181.984375 279.351562 181.101562 283.238281 C 179.335938 292.0625 162.039062 288.710938 168.390625 280.941406 C 174.746094 273.175781 171.921875 278.117188 173.335938 277.941406 Z M 175.101562 281.117188 C 174.746094 280.765625 171.921875 279.53125 171.570312 279.707031 C 170.511719 280.234375 171.570312 282 169.980469 281.824219 L 169.980469 282.707031 C 171.214844 282.707031 169.980469 285.003906 172.097656 285.886719 C 175.101562 287.296875 176.511719 282.53125 175.101562 280.941406 Z M 175.101562 281.117188 " fill-opacity="1" fill-rule="nonzero"/><path fill="#000000" d="M 43.421875 350.144531 C 42.539062 350.320312 41.128906 349.4375 41.304688 348.554688 C 41.65625 346.964844 43.953125 349.613281 43.421875 350.144531 Z M 43.421875 350.144531 " fill-opacity="1" fill-rule="nonzero"/><path fill="#000000" d="M 690.691406 269.113281 C 690.339844 269.46875 688.398438 269.820312 688.042969 269.644531 C 686.457031 269.113281 687.515625 260.992188 687.339844 259.050781 C 686.984375 254.285156 685.574219 247.929688 684.515625 243.164062 C 683.453125 238.398438 682.21875 236.632812 682.042969 234.691406 C 681.867188 232.75 684.691406 232.925781 685.925781 234.335938 C 690.339844 238.75 692.988281 256.050781 692.457031 262.054688 C 691.925781 268.054688 691.222656 268.585938 690.691406 269.113281 Z M 690.691406 269.113281 " fill-opacity="1" fill-rule="nonzero"/><path fill="#000000" d="M 550.011719 330.546875 L 573.3125 347.847656 C 577.722656 351.554688 585.667969 354.734375 589.726562 358.441406 C 593.785156 362.148438 592.375 362.5 589.199219 361.441406 C 580.195312 358.617188 565.015625 346.4375 557.777344 339.902344 C 550.542969 333.371094 552.128906 334.609375 550.894531 333.019531 C 549.660156 331.429688 549.835938 331.605469 550.011719 330.546875 Z M 550.011719 330.546875 " fill-opacity="1" fill-rule="nonzero"/><path fill="#000000" d="M 589.726562 389.15625 L 590.433594 390.214844 C 589.902344 392.15625 588.316406 392.15625 586.550781 392.511719 C 577.195312 394.453125 561.839844 392.15625 553.71875 387.039062 C 552.660156 386.332031 547.363281 381.742188 548.246094 380.507812 C 552.835938 382.09375 557.070312 384.566406 561.660156 385.980469 C 566.25 387.390625 572.78125 389.15625 574.546875 389.15625 Z M 589.726562 389.15625 " fill-opacity="1" fill-rule="nonzero"/><path fill="#000000" d="M 143.503906 337.960938 C 144.738281 336.550781 149.328125 338.667969 151.09375 339.199219 C 163.804688 343.433594 176.6875 348.90625 189.222656 353.671875 C 259.472656 380.507812 329.726562 407.515625 399.445312 435.585938 C 403.859375 437.351562 409.859375 439.292969 413.921875 441.410156 C 417.980469 443.527344 415.507812 442.292969 416.214844 443.175781 L 343.316406 638.246094 L 70.074219 533.207031 L 143.503906 338.140625 Z M 221.347656 376.09375 C 221.523438 374.152344 218.875 373.269531 217.285156 372.5625 C 208.992188 368.855469 198.046875 365.148438 189.222656 361.792969 C 178.453125 357.910156 166.628906 353.144531 155.507812 350.320312 C 144.386719 347.496094 152.507812 349.4375 150.742188 349.613281 C 152.328125 351.203125 155.332031 352.085938 157.625 352.96875 C 174.570312 359.675781 192.75 366.738281 209.871094 372.914062 C 211.285156 373.445312 220.640625 376.621094 221.167969 376.269531 Z M 146.152344 359.675781 C 145.269531 360.382812 149.503906 362.851562 149.859375 363.03125 C 159.039062 368.148438 178.984375 375.917969 189.222656 378.386719 C 199.457031 380.859375 192.398438 379.449219 192.574219 378.386719 C 192.046875 376.621094 190.105469 376.09375 188.691406 375.386719 C 184.632812 373.445312 180.21875 372.5625 176.160156 370.972656 C 166.097656 367.089844 156.390625 362.851562 146.152344 359.5 Z M 189.042969 386.15625 C 189.398438 384.742188 187.984375 384.214844 186.925781 383.683594 C 178.453125 378.917969 154.800781 370.089844 145.269531 368.324219 C 135.738281 366.5625 143.679688 367.621094 143.679688 368.503906 C 143.679688 369.386719 145.976562 370.445312 146.679688 370.621094 C 159.390625 376.445312 174.21875 380.332031 186.925781 385.980469 L 188.691406 385.980469 Z M 182.511719 392.15625 C 182.511719 391.453125 182.511719 391.097656 182.160156 390.570312 C 180.925781 388.804688 170.335938 386.15625 167.511719 385.097656 C 158.332031 381.742188 149.328125 377.683594 139.445312 376.445312 C 138.738281 376.976562 141.386719 378.210938 141.5625 378.386719 C 145.800781 380.332031 151.09375 381.390625 155.507812 382.976562 C 159.921875 384.566406 165.039062 387.214844 169.980469 388.980469 C 174.921875 390.746094 181.453125 393.039062 182.335938 391.980469 Z M 143.503906 392.6875 C 145.09375 391.273438 135.386719 388.804688 134.503906 389.6875 L 112.96875 440.882812 L 112.96875 443 C 112.96875 443 120.382812 444.765625 120.382812 444.765625 C 121.441406 444.234375 120.382812 443.351562 119.675781 442.824219 C 118.96875 442.292969 117.378906 442.117188 116.144531 442.117188 L 117.910156 436.46875 C 120.382812 436.46875 122.144531 438.234375 124.792969 437.703125 C 124.792969 434.878906 120.558594 435.230469 118.792969 434.527344 L 121.441406 428.171875 C 123.910156 428.699219 126.382812 430.289062 128.855469 429.40625 C 128.148438 427.113281 124.792969 427.113281 122.851562 426.757812 L 125.851562 419.167969 C 126.382812 418.8125 131.855469 421.460938 131.855469 419.695312 C 131.855469 417.933594 126.734375 417.578125 126.558594 417.050781 L 129.207031 411.046875 L 134.503906 411.046875 C 135.386719 408.753906 130.265625 409.457031 130.089844 408.398438 L 133.265625 401.160156 L 138.738281 401.691406 C 139.796875 400.808594 135.03125 399.21875 134.324219 399.570312 C 134.148438 399.21875 136.796875 392.6875 137.148438 392.15625 C 138.03125 391.097656 141.914062 393.21875 143.503906 392.511719 Z M 146.679688 511.671875 C 151.800781 516.4375 156.566406 521.910156 161.863281 526.144531 C 196.105469 554.214844 247.292969 567.277344 290.890625 568.691406 C 308.71875 569.21875 325.664062 566.394531 342.785156 562.335938 C 344.550781 561.984375 345.789062 561.101562 347.730469 561.277344 L 348.433594 560.746094 C 346.316406 556.15625 345.609375 550.507812 344.90625 545.566406 C 341.902344 522.792969 341.902344 499.488281 339.609375 476.894531 C 337.316406 454.296875 337.136719 458.179688 335.902344 456.59375 C 334.136719 454.472656 327.253906 455.535156 324.605469 455.355469 C 285.949219 452.707031 241.292969 437.703125 208.285156 417.226562 C 202.636719 413.695312 196.988281 408.574219 191.515625 405.398438 C 186.042969 402.21875 187.632812 403.632812 183.925781 406.808594 C 177.394531 412.636719 170.15625 417.929688 163.625 423.757812 C 147.917969 437.703125 132.738281 452.53125 117.378906 466.832031 C 102.023438 481.128906 111.203125 472.304688 115.085938 479.011719 C 121.617188 490.664062 136.445312 502.492188 146.152344 511.671875 Z M 339.960938 428.347656 C 340.140625 429.054688 340.84375 429.40625 341.375 429.757812 C 344.199219 431.523438 359.378906 438.234375 362.378906 438.761719 C 365.378906 439.292969 363.792969 437.171875 361.851562 436.113281 C 357.4375 433.820312 348.789062 430.820312 344.023438 429.230469 C 339.257812 427.640625 341.375 428.171875 339.960938 428.347656 Z M 402.449219 450.238281 C 401.917969 449.707031 398.917969 448.472656 397.859375 448.117188 C 389.914062 444.941406 378.441406 441.058594 370.144531 438.9375 C 361.851562 436.820312 366.96875 437.878906 365.203125 438.054688 C 365.027344 440 367.320312 440.882812 368.734375 441.585938 C 375.617188 444.589844 386.738281 447.941406 394.152344 450.0625 C 401.566406 452.179688 399.976562 452.003906 401.386719 452.003906 C 402.800781 452.003906 402.449219 452.003906 402.800781 451.296875 C 402.449219 451.121094 402.449219 450.589844 402.269531 450.414062 Z M 399.976562 462.59375 C 399.976562 460.652344 397.859375 459.769531 396.269531 459.0625 C 390.796875 456.59375 380.914062 453.238281 374.910156 451.296875 C 368.910156 449.355469 372.265625 450.414062 370.851562 450.414062 C 370.675781 451.472656 372.265625 452.003906 372.96875 452.355469 C 381.441406 456.769531 390.796875 459.945312 399.976562 462.59375 Z M 396.09375 468.773438 C 396.09375 467.890625 396.09375 467.714844 395.386719 467.007812 C 394.328125 466.125 389.5625 464.714844 387.972656 464.007812 C 383.03125 462.066406 375.972656 459.59375 370.851562 458.359375 C 365.734375 457.121094 369.441406 458.003906 368.734375 458.179688 C 368.558594 459.417969 369.085938 458.886719 369.617188 459.242188 C 374.382812 462.066406 382.5 464.890625 387.796875 466.832031 C 393.09375 468.773438 393.445312 469.125 396.09375 468.597656 Z M 357.4375 550.15625 C 356.203125 551.390625 361.671875 553.507812 362.730469 553.863281 C 363.792969 554.214844 365.378906 555.097656 366.085938 553.863281 C 368.203125 548.742188 370.324219 543.625 372.441406 538.503906 C 378.796875 522.261719 386.5625 503.902344 391.855469 487.484375 C 392.210938 486.25 394.328125 479.363281 394.328125 478.660156 C 394.328125 476.011719 385.324219 474.773438 383.207031 474.773438 C 381.089844 474.773438 381.621094 476.363281 382.855469 477.246094 C 384.089844 478.128906 386.738281 478.304688 387.445312 478.660156 C 388.148438 479.011719 386.914062 485.367188 386.207031 486.601562 C 385.324219 487.132812 380.382812 484.660156 379.324219 486.601562 L 385.324219 489.074219 L 383.03125 496.3125 C 381.265625 495.605469 379.324219 495.429688 377.558594 495.253906 C 375.792969 495.078125 375.792969 494.898438 375.792969 495.78125 C 375.792969 497.195312 381.089844 497.902344 382.324219 498.253906 L 379.5 506.023438 L 373.148438 504.257812 C 371.734375 505.667969 377.914062 507.785156 378.796875 507.785156 L 377.03125 513.964844 L 369.085938 513.4375 C 370.324219 515.554688 373.324219 516.261719 375.617188 516.4375 L 373.5 523.851562 L 366.617188 522.085938 C 365.734375 524.382812 372.792969 525.792969 372.617188 526.144531 L 369.96875 532.855469 L 363.085938 531.617188 C 362.378906 534.445312 369.085938 534.796875 369.085938 535.679688 L 366.085938 543.800781 C 365.027344 543.445312 359.027344 541.152344 358.671875 542.742188 C 358.320312 544.328125 363.96875 545.210938 364.675781 546.269531 C 364.675781 546.625 363.085938 550.859375 362.730469 551.214844 C 361.851562 552.273438 358.671875 549.625 357.261719 550.332031 Z M 131.679688 528.265625 C 131.679688 527.558594 131.679688 527.207031 131.324219 526.675781 C 130.617188 525.792969 122.675781 522.617188 120.910156 521.910156 C 110.496094 517.671875 99.90625 513.789062 89.136719 510.789062 C 88.257812 511.671875 92.316406 513.4375 92.667969 513.613281 C 96.90625 515.554688 102.023438 516.964844 106.613281 518.910156 C 113.144531 521.554688 120.910156 525.617188 127.441406 527.558594 C 133.972656 529.5 130.265625 528.441406 131.855469 528.265625 Z M 126.914062 536.207031 C 126.914062 534.089844 124.617188 533.207031 123.027344 532.5 C 114.734375 528.617188 95.847656 520.851562 87.375 518.910156 C 78.902344 516.964844 85.960938 518.554688 85.253906 518.730469 C 85.253906 519.613281 85.960938 519.96875 86.492188 520.320312 C 87.726562 521.203125 90.019531 522.085938 91.433594 522.792969 C 99.554688 526.5 116.320312 534.089844 124.265625 536.03125 C 132.207031 537.972656 126.03125 536.386719 126.914062 536.207031 Z M 342.082031 603.644531 C 342.433594 602.230469 341.550781 602.054688 340.492188 601.527344 C 336.433594 599.40625 329.902344 596.757812 325.664062 594.996094 C 321.429688 593.230469 318.25 592.347656 314.722656 591.464844 C 315.074219 592.347656 316.132812 592.875 317.015625 593.40625 C 320.371094 595.347656 336.609375 602.9375 339.960938 603.644531 C 343.316406 604.351562 341.550781 603.644531 342.257812 603.644531 Z M 338.550781 608.410156 C 326.019531 602.054688 312.601562 597.820312 299.1875 593.933594 C 299.1875 594.996094 300.246094 595.347656 301.128906 595.699219 C 305.71875 597.996094 311.542969 599.40625 316.308594 601.347656 C 321.074219 603.292969 330.078125 607.703125 335.902344 609.46875 C 341.726562 611.234375 338.019531 610 339.257812 609.824219 L 338.726562 608.234375 Z M 295.65625 601.347656 C 302.367188 604.703125 309.425781 607.351562 316.308594 610.527344 C 323.195312 613.707031 330.785156 618.296875 333.253906 618.296875 C 335.726562 618.296875 334.136719 618.472656 334.667969 617.765625 C 334.136719 617.238281 333.609375 616.53125 332.902344 616 C 328.3125 613.175781 319.839844 609.46875 314.722656 607.351562 C 309.601562 605.234375 302.011719 602.585938 295.835938 600.113281 L 295.835938 601.347656 Z M 295.65625 601.347656 " fill-opacity="1" fill-rule="nonzero"/><path fill="#000000" d="M 365.203125 220.039062 C 365.910156 220.566406 360.4375 230.804688 357.4375 228.6875 C 356.554688 227.804688 362.378906 218.625 365.203125 220.039062 Z M 365.203125 220.039062 " fill-opacity="1" fill-rule="nonzero"/><path fill="#000000" d="M 252.589844 262.582031 C 251.175781 264.171875 242.351562 260.816406 242.175781 257.816406 C 243.058594 257.816406 243.941406 257.816406 244.824219 257.816406 C 245.703125 257.816406 253.648438 261.171875 252.589844 262.40625 Z M 252.589844 262.582031 " fill-opacity="1" fill-rule="nonzero"/><path fill="#000000" d="M 275.183594 294.359375 C 272.710938 295.242188 270.238281 290.652344 269.179688 288.886719 C 267.59375 285.707031 270.945312 286.238281 272.535156 288.179688 C 274.125 290.121094 275.710938 294.003906 275.183594 294.535156 Z M 275.183594 294.359375 " fill-opacity="1" fill-rule="nonzero"/><path fill="#000000" d="M 281.714844 308.835938 C 277.652344 309.894531 276.949219 304.421875 276.949219 301.417969 C 279.59375 300.007812 282.066406 308.480469 281.714844 308.835938 Z M 281.714844 308.835938 " fill-opacity="1" fill-rule="nonzero"/><path fill="#000000" d="M 355.671875 239.988281 C 356.730469 242.988281 356.023438 244.578125 355.320312 247.578125 L 353.199219 248.285156 C 353.90625 247.222656 352.847656 246.695312 352.847656 245.8125 C 352.671875 244.398438 354.4375 238.398438 355.847656 239.988281 Z M 355.671875 239.988281 " fill-opacity="1" fill-rule="nonzero"/><path fill="#000000" d="M 381.796875 209.976562 C 382.855469 210.859375 375.617188 215.449219 374.558594 215.625 C 373.5 215.800781 373.324219 215.273438 372.792969 215.273438 C 374.910156 212.269531 378.441406 210.328125 381.972656 209.976562 Z M 381.796875 209.976562 " fill-opacity="1" fill-rule="nonzero"/><path fill="#000000" d="M 399.09375 203.089844 C 399.800781 203.796875 398.5625 203.972656 398.210938 204.148438 C 396.269531 205.210938 392.738281 207.152344 390.796875 205.386719 C 390.796875 203.796875 397.859375 201.855469 399.09375 202.914062 Z M 399.09375 203.089844 " fill-opacity="1" fill-rule="nonzero"/><path fill="#000000" d="M 237.410156 254.460938 C 236.703125 257.109375 229.113281 254.816406 229.113281 253.757812 C 229.996094 252.167969 236.878906 253.757812 237.410156 254.460938 Z M 237.410156 254.460938 " fill-opacity="1" fill-rule="nonzero"/><path fill="#000000" d="M 261.238281 274.941406 C 260.707031 274.410156 260.179688 274.941406 259.121094 273.351562 C 258.0625 271.761719 258.0625 270.703125 258.941406 270.527344 C 260.355469 270.351562 259.472656 272.117188 260.003906 272.46875 C 260.53125 272.820312 261.414062 272.46875 262.121094 273.351562 C 262.828125 274.234375 263.53125 276.175781 263.53125 276.351562 L 262.472656 277.058594 C 261.589844 276.707031 261.589844 275.292969 261.238281 274.941406 Z M 261.238281 274.941406 " fill-opacity="1" fill-rule="nonzero"/><path fill="#000000" d="M 361.671875 275.644531 L 360.4375 276 L 359.027344 274.234375 L 360.4375 273.878906 L 360.613281 272.644531 Z M 361.671875 275.644531 " fill-opacity="1" fill-rule="nonzero"/><path fill="#000000" d="M 357.261719 264.347656 C 356.378906 265.582031 354.789062 263.996094 355.140625 262.757812 C 356.378906 263.816406 357.085938 261.875 357.613281 261.875 C 358.671875 261.875 357.4375 264.171875 357.261719 264.347656 Z M 357.261719 264.347656 " fill-opacity="1" fill-rule="nonzero"/><path fill="#000000" d="M 356.90625 260.992188 L 356.90625 261.523438 L 356.203125 262.230469 L 354.789062 261.875 L 354.789062 260.992188 Z M 356.90625 260.992188 " fill-opacity="1" fill-rule="nonzero"/><path fill="#000000" d="M 327.78125 84.992188 C 343.316406 84.460938 360.789062 86.402344 376.148438 89.402344 C 391.503906 92.40625 402.976562 95.582031 405.273438 101.054688 C 407.566406 106.527344 402.800781 108.292969 397.859375 109.175781 C 381.089844 111.824219 345.082031 105.113281 327.078125 102.289062 C 320.898438 101.230469 308.367188 99.464844 303.953125 95.050781 C 299.539062 90.640625 301.304688 91.523438 303.070312 89.757812 C 307.308594 85.871094 321.78125 85.34375 327.605469 85.167969 Z M 327.78125 84.992188 " fill-opacity="1" fill-rule="nonzero"/><path fill="#000000" d="M 387.796875 128.242188 L 386.914062 128.242188 C 388.855469 130.710938 388.328125 135.480469 388.328125 138.480469 C 387.796875 146.421875 386.03125 155.25 382.324219 162.136719 C 380.558594 161.605469 379.148438 161.605469 379.148438 159.488281 C 381.796875 149.070312 383.914062 138.65625 385.503906 128.0625 C 385.855469 126.828125 387.796875 126.652344 387.621094 128.242188 Z M 387.796875 128.242188 " fill-opacity="1" fill-rule="nonzero"/><path fill="#000000" d="M 344.375 120.472656 C 344.90625 120.472656 345.433594 122.0625 345.609375 122.59375 C 347.730469 132.125 347.199219 146.601562 345.609375 156.308594 C 344.023438 166.019531 345.257812 159.132812 344.199219 159.132812 C 343.140625 159.132812 342.082031 158.074219 341.902344 157.015625 C 341.375 154.722656 341.726562 148.367188 341.902344 145.71875 C 341.902344 141.832031 342.433594 137.066406 342.785156 133.183594 C 343.140625 129.300781 344.023438 124.710938 344.550781 120.296875 Z M 344.375 120.472656 " fill-opacity="1" fill-rule="nonzero"/><path fill="#000000" d="M 398.210938 123.121094 C 399.625 128.0625 399.269531 134.242188 398.5625 139.363281 C 397.859375 144.480469 395.738281 152.601562 394.152344 156.308594 C 392.5625 160.015625 392.914062 158.074219 391.679688 157.898438 C 389.386719 156.839844 390.269531 154.367188 390.621094 152.25 C 392.210938 142.894531 395.738281 133.359375 397.152344 124.003906 L 398.386719 123.296875 Z M 398.210938 123.121094 " fill-opacity="1" fill-rule="nonzero"/><path fill="#000000" d="M 358.671875 124.355469 L 359.554688 134.949219 C 359.554688 137.242188 357.261719 157.898438 355.320312 157.722656 C 354.613281 157.546875 353.199219 156.664062 353.023438 156.132812 C 352.847656 155.605469 353.378906 150.660156 353.378906 149.601562 C 354.082031 141.480469 356.203125 133.007812 357.261719 124.886719 L 358.496094 124.179688 Z M 358.671875 124.355469 " fill-opacity="1" fill-rule="nonzero"/><path fill="#000000" d="M 302.542969 145.1875 L 300.777344 144.480469 C 299.894531 140.246094 299.011719 135.832031 298.660156 131.59375 C 298.304688 127.359375 297.777344 117.472656 299.1875 113.058594 C 300.601562 108.644531 300.777344 112.351562 299.542969 109.882812 C 300.953125 109.527344 300.070312 108.644531 300.421875 107.410156 C 300.953125 107.410156 301.304688 107.410156 301.484375 108.117188 C 301.660156 108.820312 302.011719 112 302.011719 112.882812 C 302.542969 120.296875 302.71875 129.652344 302.542969 137.242188 C 302.367188 144.835938 301.484375 142.539062 302.542969 145.1875 Z M 302.542969 145.1875 " fill-opacity="1" fill-rule="nonzero"/><path fill="#000000" d="M 370.675781 158.605469 L 368.203125 158.957031 C 367.851562 158.605469 367.851562 157.015625 368.027344 156.484375 C 368.558594 147.660156 370.675781 138.832031 371.910156 130.007812 C 372.617188 129.652344 372.265625 126.652344 373.324219 127.003906 C 375.617188 127.886719 374.382812 130.890625 374.382812 132.476562 C 374.207031 141.480469 373.851562 150.132812 370.851562 158.78125 Z M 370.675781 158.605469 " fill-opacity="1" fill-rule="nonzero"/><path fill="#000000" d="M 331.136719 154.722656 C 331.136719 154.722656 330.605469 154.722656 330.429688 154.722656 C 330.253906 155.425781 331.136719 155.074219 331.3125 155.074219 C 332.195312 156.132812 329.546875 157.191406 328.84375 154.722656 C 327.429688 144.304688 326.722656 133.714844 328.84375 123.296875 C 329.726562 123.296875 330.078125 123.296875 330.429688 124.003906 C 330.785156 124.710938 331.3125 130.183594 331.3125 131.242188 C 331.667969 136.890625 332.019531 144.304688 331.84375 149.953125 C 331.667969 155.605469 331.488281 154.191406 331.3125 154.367188 Z M 331.136719 154.722656 " fill-opacity="1" fill-rule="nonzero"/><path fill="#000000" d="M 315.25 151.367188 C 313.839844 151.542969 312.957031 151.015625 312.425781 149.601562 C 311.71875 143.421875 310.484375 137.421875 311.015625 131.066406 C 311.542969 124.710938 311.542969 124.179688 312.074219 122.59375 C 312.601562 121.003906 314.191406 121.179688 314.015625 119.589844 L 314.898438 125.417969 C 314.191406 131.066406 315.425781 136.890625 315.425781 142.363281 C 315.425781 147.835938 314.722656 148.367188 315.25 151.191406 Z M 315.25 151.367188 " fill-opacity="1" fill-rule="nonzero"/><path fill="#000000" d="M 374.382812 126.652344 C 372.96875 126.652344 372.96875 125.59375 373.148438 124.535156 C 373.324219 124.179688 374.734375 126.300781 374.382812 126.652344 Z M 374.382812 126.652344 " fill-opacity="1" fill-rule="nonzero"/><path fill="#000000" d="M 313.839844 117.472656 L 313.484375 119.238281 L 312.957031 119.238281 L 312.957031 117.472656 Z M 313.839844 117.472656 " fill-opacity="1" fill-rule="nonzero"/><path fill="#000000" d="M 292.832031 479.011719 C 305.71875 489.957031 298.304688 514.140625 285.066406 522.085938 C 271.828125 530.03125 275.535156 525.441406 269.359375 526.851562 C 261.589844 528.441406 255.058594 534.972656 246.765625 537.796875 C 223.816406 545.566406 190.984375 537.796875 186.925781 510.257812 C 185.691406 501.960938 190.457031 494.015625 186.925781 485.898438 C 183.394531 477.777344 183.042969 479.542969 181.808594 475.304688 C 177.21875 459.0625 186.75 448.472656 203.34375 453.414062 C 219.933594 458.359375 217.816406 467.007812 225.582031 473.363281 C 233.347656 479.71875 235.289062 476.011719 242.703125 475.304688 C 250.117188 474.597656 248.175781 475.480469 250.472656 475.304688 C 254.175781 474.953125 258.589844 472.832031 262.648438 472.304688 C 272.535156 470.890625 284.890625 472.304688 292.65625 479.011719 Z M 206.871094 465.949219 C 203.871094 462.949219 200.695312 465.949219 198.574219 468.421875 C 196.457031 470.890625 195.75 471.597656 195.75 472.128906 C 195.046875 476.71875 205.460938 482.71875 206.167969 487.308594 C 207.578125 496.3125 196.105469 503.019531 200.695312 513.257812 C 205.285156 523.5 225.40625 529.855469 238.113281 527.910156 C 250.824219 525.96875 251.707031 523.675781 261.0625 517.671875 C 270.417969 511.671875 276.949219 517.847656 284.890625 508.492188 C 292.832031 499.136719 292.128906 493.839844 285.949219 486.957031 C 279.773438 480.070312 262.296875 476.1875 252.765625 484.484375 C 243.234375 492.78125 249.765625 488.722656 248.527344 487.664062 C 247.292969 486.601562 248.175781 484.308594 244.644531 485.367188 C 241.117188 486.425781 241.644531 490.132812 240.234375 491.015625 C 238.113281 492.074219 236.703125 488.191406 233.347656 492.253906 C 229.996094 496.3125 232.289062 495.429688 230.171875 495.078125 C 226.996094 494.546875 225.230469 485.367188 223.640625 482.894531 C 220.992188 479.1875 215.699219 479.542969 212.34375 475.480469 C 208.992188 471.421875 208.8125 467.183594 207.226562 465.59375 Z M 206.871094 465.949219 " fill-opacity="1" fill-rule="nonzero"/></svg>