<svg xmlns="http://www.w3.org/2000/svg" xmlns:xlink="http://www.w3.org/1999/xlink" width="1000" zoomAndPan="magnify" viewBox="0 0 750 749.999995" height="1000" preserveAspectRatio="xMidYMid meet" version="1.0"><defs><clipPath id="793ceb5566"><path d="M 1 128.183594 L 750 128.183594 L 750 621.683594 L 1 621.683594 Z M 1 128.183594 " clip-rule="nonzero"/></clipPath></defs><g clip-path="url(#793ceb5566)"><path fill="#000000" d="M 145.183594 271.792969 C 145.347656 288.546875 148.378906 305.089844 147.304688 321.984375 C 146.65625 332.183594 147.347656 342.636719 147.339844 352.96875 C 147.328125 362.570312 149.667969 371.480469 153.929688 380.003906 C 154.480469 381.105469 155.367188 381.664062 156.234375 381.789062 C 165.5 383.101562 171.816406 376.773438 171.085938 367.21875 C 170.417969 358.441406 170.011719 349.644531 169.351562 340.863281 C 168.964844 335.71875 168.53125 330.570312 168.152344 325.433594 C 167.371094 314.839844 165.324219 304.347656 165.414062 293.652344 C 165.433594 291.21875 163.828125 287.933594 164.90625 286.550781 C 166.59375 284.394531 169.53125 287.113281 172.066406 287.21875 C 181.050781 287.585938 187.617188 283.34375 194.230469 277.851562 C 206.339844 267.792969 211.488281 254.167969 215.554688 239.796875 C 217.402344 233.269531 216.453125 226.71875 215.644531 220.128906 C 214.511719 210.90625 212.703125 202.246094 207.441406 194.058594 C 201.367188 184.609375 186.914062 183.222656 178.335938 191.160156 C 171.820312 197.1875 167.4375 204.449219 164.425781 212.65625 C 161.601562 220.359375 158.152344 227.859375 156.59375 236.070312 C 156.488281 232.394531 154.863281 229.292969 153.449219 226.289062 C 151.96875 223.140625 145.910156 220.222656 143.46875 221.335938 C 140.765625 222.570312 141.234375 225.214844 141.535156 227.242188 C 143.738281 242.019531 145.039062 256.9375 145.183594 271.792969 Z M 170.839844 221.878906 C 174.210938 212.292969 178.328125 202.707031 187.292969 196.546875 C 192.96875 192.644531 196.429688 193.410156 199.335938 199.511719 C 202.640625 206.441406 203.105469 213.851562 202.597656 221.4375 C 201.742188 234.148438 194.90625 244.183594 188.929688 254.847656 C 183.296875 264.90625 173.699219 268.375 164.792969 273.703125 C 163 255.496094 165.046875 238.351562 170.839844 221.878906 Z M 512.660156 332.804688 C 509.441406 337.152344 504.980469 340.6875 501.339844 344.882812 C 498.976562 347.601562 490.027344 345.722656 487.820312 342.628906 C 482.667969 335.410156 482.921875 331.550781 487.535156 323.902344 C 491.199219 317.828125 493.902344 311.179688 497.285156 304.917969 C 499.386719 301.039062 502.703125 297.992188 504.132812 293.519531 C 505.113281 290.457031 505.546875 286.980469 507.824219 284.277344 C 503.210938 285.585938 498.816406 285.710938 494.511719 285.925781 C 489.730469 286.167969 486.46875 282.796875 484.316406 279.183594 C 480.769531 273.222656 479.15625 266.691406 479.15625 259.480469 C 479.15625 251.09375 477.753906 242.707031 476.890625 234.324219 C 476.558594 231.070312 475.53125 227.792969 475.773438 224.597656 C 475.972656 221.894531 476.816406 218.292969 480.53125 218.324219 C 484.304688 218.359375 488.851562 219.011719 489.984375 223.269531 C 492.800781 233.882812 495.636719 244.527344 496.492188 255.574219 C 496.671875 257.90625 497.855469 260.160156 498.9375 263.585938 C 503.933594 256.394531 508.183594 249.824219 512.910156 243.613281 C 517.597656 237.453125 520.902344 230.378906 526.347656 224.671875 C 528.757812 222.144531 530.589844 221.519531 533.695312 222.304688 C 543.921875 224.882812 545.667969 225.855469 545.625 236.296875 C 545.558594 251.617188 541.351562 265.808594 536.664062 280.171875 C 534.300781 287.40625 531.570312 294.558594 528.449219 301.3125 C 523.527344 311.953125 519.691406 323.316406 512.660156 332.804688 Z M 235.480469 328.425781 C 234.871094 322.640625 236.371094 317.148438 237.53125 311.554688 C 239.582031 301.699219 241.769531 291.871094 244.839844 282.296875 C 247.878906 272.820312 249.140625 262.960938 251.78125 253.417969 C 255.4375 240.222656 258.171875 226.636719 267.542969 215.824219 C 270.949219 211.894531 276.019531 211.726562 280.683594 213.710938 C 291.859375 218.464844 293.199219 229.175781 297.027344 238.546875 C 301.125 248.578125 302.308594 259.375 304.660156 269.753906 C 306.792969 279.15625 307.941406 289.15625 308.449219 298.996094 C 308.847656 306.785156 311.046875 314.316406 311.535156 322.050781 C 311.957031 328.785156 307.710938 332.425781 301.199219 333.101562 C 291.019531 334.167969 286.136719 330.589844 284.609375 318.859375 C 284.011719 314.277344 284.484375 308.582031 281.917969 305.5625 C 280.078125 303.402344 274.09375 306.152344 269.761719 304.953125 C 263.304688 303.167969 259.265625 294.5 262.871094 288.984375 C 264.183594 286.980469 265.96875 285.441406 268.277344 286.699219 C 271.554688 288.476562 275.359375 288.335938 278.621094 290.734375 C 281.671875 292.976562 282.5625 290.019531 282.253906 287.199219 C 281.097656 276.660156 280.59375 266.0625 278.628906 255.589844 C 277.53125 249.75 276.539062 243.925781 275.027344 237.414062 C 267.230469 252.757812 264.84375 268.84375 259.949219 284.117188 C 256.066406 296.238281 252.082031 308.394531 249.742188 321.003906 C 249.230469 323.753906 252.222656 326.160156 249.167969 329.347656 C 246.429688 332.207031 243.253906 333.234375 240.097656 333.828125 C 236.902344 334.429688 235.785156 331.328125 235.480469 328.425781 Z M 494.289062 418.175781 C 497.132812 428.964844 496.328125 439.625 494.082031 450.507812 C 492.238281 459.464844 488.035156 467.316406 484.648438 475.566406 C 483.082031 479.375 476.84375 482.113281 472.90625 481.203125 C 470.601562 480.667969 467.519531 472.316406 468.402344 468.390625 C 471.046875 456.664062 473.824219 444.964844 476.5 433.246094 C 476.710938 432.320312 476.527344 431.308594 476.527344 429.660156 C 468.757812 437.691406 462.996094 446.484375 456.035156 454.253906 C 447.199219 464.117188 443.765625 464.753906 431.925781 462.484375 C 429.421875 462.003906 430.179688 459.921875 429.3125 458.683594 C 423.195312 449.957031 426.59375 441.019531 429.242188 432.527344 C 430.546875 428.34375 431.394531 424.289062 432.082031 418.484375 C 423.640625 430.25 415.800781 440.660156 409.824219 452.359375 C 405.898438 460.042969 401.972656 467.761719 396.246094 474.328125 C 395.195312 475.527344 395.238281 476.828125 394.964844 478.140625 C 394.074219 482.378906 389.113281 485.414062 384.785156 484.339844 C 380.808594 483.355469 379.703125 479.65625 381.363281 474.644531 C 383.421875 468.414062 388.039062 463.769531 391.277344 458.289062 C 393.558594 454.425781 395.117188 450.222656 397.699219 446.417969 C 402.941406 438.710938 407.035156 430.183594 411.515625 421.980469 C 416.378906 413.070312 422.808594 405.886719 429.945312 399.027344 C 432.695312 396.382812 435.394531 394.871094 439.4375 396.472656 C 444.636719 398.535156 450.023438 400.621094 450.3125 407.003906 C 450.605469 413.371094 450.78125 419.722656 451.851562 426.164062 C 457.402344 424.835938 459.875 419.898438 463.628906 416.589844 C 474.386719 407.125 480.554688 407.613281 490.175781 412.878906 C 492.644531 414.230469 493.683594 415.886719 494.289062 418.175781 Z M 328.941406 252.640625 C 328.640625 253.398438 328.21875 254.578125 328.5625 255.058594 C 332.09375 260.027344 329.695312 265.640625 330.269531 270.898438 C 330.710938 274.9375 332.566406 279.097656 331.042969 283.136719 C 328.714844 289.292969 329.117188 295.5 329.691406 301.816406 C 330.398438 309.578125 328.636719 317.605469 334.175781 324.695312 C 336.113281 327.179688 337.921875 328.441406 340.191406 327.496094 C 342.503906 326.53125 344.742188 326.117188 347.125 325.851562 C 350.15625 325.515625 352.015625 324.3125 349.816406 320.242188 C 352.109375 321.582031 354.066406 324.707031 354.574219 319.917969 C 354.746094 318.277344 355.417969 316.902344 354.894531 315.019531 C 352.40625 306.0625 353.34375 296.769531 352.148438 286.925781 C 361.9375 296.855469 374.339844 302.140625 383.648438 311.519531 C 387.109375 315.003906 391.664062 313.238281 394.929688 311.332031 C 398.320312 309.347656 399.449219 305.757812 397.550781 301.339844 C 393.800781 292.605469 386.210938 287.804688 378.890625 283.125 C 374.691406 280.441406 374.644531 278.570312 376.582031 274.886719 C 380.113281 268.160156 383.96875 261.59375 383.421875 253.421875 C 382.632812 241.5 380.742188 230.144531 374.359375 219.574219 C 370.304688 212.851562 364.367188 210.242188 357.703125 210.226562 C 351.191406 210.214844 346.21875 214.828125 344.496094 221.148438 C 342.855469 227.175781 339.953125 226.308594 335.839844 224.316406 C 332.753906 222.816406 329.289062 222.652344 328.183594 226.542969 C 327.363281 229.421875 327.667969 232.808594 328.199219 235.839844 C 329.183594 241.433594 331.21875 246.90625 328.941406 252.640625 Z M 352.644531 252.355469 C 352.757812 246.640625 354.246094 241.34375 355.175781 235.859375 C 356.011719 230.953125 358.453125 226.828125 360.328125 221.332031 C 366.589844 230.636719 367.894531 240.03125 366.96875 249.488281 C 366.097656 258.335938 361.554688 265.867188 354.851562 271.816406 C 353.332031 273.167969 351.25 273.625 351.269531 270.195312 C 351.3125 264.207031 352.53125 258.277344 352.644531 252.355469 Z M 243.914062 462.757812 C 244.847656 466.464844 246.277344 470.15625 247.507812 473.789062 C 249.742188 480.394531 254.195312 486.421875 253.703125 493.859375 C 253.101562 496.492188 253.8125 499.070312 254.480469 501.484375 C 255.761719 506.085938 259.65625 506.417969 263.640625 506.28125 C 267.589844 506.140625 271.085938 504.503906 271.757812 500.640625 C 272.53125 496.164062 273.871094 491.609375 273.871094 487.171875 C 273.882812 466.296875 277.71875 445.65625 277.253906 424.757812 C 277.109375 418.140625 276.59375 410.613281 286.453125 409.820312 C 286.710938 409.800781 286.886719 409.226562 287.183594 409.117188 C 295.246094 406.042969 303.078125 402.421875 311.261719 399.613281 C 317.71875 397.394531 324.40625 395.640625 330.445312 392.292969 C 333.226562 390.757812 334.570312 388.144531 333.121094 385.4375 C 329.074219 377.882812 322.0625 373.992188 313.886719 373.90625 C 301.726562 373.777344 290.996094 379.574219 280.632812 385.042969 C 275.171875 387.925781 269.757812 391.109375 264.183594 393.824219 C 258.144531 396.765625 253.113281 401.234375 246.578125 403.625 C 240.441406 405.875 235.625 411.199219 229.753906 414.523438 C 224.050781 417.757812 223.296875 423.609375 227.441406 428.929688 C 235.328125 439.042969 240.765625 450.296875 243.914062 462.757812 Z M 234.570312 425.566406 C 242.222656 423.78125 249.910156 422.097656 257.46875 419.976562 C 261.550781 418.832031 261.8125 420.632812 261.515625 423.765625 C 260.460938 434.957031 257.023438 445.792969 257.503906 457.28125 C 257.726562 462.691406 255.320312 468.214844 254.078125 473.832031 C 249.835938 464.15625 246.046875 454.503906 241.402344 445.289062 C 238.722656 439.984375 235.726562 434.8125 233.027344 429.488281 C 231.832031 427.132812 231.964844 426.171875 234.570312 425.566406 Z M 463.824219 595.566406 C 462.214844 596.085938 460.804688 597.046875 459.144531 597.617188 C 438.15625 604.804688 416.183594 608.046875 394.804688 613.679688 C 389.261719 615.140625 383.433594 614.738281 377.789062 612.6875 C 373.953125 611.296875 372.355469 609.582031 374.464844 605.535156 C 376.292969 602.027344 378.253906 598.625 381.054688 595.839844 C 385.535156 591.386719 390.167969 587.085938 394.742188 582.71875 C 396.351562 581.1875 398.929688 579.476562 396.710938 577.246094 C 395.125 575.652344 392.582031 577.117188 390.734375 578.273438 C 371.722656 590.164062 352.835938 602.398438 331.480469 609.722656 C 319.429688 613.859375 307.097656 618.136719 294.007812 613.023438 C 289.132812 611.117188 286.539062 607.125 287.636719 602.183594 C 289.605469 593.351562 294.441406 587.761719 303.398438 584.582031 C 312.820312 581.238281 321.058594 575.15625 328.769531 568.703125 C 330.722656 567.070312 333.570312 564.585938 332.125 561.9375 C 330.476562 558.90625 326.703125 558.988281 323.410156 559.410156 C 322.5625 559.519531 321.714844 559.757812 320.910156 560.046875 C 309.507812 564.15625 300.605469 571.691406 293.046875 580.878906 C 291.054688 583.300781 289.03125 585.246094 286.121094 586.429688 C 275.148438 590.890625 263.785156 594.015625 252.332031 596.929688 C 244.144531 599.015625 236.035156 600.414062 227.863281 597.21875 C 221.921875 594.894531 215.277344 594.007812 211.242188 587.976562 C 206.882812 581.46875 207.992188 576.488281 215.167969 573.820312 C 224.382812 570.402344 233.324219 566.492188 241.777344 561.425781 C 248.035156 557.675781 253.75 553.246094 257.550781 547.089844 C 259.757812 543.519531 262.910156 539.726562 261.242188 534.734375 C 259.101562 528.332031 250.132812 525.144531 243.046875 528.5 C 227.871094 535.6875 216.089844 546.378906 209.394531 562.046875 C 206.875 567.949219 204.304688 573.273438 196.828125 574.296875 C 191.292969 575.054688 185.945312 577.167969 180.414062 578.015625 C 167.828125 579.945312 155.152344 580.957031 142.921875 576.210938 C 131.199219 571.65625 125.769531 564.476562 128.925781 551.117188 C 132.46875 536.136719 139.074219 522.734375 148.894531 510.910156 C 150.507812 508.972656 152.066406 506.152344 154.691406 506.355469 C 156.679688 506.515625 158.070312 506.722656 158.910156 504.863281 C 159.652344 503.21875 158.226562 502.246094 157.175781 501.460938 C 155.609375 500.285156 153.875 500.453125 152.445312 501.808594 C 150.070312 504.0625 147.589844 506.242188 145.476562 508.726562 C 134.078125 522.121094 127.078125 537.617188 123.597656 554.808594 C 122.179688 561.820312 125.535156 570.96875 131.375 575.382812 C 140.078125 581.964844 150.027344 584.542969 160.738281 584.800781 C 174.265625 585.121094 187.421875 582.9375 200.234375 578.710938 C 202.582031 577.9375 203.167969 577.515625 203.425781 580.707031 C 203.757812 584.796875 204.820312 588.800781 207.707031 592.441406 C 212.253906 598.167969 218.714844 599.953125 224.871094 602.277344 C 236.226562 606.5625 247.574219 603.964844 258.714844 600.960938 C 267.417969 598.617188 275.988281 595.765625 284.777344 593.09375 C 284.828125 595.15625 283.71875 596.519531 283.066406 598.054688 C 279.6875 606.039062 282.128906 612.742188 289.574219 617.179688 C 295.328125 620.605469 301.484375 621.601562 307.9375 620.863281 C 321.839844 619.273438 334.960938 614.953125 347.761719 609.390625 C 356.457031 605.613281 364.351562 600.363281 373.960938 595.574219 C 372.105469 598.707031 370.578125 600.714844 369.644531 602.96875 C 366.960938 609.460938 365.140625 612.351562 373.601562 617.222656 C 380.730469 621.328125 388.25 620.921875 395.617188 619.3125 C 413.832031 615.332031 431.964844 610.945312 450.046875 606.390625 C 455.683594 604.96875 461.390625 603.375 466.578125 600.585938 C 468.097656 599.765625 470.835938 599.320312 469.503906 596.378906 C 468.066406 593.234375 465.785156 594.933594 463.824219 595.566406 Z M 322.074219 564.710938 C 322.550781 564.457031 323.535156 564.613281 323.9375 564.96875 C 324.207031 565.203125 324.082031 566.519531 323.757812 566.703125 C 317.402344 570.359375 312.027344 575.859375 303.429688 577.820312 C 308.679688 570.6875 315.671875 568.109375 322.074219 564.710938 Z M 212.707031 566.214844 C 219.730469 551.582031 229.839844 539.957031 245.042969 533.367188 C 250.105469 531.171875 256.378906 533.605469 256.265625 538.125 C 254.75 542.515625 252.078125 546.71875 248.367188 549.996094 C 238.59375 558.617188 227.085938 564.183594 214.761719 568.183594 C 213.972656 568.4375 213.113281 569.183594 212.523438 568.171875 C 212.25 567.707031 212.433594 566.789062 212.707031 566.214844 Z M 588.050781 400.515625 C 586.855469 401.890625 587.382812 403.949219 585.253906 405.140625 C 578.085938 409.148438 571.109375 413.492188 563.351562 416.351562 C 557.640625 418.457031 551.714844 417.378906 545.882812 417.515625 C 543.472656 417.574219 542.28125 417.925781 541.839844 420.617188 C 541.625 421.933594 541.480469 423.285156 541.292969 424.617188 C 540.34375 431.339844 543.304688 433.628906 549.902344 431.414062 C 553.09375 430.34375 556.449219 429.601562 559.785156 430.214844 C 560.933594 430.425781 562.710938 429.863281 563.464844 432.214844 C 564.128906 434.285156 563.070312 434.90625 562.167969 435.945312 C 556.515625 442.480469 548.617188 442.992188 540.878906 443.46875 C 538.859375 443.59375 537.28125 444.050781 537.273438 445.671875 C 537.234375 451.683594 534.023438 457.25 535.113281 463.777344 C 545.652344 462.570312 555.574219 464.460938 565.152344 468.039062 C 567.734375 469 571.320312 470.535156 570.359375 474.292969 C 569.488281 477.714844 566.472656 479.144531 562.863281 479.15625 C 553.816406 479.183594 544.773438 478.882812 535.738281 480.078125 C 531.820312 480.589844 528.277344 482.328125 524.199219 482.449219 C 520.234375 482.5625 516.90625 481.136719 513.386719 480.03125 C 512.015625 479.601562 510.636719 472.199219 511.296875 470.785156 C 513.929688 465.167969 515.820312 459.269531 517.863281 453.414062 C 519.28125 449.359375 519.875 444.917969 522.800781 441.367188 C 525.902344 437.605469 525.6875 432.601562 526.757812 428.164062 C 527.886719 423.480469 529.660156 419.03125 531.050781 414.464844 C 531.394531 413.335938 532.746094 409.945312 535.804688 412.496094 C 538.003906 414.328125 538.8125 411.21875 539.027344 410.574219 C 540.382812 406.46875 541.03125 405.667969 544.550781 406.566406 C 550.433594 408.070312 555.632812 405.867188 560.882812 403.898438 C 566.0625 401.957031 571.035156 399.226562 576.617188 398.789062 C 580.070312 398.519531 583.609375 399.425781 587.082031 399.265625 C 588.785156 399.179688 588.429688 400.078125 588.050781 400.515625 Z M 408.765625 241.183594 C 407.671875 238.335938 405.09375 235.730469 407.636719 232.023438 C 412.699219 224.65625 420.613281 221.070312 427.394531 215.945312 C 432.808594 211.855469 438.378906 208.929688 445.328125 208.730469 C 448.628906 208.632812 451.324219 210.15625 454.105469 211.230469 C 457.335938 212.472656 456.789062 216.847656 452.988281 219.113281 C 447.308594 222.5 442.363281 226.957031 436.667969 230.195312 C 433.90625 231.765625 433.644531 233.492188 433.765625 235.96875 C 434.304688 247.28125 436.335938 258.4375 435.492188 269.945312 C 435.148438 274.597656 436.855469 280.015625 437.082031 285.113281 C 437.492188 294.261719 439.804688 303.386719 437.898438 312.570312 C 436.78125 317.933594 432.390625 319.675781 427.699219 320.429688 C 421.089844 321.496094 416.644531 317.0625 416.035156 309.078125 C 415.878906 307.011719 416.011719 304.921875 416.011719 302.8125 C 415.382812 290.808594 416.433594 278.964844 418.488281 267.050781 C 419.753906 259.710938 418.5 251.933594 418.367188 244.351562 C 418.308594 240.953125 415.855469 242.132812 414.289062 242.5 C 412.085938 243.023438 409.738281 243.726562 408.765625 241.183594 Z M 364.378906 401.417969 C 362.113281 410.277344 362.757812 419.5 360.175781 428.425781 C 357.855469 436.449219 357.699219 445.09375 356.507812 453.453125 C 355.238281 462.371094 353.734375 471.234375 351.707031 480.035156 C 350.75 484.179688 351.664062 488.769531 346.945312 491.371094 C 343.746094 493.132812 337.503906 491.558594 335.9375 488.285156 C 334.78125 485.867188 333.644531 479.320312 333.671875 473.554688 C 336.898438 459.792969 336.222656 443.804688 341.144531 428.535156 C 343.90625 419.972656 347.144531 411.480469 349.03125 402.660156 C 349.925781 398.472656 353.691406 397.53125 355.914062 394.921875 C 356.972656 393.6875 364.855469 399.5625 364.378906 401.417969 Z M 667.90625 247.597656 C 659.832031 261.921875 652.757812 276.671875 647.917969 292.398438 C 647.160156 294.851562 645.082031 294.796875 643.894531 296.1875 C 642.683594 295.003906 641.457031 294.027344 641.460938 291.925781 C 641.472656 287.097656 642.90625 282.441406 642.671875 277.554688 C 642.367188 271.199219 641.6875 264.933594 640.539062 258.6875 C 640.25 257.121094 640.15625 255.246094 638.546875 254.925781 C 636.890625 254.59375 635.839844 256.472656 635.0625 257.652344 C 630.804688 264.121094 626.863281 270.808594 623.824219 277.941406 C 617.132812 293.640625 609.710938 309.050781 604.617188 325.402344 C 603.890625 327.734375 602.5625 329.265625 599.722656 328.867188 C 596.546875 328.417969 597.007812 325.59375 596.765625 323.851562 C 595.769531 316.753906 595.183594 309.59375 594.589844 302.445312 C 594.433594 300.550781 594.324219 298.167969 592.636719 297.722656 C 590.9375 297.273438 590 299.5 589.3125 301.09375 C 584.785156 311.558594 580.355469 322.0625 575.707031 332.472656 C 572.75 339.089844 569.476562 345.570312 566.320312 352.101562 C 565.523438 353.753906 564.101562 354.375 562.441406 353.691406 C 560.71875 352.984375 561.390625 351.496094 561.578125 350.132812 C 561.933594 347.554688 563.683594 345.664062 564.835938 343.527344 C 572.242188 329.78125 577.339844 315.003906 584.125 300.996094 C 586.1875 296.734375 587.761719 290.535156 594.226562 292.550781 C 599.425781 294.171875 598.972656 300.042969 599.757812 304.582031 C 600.3125 307.792969 600.789062 311.019531 601.488281 315.402344 C 607.175781 302.558594 612.097656 290.765625 617.597656 279.25 C 622 270.042969 625.800781 260.382812 633.316406 253 C 637.789062 248.605469 642.816406 249.707031 644.554688 255.789062 C 645.800781 260.15625 646.769531 264.660156 646.769531 269.285156 C 646.769531 270.699219 646.398438 272.257812 647.5625 273.902344 C 652.648438 263.859375 657.703125 254.34375 662.304688 244.613281 C 664.886719 239.148438 668.214844 234.085938 671.335938 229.023438 C 676.007812 221.445312 679.375 213.195312 684.234375 205.742188 C 685.40625 203.945312 686.644531 203.070312 688.320312 203.742188 C 690.527344 204.632812 689.617188 206.34375 688.855469 208.003906 C 682.640625 221.609375 675.234375 234.589844 667.90625 247.597656 Z M 102.9375 325.371094 C 104.003906 327.234375 106.722656 329.449219 103.605469 331.453125 C 100.632812 333.359375 98.964844 330.175781 97.976562 328.4375 C 91.988281 317.929688 86.796875 307.011719 81.863281 295.964844 C 75.679688 282.113281 69.246094 268.367188 62.375 253.394531 C 61.875 260.546875 61.453125 266.425781 61.0625 272.304688 C 60.992188 273.34375 61.425781 274.609375 60.976562 275.390625 C 59.734375 277.542969 61.367188 281.566406 57.28125 281.804688 C 53.554688 282.027344 53.730469 278.410156 53.109375 276.296875 C 49.503906 264.023438 44.039062 252.363281 41.105469 239.871094 C 40.859375 238.816406 40.082031 237.882812 39.554688 236.894531 C 38.007812 247.574219 36.507812 258.160156 34.925781 268.730469 C 34.558594 271.1875 33.367188 273.6875 31.0625 274.382812 C 28.253906 275.230469 26.910156 272.445312 25.601562 270.511719 C 15.597656 255.773438 9.859375 239.164062 4.734375 222.320312 C 3.417969 217.992188 1.035156 213.867188 1.5625 209.101562 C 1.742188 207.496094 0.0664062 204.660156 3.320312 204.796875 C 5.8125 204.90625 8.5 207.394531 7.578125 209.515625 C 5.539062 214.207031 7.96875 218.105469 9.238281 221.746094 C 13.628906 234.347656 17.507812 247.222656 24.492188 258.785156 C 25.777344 260.910156 26.96875 263.09375 28.203125 265.253906 C 28.675781 265.230469 29.148438 265.203125 29.621094 265.179688 C 30.703125 258.4375 31.878906 251.710938 32.839844 244.949219 C 33.667969 239.09375 34.402344 233.214844 34.867188 227.324219 C 35.074219 224.726562 35.972656 222.820312 38.464844 222.476562 C 41.261719 222.089844 41.722656 224.921875 42.136719 226.632812 C 45.335938 239.84375 50.367188 252.433594 54.792969 265.226562 C 55.015625 265.867188 55.351562 265.964844 56.519531 266.375 C 57.308594 261.878906 56.746094 257.328125 57.75 252.960938 C 58.289062 250.617188 58.53125 248.101562 60.828125 247.648438 C 63.039062 247.210938 65.164062 248.339844 66.394531 250.972656 C 73.199219 265.554688 80.382812 279.964844 87.078125 294.597656 C 91.886719 305.113281 97.203125 315.339844 102.9375 325.371094 Z M 746.804688 311.804688 C 737.25 316.757812 727.824219 321.964844 718.144531 326.65625 C 697.496094 336.660156 678.109375 348.914062 657.949219 359.789062 C 656.679688 360.472656 655.402344 361.652344 654.550781 361.40625 C 652.753906 361 651.289062 361.621094 651.128906 360.152344 C 650.945312 358.46875 652.046875 357.621094 653.578125 356.757812 C 662.464844 351.75 671.113281 346.296875 680.082031 341.433594 C 693.925781 333.921875 707.378906 325.679688 721.703125 319.046875 C 729.277344 315.539062 736.734375 311.769531 744.136719 307.90625 C 745.890625 306.988281 747.503906 306.351562 748.679688 307.992188 C 750.058594 309.914062 748.421875 310.964844 746.804688 311.804688 Z M 81.164062 134.117188 C 80.65625 131.902344 80.644531 129.703125 82.929688 128.363281 C 85.160156 129.539062 86.765625 130.757812 87.183594 133.285156 C 90.089844 150.875 95.046875 167.972656 99.75 185.128906 C 101.03125 189.804688 102.265625 194.558594 104.257812 198.945312 C 105.316406 201.273438 104.011719 202.667969 103.074219 203.230469 C 101.152344 204.375 100.226562 202.691406 99.464844 200.910156 C 94.996094 190.488281 92.15625 179.554688 89.316406 168.644531 C 86.332031 157.199219 83.820312 145.640625 81.164062 134.117188 Z M 364.1875 368.425781 C 362.617188 368.972656 361.050781 370.292969 359.394531 369.382812 C 357.738281 368.476562 357.703125 366.808594 358.410156 365.542969 C 357.734375 360.738281 360.605469 357.496094 362.34375 353.9375 C 363.164062 352.265625 365.144531 352.453125 366.484375 353.152344 C 368.714844 354.3125 371.246094 356.117188 370.949219 358.679688 C 370.59375 361.71875 370.941406 366.019531 366.089844 366.402344 C 364.570312 366.523438 365.175781 368.078125 364.1875 368.425781 Z M 364.1875 368.425781 " fill-opacity="1" fill-rule="nonzero"/><path fill="#000000" d="M 145.183594 271.792969 C 145.347656 288.546875 148.378906 305.089844 147.304688 321.984375 C 146.65625 332.183594 147.347656 342.636719 147.339844 352.96875 C 147.328125 362.570312 149.667969 371.480469 153.929688 380.003906 C 154.480469 381.105469 155.367188 381.664062 156.234375 381.789062 C 165.5 383.101562 171.816406 376.773438 171.085938 367.21875 C 170.417969 358.441406 170.011719 349.644531 169.351562 340.863281 C 168.964844 335.71875 168.53125 330.570312 168.152344 325.433594 C 167.371094 314.839844 165.324219 304.347656 165.414062 293.652344 C 165.433594 291.21875 163.828125 287.933594 164.90625 286.550781 C 166.59375 284.394531 169.53125 287.113281 172.066406 287.21875 C 181.050781 287.585938 187.617188 283.34375 194.230469 277.851562 C 206.339844 267.792969 211.488281 254.167969 215.554688 239.796875 C 217.402344 233.269531 216.453125 226.71875 215.644531 220.128906 C 214.511719 210.90625 212.703125 202.246094 207.441406 194.058594 C 201.367188 184.609375 186.914062 183.222656 178.335938 191.160156 C 171.820312 197.1875 167.4375 204.449219 164.425781 212.65625 C 161.601562 220.359375 158.152344 227.859375 156.59375 236.070312 C 156.488281 232.394531 154.863281 229.292969 153.449219 226.289062 C 151.96875 223.140625 145.910156 220.222656 143.46875 221.335938 C 140.765625 222.570312 141.234375 225.214844 141.535156 227.242188 C 143.738281 242.019531 145.039062 256.9375 145.183594 271.792969 Z M 170.839844 221.878906 C 174.210938 212.292969 178.328125 202.707031 187.292969 196.546875 C 192.96875 192.644531 196.429688 193.410156 199.335938 199.511719 C 202.640625 206.441406 203.105469 213.851562 202.597656 221.4375 C 201.742188 234.148438 194.90625 244.183594 188.929688 254.847656 C 183.296875 264.90625 173.699219 268.375 164.792969 273.703125 C 163 255.496094 165.046875 238.351562 170.839844 221.878906 Z M 512.660156 332.804688 C 509.441406 337.152344 504.980469 340.6875 501.339844 344.882812 C 498.976562 347.601562 490.027344 345.722656 487.820312 342.628906 C 482.667969 335.410156 482.921875 331.550781 487.535156 323.902344 C 491.199219 317.828125 493.902344 311.179688 497.285156 304.917969 C 499.386719 301.039062 502.703125 297.992188 504.132812 293.519531 C 505.113281 290.457031 505.546875 286.980469 507.824219 284.277344 C 503.210938 285.585938 498.816406 285.710938 494.511719 285.925781 C 489.730469 286.167969 486.46875 282.796875 484.316406 279.183594 C 480.769531 273.222656 479.15625 266.691406 479.15625 259.480469 C 479.15625 251.09375 477.753906 242.707031 476.890625 234.324219 C 476.558594 231.070312 475.53125 227.792969 475.773438 224.597656 C 475.972656 221.894531 476.816406 218.292969 480.53125 218.324219 C 484.304688 218.359375 488.851562 219.011719 489.984375 223.269531 C 492.800781 233.882812 495.636719 244.527344 496.492188 255.574219 C 496.671875 257.90625 497.855469 260.160156 498.9375 263.585938 C 503.933594 256.394531 508.183594 249.824219 512.910156 243.613281 C 517.597656 237.453125 520.902344 230.378906 526.347656 224.671875 C 528.757812 222.144531 530.589844 221.519531 533.695312 222.304688 C 543.921875 224.882812 545.667969 225.855469 545.625 236.296875 C 545.558594 251.617188 541.351562 265.808594 536.664062 280.171875 C 534.300781 287.40625 531.570312 294.558594 528.449219 301.3125 C 523.527344 311.953125 519.691406 323.316406 512.660156 332.804688 Z M 235.480469 328.425781 C 234.871094 322.640625 236.371094 317.148438 237.53125 311.554688 C 239.582031 301.699219 241.769531 291.871094 244.839844 282.296875 C 247.878906 272.820312 249.140625 262.960938 251.78125 253.417969 C 255.4375 240.222656 258.171875 226.636719 267.542969 215.824219 C 270.949219 211.894531 276.019531 211.726562 280.683594 213.710938 C 291.859375 218.464844 293.199219 229.175781 297.027344 238.546875 C 301.125 248.578125 302.308594 259.375 304.660156 269.753906 C 306.792969 279.15625 307.941406 289.15625 308.449219 298.996094 C 308.847656 306.785156 311.046875 314.316406 311.535156 322.050781 C 311.957031 328.785156 307.710938 332.425781 301.199219 333.101562 C 291.019531 334.167969 286.136719 330.589844 284.609375 318.859375 C 284.011719 314.277344 284.484375 308.582031 281.917969 305.5625 C 280.078125 303.402344 274.09375 306.152344 269.761719 304.953125 C 263.304688 303.167969 259.265625 294.5 262.871094 288.984375 C 264.183594 286.980469 265.96875 285.441406 268.277344 286.699219 C 271.554688 288.476562 275.359375 288.335938 278.621094 290.734375 C 281.671875 292.976562 282.5625 290.019531 282.253906 287.199219 C 281.097656 276.660156 280.59375 266.0625 278.628906 255.589844 C 277.53125 249.75 276.539062 243.925781 275.027344 237.414062 C 267.230469 252.757812 264.84375 268.84375 259.949219 284.117188 C 256.066406 296.238281 252.082031 308.394531 249.742188 321.003906 C 249.230469 323.753906 252.222656 326.160156 249.167969 329.347656 C 246.429688 332.207031 243.253906 333.234375 240.097656 333.828125 C 236.902344 334.429688 235.785156 331.328125 235.480469 328.425781 Z M 494.289062 418.175781 C 497.132812 428.964844 496.328125 439.625 494.082031 450.507812 C 492.238281 459.464844 488.035156 467.316406 484.648438 475.566406 C 483.082031 479.375 476.84375 482.113281 472.90625 481.203125 C 470.601562 480.667969 467.519531 472.316406 468.402344 468.390625 C 471.046875 456.664062 473.824219 444.964844 476.5 433.246094 C 476.710938 432.320312 476.527344 431.308594 476.527344 429.660156 C 468.757812 437.691406 462.996094 446.484375 456.035156 454.253906 C 447.199219 464.117188 443.765625 464.753906 431.925781 462.484375 C 429.421875 462.003906 430.179688 459.921875 429.3125 458.683594 C 423.195312 449.957031 426.59375 441.019531 429.242188 432.527344 C 430.546875 428.34375 431.394531 424.289062 432.082031 418.484375 C 423.640625 430.25 415.800781 440.660156 409.824219 452.359375 C 405.898438 460.042969 401.972656 467.761719 396.246094 474.328125 C 395.195312 475.527344 395.238281 476.828125 394.964844 478.140625 C 394.074219 482.378906 389.113281 485.414062 384.785156 484.339844 C 380.808594 483.355469 379.703125 479.65625 381.363281 474.644531 C 383.421875 468.414062 388.039062 463.769531 391.277344 458.289062 C 393.558594 454.425781 395.117188 450.222656 397.699219 446.417969 C 402.941406 438.710938 407.035156 430.183594 411.515625 421.980469 C 416.378906 413.070312 422.808594 405.886719 429.945312 399.027344 C 432.695312 396.382812 435.394531 394.871094 439.4375 396.472656 C 444.636719 398.535156 450.023438 400.621094 450.3125 407.003906 C 450.605469 413.371094 450.78125 419.722656 451.851562 426.164062 C 457.402344 424.835938 459.875 419.898438 463.628906 416.589844 C 474.386719 407.125 480.554688 407.613281 490.175781 412.878906 C 492.644531 414.230469 493.683594 415.886719 494.289062 418.175781 Z M 328.941406 252.640625 C 328.640625 253.398438 328.21875 254.578125 328.5625 255.058594 C 332.09375 260.027344 329.695312 265.640625 330.269531 270.898438 C 330.710938 274.9375 332.566406 279.097656 331.042969 283.136719 C 328.714844 289.292969 329.117188 295.5 329.691406 301.816406 C 330.398438 309.578125 328.636719 317.605469 334.175781 324.695312 C 336.113281 327.179688 337.921875 328.441406 340.191406 327.496094 C 342.503906 326.53125 344.742188 326.117188 347.125 325.851562 C 350.15625 325.515625 352.015625 324.3125 349.816406 320.242188 C 352.109375 321.582031 354.066406 324.707031 354.574219 319.917969 C 354.746094 318.277344 355.417969 316.902344 354.894531 315.019531 C 352.40625 306.0625 353.34375 296.769531 352.148438 286.925781 C 361.9375 296.855469 374.339844 302.140625 383.648438 311.519531 C 387.109375 315.003906 391.664062 313.238281 394.929688 311.332031 C 398.320312 309.347656 399.449219 305.757812 397.550781 301.339844 C 393.800781 292.605469 386.210938 287.804688 378.890625 283.125 C 374.691406 280.441406 374.644531 278.570312 376.582031 274.886719 C 380.113281 268.160156 383.96875 261.59375 383.421875 253.421875 C 382.632812 241.5 380.742188 230.144531 374.359375 219.574219 C 370.304688 212.851562 364.367188 210.242188 357.703125 210.226562 C 351.191406 210.214844 346.21875 214.828125 344.496094 221.148438 C 342.855469 227.175781 339.953125 226.308594 335.839844 224.316406 C 332.753906 222.816406 329.289062 222.652344 328.183594 226.542969 C 327.363281 229.421875 327.667969 232.808594 328.199219 235.839844 C 329.183594 241.433594 331.21875 246.90625 328.941406 252.640625 Z M 352.644531 252.355469 C 352.757812 246.640625 354.246094 241.34375 355.175781 235.859375 C 356.011719 230.953125 358.453125 226.828125 360.328125 221.332031 C 366.589844 230.636719 367.894531 240.03125 366.96875 249.488281 C 366.097656 258.335938 361.554688 265.867188 354.851562 271.816406 C 353.332031 273.167969 351.25 273.625 351.269531 270.195312 C 351.3125 264.207031 352.53125 258.277344 352.644531 252.355469 Z M 243.914062 462.757812 C 244.847656 466.464844 246.277344 470.15625 247.507812 473.789062 C 249.742188 480.394531 254.195312 486.421875 253.703125 493.859375 C 253.101562 496.492188 253.8125 499.070312 254.480469 501.484375 C 255.761719 506.085938 259.65625 506.417969 263.640625 506.28125 C 267.589844 506.140625 271.085938 504.503906 271.757812 500.640625 C 272.53125 496.164062 273.871094 491.609375 273.871094 487.171875 C 273.882812 466.296875 277.71875 445.65625 277.253906 424.757812 C 277.109375 418.140625 276.59375 410.613281 286.453125 409.820312 C 286.710938 409.800781 286.886719 409.226562 287.183594 409.117188 C 295.246094 406.042969 303.078125 402.421875 311.261719 399.613281 C 317.71875 397.394531 324.40625 395.640625 330.445312 392.292969 C 333.226562 390.757812 334.570312 388.144531 333.121094 385.4375 C 329.074219 377.882812 322.0625 373.992188 313.886719 373.90625 C 301.726562 373.777344 290.996094 379.574219 280.632812 385.042969 C 275.171875 387.925781 269.757812 391.109375 264.183594 393.824219 C 258.144531 396.765625 253.113281 401.234375 246.578125 403.625 C 240.441406 405.875 235.625 411.199219 229.753906 414.523438 C 224.050781 417.757812 223.296875 423.609375 227.441406 428.929688 C 235.328125 439.042969 240.765625 450.296875 243.914062 462.757812 Z M 234.570312 425.566406 C 242.222656 423.78125 249.910156 422.097656 257.46875 419.976562 C 261.550781 418.832031 261.8125 420.632812 261.515625 423.765625 C 260.460938 434.957031 257.023438 445.792969 257.503906 457.28125 C 257.726562 462.691406 255.320312 468.214844 254.078125 473.832031 C 249.835938 464.15625 246.046875 454.503906 241.402344 445.289062 C 238.722656 439.984375 235.726562 434.8125 233.027344 429.488281 C 231.832031 427.132812 231.964844 426.171875 234.570312 425.566406 Z M 463.824219 595.566406 C 462.214844 596.085938 460.804688 597.046875 459.144531 597.617188 C 438.15625 604.804688 416.183594 608.046875 394.804688 613.679688 C 389.261719 615.140625 383.433594 614.738281 377.789062 612.6875 C 373.953125 611.296875 372.355469 609.582031 374.464844 605.535156 C 376.292969 602.027344 378.253906 598.625 381.054688 595.839844 C 385.535156 591.386719 390.167969 587.085938 394.742188 582.71875 C 396.351562 581.1875 398.929688 579.476562 396.710938 577.246094 C 395.125 575.652344 392.582031 577.117188 390.734375 578.273438 C 371.722656 590.164062 352.835938 602.398438 331.480469 609.722656 C 319.429688 613.859375 307.097656 618.136719 294.007812 613.023438 C 289.132812 611.117188 286.539062 607.125 287.636719 602.183594 C 289.605469 593.351562 294.441406 587.761719 303.398438 584.582031 C 312.820312 581.238281 321.058594 575.15625 328.769531 568.703125 C 330.722656 567.070312 333.570312 564.585938 332.125 561.9375 C 330.476562 558.90625 326.703125 558.988281 323.410156 559.410156 C 322.5625 559.519531 321.714844 559.757812 320.910156 560.046875 C 309.507812 564.15625 300.605469 571.691406 293.046875 580.878906 C 291.054688 583.300781 289.03125 585.246094 286.121094 586.429688 C 275.148438 590.890625 263.785156 594.015625 252.332031 596.929688 C 244.144531 599.015625 236.035156 600.414062 227.863281 597.21875 C 221.921875 594.894531 215.277344 594.007812 211.242188 587.976562 C 206.882812 581.46875 207.992188 576.488281 215.167969 573.820312 C 224.382812 570.402344 233.324219 566.492188 241.777344 561.425781 C 248.035156 557.675781 253.75 553.246094 257.550781 547.089844 C 259.757812 543.519531 262.910156 539.726562 261.242188 534.734375 C 259.101562 528.332031 250.132812 525.144531 243.046875 528.5 C 227.871094 535.6875 216.089844 546.378906 209.394531 562.046875 C 206.875 567.949219 204.304688 573.273438 196.828125 574.296875 C 191.292969 575.054688 185.945312 577.167969 180.414062 578.015625 C 167.828125 579.945312 155.152344 580.957031 142.921875 576.210938 C 131.199219 571.65625 125.769531 564.476562 128.925781 551.117188 C 132.46875 536.136719 139.074219 522.734375 148.894531 510.910156 C 150.507812 508.972656 152.066406 506.152344 154.691406 506.355469 C 156.679688 506.515625 158.070312 506.722656 158.910156 504.863281 C 159.652344 503.21875 158.226562 502.246094 157.175781 501.460938 C 155.609375 500.285156 153.875 500.453125 152.445312 501.808594 C 150.070312 504.0625 147.589844 506.242188 145.476562 508.726562 C 134.078125 522.121094 127.078125 537.617188 123.597656 554.808594 C 122.179688 561.820312 125.535156 570.96875 131.375 575.382812 C 140.078125 581.964844 150.027344 584.542969 160.738281 584.800781 C 174.265625 585.121094 187.421875 582.9375 200.234375 578.710938 C 202.582031 577.9375 203.167969 577.515625 203.425781 580.707031 C 203.757812 584.796875 204.820312 588.800781 207.707031 592.441406 C 212.253906 598.167969 218.714844 599.953125 224.871094 602.277344 C 236.226562 606.5625 247.574219 603.964844 258.714844 600.960938 C 267.417969 598.617188 275.988281 595.765625 284.777344 593.09375 C 284.828125 595.15625 283.71875 596.519531 283.066406 598.054688 C 279.6875 606.039062 282.128906 612.742188 289.574219 617.179688 C 295.328125 620.605469 301.484375 621.601562 307.9375 620.863281 C 321.839844 619.273438 334.960938 614.953125 347.761719 609.390625 C 356.457031 605.613281 364.351562 600.363281 373.960938 595.574219 C 372.105469 598.707031 370.578125 600.714844 369.644531 602.96875 C 366.960938 609.460938 365.140625 612.351562 373.601562 617.222656 C 380.730469 621.328125 388.25 620.921875 395.617188 619.3125 C 413.832031 615.332031 431.964844 610.945312 450.046875 606.390625 C 455.683594 604.96875 461.390625 603.375 466.578125 600.585938 C 468.097656 599.765625 470.835938 599.320312 469.503906 596.378906 C 468.066406 593.234375 465.785156 594.933594 463.824219 595.566406 Z M 322.074219 564.710938 C 322.550781 564.457031 323.535156 564.613281 323.9375 564.96875 C 324.207031 565.203125 324.082031 566.519531 323.757812 566.703125 C 317.402344 570.359375 312.027344 575.859375 303.429688 577.820312 C 308.679688 570.6875 315.671875 568.109375 322.074219 564.710938 Z M 212.707031 566.214844 C 219.730469 551.582031 229.839844 539.957031 245.042969 533.367188 C 250.105469 531.171875 256.378906 533.605469 256.265625 538.125 C 254.75 542.515625 252.078125 546.71875 248.367188 549.996094 C 238.59375 558.617188 227.085938 564.183594 214.761719 568.183594 C 213.972656 568.4375 213.113281 569.183594 212.523438 568.171875 C 212.25 567.707031 212.433594 566.789062 212.707031 566.214844 Z M 588.050781 400.515625 C 586.855469 401.890625 587.382812 403.949219 585.253906 405.140625 C 578.085938 409.148438 571.109375 413.492188 563.351562 416.351562 C 557.640625 418.457031 551.714844 417.378906 545.882812 417.515625 C 543.472656 417.574219 542.28125 417.925781 541.839844 420.617188 C 541.625 421.933594 541.480469 423.285156 541.292969 424.617188 C 540.34375 431.339844 543.304688 433.628906 549.902344 431.414062 C 553.09375 430.34375 556.449219 429.601562 559.785156 430.214844 C 560.933594 430.425781 562.710938 429.863281 563.464844 432.214844 C 564.128906 434.285156 563.070312 434.90625 562.167969 435.945312 C 556.515625 442.480469 548.617188 442.992188 540.878906 443.46875 C 538.859375 443.59375 537.28125 444.050781 537.273438 445.671875 C 537.234375 451.683594 534.023438 457.25 535.113281 463.777344 C 545.652344 462.570312 555.574219 464.460938 565.152344 468.039062 C 567.734375 469 571.320312 470.535156 570.359375 474.292969 C 569.488281 477.714844 566.472656 479.144531 562.863281 479.15625 C 553.816406 479.183594 544.773438 478.882812 535.738281 480.078125 C 531.820312 480.589844 528.277344 482.328125 524.199219 482.449219 C 520.234375 482.5625 516.90625 481.136719 513.386719 480.03125 C 512.015625 479.601562 510.636719 472.199219 511.296875 470.785156 C 513.929688 465.167969 515.820312 459.269531 517.863281 453.414062 C 519.28125 449.359375 519.875 444.917969 522.800781 441.367188 C 525.902344 437.605469 525.6875 432.601562 526.757812 428.164062 C 527.886719 423.480469 529.660156 419.03125 531.050781 414.464844 C 531.394531 413.335938 532.746094 409.945312 535.804688 412.496094 C 538.003906 414.328125 538.8125 411.21875 539.027344 410.574219 C 540.382812 406.46875 541.03125 405.667969 544.550781 406.566406 C 550.433594 408.070312 555.632812 405.867188 560.882812 403.898438 C 566.0625 401.957031 571.035156 399.226562 576.617188 398.789062 C 580.070312 398.519531 583.609375 399.425781 587.082031 399.265625 C 588.785156 399.179688 588.429688 400.078125 588.050781 400.515625 Z M 408.765625 241.183594 C 407.671875 238.335938 405.09375 235.730469 407.636719 232.023438 C 412.699219 224.65625 420.613281 221.070312 427.394531 215.945312 C 432.808594 211.855469 438.378906 208.929688 445.328125 208.730469 C 448.628906 208.632812 451.324219 210.15625 454.105469 211.230469 C 457.335938 212.472656 456.789062 216.847656 452.988281 219.113281 C 447.308594 222.5 442.363281 226.957031 436.667969 230.195312 C 433.90625 231.765625 433.644531 233.492188 433.765625 235.96875 C 434.304688 247.28125 436.335938 258.4375 435.492188 269.945312 C 435.148438 274.597656 436.855469 280.015625 437.082031 285.113281 C 437.492188 294.261719 439.804688 303.386719 437.898438 312.570312 C 436.78125 317.933594 432.390625 319.675781 427.699219 320.429688 C 421.089844 321.496094 416.644531 317.0625 416.035156 309.078125 C 415.878906 307.011719 416.011719 304.921875 416.011719 302.8125 C 415.382812 290.808594 416.433594 278.964844 418.488281 267.050781 C 419.753906 259.710938 418.5 251.933594 418.367188 244.351562 C 418.308594 240.953125 415.855469 242.132812 414.289062 242.5 C 412.085938 243.023438 409.738281 243.726562 408.765625 241.183594 Z M 364.378906 401.417969 C 362.113281 410.277344 362.757812 419.5 360.175781 428.425781 C 357.855469 436.449219 357.699219 445.09375 356.507812 453.453125 C 355.238281 462.371094 353.734375 471.234375 351.707031 480.035156 C 350.75 484.179688 351.664062 488.769531 346.945312 491.371094 C 343.746094 493.132812 337.503906 491.558594 335.9375 488.285156 C 334.78125 485.867188 333.644531 479.320312 333.671875 473.554688 C 336.898438 459.792969 336.222656 443.804688 341.144531 428.535156 C 343.90625 419.972656 347.144531 411.480469 349.03125 402.660156 C 349.925781 398.472656 353.691406 397.53125 355.914062 394.921875 C 356.972656 393.6875 364.855469 399.5625 364.378906 401.417969 Z M 667.90625 247.597656 C 659.832031 261.921875 652.757812 276.671875 647.917969 292.398438 C 647.160156 294.851562 645.082031 294.796875 643.894531 296.1875 C 642.683594 295.003906 641.457031 294.027344 641.460938 291.925781 C 641.472656 287.097656 642.90625 282.441406 642.671875 277.554688 C 642.367188 271.199219 641.6875 264.933594 640.539062 258.6875 C 640.25 257.121094 640.15625 255.246094 638.546875 254.925781 C 636.890625 254.59375 635.839844 256.472656 635.0625 257.652344 C 630.804688 264.121094 626.863281 270.808594 623.824219 277.941406 C 617.132812 293.640625 609.710938 309.050781 604.617188 325.402344 C 603.890625 327.734375 602.5625 329.265625 599.722656 328.867188 C 596.546875 328.417969 597.007812 325.59375 596.765625 323.851562 C 595.769531 316.753906 595.183594 309.59375 594.589844 302.445312 C 594.433594 300.550781 594.324219 298.167969 592.636719 297.722656 C 590.9375 297.273438 590 299.5 589.3125 301.09375 C 584.785156 311.558594 580.355469 322.0625 575.707031 332.472656 C 572.75 339.089844 569.476562 345.570312 566.320312 352.101562 C 565.523438 353.753906 564.101562 354.375 562.441406 353.691406 C 560.71875 352.984375 561.390625 351.496094 561.578125 350.132812 C 561.933594 347.554688 563.683594 345.664062 564.835938 343.527344 C 572.242188 329.78125 577.339844 315.003906 584.125 300.996094 C 586.1875 296.734375 587.761719 290.535156 594.226562 292.550781 C 599.425781 294.171875 598.972656 300.042969 599.757812 304.582031 C 600.3125 307.792969 600.789062 311.019531 601.488281 315.402344 C 607.175781 302.558594 612.097656 290.765625 617.597656 279.25 C 622 270.042969 625.800781 260.382812 633.316406 253 C 637.789062 248.605469 642.816406 249.707031 644.554688 255.789062 C 645.800781 260.15625 646.769531 264.660156 646.769531 269.285156 C 646.769531 270.699219 646.398438 272.257812 647.5625 273.902344 C 652.648438 263.859375 657.703125 254.34375 662.304688 244.613281 C 664.886719 239.148438 668.214844 234.085938 671.335938 229.023438 C 676.007812 221.445312 679.375 213.195312 684.234375 205.742188 C 685.40625 203.945312 686.644531 203.070312 688.320312 203.742188 C 690.527344 204.632812 689.617188 206.34375 688.855469 208.003906 C 682.640625 221.609375 675.234375 234.589844 667.90625 247.597656 Z M 102.9375 325.371094 C 104.003906 327.234375 106.722656 329.449219 103.605469 331.453125 C 100.632812 333.359375 98.964844 330.175781 97.976562 328.4375 C 91.988281 317.929688 86.796875 307.011719 81.863281 295.964844 C 75.679688 282.113281 69.246094 268.367188 62.375 253.394531 C 61.875 260.546875 61.453125 266.425781 61.0625 272.304688 C 60.992188 273.34375 61.425781 274.609375 60.976562 275.390625 C 59.734375 277.542969 61.367188 281.566406 57.28125 281.804688 C 53.554688 282.027344 53.730469 278.410156 53.109375 276.296875 C 49.503906 264.023438 44.039062 252.363281 41.105469 239.871094 C 40.859375 238.816406 40.082031 237.882812 39.554688 236.894531 C 38.007812 247.574219 36.507812 258.160156 34.925781 268.730469 C 34.558594 271.1875 33.367188 273.6875 31.0625 274.382812 C 28.253906 275.230469 26.910156 272.445312 25.601562 270.511719 C 15.597656 255.773438 9.859375 239.164062 4.734375 222.320312 C 3.417969 217.992188 1.035156 213.867188 1.5625 209.101562 C 1.742188 207.496094 0.0664062 204.660156 3.320312 204.796875 C 5.8125 204.90625 8.5 207.394531 7.578125 209.515625 C 5.539062 214.207031 7.96875 218.105469 9.238281 221.746094 C 13.628906 234.347656 17.507812 247.222656 24.492188 258.785156 C 25.777344 260.910156 26.96875 263.09375 28.203125 265.253906 C 28.675781 265.230469 29.148438 265.203125 29.621094 265.179688 C 30.703125 258.4375 31.878906 251.710938 32.839844 244.949219 C 33.667969 239.09375 34.402344 233.214844 34.867188 227.324219 C 35.074219 224.726562 35.972656 222.820312 38.464844 222.476562 C 41.261719 222.089844 41.722656 224.921875 42.136719 226.632812 C 45.335938 239.84375 50.367188 252.433594 54.792969 265.226562 C 55.015625 265.867188 55.351562 265.964844 56.519531 266.375 C 57.308594 261.878906 56.746094 257.328125 57.75 252.960938 C 58.289062 250.617188 58.53125 248.101562 60.828125 247.648438 C 63.039062 247.210938 65.164062 248.339844 66.394531 250.972656 C 73.199219 265.554688 80.382812 279.964844 87.078125 294.597656 C 91.886719 305.113281 97.203125 315.339844 102.9375 325.371094 Z M 748.679688 307.992188 C 750.058594 309.914062 748.421875 310.964844 746.804688 311.800781 C 737.25 316.753906 727.824219 321.964844 718.144531 326.65625 C 697.496094 336.65625 678.109375 348.914062 657.949219 359.785156 C 656.679688 360.46875 655.402344 361.648438 654.550781 361.40625 C 652.753906 360.996094 651.289062 361.617188 651.128906 360.148438 C 650.945312 358.464844 652.046875 357.617188 653.578125 356.757812 C 662.464844 351.746094 671.113281 346.296875 680.082031 341.429688 C 693.925781 333.917969 707.378906 325.679688 721.703125 319.042969 C 729.277344 315.535156 736.734375 311.765625 744.136719 307.902344 C 745.890625 306.988281 747.5 306.351562 748.679688 307.992188 Z M 81.164062 134.117188 C 80.65625 131.902344 80.644531 129.703125 82.929688 128.363281 C 85.160156 129.539062 86.765625 130.757812 87.183594 133.285156 C 90.089844 150.875 95.046875 167.972656 99.75 185.128906 C 101.03125 189.804688 102.265625 194.558594 104.257812 198.945312 C 105.316406 201.273438 104.011719 202.667969 103.074219 203.230469 C 101.152344 204.375 100.226562 202.691406 99.464844 200.910156 C 94.996094 190.488281 92.15625 179.554688 89.316406 168.644531 C 86.332031 157.199219 83.820312 145.640625 81.164062 134.117188 Z M 364.1875 368.425781 C 362.617188 368.972656 361.050781 370.292969 359.394531 369.382812 C 357.738281 368.476562 357.703125 366.808594 358.410156 365.542969 C 357.734375 360.738281 360.605469 357.496094 362.34375 353.9375 C 363.164062 352.265625 365.144531 352.453125 366.484375 353.152344 C 368.714844 354.3125 371.246094 356.117188 370.949219 358.679688 C 370.59375 361.71875 370.941406 366.019531 366.089844 366.402344 C 364.570312 366.523438 365.175781 368.078125 364.1875 368.425781 Z M 364.1875 368.425781 " fill-opacity="1" fill-rule="nonzero"/></g></svg>