<svg xmlns="http://www.w3.org/2000/svg" xmlns:xlink="http://www.w3.org/1999/xlink" width="1000" zoomAndPan="magnify" viewBox="0 0 750 749.999995" height="1000" preserveAspectRatio="xMidYMid meet" version="1.0"><defs><clipPath id="089ee2f566"><path d="M 8 62 L 467 62 L 467 521 L 8 521 Z M 8 62 " clip-rule="nonzero"/></clipPath><clipPath id="e64c0841c6"><path d="M -19.96875 94.507812 L 661.171875 4.964844 L 749.933594 680.15625 L 68.792969 769.699219 Z M -19.96875 94.507812 " clip-rule="nonzero"/></clipPath><clipPath id="519801d4b8"><path d="M -19.96875 94.507812 L 661.171875 4.964844 L 749.933594 680.15625 L 68.792969 769.699219 Z M -19.96875 94.507812 " clip-rule="nonzero"/></clipPath><clipPath id="9ba669cdcf"><path d="M 410 412 L 504 412 L 504 523 L 410 523 Z M 410 412 " clip-rule="nonzero"/></clipPath><clipPath id="9c1a067158"><path d="M -19.96875 94.507812 L 661.171875 4.964844 L 749.933594 680.15625 L 68.792969 769.699219 Z M -19.96875 94.507812 " clip-rule="nonzero"/></clipPath><clipPath id="bede00aa0b"><path d="M -19.96875 94.507812 L 661.171875 4.964844 L 749.933594 680.15625 L 68.792969 769.699219 Z M -19.96875 94.507812 " clip-rule="nonzero"/></clipPath><clipPath id="5011448bd1"><path d="M 495 475 L 743 475 L 743 686 L 495 686 Z M 495 475 " clip-rule="nonzero"/></clipPath><clipPath id="c8ea2e946f"><path d="M -19.96875 94.507812 L 661.171875 4.964844 L 749.933594 680.15625 L 68.792969 769.699219 Z M -19.96875 94.507812 " clip-rule="nonzero"/></clipPath><clipPath id="db7cdf1394"><path d="M -19.96875 94.507812 L 661.171875 4.964844 L 749.933594 680.15625 L 68.792969 769.699219 Z M -19.96875 94.507812 " clip-rule="nonzero"/></clipPath><clipPath id="faa677f608"><path d="M 78 226 L 316 226 L 316 454 L 78 454 Z M 78 226 " clip-rule="nonzero"/></clipPath><clipPath id="1945ad14e4"><path d="M -19.96875 94.507812 L 661.171875 4.964844 L 749.933594 680.15625 L 68.792969 769.699219 Z M -19.96875 94.507812 " clip-rule="nonzero"/></clipPath><clipPath id="7ed73c3194"><path d="M -19.96875 94.507812 L 661.171875 4.964844 L 749.933594 680.15625 L 68.792969 769.699219 Z M -19.96875 94.507812 " clip-rule="nonzero"/></clipPath></defs><g clip-path="url(#089ee2f566)"><g clip-path="url(#e64c0841c6)"><g clip-path="url(#519801d4b8)"><path fill="#ffffff" d="M 267.113281 518.890625 C 141.867188 535.355469 26.570312 446.863281 10.101562 321.601562 C -6.363281 196.339844 82.128906 81.054688 207.390625 64.589844 C 332.652344 48.121094 447.9375 136.617188 464.40625 261.878906 C 480.871094 387.140625 392.363281 502.425781 267.113281 518.890625 Z M 212.304688 101.949219 C 209.199219 102.359375 206.101562 102.84375 203.019531 103.402344 C 199.9375 103.964844 196.871094 104.597656 193.820312 105.308594 C 190.769531 106.019531 187.738281 106.804688 184.726562 107.664062 C 181.714844 108.523438 178.722656 109.457031 175.757812 110.464844 C 172.789062 111.46875 169.851562 112.550781 166.9375 113.699219 C 164.023438 114.851562 161.136719 116.074219 158.285156 117.363281 C 155.429688 118.65625 152.609375 120.019531 149.824219 121.449219 C 147.035156 122.878906 144.285156 124.378906 141.574219 125.945312 C 138.859375 127.511719 136.1875 129.140625 133.554688 130.839844 C 130.917969 132.535156 128.328125 134.296875 125.78125 136.121094 C 123.234375 137.945312 120.734375 139.832031 118.28125 141.777344 C 115.828125 143.726562 113.421875 145.730469 111.066406 147.796875 C 108.710938 149.863281 106.40625 151.984375 104.15625 154.160156 C 101.902344 156.339844 99.707031 158.574219 97.566406 160.859375 C 95.421875 163.144531 93.339844 165.480469 91.3125 167.871094 C 89.285156 170.257812 87.316406 172.695312 85.410156 175.179688 C 83.5 177.664062 81.65625 180.195312 79.871094 182.773438 C 78.089844 185.347656 76.371094 187.964844 74.714844 190.625 C 73.058594 193.285156 71.472656 195.984375 69.949219 198.722656 C 68.425781 201.460938 66.972656 204.234375 65.585938 207.042969 C 64.199219 209.851562 62.882812 212.695312 61.636719 215.570312 C 60.390625 218.441406 59.214844 221.347656 58.113281 224.277344 C 57.007812 227.210938 55.976562 230.167969 55.015625 233.148438 C 54.058594 236.132812 53.171875 239.136719 52.363281 242.160156 C 51.550781 245.1875 50.8125 248.230469 50.152344 251.292969 C 49.488281 254.355469 48.902344 257.433594 48.390625 260.523438 C 47.882812 263.613281 47.445312 266.714844 47.089844 269.828125 C 46.730469 272.941406 46.449219 276.058594 46.242188 279.183594 C 46.035156 282.3125 45.90625 285.441406 45.855469 288.574219 C 45.804688 291.703125 45.828125 294.835938 45.929688 297.96875 C 46.03125 301.097656 46.210938 304.226562 46.46875 307.347656 C 46.722656 310.46875 47.054688 313.585938 47.460938 316.691406 C 47.871094 319.796875 48.355469 322.890625 48.914062 325.972656 C 49.476562 329.054688 50.109375 332.121094 50.820312 335.171875 C 51.53125 338.222656 52.316406 341.257812 53.179688 344.269531 C 54.039062 347.28125 54.96875 350.269531 55.976562 353.238281 C 56.984375 356.203125 58.0625 359.144531 59.210938 362.058594 C 60.363281 364.972656 61.585938 367.855469 62.878906 370.710938 C 64.171875 373.5625 65.53125 376.382812 66.960938 379.171875 C 68.394531 381.957031 69.890625 384.707031 71.457031 387.421875 C 73.023438 390.132812 74.65625 392.808594 76.351562 395.441406 C 78.050781 398.074219 79.808594 400.664062 81.632812 403.210938 C 83.457031 405.757812 85.34375 408.257812 87.292969 410.714844 C 89.238281 413.167969 91.246094 415.570312 93.308594 417.929688 C 95.375 420.285156 97.496094 422.585938 99.675781 424.839844 C 101.851562 427.089844 104.085938 429.289062 106.371094 431.429688 C 108.65625 433.570312 110.996094 435.65625 113.382812 437.683594 C 115.773438 439.710938 118.207031 441.679688 120.695312 443.585938 C 123.179688 445.492188 125.707031 447.339844 128.285156 449.121094 C 130.859375 450.90625 133.476562 452.625 136.136719 454.277344 C 138.796875 455.933594 141.496094 457.523438 144.234375 459.042969 C 146.972656 460.566406 149.746094 462.019531 152.554688 463.40625 C 155.367188 464.792969 158.207031 466.109375 161.082031 467.355469 C 163.957031 468.601562 166.859375 469.777344 169.789062 470.882812 C 172.722656 471.988281 175.679688 473.019531 178.660156 473.976562 C 181.644531 474.9375 184.648438 475.820312 187.675781 476.632812 C 190.699219 477.445312 193.746094 478.179688 196.804688 478.84375 C 199.867188 479.503906 202.945312 480.089844 206.035156 480.601562 C 209.125 481.113281 212.226562 481.546875 215.339844 481.90625 C 218.453125 482.265625 221.570312 482.546875 224.699219 482.753906 C 227.824219 482.957031 230.953125 483.085938 234.085938 483.136719 C 237.21875 483.191406 240.347656 483.164062 243.480469 483.0625 C 246.613281 482.960938 249.738281 482.78125 252.859375 482.527344 C 255.984375 482.273438 259.097656 481.941406 262.203125 481.53125 C 265.308594 481.125 268.402344 480.640625 271.484375 480.078125 C 274.570312 479.519531 277.636719 478.882812 280.6875 478.171875 C 283.738281 477.460938 286.769531 476.675781 289.78125 475.816406 C 292.792969 474.957031 295.785156 474.023438 298.75 473.015625 C 301.71875 472.011719 304.65625 470.933594 307.570312 469.78125 C 310.484375 468.628906 313.367188 467.410156 316.222656 466.117188 C 319.078125 464.824219 321.898438 463.460938 324.683594 462.03125 C 327.46875 460.601562 330.222656 459.101562 332.933594 457.535156 C 335.648438 455.972656 338.320312 454.339844 340.953125 452.640625 C 343.585938 450.945312 346.175781 449.183594 348.722656 447.359375 C 351.269531 445.535156 353.773438 443.648438 356.226562 441.703125 C 358.679688 439.757812 361.085938 437.75 363.441406 435.683594 C 365.796875 433.621094 368.101562 431.496094 370.351562 429.320312 C 372.601562 427.140625 374.800781 424.910156 376.941406 422.625 C 379.085938 420.335938 381.167969 418 383.195312 415.609375 C 385.222656 413.222656 387.191406 410.785156 389.097656 408.300781 C 391.003906 405.816406 392.851562 403.285156 394.632812 400.710938 C 396.417969 398.132812 398.136719 395.515625 399.792969 392.855469 C 401.445312 390.195312 403.035156 387.496094 404.558594 384.757812 C 406.078125 382.019531 407.535156 379.246094 408.921875 376.4375 C 410.304688 373.628906 411.621094 370.785156 412.871094 367.914062 C 414.117188 365.039062 415.292969 362.136719 416.394531 359.203125 C 417.5 356.273438 418.53125 353.316406 419.488281 350.332031 C 420.449219 347.351562 421.332031 344.34375 422.144531 341.320312 C 422.957031 338.292969 423.695312 335.25 424.355469 332.1875 C 425.015625 329.125 425.605469 326.050781 426.113281 322.957031 C 426.625 319.867188 427.058594 316.765625 427.417969 313.652344 C 427.777344 310.542969 428.058594 307.421875 428.265625 304.296875 C 428.46875 301.171875 428.597656 298.042969 428.652344 294.910156 C 428.703125 291.777344 428.679688 288.644531 428.574219 285.515625 C 428.472656 282.382812 428.296875 279.253906 428.039062 276.132812 C 427.785156 273.011719 427.453125 269.898438 427.042969 266.789062 C 426.632812 263.6875 426.144531 260.59375 425.582031 257.515625 C 425.015625 254.433594 424.378906 251.367188 423.664062 248.320312 C 422.949219 245.269531 422.164062 242.242188 421.300781 239.230469 C 420.4375 236.21875 419.5 233.230469 418.492188 230.269531 C 417.484375 227.304688 416.402344 224.363281 415.25 221.453125 C 414.097656 218.542969 412.875 215.660156 411.578125 212.808594 C 410.285156 209.957031 408.921875 207.140625 407.488281 204.355469 C 406.058594 201.570312 404.558594 198.820312 402.992188 196.109375 C 401.421875 193.398438 399.792969 190.726562 398.09375 188.097656 C 396.394531 185.464844 394.632812 182.878906 392.808594 180.332031 C 390.984375 177.789062 389.097656 175.289062 387.148438 172.835938 C 385.203125 170.382812 383.195312 167.980469 381.132812 165.628906 C 379.066406 163.273438 376.945312 160.972656 374.765625 158.722656 C 372.589844 156.472656 370.355469 154.277344 368.070312 152.136719 C 365.785156 149.996094 363.449219 147.910156 361.058594 145.886719 C 358.671875 143.859375 356.238281 141.890625 353.753906 139.984375 C 351.269531 138.078125 348.738281 136.234375 346.164062 134.453125 C 343.589844 132.667969 340.972656 130.949219 338.3125 129.296875 C 335.65625 127.640625 332.957031 126.054688 330.21875 124.53125 C 327.484375 123.011719 324.710938 121.554688 321.902344 120.167969 C 319.09375 118.785156 316.253906 117.464844 313.382812 116.21875 C 310.511719 114.972656 307.609375 113.796875 304.679688 112.691406 C 301.75 111.585938 298.792969 110.554688 295.8125 109.59375 C 292.832031 108.636719 289.828125 107.75 286.804688 106.9375 C 283.78125 106.125 280.738281 105.386719 277.675781 104.722656 C 274.617188 104.058594 271.542969 103.472656 268.453125 102.957031 C 265.363281 102.445312 262.261719 102.007812 259.152344 101.648438 C 256.042969 101.289062 252.925781 101.003906 249.800781 100.796875 C 246.675781 100.585938 243.546875 100.457031 240.417969 100.402344 C 237.285156 100.347656 234.15625 100.367188 231.023438 100.46875 C 227.894531 100.566406 224.769531 100.742188 221.648438 100.996094 C 218.527344 101.246094 215.414062 101.574219 212.308594 101.980469 Z M 212.304688 101.949219 " fill-opacity="1" fill-rule="nonzero"/></g></g></g><g clip-path="url(#9ba669cdcf)"><g clip-path="url(#9c1a067158)"><g clip-path="url(#bede00aa0b)"><path fill="#ffffff" d="M 434.371094 521.882812 C 433.34375 522.015625 432.3125 522.078125 431.273438 522.058594 C 430.238281 522.042969 429.210938 521.949219 428.1875 521.78125 C 427.167969 521.613281 426.160156 521.371094 425.175781 521.054688 C 424.1875 520.738281 423.230469 520.351562 422.300781 519.894531 C 421.371094 519.4375 420.480469 518.914062 419.628906 518.324219 C 418.777344 517.738281 417.972656 517.089844 417.214844 516.382812 C 416.457031 515.675781 415.753906 514.914062 415.109375 514.105469 C 414.464844 513.292969 413.882812 512.441406 413.363281 511.546875 C 412.84375 510.648438 412.390625 509.71875 412.007812 508.757812 C 411.625 507.792969 411.316406 506.808594 411.078125 505.800781 C 410.839844 504.792969 410.679688 503.773438 410.589844 502.738281 C 410.503906 501.707031 410.492188 500.675781 410.558594 499.640625 C 410.621094 498.605469 410.761719 497.582031 410.976562 496.570312 C 411.195312 495.554688 411.480469 494.5625 411.84375 493.59375 C 412.207031 492.621094 412.636719 491.683594 413.136719 490.777344 C 413.636719 489.867188 414.199219 489.003906 414.828125 488.179688 L 465.015625 422.292969 C 465.414062 421.695312 465.84375 421.121094 466.300781 420.570312 C 466.757812 420.019531 467.242188 419.492188 467.753906 418.988281 C 468.265625 418.488281 468.800781 418.011719 469.359375 417.5625 C 469.917969 417.117188 470.5 416.699219 471.101562 416.308594 C 471.707031 415.921875 472.324219 415.5625 472.964844 415.238281 C 473.601562 414.914062 474.257812 414.621094 474.925781 414.363281 C 475.59375 414.101562 476.273438 413.878906 476.964844 413.691406 C 477.65625 413.5 478.355469 413.347656 479.0625 413.226562 C 479.769531 413.109375 480.480469 413.027344 481.195312 412.980469 C 481.910156 412.9375 482.628906 412.925781 483.34375 412.953125 C 484.058594 412.980469 484.773438 413.046875 485.484375 413.144531 C 486.191406 413.246094 486.894531 413.378906 487.589844 413.550781 C 488.289062 413.722656 488.972656 413.929688 489.648438 414.171875 C 490.324219 414.414062 490.984375 414.6875 491.628906 414.996094 C 492.277344 415.304688 492.90625 415.644531 493.519531 416.019531 C 494.132812 416.390625 494.722656 416.792969 495.292969 417.226562 C 495.867188 417.660156 496.414062 418.121094 496.9375 418.609375 C 497.460938 419.101562 497.960938 419.613281 498.429688 420.152344 C 498.902344 420.695312 499.347656 421.257812 499.761719 421.839844 C 500.175781 422.425781 500.558594 423.03125 500.910156 423.652344 C 501.265625 424.277344 501.585938 424.917969 501.871094 425.574219 C 502.160156 426.230469 502.414062 426.902344 502.632812 427.582031 C 502.851562 428.265625 503.035156 428.957031 503.183594 429.660156 C 503.332031 430.359375 503.445312 431.066406 503.523438 431.78125 C 503.601562 432.492188 503.640625 433.207031 503.644531 433.925781 C 503.648438 434.640625 503.617188 435.355469 503.546875 436.070312 C 503.476562 436.78125 503.375 437.492188 503.230469 438.195312 C 503.089844 438.898438 502.914062 439.589844 502.703125 440.273438 C 502.492188 440.960938 502.246094 441.632812 501.964844 442.292969 C 501.683594 442.953125 501.371094 443.59375 501.027344 444.222656 C 500.679688 444.851562 500.300781 445.460938 499.894531 446.050781 C 499.488281 446.640625 499.050781 447.207031 498.585938 447.75 L 448.398438 513.636719 C 447.558594 514.753906 446.621094 515.777344 445.578125 516.710938 C 444.535156 517.640625 443.414062 518.457031 442.210938 519.167969 C 441.007812 519.875 439.746094 520.457031 438.425781 520.914062 C 437.105469 521.371094 435.753906 521.695312 434.371094 521.882812 Z M 434.371094 521.882812 " fill-opacity="1" fill-rule="nonzero"/></g></g></g><g clip-path="url(#5011448bd1)"><g clip-path="url(#c8ea2e946f)"><g clip-path="url(#db7cdf1394)"><path fill="#ffffff" d="M 711.191406 685.070312 C 708.804688 685.386719 706.40625 685.464844 704 685.304688 C 701.59375 685.140625 699.226562 684.742188 696.902344 684.105469 C 694.578125 683.46875 692.339844 682.605469 690.183594 681.519531 C 688.03125 680.433594 686.007812 679.144531 684.117188 677.652344 L 509.46875 540.257812 C 508.535156 539.523438 507.644531 538.746094 506.789062 537.925781 C 505.933594 537.105469 505.121094 536.246094 504.347656 535.347656 C 503.578125 534.445312 502.855469 533.511719 502.175781 532.539062 C 501.496094 531.566406 500.867188 530.566406 500.285156 529.53125 C 499.707031 528.5 499.175781 527.441406 498.703125 526.355469 C 498.226562 525.269531 497.804688 524.164062 497.433594 523.039062 C 497.066406 521.910156 496.757812 520.769531 496.5 519.613281 C 496.246094 518.457031 496.046875 517.289062 495.90625 516.113281 C 495.765625 514.933594 495.683594 513.753906 495.660156 512.570312 C 495.632812 511.386719 495.667969 510.203125 495.757812 509.019531 C 495.851562 507.839844 496 506.664062 496.207031 505.5 C 496.414062 504.332031 496.675781 503.179688 496.996094 502.035156 C 497.316406 500.894531 497.691406 499.773438 498.121094 498.667969 C 498.554688 497.566406 499.035156 496.484375 499.574219 495.429688 C 500.109375 494.371094 500.695312 493.34375 501.335938 492.347656 C 501.972656 491.347656 502.65625 490.382812 503.390625 489.449219 C 504.121094 488.519531 504.898438 487.625 505.71875 486.769531 C 506.539062 485.914062 507.398438 485.101562 508.300781 484.332031 C 509.199219 483.5625 510.136719 482.835938 511.105469 482.15625 C 512.078125 481.476562 513.078125 480.847656 514.113281 480.269531 C 515.144531 479.6875 516.207031 479.160156 517.289062 478.683594 C 518.375 478.207031 519.480469 477.785156 520.609375 477.417969 C 521.734375 477.050781 522.875 476.738281 524.03125 476.484375 C 525.191406 476.226562 526.355469 476.03125 527.535156 475.890625 C 528.710938 475.75 529.890625 475.664062 531.074219 475.640625 C 532.261719 475.617188 533.441406 475.648438 534.625 475.742188 C 535.804688 475.832031 536.980469 475.980469 538.148438 476.1875 C 539.3125 476.394531 540.46875 476.660156 541.609375 476.980469 C 542.75 477.300781 543.871094 477.675781 544.976562 478.105469 C 546.082031 478.535156 547.160156 479.019531 548.21875 479.554688 C 549.273438 480.09375 550.300781 480.679688 551.300781 481.316406 C 552.296875 481.953125 553.265625 482.640625 554.195312 483.371094 L 728.84375 620.769531 C 730.234375 621.863281 731.539062 623.050781 732.753906 624.335938 C 733.972656 625.625 735.085938 626.992188 736.101562 628.441406 C 737.117188 629.890625 738.023438 631.40625 738.816406 632.988281 C 739.609375 634.570312 740.285156 636.203125 740.839844 637.882812 C 741.390625 639.566406 741.820312 641.277344 742.121094 643.019531 C 742.425781 644.765625 742.597656 646.523438 742.644531 648.292969 C 742.6875 650.0625 742.601562 651.824219 742.386719 653.582031 C 742.175781 655.339844 741.832031 657.070312 741.363281 658.777344 C 740.894531 660.484375 740.304688 662.148438 739.59375 663.769531 C 738.878906 665.386719 738.050781 666.949219 737.109375 668.445312 C 736.167969 669.945312 735.121094 671.367188 733.972656 672.714844 C 732.820312 674.058594 731.578125 675.3125 730.246094 676.476562 C 728.910156 677.636719 727.5 678.695312 726.007812 679.652344 C 724.519531 680.609375 722.964844 681.449219 721.351562 682.179688 C 719.738281 682.90625 718.082031 683.511719 716.378906 683.996094 C 714.675781 684.480469 712.949219 684.839844 711.191406 685.070312 Z M 711.191406 685.070312 " fill-opacity="1" fill-rule="nonzero"/></g></g></g><g clip-path="url(#faa677f608)"><g clip-path="url(#1945ad14e4)"><g clip-path="url(#7ed73c3194)"><path fill="#ffffff" d="M 257.914062 451.78125 C 228.652344 455.628906 188.875 452.328125 143.292969 425.925781 C 103.273438 402.757812 80.871094 361.964844 78.488281 307.992188 C 77.988281 295.578125 78.425781 283.195312 79.808594 270.847656 C 81.1875 258.5 83.496094 246.328125 86.726562 234.332031 C 86.941406 233.625 87.226562 232.945312 87.574219 232.292969 C 87.925781 231.640625 88.332031 231.027344 88.800781 230.457031 C 89.269531 229.882812 89.792969 229.363281 90.363281 228.894531 C 90.933594 228.425781 91.546875 228.015625 92.199219 227.664062 C 92.847656 227.316406 93.527344 227.03125 94.238281 226.816406 C 94.945312 226.601562 95.664062 226.453125 96.402344 226.378906 C 97.136719 226.304688 97.871094 226.304688 98.609375 226.371094 C 99.34375 226.441406 100.066406 226.582031 100.777344 226.796875 C 101.484375 227.007812 102.167969 227.285156 102.820312 227.632812 C 103.476562 227.976562 104.089844 228.382812 104.664062 228.847656 C 105.238281 229.3125 105.761719 229.832031 106.234375 230.398438 C 106.707031 230.96875 107.121094 231.578125 107.472656 232.226562 C 107.828125 232.878906 108.113281 233.554688 108.332031 234.261719 C 108.554688 234.96875 108.703125 235.6875 108.78125 236.425781 C 108.859375 237.160156 108.867188 237.894531 108.800781 238.632812 C 108.734375 239.371094 108.597656 240.09375 108.390625 240.800781 C 102.617188 262.683594 100.1875 284.929688 101.09375 307.542969 C 103.28125 353.773438 121.28125 386.980469 154.609375 406.316406 C 236.890625 454 296.871094 415.890625 297.472656 415.492188 C 298.09375 415.066406 298.75 414.707031 299.441406 414.414062 C 300.132812 414.121094 300.847656 413.894531 301.585938 413.746094 C 302.320312 413.59375 303.066406 413.515625 303.820312 413.511719 C 304.570312 413.511719 305.316406 413.582031 306.054688 413.726562 C 306.792969 413.875 307.507812 414.089844 308.203125 414.378906 C 308.898438 414.667969 309.558594 415.023438 310.179688 415.445312 C 310.804688 415.863281 311.382812 416.34375 311.910156 416.878906 C 312.4375 417.414062 312.90625 417.996094 313.320312 418.625 C 313.730469 419.253906 314.078125 419.917969 314.359375 420.617188 C 314.636719 421.316406 314.84375 422.035156 314.980469 422.773438 C 315.117188 423.515625 315.179688 424.261719 315.164062 425.011719 C 315.152344 425.765625 315.066406 426.507812 314.902344 427.242188 C 314.742188 427.976562 314.511719 428.6875 314.207031 429.378906 C 313.902344 430.066406 313.535156 430.71875 313.101562 431.332031 C 312.667969 431.945312 312.179688 432.511719 311.632812 433.03125 C 311.085938 433.546875 310.492188 434.003906 309.855469 434.402344 C 308.363281 435.433594 289.132812 447.679688 257.914062 451.78125 Z M 257.914062 451.78125 " fill-opacity="1" fill-rule="nonzero"/></g></g></g></svg>