<svg xmlns="http://www.w3.org/2000/svg" xmlns:xlink="http://www.w3.org/1999/xlink" width="1000" zoomAndPan="magnify" viewBox="0 0 750 749.999995" height="1000" preserveAspectRatio="xMidYMid meet" version="1.0"><path fill="#000000" d="M 537.921875 242.480469 C 509.148438 265.363281 480.394531 288.242188 451.652344 311.113281 C 423.984375 333.132812 396.839844 356.175781 367.863281 376.515625 C 353.085938 387.175781 337.332031 396.125 320.609375 403.359375 C 236 400.292969 151.378906 397.496094 66.75 394.960938 C 55.105469 394.601562 43.449219 394.390625 31.792969 394.136719 C 25.996094 394 19.777344 394.496094 14.070312 393.097656 C 7.894531 391.597656 1.089844 384.671875 6.421875 378.257812 C 6.492188 378.167969 6.546875 378.066406 6.589844 377.957031 C 9.667969 375.238281 12.761719 372.535156 15.902344 369.859375 L 182.636719 251.660156 C 193.324219 244.75 203.976562 237.828125 214.601562 230.898438 C 236.3125 216.679688 258.015625 202.449219 279.707031 188.207031 C 280.207031 187.871094 280.628906 187.453125 280.980469 186.960938 C 301.320312 187.429688 321.792969 186.390625 342.101562 186.0625 C 365.015625 185.691406 387.921875 185.269531 410.824219 184.800781 C 455.96875 183.917969 501.105469 183 546.226562 182.050781 C 569.359375 181.570312 592.507812 180.832031 615.65625 180.636719 L 558.726562 225.914062 C 554.578125 229.21875 560.4375 235.015625 564.554688 231.742188 L 624.234375 184.273438 C 624.539062 184.0625 624.800781 183.804688 625.019531 183.503906 C 625.238281 183.203125 625.402344 182.875 625.507812 182.519531 C 625.613281 182.160156 625.652344 181.796875 625.632812 181.425781 C 625.613281 181.054688 625.53125 180.695312 625.390625 180.351562 C 628.394531 179.195312 627.957031 173.863281 624.1875 174.015625 C 578.402344 175.816406 532.558594 176.101562 486.726562 177.019531 C 441.664062 177.980469 396.464844 178.878906 351.339844 180.023438 C 327.953125 180.609375 304.324219 180.351562 280.9375 181.898438 C 280.808594 181.65625 280.652344 181.433594 280.476562 181.222656 C 280.300781 181.011719 280.101562 180.824219 279.882812 180.65625 C 279.664062 180.492188 279.433594 180.347656 279.183594 180.230469 C 278.9375 180.113281 278.679688 180.023438 278.410156 179.960938 C 278.144531 179.898438 277.875 179.863281 277.597656 179.859375 C 277.324219 179.855469 277.054688 179.878906 276.785156 179.933594 C 276.515625 179.984375 276.253906 180.066406 276 180.175781 C 275.75 180.285156 275.511719 180.417969 275.289062 180.578125 C 236.535156 206.246094 197.863281 232.007812 159.28125 257.863281 C 124.203125 281.3125 88.753906 304.429688 55.632812 330.714844 C 36.796875 345.691406 18.273438 361.132812 1.253906 378.214844 C 1.011719 378.460938 0.859375 378.757812 0.800781 379.101562 C 0.738281 379.445312 0.785156 379.773438 0.9375 380.089844 C 1.085938 380.402344 1.3125 380.644531 1.617188 380.816406 C 1.921875 380.988281 2.246094 381.058594 2.59375 381.023438 C 2.378906 381.941406 2.285156 382.875 2.300781 383.816406 C 2.320312 384.761719 2.453125 385.6875 2.699219 386.597656 C 2.949219 387.507812 3.304688 388.375 3.765625 389.199219 C 4.226562 390.023438 4.78125 390.777344 5.433594 391.460938 C 11.066406 397.652344 21.082031 397.167969 28.699219 397.605469 C 52.34375 398.925781 75.988281 399.980469 99.628906 401.015625 C 146.917969 403.089844 194.265625 405.234375 241.507812 407.160156 C 266.121094 408.160156 290.742188 409.160156 315.367188 410.164062 C 315.421875 410.40625 315.507812 410.636719 315.617188 410.863281 C 315.726562 411.085938 315.859375 411.292969 316.015625 411.488281 C 316.171875 411.683594 316.347656 411.855469 316.542969 412.011719 C 316.738281 412.167969 316.949219 412.296875 317.171875 412.40625 C 317.398438 412.511719 317.628906 412.59375 317.875 412.652344 C 318.117188 412.707031 318.363281 412.734375 318.609375 412.734375 C 318.859375 412.738281 319.105469 412.710938 319.347656 412.65625 C 319.59375 412.601562 319.828125 412.523438 320.050781 412.417969 C 351.25 400.007812 378.09375 379.957031 404.171875 359.269531 C 433.492188 336.097656 462.75 312.855469 491.941406 289.542969 C 495.195312 295.46875 498.765625 301.195312 502.652344 306.726562 C 506.925781 313.265625 511.210938 319.773438 515.507812 326.253906 C 519.605469 332.503906 523.679688 338.757812 527.734375 345.015625 C 530.066406 348.605469 532.242188 353.097656 534.976562 356.914062 C 534.472656 357.375 534.195312 357.945312 534.136719 358.625 C 533.820312 362.53125 535.050781 366.527344 535.636719 370.386719 C 536.238281 374.683594 536.644531 379.023438 536.855469 383.367188 C 537.25 391.359375 537.003906 399.335938 536.117188 407.292969 C 535.21875 415.464844 533.460938 423.742188 529.238281 430.890625 C 527.539062 433.808594 525.566406 436.527344 523.320312 439.050781 C 521.953125 440.550781 520.316406 441.949219 518.8125 443.464844 C 515.054688 442.460938 511.257812 441.667969 507.414062 441.078125 C 502.769531 440.085938 497.875 438.570312 493.066406 438.492188 C 492.980469 438.429688 492.898438 438.429688 492.8125 438.492188 C 492.242188 438.492188 491.671875 438.492188 491.113281 438.492188 C 490.8125 438.496094 490.539062 438.589844 490.300781 438.773438 C 490.058594 438.957031 489.898438 439.195312 489.820312 439.484375 C 489.738281 439.777344 489.753906 440.0625 489.867188 440.34375 C 489.980469 440.625 490.164062 440.84375 490.421875 441 C 490.964844 441.347656 491.535156 441.648438 492.105469 441.949219 C 491.613281 443.511719 491.21875 445.097656 490.917969 446.710938 C 490.589844 449.417969 490.40625 452.136719 490.378906 454.867188 C 490.242188 459.238281 489.628906 463.878906 491.488281 467.933594 C 491.621094 468.183594 491.808594 468.375 492.046875 468.519531 C 492.289062 468.664062 492.546875 468.734375 492.828125 468.730469 C 479.878906 483 466.78125 496.582031 451.535156 508.550781 C 435.492188 521.152344 418.351562 532.023438 400.117188 541.164062 C 390.777344 545.859375 381.195312 549.972656 371.359375 553.507812 C 361.527344 557.046875 351.515625 559.976562 341.328125 562.304688 C 331.140625 564.632812 320.851562 566.339844 310.457031 567.421875 C 300.0625 568.507812 289.644531 568.960938 279.195312 568.789062 C 266.277344 568.714844 253.734375 566.511719 241.566406 562.179688 C 230.421875 558.015625 220.761719 551.152344 211.523438 543.703125 C 212.027344 543.855469 212.535156 543.867188 213.046875 543.742188 C 213.558594 543.617188 214 543.371094 214.378906 543.007812 C 214.757812 542.640625 215.015625 542.203125 215.15625 541.695312 C 215.292969 541.1875 215.296875 540.679688 215.160156 540.171875 C 212.804688 532.160156 210.441406 524.148438 208.070312 516.136719 C 215.578125 519.578125 224.113281 521.589844 232.101562 523.515625 C 241.269531 525.667969 250.53125 527.265625 259.890625 528.304688 C 278.722656 530.46875 297.554688 530.46875 316.386719 528.304688 C 334.882812 526.222656 352.90625 522.09375 370.464844 515.914062 C 384.238281 511.015625 401.617188 504.179688 405.703125 488.621094 C 405.757812 488.382812 405.769531 488.144531 405.738281 487.902344 C 405.707031 487.664062 405.636719 487.433594 405.523438 487.21875 C 405.414062 487.003906 405.269531 486.8125 405.09375 486.644531 C 404.914062 486.480469 404.714844 486.351562 404.488281 486.257812 C 404.265625 486.160156 404.035156 486.109375 403.792969 486.09375 C 403.550781 486.082031 403.3125 486.109375 403.078125 486.179688 C 402.847656 486.25 402.632812 486.359375 402.441406 486.503906 C 402.246094 486.648438 402.082031 486.824219 401.949219 487.027344 C 392.199219 500.773438 377.328125 506.929688 361.8125 511.949219 C 345.226562 517.3125 328.257812 520.816406 310.90625 522.460938 C 293.863281 524.070312 276.839844 523.914062 259.832031 521.996094 C 251.03125 520.953125 242.308594 519.449219 233.664062 517.488281 C 224.757812 515.539062 216.105469 512.351562 207.183594 510.550781 C 206.921875 510.496094 206.660156 510.496094 206.402344 510.550781 L 195.496094 473.417969 C 188.976562 451.246094 183.269531 428.550781 175.398438 406.8125 C 175.304688 406.511719 175.15625 406.234375 174.953125 405.988281 C 174.75 405.742188 174.511719 405.546875 174.230469 405.394531 C 173.953125 405.242188 173.65625 405.148438 173.339844 405.109375 C 173.023438 405.074219 172.710938 405.097656 172.40625 405.183594 C 172.101562 405.269531 171.820312 405.40625 171.570312 405.601562 C 171.316406 405.792969 171.109375 406.027344 170.949219 406.300781 C 170.789062 406.578125 170.683594 406.871094 170.636719 407.183594 C 170.589844 407.5 170.605469 407.8125 170.679688 408.121094 C 175.816406 430.652344 183.328125 452.808594 189.847656 474.980469 L 209.539062 541.839844 C 209.644531 542.246094 209.835938 542.605469 210.113281 542.921875 C 210.003906 542.957031 209.929688 543.03125 209.886719 543.136719 C 209.847656 543.246094 209.859375 543.347656 209.917969 543.445312 C 219.753906 562.011719 242.707031 570.261719 262.355469 572.992188 C 284.738281 576.101562 307.976562 572.902344 329.953125 568.113281 C 371.214844 559.097656 411.710938 542.320312 446.246094 517.894531 C 465.292969 504.375 484.128906 488.527344 498.820312 470.25 C 500.910156 467.621094 497.316406 463.863281 495.035156 466.464844 C 496.160156 462.8125 495.679688 458.773438 495.5625 454.957031 C 495.539062 452.226562 495.359375 449.507812 495.019531 446.800781 C 494.796875 445.488281 494.488281 444.195312 494.089844 442.925781 C 498.304688 444.449219 502.59375 445.710938 506.960938 446.710938 C 511.964844 448.121094 517.671875 450.570312 522.871094 449.714844 C 524.925781 449.367188 524.671875 446.710938 523.394531 445.761719 L 522.433594 445.117188 C 526.449219 442.992188 529.769531 440.074219 532.394531 436.359375 C 537.664062 429.375 540.234375 420.40625 541.585938 411.890625 C 542.988281 402.765625 543.464844 393.59375 543.011719 384.371094 C 542.726562 377.882812 542.726562 369.484375 540.789062 362.621094 C 541.027344 362.597656 541.246094 362.527344 541.453125 362.410156 C 541.660156 362.292969 541.835938 362.140625 541.980469 361.953125 C 542.121094 361.761719 542.222656 361.550781 542.273438 361.320312 C 542.328125 361.089844 542.335938 360.855469 542.292969 360.625 C 540.609375 354.132812 534.40625 347.734375 530.636719 342.238281 C 526.230469 335.777344 521.847656 329.308594 517.492188 322.828125 C 509.832031 311.457031 502.769531 298.628906 493.636719 288.28125 L 543.867188 248.324219 C 547.894531 245.003906 542.019531 239.207031 537.921875 242.480469 Z M 537.921875 242.480469 " fill-opacity="1" fill-rule="nonzero"/><path fill="#000000" d="M 322.199219 390.9375 C 353.355469 372.699219 383.152344 352.464844 411.59375 330.234375 C 426.042969 319.074219 440.253906 307.566406 454.265625 295.882812 C 461.042969 290.234375 467.710938 284.464844 474.335938 278.652344 C 477.660156 275.738281 480.953125 272.808594 484.21875 269.863281 C 487.597656 266.859375 491.730469 263.855469 493.832031 259.769531 C 493.980469 259.496094 494.078125 259.207031 494.128906 258.898438 C 494.183594 258.59375 494.1875 258.289062 494.140625 257.980469 C 494.09375 257.675781 494 257.382812 493.863281 257.105469 C 493.722656 256.828125 493.542969 256.578125 493.324219 256.359375 C 493.105469 256.140625 492.855469 255.960938 492.578125 255.820312 C 492.300781 255.679688 492.007812 255.589844 491.703125 255.542969 C 491.394531 255.496094 491.089844 255.5 490.78125 255.550781 C 490.476562 255.605469 490.1875 255.703125 489.914062 255.851562 C 485.933594 257.578125 482.929688 261.136719 479.921875 264.140625 C 476.917969 267.144531 473.496094 270.148438 470.265625 273.152344 C 463.566406 279.34375 456.746094 285.425781 449.957031 291.480469 C 436.78125 303.167969 423.25 314.417969 409.398438 325.367188 C 380.859375 347.898438 351.433594 369.214844 321.839844 390.289062 C 321.433594 390.558594 321.78125 391.191406 322.199219 390.9375 Z M 322.199219 390.9375 " fill-opacity="1" fill-rule="nonzero"/><path fill="#000000" d="M 9.023438 379.714844 C 8.757812 379.714844 8.503906 379.765625 8.257812 379.867188 C 8.011719 379.96875 7.796875 380.113281 7.609375 380.300781 C 7.421875 380.488281 7.277344 380.703125 7.175781 380.949219 C 7.074219 381.191406 7.023438 381.449219 7.023438 381.714844 C 7.023438 381.976562 7.074219 382.234375 7.175781 382.476562 C 7.277344 382.722656 7.421875 382.9375 7.609375 383.125 C 7.796875 383.3125 8.011719 383.457031 8.257812 383.558594 C 8.503906 383.660156 8.757812 383.710938 9.023438 383.710938 C 28.429688 384.808594 47.957031 384.523438 67.394531 384.792969 C 86.832031 385.0625 106.300781 385.316406 125.753906 385.542969 C 164.996094 385.984375 204.25 386.347656 243.503906 386.640625 L 276.265625 386.910156 C 286.78125 387 298.257812 388.414062 308.605469 386.324219 C 309.085938 386.179688 309.472656 385.90625 309.769531 385.503906 C 310.066406 385.105469 310.214844 384.652344 310.214844 384.152344 C 310.214844 383.65625 310.066406 383.203125 309.769531 382.800781 C 309.472656 382.402344 309.085938 382.128906 308.605469 381.984375 C 299.59375 380.015625 289.605469 380.992188 280.351562 380.917969 L 251.691406 380.691406 L 193.332031 380.242188 C 154.078125 379.941406 114.828125 379.734375 75.582031 379.625 C 53.441406 379.566406 31.164062 378.828125 9.023438 379.714844 Z M 9.023438 379.714844 " fill-opacity="1" fill-rule="nonzero"/><path fill="#000000" d="M 333.121094 228.886719 C 329.859375 222.21875 319.285156 218.566406 312.511719 217.15625 C 308.359375 216.273438 304.167969 216.03125 299.941406 216.425781 C 295.714844 216.820312 291.644531 217.832031 287.726562 219.46875 C 273.863281 225.3125 258.523438 242.539062 262.550781 258.613281 C 262.691406 259.054688 262.945312 259.410156 263.316406 259.6875 C 263.691406 259.960938 264.109375 260.097656 264.570312 260.097656 C 265.035156 260.097656 265.453125 259.960938 265.824219 259.6875 C 266.195312 259.410156 266.453125 259.054688 266.589844 258.613281 C 269.101562 251.929688 270.363281 245.09375 274.402344 238.949219 C 276.386719 235.921875 278.753906 233.230469 281.5 230.871094 C 284.25 228.515625 287.269531 226.585938 290.566406 225.085938 C 294.046875 223.613281 297.664062 222.652344 301.417969 222.203125 C 305.171875 221.753906 308.914062 221.832031 312.648438 222.441406 C 316.507812 223.042969 320.191406 224.199219 323.703125 225.914062 C 326.511719 227.277344 329.019531 229.351562 331.992188 230.296875 C 332.183594 230.355469 332.375 230.351562 332.5625 230.292969 C 332.75 230.230469 332.90625 230.125 333.03125 229.96875 C 333.152344 229.816406 333.222656 229.640625 333.242188 229.441406 C 333.257812 229.246094 333.21875 229.058594 333.121094 228.886719 Z M 333.121094 228.886719 " fill-opacity="1" fill-rule="nonzero"/><path fill="#000000" d="M 329.246094 248.367188 C 324.964844 248.925781 321.164062 251.824219 317.226562 253.402344 C 312.238281 255.359375 307.085938 256.691406 301.769531 257.398438 C 291.0625 258.898438 280.742188 256.929688 270.226562 254.738281 C 270.089844 254.710938 269.964844 254.730469 269.84375 254.796875 C 269.722656 254.859375 269.632812 254.957031 269.578125 255.082031 C 269.523438 255.210938 269.515625 255.339844 269.554688 255.472656 C 269.589844 255.601562 269.664062 255.710938 269.777344 255.789062 C 279.34375 261.390625 291.074219 262.382812 301.996094 261.167969 C 307.585938 260.550781 313.003906 259.234375 318.25 257.214844 C 322.394531 255.609375 327.652344 253.777344 330.117188 249.871094 C 330.476562 249.285156 330.011719 248.265625 329.246094 248.367188 Z M 329.246094 248.367188 " fill-opacity="1" fill-rule="nonzero"/><path fill="#000000" d="M 330.550781 238.289062 C 331.46875 238.289062 332.1875 236.96875 331.363281 236.308594 C 320.097656 227.292969 299.097656 234.625 292.171875 246.144531 C 291.617188 247.046875 292.773438 248.398438 293.675781 247.648438 C 298.960938 243.605469 304.386719 239.972656 310.980469 238.457031 C 317.574219 236.9375 323.914062 238.304688 330.550781 238.289062 Z M 330.550781 238.289062 " fill-opacity="1" fill-rule="nonzero"/><path fill="#000000" d="M 571.554688 280.441406 C 572.425781 266.753906 566.898438 251.269531 556.019531 242.449219 C 548.628906 236.441406 539.496094 234.054688 530.726562 230.871094 C 510.191406 223.359375 487.375 227.292969 466.132812 228.839844 L 393.761719 234.097656 C 380.242188 235.089844 366.589844 236.007812 353.007812 237.101562 C 340.300781 238.140625 326.257812 237.660156 314.058594 241.609375 C 313.335938 241.851562 313.1875 243.113281 314.058594 243.230469 C 324.753906 245.035156 336.125 243.230469 346.894531 242.511719 C 358.101562 241.804688 369.308594 241.007812 380.511719 240.199219 L 448.800781 235.269531 L 482.433594 232.835938 C 492.453125 232.117188 502.5625 231.230469 512.59375 232.132812 C 520.269531 232.820312 527.121094 235.285156 534.300781 237.765625 C 538.507812 239.054688 542.574219 240.699219 546.496094 242.691406 C 561.324219 250.832031 563.351562 265.972656 567.09375 280.980469 C 567.738281 283.667969 571.359375 282.902344 571.554688 280.441406 Z M 571.554688 280.441406 " fill-opacity="1" fill-rule="nonzero"/><path fill="#000000" d="M 583 289.859375 C 580.175781 288.039062 577.546875 292.5625 580.371094 294.363281 C 586.648438 298.359375 593.019531 303.753906 600.335938 305.511719 C 600.617188 305.582031 600.898438 305.558594 601.167969 305.445312 C 601.4375 305.328125 601.648438 305.144531 601.792969 304.890625 C 601.941406 304.636719 602 304.367188 601.964844 304.074219 C 601.929688 303.78125 601.8125 303.53125 601.609375 303.316406 C 596.925781 297.398438 589.277344 293.867188 583 289.859375 Z M 583 289.859375 " fill-opacity="1" fill-rule="nonzero"/><path fill="#000000" d="M 728.601562 337.023438 C 722.832031 330.492188 714.554688 323.023438 705.542969 319 C 708.621094 319.164062 711.746094 319.269531 714.871094 319.210938 C 715.539062 320.648438 716.332031 322.007812 717.257812 323.296875 C 718.492188 324.949219 721.480469 325.066406 722.019531 322.679688 C 722.320312 321.355469 722.371094 320.023438 722.171875 318.683594 C 726.628906 318.164062 730.898438 316.976562 734.984375 315.125 C 742.015625 311.832031 748.894531 305.121094 749.359375 296.949219 C 749.464844 294.921875 746.804688 294.574219 745.816406 295.988281 C 740.648438 303.347656 734.820312 308.695312 725.882812 311.113281 C 723.84375 311.652344 721.78125 312.0625 719.691406 312.34375 C 718.066406 309.859375 716.109375 307.671875 713.820312 305.78125 C 707.8125 300.71875 700.179688 298.074219 692.550781 296.496094 C 679.855469 293.863281 667.0625 293.234375 654.171875 294.605469 C 659.023438 292.417969 663.414062 289.527344 667.34375 285.9375 C 674.222656 279.503906 679.59375 271.992188 683.460938 263.40625 C 685.511719 258.945312 687.328125 254.394531 688.914062 249.75 C 690.640625 244.734375 692.925781 239.234375 692.804688 233.84375 C 692.800781 233.5625 692.75 233.292969 692.65625 233.027344 C 692.5625 232.765625 692.429688 232.523438 692.257812 232.300781 C 692.085938 232.082031 691.882812 231.894531 691.648438 231.738281 C 691.417969 231.585938 691.164062 231.472656 690.894531 231.398438 C 690.625 231.324219 690.347656 231.296875 690.070312 231.3125 C 689.789062 231.328125 689.519531 231.390625 689.261719 231.492188 C 689 231.597656 688.765625 231.742188 688.550781 231.921875 C 688.335938 232.101562 688.160156 232.3125 688.011719 232.550781 C 683.507812 239.070312 682.273438 248.367188 679.332031 255.667969 C 676.230469 263.902344 671.878906 271.414062 666.277344 278.203125 C 663.691406 281.355469 660.726562 284.101562 657.378906 286.441406 C 654.035156 288.777344 650.4375 290.617188 646.585938 291.960938 C 637.570312 294.800781 630.390625 292.800781 621.589844 291.042969 C 621.542969 290.878906 621.4375 290.78125 621.273438 290.746094 C 620.988281 288.882812 618.164062 287.738281 616.902344 289.378906 C 608.535156 286.777344 600.257812 284.074219 591.710938 281.867188 C 589.890625 281.386719 588.046875 281.003906 586.183594 280.726562 C 586.378906 267.941406 580.175781 253.476562 572.214844 243.96875 C 565.695312 236.230469 556.90625 231.410156 547.59375 227.804688 C 540.289062 224.832031 532.761719 222.617188 525.011719 221.160156 C 517.257812 219.703125 509.441406 219.035156 501.554688 219.152344 C 479.832031 219.601562 457.992188 222.425781 436.347656 224.515625 C 411.351562 226.933594 386.339844 229.097656 361.496094 232.761719 C 361.285156 232.761719 361.332031 233.152344 361.496094 233.136719 C 403.316406 231.980469 444.9375 227.128906 486.636719 224.125 C 504.980469 222.773438 522.253906 223.359375 539.679688 229.667969 C 548.316406 232.792969 557.042969 236.082031 564.058594 242.210938 C 568.796875 246.429688 572.53125 251.398438 575.261719 257.125 C 578.898438 264.636719 579.933594 272.660156 582.234375 280.46875 C 581.332031 280.429688 580.4375 280.492188 579.546875 280.65625 C 578.660156 280.816406 577.800781 281.078125 576.972656 281.433594 C 576.140625 281.789062 575.363281 282.234375 574.632812 282.765625 C 573.902344 283.296875 573.242188 283.90625 572.648438 284.585938 C 568.488281 289.574219 570.996094 295.671875 574.8125 299.96875 C 581.316406 307.253906 590.34375 312.976562 597.945312 319.089844 C 598.335938 319.410156 598.78125 319.597656 599.28125 319.644531 C 599.28125 319.644531 599.28125 319.644531 599.28125 319.75 C 603.023438 325.351562 607.917969 329.542969 612.800781 334.199219 C 617.683594 338.855469 622.519531 343.875 626.980469 349.085938 C 636.414062 360.140625 644.347656 372.65625 648.011719 386.851562 C 651.316406 399.785156 650.445312 413.753906 643.984375 425.574219 C 637.976562 436.628906 627.628906 444.007812 615.882812 448.105469 C 615.699219 448.160156 615.53125 448.242188 615.378906 448.351562 C 615.226562 448.464844 615.097656 448.601562 614.992188 448.761719 C 614.886719 448.917969 614.816406 449.089844 614.773438 449.277344 C 614.730469 449.460938 614.722656 449.648438 614.75 449.835938 C 614.773438 450.023438 614.832031 450.203125 614.921875 450.371094 C 615.011719 450.535156 615.128906 450.683594 615.269531 450.808594 C 615.414062 450.933594 615.574219 451.03125 615.75 451.097656 C 615.929688 451.164062 616.113281 451.199219 616.300781 451.203125 C 619.414062 451.332031 622.457031 450.941406 625.4375 450.03125 C 628.414062 449.125 631.160156 447.746094 633.667969 445.898438 C 638.882812 442.199219 643.222656 437.664062 646.691406 432.289062 C 654.199219 420.722656 656.242188 406.753906 654.082031 393.234375 C 651.660156 378.109375 644.558594 364.199219 635.226562 352.179688 C 630.039062 345.644531 624.382812 339.539062 618.253906 333.871094 C 612.589844 328.523438 607.046875 323.160156 600.125 319.601562 C 601.746094 319.195312 602.902344 317.285156 601.519531 315.933594 C 602.480469 315.394531 603.457031 314.777344 604.449219 314.117188 C 627.582031 335.929688 654.859375 354.269531 666.519531 385.332031 C 671.65625 399.003906 673.082031 413.679688 668.832031 427.753906 C 664.851562 441 656.242188 451.667969 645.21875 459.824219 C 643.234375 461.324219 644.285156 465.109375 647.066406 464.179688 C 676.957031 454.085938 682.90625 414.878906 674.105469 388.546875 C 663.214844 355.726562 634.671875 330.519531 605.757812 313.171875 C 606.898438 312.359375 608.039062 311.472656 609.167969 310.542969 C 609.257812 310.648438 609.371094 310.726562 609.496094 310.78125 C 624.339844 317.78125 638.53125 324.976562 651.121094 335.6875 C 663.4375 346.109375 673.769531 358.226562 682.109375 372.039062 C 686.25 378.882812 689.710938 386.058594 692.488281 393.5625 C 695.269531 401.0625 697.316406 408.761719 698.632812 416.652344 C 700.160156 424.851562 699.996094 433.019531 698.136719 441.152344 C 696.167969 449.039062 692.128906 454.777344 686.902344 460.84375 C 683.117188 465.246094 687.984375 472.863281 693.449219 469.332031 C 704.296875 462.390625 707.796875 448.722656 707.992188 436.390625 C 718.234375 436.886719 726.316406 427.378906 729.1875 418.363281 C 730.292969 414.707031 730.792969 410.964844 730.6875 407.144531 C 731.074219 408.949219 731.28125 410.777344 731.304688 412.625 C 731.304688 416.578125 729.800781 419.746094 728.960938 423.503906 C 727.910156 427.933594 733.796875 432.199219 737.148438 428.265625 C 747.558594 415.976562 739.867188 396.808594 732.445312 385.121094 C 723.898438 371.605469 712.542969 359.738281 700.902344 348.964844 C 689.28125 338.144531 676.707031 328.570312 663.183594 320.246094 C 656.503906 316.191406 649.625 312.511719 642.542969 309.207031 C 635.289062 305.824219 627.851562 303.722656 620.328125 301.140625 C 620.328125 301.140625 620.238281 301.214844 620.328125 301.242188 C 626.726562 304.414062 632.78125 308.515625 638.921875 312.179688 C 645.066406 315.84375 651.164062 319.71875 657.175781 323.835938 C 669.070312 332.027344 680.21875 341.128906 690.625 351.144531 C 700.953125 361.089844 710.375 371.824219 718.898438 383.351562 C 719.917969 384.730469 720.925781 386.160156 721.902344 387.601562 C 722.257812 390.371094 722.800781 393.105469 723.523438 395.804688 C 724.769531 401.8125 725.550781 407.820312 724.214844 413.828125 C 722.203125 422.839844 716.238281 429.179688 708.082031 432.785156 C 707.546875 419.292969 704.78125 406.277344 699.789062 393.730469 C 697.367188 387.351562 694.511719 381.175781 691.226562 375.195312 C 687.9375 369.21875 684.25 363.496094 680.164062 358.035156 C 676.074219 352.574219 671.625 347.421875 666.816406 342.582031 C 662.007812 337.742188 656.886719 333.261719 651.453125 329.136719 C 639.523438 320.214844 625.628906 312.253906 610.894531 308.933594 C 615.699219 304.519531 619.742188 299.066406 620.929688 293.238281 C 626.742188 298.421875 636.191406 298.796875 643.460938 297.742188 C 644.601562 297.578125 645.726562 297.351562 646.839844 297.082031 C 659.945312 296.492188 672.90625 297.613281 685.714844 300.449219 C 692.773438 302.070312 700.046875 304.144531 705.992188 308.425781 C 707.816406 309.726562 709.460938 311.230469 710.921875 312.929688 C 706.414062 312.929688 701.90625 312.78125 697.402344 312.570312 C 678.203125 311.652344 658.347656 309.476562 639.929688 303.949219 C 639.855469 303.949219 639.824219 304.039062 639.929688 304.066406 C 657.625 310.453125 675.199219 315.605469 693.691406 317.902344 C 698.691406 320.90625 704.207031 323.296875 708.96875 326.734375 C 714.75 330.835938 719.757812 335.726562 723.988281 341.410156 C 728.054688 346.851562 731.320312 352.734375 733.78125 359.0625 C 736.097656 365.175781 736.578125 371.722656 739.988281 377.339844 C 740.175781 377.652344 740.4375 377.890625 740.765625 378.046875 C 741.09375 378.203125 741.441406 378.261719 741.804688 378.214844 C 742.164062 378.167969 742.484375 378.023438 742.765625 377.789062 C 743.042969 377.550781 743.234375 377.257812 743.335938 376.90625 C 746.085938 369.875 743.214844 362.367188 740.4375 355.726562 C 737.539062 348.828125 733.59375 342.597656 728.601562 337.023438 Z M 609.390625 301.4375 C 606.152344 305.617188 602.355469 309.207031 598.003906 312.210938 C 597.820312 312.332031 597.652344 312.476562 597.511719 312.644531 L 585.492188 303.121094 C 583.050781 301.359375 580.753906 299.425781 578.597656 297.324219 C 575.039062 293.554688 572.679688 287.410156 578.988281 284.78125 C 580.433594 284.203125 581.9375 283.917969 583.496094 283.925781 C 583.550781 284.027344 583.617188 284.121094 583.699219 284.207031 C 583.78125 284.292969 583.871094 284.367188 583.96875 284.429688 C 584.070312 284.492188 584.175781 284.542969 584.289062 284.578125 C 584.402344 284.609375 584.515625 284.628906 584.632812 284.636719 C 584.75 284.640625 584.867188 284.628906 584.980469 284.601562 C 585.097656 284.578125 585.207031 284.539062 585.3125 284.484375 C 585.414062 284.429688 585.511719 284.363281 585.597656 284.28125 C 585.683594 284.203125 585.761719 284.113281 585.824219 284.015625 C 590.617188 284.480469 595.738281 286.417969 599.808594 287.378906 C 605.1875 288.640625 610.578125 289.558594 615.984375 290.550781 C 613.613281 294.0625 611.992188 298.058594 609.390625 301.4375 Z M 609.390625 301.4375 " fill-opacity="1" fill-rule="nonzero"/><path fill="#000000" d="M 697.011719 373.0625 C 703.246094 382.359375 707.179688 392.695312 712.859375 402.230469 C 713.035156 402.53125 713.285156 402.734375 713.617188 402.84375 C 713.945312 402.953125 714.269531 402.9375 714.585938 402.804688 C 714.90625 402.667969 715.140625 402.445312 715.292969 402.132812 C 715.445312 401.820312 715.472656 401.5 715.382812 401.164062 C 712.949219 390.261719 705.84375 379.625 699.429688 370.671875 C 692.617188 361.320312 684.769531 352.933594 675.890625 345.511719 C 675.125 344.851562 674 345.933594 674.765625 346.652344 C 683.171875 354.617188 690.589844 363.421875 697.011719 373.0625 Z M 697.011719 373.0625 " fill-opacity="1" fill-rule="nonzero"/><path fill="#000000" d="M 680.878906 386.878906 C 680.773438 386.699219 680.441406 386.746094 680.457031 386.984375 C 681.628906 398.835938 686.300781 409.894531 686.464844 421.96875 C 686.519531 424.605469 686.359375 427.230469 685.984375 429.839844 C 685.605469 432.449219 685.019531 435.011719 684.222656 437.527344 C 683.425781 440.039062 682.429688 442.472656 681.230469 444.820312 C 680.035156 447.171875 678.65625 449.40625 677.09375 451.53125 C 676.238281 452.671875 677.980469 453.664062 678.910156 452.929688 C 698.183594 437.789062 692.398438 404.921875 680.878906 386.878906 Z M 680.878906 386.878906 " fill-opacity="1" fill-rule="nonzero"/><path fill="#000000" d="M 661.125 411.832031 C 661.769531 403.703125 662.265625 392.8125 658.632812 385.289062 C 658.476562 385.015625 658.242188 384.902344 657.929688 384.941406 C 657.621094 384.980469 657.421875 385.152344 657.339844 385.453125 C 655.761719 392.632812 657.265625 400.746094 656.84375 408.105469 C 656.511719 416.960938 654.710938 425.507812 651.4375 433.746094 C 648.722656 440.324219 644.828125 446.109375 639.75 451.097656 C 634.460938 456.234375 628.046875 458.304688 622.234375 462.421875 C 621.886719 462.644531 621.640625 462.949219 621.488281 463.335938 C 621.339844 463.722656 621.320312 464.113281 621.429688 464.511719 C 621.539062 464.910156 621.753906 465.238281 622.078125 465.496094 C 622.398438 465.753906 622.769531 465.890625 623.179688 465.90625 C 630.0625 465.90625 636.867188 460.710938 641.65625 456.203125 C 647.363281 450.761719 651.816406 444.441406 655.011719 437.230469 C 658.511719 429.117188 660.546875 420.648438 661.125 411.832031 Z M 661.125 411.832031 " fill-opacity="1" fill-rule="nonzero"/><path fill="#000000" d="M 476.527344 438.703125 C 485.074219 435.25 492.453125 427.136719 498.355469 420.273438 C 504.71875 412.847656 510.046875 404.742188 514.335938 395.953125 C 518.714844 387.195312 521.90625 378.019531 523.90625 368.433594 C 525.769531 359.195312 527.242188 348.90625 523.742188 340.015625 C 523.707031 339.867188 523.613281 339.792969 523.460938 339.792969 C 523.3125 339.792969 523.21875 339.867188 523.183594 340.015625 C 521.050781 348.667969 521.351562 357.695312 519.714844 366.464844 C 517.992188 376.011719 515.054688 385.164062 510.898438 393.925781 C 506.785156 402.410156 501.648438 410.222656 495.484375 417.359375 C 492.609375 420.683594 489.539062 423.816406 486.277344 426.761719 C 482.65625 430.019531 478.480469 432.769531 475.117188 436.238281 C 474.214844 437.246094 475.101562 439.289062 476.527344 438.703125 Z M 476.527344 438.703125 " fill-opacity="1" fill-rule="nonzero"/><path fill="#000000" d="M 201.414062 417.359375 C 200.875 416.125 199.234375 416.90625 199.132812 417.972656 C 198.15625 427.78125 202.136719 438.554688 205.546875 447.609375 C 208.746094 456.277344 212.5 466.867188 218.882812 473.671875 C 219.210938 473.988281 219.601562 474.171875 220.054688 474.226562 C 220.503906 474.277344 220.925781 474.191406 221.320312 473.964844 C 221.714844 473.734375 222 473.414062 222.175781 472.996094 C 222.355469 472.578125 222.386719 472.148438 222.277344 471.707031 C 220.777344 467.515625 218.3125 463.789062 216.34375 459.824219 C 213.871094 454.859375 211.679688 449.773438 209.78125 444.5625 C 206.535156 435.746094 205.273438 425.996094 201.414062 417.359375 Z M 201.414062 417.359375 " fill-opacity="1" fill-rule="nonzero"/><path fill="#000000" d="M 227.957031 455.753906 C 232.628906 464.449219 236.714844 474.679688 243.820312 481.679688 C 244.089844 481.941406 244.414062 482.09375 244.789062 482.136719 C 245.160156 482.183594 245.511719 482.109375 245.835938 481.917969 C 246.160156 481.726562 246.394531 481.457031 246.539062 481.109375 C 246.683594 480.761719 246.707031 480.40625 246.613281 480.042969 C 244.449219 470.308594 237.929688 461.371094 233.09375 452.792969 C 230.449219 448.167969 227.867188 443.511719 225.148438 438.929688 C 222.730469 434.84375 220.492188 430.367188 217.019531 427.078125 C 216.796875 426.863281 216.527344 426.742188 216.222656 426.707031 C 215.914062 426.671875 215.625 426.734375 215.359375 426.890625 C 215.09375 427.046875 214.898438 427.265625 214.777344 427.550781 C 214.65625 427.835938 214.632812 428.128906 214.707031 428.429688 C 215.65625 433.101562 218.3125 437.441406 220.476562 441.664062 C 222.863281 446.394531 225.433594 451.066406 227.957031 455.753906 Z M 227.957031 455.753906 " fill-opacity="1" fill-rule="nonzero"/><path fill="#000000" d="M 499.332031 323.882812 C 502.074219 327.085938 504.640625 330.425781 507.035156 333.898438 C 509.035156 336.753906 510.507812 339.910156 513.570312 341.816406 C 513.71875 341.898438 513.875 341.964844 514.035156 342.007812 C 514.199219 342.050781 514.367188 342.070312 514.535156 342.070312 C 514.703125 342.070312 514.871094 342.050781 515.035156 342.003906 C 515.195312 341.960938 515.351562 341.898438 515.5 341.8125 C 515.644531 341.730469 515.777344 341.628906 515.898438 341.507812 C 516.019531 341.390625 516.121094 341.257812 516.207031 341.109375 C 516.292969 340.964844 516.355469 340.808594 516.402344 340.648438 C 516.445312 340.484375 516.46875 340.316406 516.46875 340.148438 C 516.246094 333.105469 508.402344 325.503906 503.882812 320.515625 C 498.308594 314.402344 491.671875 307.929688 484.007812 304.519531 C 483.707031 304.34375 483.386719 304.289062 483.042969 304.355469 C 482.703125 304.421875 482.425781 304.59375 482.214844 304.871094 C 482 305.148438 481.90625 305.460938 481.933594 305.808594 C 481.957031 306.15625 482.09375 306.453125 482.34375 306.695312 C 487.71875 312.691406 494.042969 317.753906 499.332031 323.882812 Z M 499.332031 323.882812 " fill-opacity="1" fill-rule="nonzero"/><path fill="#000000" d="M 105.351562 346.503906 C 88.242188 352 72.488281 361.523438 56.625 369.816406 C 55.992188 370.148438 56.429688 371.316406 57.121094 370.988281 C 73.644531 364.136719 91.066406 358.203125 106.238281 348.621094 C 107.394531 347.945312 106.644531 346.082031 105.351562 346.503906 Z M 105.351562 346.503906 " fill-opacity="1" fill-rule="nonzero"/><path fill="#000000" d="M 105.683594 361.585938 C 110.324219 360.519531 114.953125 357.8125 119.203125 355.574219 C 123.632812 353.488281 127.816406 350.984375 131.746094 348.066406 C 133.488281 346.5625 131.59375 343.875 129.613281 344.414062 C 124.902344 345.964844 120.398438 347.964844 116.09375 350.421875 C 111.84375 352.570312 107.082031 354.792969 103.550781 357.933594 C 101.839844 359.453125 103.671875 362.035156 105.683594 361.585938 Z M 105.683594 361.585938 " fill-opacity="1" fill-rule="nonzero"/><path fill="#000000" d="M 282.332031 279.464844 C 274.191406 281.6875 266.515625 285.472656 258.480469 288.128906 C 254.589844 289.378906 250.683594 290.609375 246.734375 291.660156 C 243.445312 292.546875 240.140625 292.980469 237.523438 295.25 C 237.421875 295.355469 237.351562 295.480469 237.3125 295.621094 C 237.273438 295.765625 237.273438 295.90625 237.308594 296.050781 C 237.347656 296.195312 237.417969 296.320312 237.519531 296.425781 C 237.621094 296.53125 237.746094 296.605469 237.886719 296.648438 C 241.191406 297.835938 244.628906 296.84375 247.964844 296.152344 C 252.289062 295.269531 256.554688 294.167969 260.761719 292.847656 C 268.632812 290.339844 276.957031 287.558594 283.640625 282.574219 C 283.808594 282.464844 283.957031 282.328125 284.078125 282.167969 C 284.199219 282.007812 284.289062 281.832031 284.347656 281.640625 C 284.410156 281.445312 284.433594 281.25 284.421875 281.050781 C 284.414062 280.847656 284.371094 280.65625 284.292969 280.46875 C 284.214844 280.285156 284.105469 280.117188 283.96875 279.96875 C 283.832031 279.820312 283.675781 279.703125 283.496094 279.609375 C 283.316406 279.519531 283.128906 279.460938 282.929688 279.433594 C 282.726562 279.410156 282.53125 279.417969 282.332031 279.464844 Z M 282.332031 279.464844 " fill-opacity="1" fill-rule="nonzero"/><path fill="#000000" d="M 282.304688 298.855469 C 287.996094 295.761719 294.847656 293.085938 299.804688 288.898438 C 301.109375 287.800781 299.714844 285.652344 298.179688 286.101562 C 295.144531 287.226562 292.257812 288.652344 289.515625 290.367188 L 280.261719 295.355469 C 277.960938 296.585938 280.003906 300.101562 282.304688 298.855469 Z M 282.304688 298.855469 " fill-opacity="1" fill-rule="nonzero"/><path fill="#000000" d="M 565.710938 183.867188 C 557.855469 184.527344 550.613281 189.875 543.960938 193.75 C 540.550781 195.765625 537.15625 197.808594 533.699219 199.761719 C 530.546875 201.519531 526.1875 202.882812 524.507812 206.21875 C 524.433594 206.359375 524.429688 206.5 524.488281 206.644531 C 524.550781 206.789062 524.65625 206.882812 524.808594 206.925781 C 530.605469 208.910156 540.277344 202 545.222656 199.234375 C 552.296875 195.253906 560.78125 192.160156 567 187.007812 C 567.269531 186.746094 567.4375 186.433594 567.511719 186.066406 C 567.585938 185.703125 567.554688 185.347656 567.410156 185.003906 C 567.269531 184.660156 567.042969 184.382812 566.734375 184.175781 C 566.425781 183.96875 566.082031 183.867188 565.710938 183.867188 Z M 565.710938 183.867188 " fill-opacity="1" fill-rule="nonzero"/></svg>