<svg xmlns="http://www.w3.org/2000/svg" xmlns:xlink="http://www.w3.org/1999/xlink" width="1000" zoomAndPan="magnify" viewBox="0 0 750 749.999995" height="1000" preserveAspectRatio="xMidYMid meet" version="1.0"><defs><clipPath id="224eb68fde"><path d="M 268 193 L 707 193 L 707 638 L 268 638 Z M 268 193 " clip-rule="nonzero"/></clipPath><clipPath id="30bea56ceb"><path d="M 315.871094 193.9375 L 706.257812 240.402344 L 658.957031 637.828125 L 268.570312 591.367188 Z M 315.871094 193.9375 " clip-rule="nonzero"/></clipPath><clipPath id="3ec85ca25e"><path d="M 0.558594 0.921875 L 438.320312 0.921875 L 438.320312 444.921875 L 0.558594 444.921875 Z M 0.558594 0.921875 " clip-rule="nonzero"/></clipPath><clipPath id="2058012ca7"><path d="M 47.871094 0.9375 L 438.257812 47.402344 L 390.957031 444.828125 L 0.570312 398.367188 Z M 47.871094 0.9375 " clip-rule="nonzero"/></clipPath><clipPath id="8a7dc4d223"><rect x="0" width="439" y="0" height="445"/></clipPath><clipPath id="9c0d6f152e"><path d="M 171 484 L 627 484 L 627 583 L 171 583 Z M 171 484 " clip-rule="nonzero"/></clipPath><clipPath id="3e97d18965"><path d="M 177.191406 484.851562 L 626.289062 538.300781 L 621.0625 582.214844 L 171.964844 528.765625 Z M 177.191406 484.851562 " clip-rule="nonzero"/></clipPath><clipPath id="8bb8915394"><path d="M 0.839844 0.800781 L 455.398438 0.800781 L 455.398438 98.238281 L 0.839844 98.238281 Z M 0.839844 0.800781 " clip-rule="nonzero"/></clipPath><clipPath id="4385459970"><path d="M 6.191406 0.851562 L 455.289062 54.300781 L 450.0625 98.214844 L 0.964844 44.765625 Z M 6.191406 0.851562 " clip-rule="nonzero"/></clipPath><clipPath id="91828fe2df"><rect x="0" width="456" y="0" height="99"/></clipPath><clipPath id="3c1541bc4c"><path d="M 163 443 L 287 443 L 287 567 L 163 567 Z M 163 443 " clip-rule="nonzero"/></clipPath><clipPath id="b617aa572e"><path d="M 228.417969 443.765625 L 286.324219 498.683594 L 221.589844 566.9375 L 163.683594 512.019531 Z M 228.417969 443.765625 " clip-rule="nonzero"/></clipPath><clipPath id="98ba568384"><path d="M 0.679688 0.761719 L 123.558594 0.761719 L 123.558594 124 L 0.679688 124 Z M 0.679688 0.761719 " clip-rule="nonzero"/></clipPath><clipPath id="a5c6c9de18"><path d="M 65.417969 0.765625 L 123.324219 55.683594 L 58.589844 123.9375 L 0.683594 69.019531 Z M 65.417969 0.765625 " clip-rule="nonzero"/></clipPath><clipPath id="e8c5ceb0bc"><rect x="0" width="124" y="0" height="124"/></clipPath><clipPath id="ad607526b4"><path d="M 174 509 L 628 509 L 628 663 L 174 663 Z M 174 509 " clip-rule="nonzero"/></clipPath><clipPath id="e6b955faea"><path d="M 186.679688 509.703125 L 627.308594 611.640625 L 615.480469 662.78125 L 174.847656 560.84375 Z M 186.679688 509.703125 " clip-rule="nonzero"/></clipPath><clipPath id="25c83335da"><path d="M 0.71875 0.519531 L 453.359375 0.519531 L 453.359375 153.878906 L 0.71875 153.878906 Z M 0.71875 0.519531 " clip-rule="nonzero"/></clipPath><clipPath id="1685d87e78"><path d="M 12.679688 0.703125 L 453.308594 102.640625 L 441.480469 153.78125 L 0.847656 51.84375 Z M 12.679688 0.703125 " clip-rule="nonzero"/></clipPath><clipPath id="ff288151e8"><rect x="0" width="454" y="0" height="154"/></clipPath><clipPath id="e1a263992e"><path d="M 207 387 L 330 387 L 330 511 L 207 511 Z M 207 387 " clip-rule="nonzero"/></clipPath><clipPath id="45a1214af4"><path d="M 271.984375 387.644531 L 329.890625 442.5625 L 265.15625 510.816406 L 207.25 455.898438 Z M 271.984375 387.644531 " clip-rule="nonzero"/></clipPath><clipPath id="dd27b0b23f"><path d="M 0.121094 0.601562 L 123 0.601562 L 123 123.960938 L 0.121094 123.960938 Z M 0.121094 0.601562 " clip-rule="nonzero"/></clipPath><clipPath id="3fe652f665"><path d="M 64.984375 0.644531 L 122.890625 55.5625 L 58.15625 123.816406 L 0.25 68.898438 Z M 64.984375 0.644531 " clip-rule="nonzero"/></clipPath><clipPath id="60787f80b9"><rect x="0" width="123" y="0" height="124"/></clipPath><clipPath id="924067c984"><path d="M 32.613281 186.949219 L 317.433594 186.949219 L 317.433594 449.230469 L 32.613281 449.230469 Z M 32.613281 186.949219 " clip-rule="nonzero"/></clipPath><clipPath id="202f3d49b5"><path d="M 174.847656 186.949219 C 96.296875 186.949219 32.613281 245.664062 32.613281 318.089844 C 32.613281 390.515625 96.296875 449.230469 174.847656 449.230469 C 253.402344 449.230469 317.082031 390.515625 317.082031 318.089844 C 317.082031 245.664062 253.402344 186.949219 174.847656 186.949219 Z M 174.847656 186.949219 " clip-rule="nonzero"/></clipPath><clipPath id="a43f07f93a"><path d="M 0.613281 0.949219 L 285.28125 0.949219 L 285.28125 263.230469 L 0.613281 263.230469 Z M 0.613281 0.949219 " clip-rule="nonzero"/></clipPath><clipPath id="3da965159c"><path d="M 142.847656 0.949219 C 64.296875 0.949219 0.613281 59.664062 0.613281 132.089844 C 0.613281 204.515625 64.296875 263.230469 142.847656 263.230469 C 221.402344 263.230469 285.082031 204.515625 285.082031 132.089844 C 285.082031 59.664062 221.402344 0.949219 142.847656 0.949219 Z M 142.847656 0.949219 " clip-rule="nonzero"/></clipPath><clipPath id="b5a391d0b5"><rect x="0" width="286" y="0" height="264"/></clipPath><clipPath id="871a902713"><path d="M 84.824219 229.726562 L 268.816406 229.726562 L 268.816406 404.175781 L 84.824219 404.175781 Z M 84.824219 229.726562 " clip-rule="nonzero"/></clipPath><clipPath id="ba092962ff"><path d="M 176.699219 229.726562 C 125.957031 229.726562 84.824219 268.777344 84.824219 316.953125 C 84.824219 365.125 125.957031 404.175781 176.699219 404.175781 C 227.4375 404.175781 268.570312 365.125 268.570312 316.953125 C 268.570312 268.777344 227.4375 229.726562 176.699219 229.726562 Z M 176.699219 229.726562 " clip-rule="nonzero"/></clipPath><clipPath id="739110ad18"><path d="M 0.824219 0.726562 L 184.800781 0.726562 L 184.800781 175.175781 L 0.824219 175.175781 Z M 0.824219 0.726562 " clip-rule="nonzero"/></clipPath><clipPath id="d02b0390b3"><path d="M 92.699219 0.726562 C 41.957031 0.726562 0.824219 39.777344 0.824219 87.953125 C 0.824219 136.125 41.957031 175.175781 92.699219 175.175781 C 143.4375 175.175781 184.570312 136.125 184.570312 87.953125 C 184.570312 39.777344 143.4375 0.726562 92.699219 0.726562 Z M 92.699219 0.726562 " clip-rule="nonzero"/></clipPath><clipPath id="0df135ec4a"><rect x="0" width="185" y="0" height="176"/></clipPath><clipPath id="68389115c0"><path d="M 290 158 L 686 158 L 686 282 L 290 282 Z M 290 158 " clip-rule="nonzero"/></clipPath><clipPath id="49c9ab4992"><path d="M 299.828125 158.230469 L 685.257812 204.101562 L 676.101562 281.019531 L 290.671875 235.144531 Z M 299.828125 158.230469 " clip-rule="nonzero"/></clipPath><clipPath id="4d14b43176"><path d="M 0.640625 0.160156 L 395.441406 0.160156 L 395.441406 123.039062 L 0.640625 123.039062 Z M 0.640625 0.160156 " clip-rule="nonzero"/></clipPath><clipPath id="5c67b21df7"><path d="M 9.828125 0.230469 L 395.257812 46.101562 L 386.101562 123.019531 L 0.671875 77.144531 Z M 9.828125 0.230469 " clip-rule="nonzero"/></clipPath><clipPath id="01aaaaf140"><rect x="0" width="396" y="0" height="124"/></clipPath><clipPath id="4d58c05ce4"><path d="M 299 182 L 695 182 L 695 306 L 299 306 Z M 299 182 " clip-rule="nonzero"/></clipPath><clipPath id="5f6cd8637f"><path d="M 308.828125 182.527344 L 694.257812 228.402344 L 685.101562 305.320312 L 299.671875 259.445312 Z M 308.828125 182.527344 " clip-rule="nonzero"/></clipPath><clipPath id="b470c92d29"><path d="M 0.519531 0.398438 L 395.320312 0.398438 L 395.320312 123.519531 L 0.519531 123.519531 Z M 0.519531 0.398438 " clip-rule="nonzero"/></clipPath><clipPath id="1b694ca170"><path d="M 9.828125 0.527344 L 395.257812 46.402344 L 386.101562 123.320312 L 0.671875 77.445312 Z M 9.828125 0.527344 " clip-rule="nonzero"/></clipPath><clipPath id="199fd19e9c"><rect x="0" width="396" y="0" height="124"/></clipPath></defs><g clip-path="url(#224eb68fde)"><g clip-path="url(#30bea56ceb)"><g transform="matrix(1, 0, 0, 1, 268, 193)"><g clip-path="url(#8a7dc4d223)"><g clip-path="url(#3ec85ca25e)"><g clip-path="url(#2058012ca7)"><path fill="#ffeebc" d="M 47.871094 0.9375 L 438.257812 47.402344 L 390.886719 445.414062 L 0.5 398.949219 Z M 47.871094 0.9375 " fill-opacity="1" fill-rule="nonzero"/></g></g></g></g></g></g><g clip-path="url(#9c0d6f152e)"><g clip-path="url(#3e97d18965)"><g transform="matrix(1, 0, 0, 1, 171, 484)"><g clip-path="url(#91828fe2df)"><g clip-path="url(#8bb8915394)"><g clip-path="url(#4385459970)"><path fill="#ffeebc" d="M 6.191406 0.851562 L 455.277344 54.300781 L 450.050781 98.214844 L 0.964844 44.765625 Z M 6.191406 0.851562 " fill-opacity="1" fill-rule="nonzero"/></g></g></g></g></g></g><g clip-path="url(#3c1541bc4c)"><g clip-path="url(#b617aa572e)"><g transform="matrix(1, 0, 0, 1, 163, 443)"><g clip-path="url(#e8c5ceb0bc)"><g clip-path="url(#98ba568384)"><g clip-path="url(#a5c6c9de18)"><path fill="#ffeebc" d="M 65.417969 0.765625 L 123.324219 55.683594 L 58.535156 123.996094 L 0.632812 69.074219 Z M 65.417969 0.765625 " fill-opacity="1" fill-rule="nonzero"/></g></g></g></g></g></g><g clip-path="url(#ad607526b4)"><g clip-path="url(#e6b955faea)"><g transform="matrix(1, 0, 0, 1, 174, 509)"><g clip-path="url(#ff288151e8)"><g clip-path="url(#25c83335da)"><g clip-path="url(#1685d87e78)"><path fill="#ffeebc" d="M 12.679688 0.703125 L 453.367188 102.65625 L 441.535156 153.796875 L 0.847656 51.84375 Z M 12.679688 0.703125 " fill-opacity="1" fill-rule="nonzero"/></g></g></g></g></g></g><g clip-path="url(#e1a263992e)"><g clip-path="url(#45a1214af4)"><g transform="matrix(1, 0, 0, 1, 207, 387)"><g clip-path="url(#60787f80b9)"><g clip-path="url(#dd27b0b23f)"><g clip-path="url(#3fe652f665)"><path fill="#ffeebc" d="M 64.984375 0.644531 L 122.890625 55.5625 L 58.101562 123.871094 L 0.195312 68.953125 Z M 64.984375 0.644531 " fill-opacity="1" fill-rule="nonzero"/></g></g></g></g></g></g><g clip-path="url(#924067c984)"><g clip-path="url(#202f3d49b5)"><g transform="matrix(1, 0, 0, 1, 32, 186)"><g clip-path="url(#b5a391d0b5)"><g clip-path="url(#a43f07f93a)"><g clip-path="url(#3da965159c)"><path fill="#8c52ff" d="M 0.613281 0.949219 L 285.433594 0.949219 L 285.433594 263.230469 L 0.613281 263.230469 Z M 0.613281 0.949219 " fill-opacity="1" fill-rule="nonzero"/></g></g></g></g></g></g><g clip-path="url(#871a902713)"><g clip-path="url(#ba092962ff)"><g transform="matrix(1, 0, 0, 1, 84, 229)"><g clip-path="url(#0df135ec4a)"><g clip-path="url(#739110ad18)"><g clip-path="url(#d02b0390b3)"><path fill="#fcc8ff" d="M 0.824219 0.726562 L 184.816406 0.726562 L 184.816406 175.175781 L 0.824219 175.175781 Z M 0.824219 0.726562 " fill-opacity="1" fill-rule="nonzero"/></g></g></g></g></g></g><g clip-path="url(#68389115c0)"><g clip-path="url(#49c9ab4992)"><g transform="matrix(1, 0, 0, 1, 290, 158)"><g clip-path="url(#01aaaaf140)"><g clip-path="url(#4d14b43176)"><g clip-path="url(#5c67b21df7)"><path fill="#af1000" d="M 9.828125 0.230469 L 395.3125 46.109375 L 386.15625 123.023438 L 0.671875 77.144531 Z M 9.828125 0.230469 " fill-opacity="1" fill-rule="nonzero"/></g></g></g></g></g></g><g clip-path="url(#4d58c05ce4)"><g clip-path="url(#5f6cd8637f)"><g transform="matrix(1, 0, 0, 1, 299, 182)"><g clip-path="url(#199fd19e9c)"><g clip-path="url(#b470c92d29)"><g clip-path="url(#1b694ca170)"><path fill="#af1000" d="M 9.828125 0.527344 L 395.3125 46.40625 L 386.15625 123.324219 L 0.671875 77.445312 Z M 9.828125 0.527344 " fill-opacity="1" fill-rule="nonzero"/></g></g></g></g></g></g><path fill="#000000" d="M 377.65625 413.632812 C 395.964844 434.136719 398.59375 460.824219 418.773438 460.980469 C 418.835938 460.980469 418.886719 460.980469 418.949219 460.980469 C 430.113281 460.980469 425.648438 458.132812 492.210938 416.007812 C 503.085938 408.671875 524.539062 398.226562 525.953125 382.726562 C 526.304688 378.960938 525.546875 373.378906 519.988281 368.191406 L 519.988281 368.183594 C 515.621094 364.101562 509.046875 362.601562 502.4375 364.132812 C 496.246094 365.585938 497.316406 365.429688 433.253906 404.234375 C 427.933594 407.464844 427.648438 408.140625 422.402344 399 C 417.851562 391.003906 412.171875 382.757812 403.707031 379.6875 C 395.230469 376.625 385.199219 379.433594 379.34375 386.527344 C 371.804688 395.699219 373.800781 409.359375 377.65625 413.632812 Z M 377.65625 413.632812 " fill-opacity="1" fill-rule="nonzero"/><path fill="#000000" d="M 339.214844 531.378906 C 351.792969 534.742188 352.160156 535.15625 354.039062 535.15625 C 357.558594 535.15625 360.773438 532.832031 361.738281 529.289062 C 362.914062 525.03125 360.417969 520.628906 356.164062 519.457031 L 343.460938 515.96875 C 339.183594 514.792969 334.804688 517.304688 333.640625 521.550781 C 332.464844 525.808594 334.960938 530.207031 339.214844 531.378906 Z M 339.214844 531.378906 " fill-opacity="1" fill-rule="nonzero"/><path fill="#000000" d="M 253.832031 507.914062 L 302.117188 521.179688 C 306.261719 522.339844 310.742188 519.925781 311.9375 515.59375 C 313.101562 511.335938 310.59375 506.9375 306.339844 505.769531 L 258.078125 492.5 C 253.726562 491.296875 249.410156 493.835938 248.246094 498.089844 C 247.078125 502.34375 249.578125 506.742188 253.832031 507.914062 Z M 253.832031 507.914062 " fill-opacity="1" fill-rule="nonzero"/><path fill="#000000" d="M 82.367188 430.734375 C 114.832031 455.078125 155.75 466.519531 199.175781 458.308594 C 191.203125 467.03125 176.445312 482.3125 166.804688 489.253906 C 145.855469 504.332031 152.0625 521.042969 172.96875 528.9375 C 172.34375 536.328125 170.15625 543.5 166.980469 547.949219 C 158.621094 559.605469 161.84375 572.109375 179.613281 576.628906 C 265.738281 598.570312 550.46875 649.238281 612.964844 661.679688 C 614.722656 662.804688 616.707031 663.378906 618.917969 663.378906 C 628.492188 663.378906 641.777344 654.039062 653.894531 645.527344 C 668.640625 635.148438 684.503906 632.542969 688.414062 612.714844 C 703.414062 537.453125 705.125 536.542969 724.621094 396.976562 L 744.980469 251.082031 C 746.550781 239.828125 750.722656 209.933594 730.15625 196.617188 C 722.160156 191.441406 697.136719 191.484375 686.605469 192.390625 C 683.863281 191.636719 658.886719 189.277344 629.339844 186.03125 C 627.988281 158.125 614.695312 137.910156 597.558594 137.910156 C 581.695312 137.910156 569.253906 155.082031 566.308594 179.324219 L 415.507812 163.28125 C 412.578125 138.761719 400.144531 121.53125 384.355469 121.53125 C 369.902344 121.53125 358.402344 135.886719 354.222656 156.757812 L 306.640625 151.695312 C 298.578125 150.976562 291.023438 153.304688 286.636719 157.847656 C 277.457031 167.019531 280.964844 183.734375 284.054688 198.476562 C 286.15625 208.585938 286.128906 208.046875 286.574219 222.511719 C 255.632812 189.15625 213.816406 175.457031 168.542969 177.316406 C 144.78125 178.3125 125.136719 187.46875 105.359375 197.625 C 17.3125 244.203125 0.199219 367.496094 82.367188 430.734375 Z M 176.136719 502.226562 C 191.371094 491.292969 214.730469 466.421875 227.507812 449.960938 C 298.863281 421.355469 344.347656 345.445312 315.539062 269.050781 C 535.753906 290.96875 636.796875 315.648438 657.304688 317.824219 C 638.675781 411.765625 625.800781 469.785156 586.925781 543.394531 L 584.171875 548.648438 C 557.695312 599.355469 541.636719 605.265625 491.828125 591.203125 C 485.136719 589.554688 475.191406 585.375 396.1875 568.695312 C 322.613281 553.152344 251.902344 535.0625 182.640625 515.367188 C 164.382812 510.113281 169.390625 507.078125 176.136719 502.226562 Z M 183.554688 561.136719 C 180.496094 560.363281 179.101562 559.5625 178.664062 559.53125 C 179.796875 556.546875 186.171875 550.773438 188.496094 533.527344 C 280.148438 559.296875 339.636719 573.089844 392.886719 584.335938 C 472.183594 601.074219 480.445312 604.855469 487.488281 606.589844 C 542.796875 622.171875 567.082031 615.882812 598.339844 556.050781 L 601.054688 550.871094 C 638.316406 480.332031 651.910156 425.820312 669.308594 339.335938 C 673.417969 362 673.988281 384.71875 670.738281 406.257812 C 656.796875 498.609375 628.484375 598.742188 616.347656 626.132812 C 613.09375 633.46875 610.550781 639.535156 609.140625 644.640625 C 534.113281 630.085938 266.273438 582.210938 183.554688 561.136719 Z M 597.558594 153.898438 C 604.046875 153.898438 611.667969 166.28125 613.167969 184.3125 L 582.269531 181.023438 C 584.449219 164.246094 592.039062 153.898438 597.558594 153.898438 Z M 384.355469 137.515625 C 390.042969 137.515625 396.601562 147.058594 399.15625 161.539062 L 370.128906 158.449219 C 373.144531 145.351562 379.546875 137.515625 384.355469 137.515625 Z M 298.027344 169.054688 C 301.53125 165.425781 315.675781 169.542969 352.511719 172.648438 C 352.410156 179.101562 352.757812 185.019531 354.488281 192.878906 C 346.460938 197.722656 341.148438 205.992188 341.148438 215.375 C 341.148438 230.226562 354.507812 242.304688 370.925781 242.304688 C 387.351562 242.304688 400.710938 230.226562 400.710938 215.375 C 400.710938 200.476562 387.351562 188.355469 370.925781 188.355469 C 370.5625 188.355469 370.222656 188.441406 369.863281 188.453125 C 368.984375 184.230469 368.4375 179.519531 368.421875 174.34375 L 565.914062 195.355469 C 566.167969 200.242188 566.734375 204.914062 567.691406 209.261719 C 543.125 224.089844 554.808594 258.6875 584.128906 258.6875 C 600.554688 258.6875 613.914062 246.605469 613.914062 231.753906 C 613.914062 217.082031 600.707031 204.265625 583.066406 204.835938 C 582.5625 202.417969 582.199219 199.808594 581.957031 197.0625 L 675.089844 206.972656 C 672.101562 223.476562 669.699219 240.144531 667.371094 256.347656 C 665.21875 271.238281 662.871094 286.570312 660.15625 301.980469 C 639.105469 300.371094 534.046875 274.222656 307.941406 252.210938 C 306.246094 249.0625 304.480469 245.949219 302.539062 242.925781 C 302.9375 231.785156 302.785156 220.261719 301.960938 208.570312 C 301.324219 199.101562 293.621094 173.460938 298.027344 169.054688 Z M 112.746094 211.800781 C 136.90625 199.394531 151.984375 193.121094 176.875 193.121094 C 256.714844 193.121094 306.304688 251.726562 308.347656 312.695312 C 308.347656 312.699219 308.347656 312.707031 308.347656 312.710938 C 311.921875 411.441406 184.859375 487.660156 92.035156 418.003906 C 19.082031 361.875 35.238281 252.804688 112.746094 211.800781 Z M 112.746094 211.800781 " fill-opacity="1" fill-rule="nonzero"/><path fill="#000000" d="M 96.996094 380.355469 C 159.910156 454.472656 280.738281 402.15625 277.574219 313.414062 C 276.804688 290.878906 267.804688 269.125 252.25 252.199219 C 232.691406 230.675781 205.957031 220.46875 176.75 220.46875 C 157.273438 220.46875 144.980469 225.742188 128 234.507812 C 88.691406 255.460938 68.148438 300.792969 78.621094 343.71875 C 81.984375 357.042969 88.296875 369.667969 96.996094 380.355469 Z M 135.417969 248.667969 C 146.613281 242.886719 156.992188 238.160156 168.761719 236.972656 L 168.761719 252.214844 C 168.761719 256.628906 172.339844 260.207031 176.75 260.207031 C 181.160156 260.207031 184.742188 256.628906 184.742188 252.214844 L 184.742188 236.835938 C 195.550781 237.652344 205.664062 240.078125 214.859375 244.257812 C 224.515625 248.621094 233.117188 254.910156 240.453125 262.980469 C 252.414062 276 259.648438 292.375 261.234375 309.488281 L 241.992188 309.488281 C 237.582031 309.488281 234.003906 313.070312 234.003906 317.480469 C 234.003906 321.894531 237.582031 325.476562 241.992188 325.476562 L 261.023438 325.476562 C 256.339844 361.886719 224.054688 393.652344 184.742188 398.964844 L 184.742188 382.75 C 184.742188 378.335938 181.160156 374.757812 176.75 374.757812 C 172.339844 374.757812 168.761719 378.335938 168.761719 382.75 L 168.761719 399.53125 C 128.4375 397.226562 94.355469 367.234375 92.074219 325.476562 L 111.5 325.476562 C 115.910156 325.476562 119.488281 321.894531 119.488281 317.480469 C 119.488281 313.070312 115.910156 309.488281 111.5 309.488281 L 92.796875 309.488281 C 96.664062 282.84375 113.128906 260.550781 135.417969 248.667969 Z M 135.417969 248.667969 " fill-opacity="1" fill-rule="nonzero"/><path fill="#000000" d="M 173.972656 330.40625 C 181.734375 328.898438 189.660156 328.523438 197.546875 329.261719 C 201.835938 329.722656 205.839844 326.453125 206.253906 322.0625 C 206.671875 317.664062 203.445312 313.765625 199.046875 313.351562 C 193.417969 312.808594 187.746094 312.757812 182.140625 313.199219 C 183.191406 304.019531 183.015625 294.648438 181.597656 285.601562 C 180.921875 281.246094 176.96875 278.285156 172.464844 278.933594 C 168.105469 279.621094 165.128906 283.707031 165.804688 288.066406 C 167.492188 298.839844 167.097656 310.152344 164.660156 320.777344 C 163.367188 326.429688 168.355469 331.519531 173.972656 330.40625 Z M 173.972656 330.40625 " fill-opacity="1" fill-rule="nonzero"/><path fill="#000000" d="M 92.992188 95.914062 C 90.210938 92.460938 85.199219 91.933594 81.753906 94.683594 C 78.320312 97.445312 77.769531 102.476562 80.527344 105.917969 C 83.371094 108.769531 85.011719 113.730469 90.640625 113.730469 C 97.289062 113.730469 101.101562 105.960938 96.851562 100.710938 Z M 92.992188 95.914062 " fill-opacity="1" fill-rule="nonzero"/><path fill="#000000" d="M 117.96875 152.425781 C 119.539062 154.386719 121.859375 155.40625 124.191406 155.40625 C 130.828125 155.40625 134.640625 147.660156 130.414062 142.402344 L 110.730469 117.945312 C 107.941406 114.5 102.914062 113.976562 99.492188 116.738281 C 96.058594 119.507812 95.519531 124.539062 98.285156 127.980469 Z M 117.96875 152.425781 " fill-opacity="1" fill-rule="nonzero"/><path fill="#000000" d="M 152.082031 45.144531 C 147.714844 45.820312 144.726562 49.90625 145.40625 54.265625 L 159.085938 142.636719 C 159.765625 147.003906 163.847656 149.980469 168.199219 149.3125 C 172.570312 148.636719 175.554688 144.550781 174.878906 140.191406 L 161.195312 51.820312 C 160.519531 47.460938 156.359375 44.515625 152.082031 45.144531 Z M 152.082031 45.144531 " fill-opacity="1" fill-rule="nonzero"/><path fill="#000000" d="M 242.242188 89.355469 L 244.011719 85.847656 C 246.007812 81.90625 244.425781 77.097656 240.496094 75.105469 C 236.550781 73.101562 231.746094 74.699219 229.757812 78.625 L 227.988281 82.132812 C 225.992188 86.070312 227.574219 90.878906 231.503906 92.871094 C 235.390625 94.851562 240.234375 93.324219 242.242188 89.355469 Z M 242.242188 89.355469 " fill-opacity="1" fill-rule="nonzero"/><path fill="#000000" d="M 227.800781 100.28125 C 223.890625 98.296875 219.0625 99.886719 217.074219 103.824219 L 199.917969 137.949219 C 197.230469 143.285156 201.152344 149.527344 207.046875 149.527344 C 209.980469 149.527344 212.789062 147.914062 214.195312 145.117188 L 231.347656 111.015625 C 233.335938 107.070312 231.746094 102.261719 227.800781 100.28125 Z M 227.800781 100.28125 " fill-opacity="1" fill-rule="nonzero"/></svg>