<svg xmlns="http://www.w3.org/2000/svg" xmlns:xlink="http://www.w3.org/1999/xlink" width="120" zoomAndPan="magnify" viewBox="0 0 90 89.999999" height="120" preserveAspectRatio="xMidYMid meet" version="1.0"><defs><clipPath id="ec719ee668"><path d="M 7 7 L 71 7 L 71 85 L 7 85 Z M 7 7 " clip-rule="nonzero"/></clipPath><clipPath id="92a1257df8"><path d="M 9.5625 0 L 85.863281 12.082031 L 74.015625 86.898438 L -2.285156 74.816406 Z M 9.5625 0 " clip-rule="nonzero"/></clipPath><clipPath id="1d774ea7f4"><path d="M 9.5625 0 L 85.863281 12.082031 L 74.015625 86.898438 L -2.285156 74.816406 Z M 9.5625 0 " clip-rule="nonzero"/></clipPath><clipPath id="a37434a419"><path d="M 42 5 L 80 5 L 80 55 L 42 55 Z M 42 5 " clip-rule="nonzero"/></clipPath><clipPath id="a664d76ab1"><path d="M 9.5625 0 L 85.863281 12.082031 L 74.015625 86.898438 L -2.285156 74.816406 Z M 9.5625 0 " clip-rule="nonzero"/></clipPath><clipPath id="0a77b4cff0"><path d="M 9.5625 0 L 85.863281 12.082031 L 74.015625 86.898438 L -2.285156 74.816406 Z M 9.5625 0 " clip-rule="nonzero"/></clipPath><clipPath id="0e3ea75567"><path d="M 40 17 L 68 17 L 68 53 L 40 53 Z M 40 17 " clip-rule="nonzero"/></clipPath><clipPath id="2b616b6ca3"><path d="M 9.5625 0 L 85.863281 12.082031 L 74.015625 86.898438 L -2.285156 74.816406 Z M 9.5625 0 " clip-rule="nonzero"/></clipPath><clipPath id="a1a06ce0a1"><path d="M 9.5625 0 L 85.863281 12.082031 L 74.015625 86.898438 L -2.285156 74.816406 Z M 9.5625 0 " clip-rule="nonzero"/></clipPath><clipPath id="bf95ac8a1d"><path d="M 38 29 L 55 29 L 55 51 L 38 51 Z M 38 29 " clip-rule="nonzero"/></clipPath><clipPath id="0e5a044311"><path d="M 9.5625 0 L 85.863281 12.082031 L 74.015625 86.898438 L -2.285156 74.816406 Z M 9.5625 0 " clip-rule="nonzero"/></clipPath><clipPath id="7350f264db"><path d="M 9.5625 0 L 85.863281 12.082031 L 74.015625 86.898438 L -2.285156 74.816406 Z M 9.5625 0 " clip-rule="nonzero"/></clipPath><clipPath id="9b24c2b207"><path d="M 37.5 0 L 90 0 L 90 55.894531 L 37.5 55.894531 Z M 37.5 0 " clip-rule="nonzero"/></clipPath><clipPath id="c4a2c54a59"><path d="M 0.5 0 L 53 0 L 53 55.894531 L 0.5 55.894531 Z M 0.5 0 " clip-rule="nonzero"/></clipPath><clipPath id="c3019566f8"><rect x="0" width="53" y="0" height="56"/></clipPath></defs><g clip-path="url(#ec719ee668)"><g clip-path="url(#92a1257df8)"><g clip-path="url(#1d774ea7f4)"><path fill="#ffffff" d="M 68.953125 67.417969 C 65.289062 65.546875 60.605469 63.148438 55.941406 61.214844 C 54.996094 60.789062 52.75 60.433594 51.507812 61.890625 L 47.710938 66.078125 C 47.386719 66.394531 47 66.519531 46.625 66.550781 C 45.710938 66.5 44.753906 66.164062 44.132812 65.421875 C 42.355469 63.851562 35.832031 55.636719 32.023438 50.613281 C 28.273438 45.230469 22.640625 36.605469 21.515625 34.402344 C 21.089844 33.597656 20.976562 32.566406 21.210938 31.683594 C 21.371094 31.25 21.609375 30.917969 21.996094 30.796875 L 27.148438 28.480469 C 28.339844 27.933594 29.277344 25.503906 29.164062 24.472656 C 28.863281 20.558594 28.367188 16.152344 27.359375 10.285156 C 27.097656 9.046875 25.527344 7.324219 22.496094 7.855469 C 18.378906 8.863281 14.417969 10.628906 10.878906 13.199219 C 9.839844 13.953125 8.886719 14.726562 8.011719 15.597656 C 7.804688 15.75 7.671875 16.003906 7.644531 16.183594 C 5.238281 27.3125 10.394531 43.597656 20.765625 57.761719 C 30.65625 72.035156 44.570312 82.429688 55.976562 84.238281 C 56.425781 84.308594 56.785156 84.363281 57.234375 84.4375 C 57.503906 84.480469 57.699219 84.417969 57.90625 84.265625 C 59.023438 83.613281 60.050781 82.949219 61.074219 82.28125 C 63.882812 80.242188 66.300781 77.769531 68.386719 75.0625 C 68.875 74.308594 69.347656 73.648438 69.835938 72.898438 C 70.394531 71.695312 71.59375 68.757812 68.953125 67.417969 Z M 23.082031 9.976562 C 23.933594 9.832031 24.984375 10.183594 25.167969 10.765625 C 26.097656 16.527344 26.699219 20.859375 26.925781 24.671875 C 27.003906 25.328125 26.683594 26.199219 26.175781 26.484375 L 24.984375 27.035156 C 22.296875 21.914062 21.085938 16.195312 21.441406 10.453125 C 21.441406 10.453125 22.5 10.160156 23.082031 9.976562 Z M 67.910156 71.671875 C 67.648438 72.183594 67.304688 72.589844 67.054688 73.007812 C 56.816406 69.636719 53.242188 66.035156 52.246094 64.773438 L 53.253906 63.640625 C 53.804688 63.085938 54.613281 63.210938 55.210938 63.492188 C 59.621094 65.296875 64.304688 67.695312 67.894531 69.460938 C 68.492188 69.738281 68.308594 70.90625 67.910156 71.671875 Z M 67.910156 71.671875 " fill-opacity="1" fill-rule="nonzero"/></g></g></g><g clip-path="url(#a37434a419)"><g clip-path="url(#a664d76ab1)"><g clip-path="url(#0a77b4cff0)"><path fill="#ffffff" d="M 43.871094 5.441406 C 43.242188 5.339844 42.707031 5.808594 42.625 6.347656 C 42.539062 6.886719 42.992188 7.511719 43.53125 7.597656 C 65.355469 11.050781 80.160156 31.535156 76.71875 53.269531 C 76.617188 53.898438 77.085938 54.433594 77.625 54.519531 C 78.164062 54.605469 78.789062 54.152344 78.875 53.613281 C 82.589844 30.722656 66.851562 9.171875 43.871094 5.441406 Z M 43.871094 5.441406 " fill-opacity="1" fill-rule="nonzero"/></g></g></g><g clip-path="url(#0e3ea75567)"><g clip-path="url(#2b616b6ca3)"><g clip-path="url(#a1a06ce0a1)"><path fill="#ffffff" d="M 59.835938 30.800781 C 64.234375 36.746094 66 44.207031 64.832031 51.574219 C 64.734375 52.203125 65.203125 52.734375 65.742188 52.820312 C 66.277344 52.90625 66.902344 52.453125 66.988281 51.914062 C 69.589844 35.476562 58.328125 19.976562 41.890625 17.371094 C 41.261719 17.273438 40.726562 17.742188 40.640625 18.28125 C 40.542969 18.910156 40.921875 19.429688 41.445312 19.605469 C 41.445312 19.605469 41.535156 19.617188 41.535156 19.617188 C 48.898438 20.785156 55.449219 24.769531 59.835938 30.800781 Z M 59.835938 30.800781 " fill-opacity="1" fill-rule="nonzero"/></g></g></g><g clip-path="url(#bf95ac8a1d)"><g clip-path="url(#0e5a044311)"><g clip-path="url(#7350f264db)"><path fill="#ffffff" d="M 39.632812 32.207031 C 47.898438 33.515625 53.566406 41.320312 52.257812 49.582031 C 52.160156 50.210938 52.625 50.746094 53.164062 50.832031 C 53.703125 50.914062 54.328125 50.460938 54.414062 49.921875 C 55.921875 40.402344 49.421875 31.453125 39.898438 29.949219 C 39.269531 29.847656 38.738281 30.316406 38.652344 30.855469 C 38.566406 31.394531 39.003906 32.109375 39.632812 32.207031 Z M 39.632812 32.207031 " fill-opacity="1" fill-rule="nonzero"/></g></g></g><g clip-path="url(#9b24c2b207)"><g transform="matrix(1, 0, 0, 1, 37, -0.00000000000000949)"><g clip-path="url(#c3019566f8)"><g clip-path="url(#c4a2c54a59)"><path fill="#000000" d="M 0.5 -2.753906 L 55.699219 -2.753906 L 55.699219 55.894531 L 0.5 55.894531 Z M 0.5 -2.753906 " fill-opacity="1" fill-rule="nonzero"/></g></g></g></g></svg>