<svg xmlns="http://www.w3.org/2000/svg" xmlns:xlink="http://www.w3.org/1999/xlink" width="1300" zoomAndPan="magnify" viewBox="0 0 974.88 149.999998" height="200" preserveAspectRatio="xMidYMid meet" version="1.0"><defs><clipPath id="9b1a532028"><path d="M 0 0.0078125 L 482 0.0078125 L 482 60 L 0 60 Z M 0 0.0078125 " clip-rule="nonzero"/></clipPath><clipPath id="41aa2fb659"><path d="M 482.515625 0.0078125 L 974.761719 0.0078125 L 974.761719 61 L 482.515625 61 Z M 482.515625 0.0078125 " clip-rule="nonzero"/></clipPath></defs><path fill="#d83d75" d="M 281.746094 57.359375 C 281.277344 59.328125 280.800781 61.277344 280.292969 63.226562 C 278.832031 68.863281 277.1875 74.421875 275.382812 79.945312 C 272.257812 89.507812 268.636719 98.914062 264.601562 108.238281 C 262.652344 112.75 260.609375 117.238281 258.476562 121.71875 C 254.867188 129.3125 251.003906 136.871094 246.953125 144.425781 C 246.609375 145.066406 245.527344 145.105469 245.128906 144.492188 C 242.335938 140.183594 239.671875 135.808594 237.128906 131.40625 C 235.992188 129.4375 234.882812 127.46875 233.792969 125.484375 C 231.578125 121.46875 229.445312 117.429688 227.371094 113.371094 C 226.359375 111.382812 225.367188 109.394531 224.382812 107.410156 C 222.109375 102.804688 219.898438 98.171875 217.730469 93.546875 C 216.792969 91.550781 215.878906 89.5625 214.960938 87.566406 C 213.125 83.574219 211.308594 79.570312 209.503906 75.578125 C 208.59375 73.5625 207.699219 71.554688 206.789062 69.550781 C 205.03125 65.652344 203.28125 61.753906 201.515625 57.886719 C 201.246094 57.292969 201.714844 56.652344 202.375 56.691406 C 210.011719 57.234375 217.644531 57.609375 225.289062 57.820312 C 228.519531 57.90625 231.75 57.960938 234.988281 57.992188 C 242.203125 58.046875 249.410156 57.960938 256.613281 57.714844 C 259.433594 57.617188 262.253906 57.503906 265.0625 57.359375 C 270.316406 57.101562 275.574219 56.757812 280.828125 56.328125 C 281.410156 56.28125 281.878906 56.804688 281.746094 57.371094 Z M 281.746094 57.359375 " fill-opacity="1" fill-rule="nonzero"/><path fill="#ffeef8" d="M 439.65625 19.195312 C 439.945312 22.835938 440.152344 26.464844 440.289062 30.097656 C 440.34375 31.652344 440.394531 33.210938 440.421875 34.757812 C 440.488281 37.902344 440.5 41.035156 440.460938 44.175781 C 440.441406 45.761719 440.414062 47.339844 440.363281 48.925781 C 440.277344 52.183594 440.136719 55.429688 439.945312 58.6875 C 439.847656 60.285156 439.742188 61.886719 439.628906 63.492188 C 439.371094 67.085938 439.046875 70.675781 438.671875 74.277344 C 438.511719 75.894531 438.328125 77.507812 438.136719 79.121094 C 437.765625 82.324219 437.355469 85.53125 436.90625 88.742188 C 436.675781 90.386719 436.4375 92.039062 436.1875 93.679688 C 435.195312 100.308594 434.046875 106.976562 432.796875 113.683594 C 432.699219 114.21875 431.925781 114.496094 431.507812 114.152344 C 426.203125 109.910156 421.109375 105.496094 416.167969 100.960938 C 414.957031 99.84375 413.75 98.726562 412.546875 97.597656 C 410.003906 95.199219 407.5 92.78125 405.035156 90.335938 C 403.871094 89.179688 402.703125 88.015625 401.546875 86.851562 C 399.007812 84.269531 396.484375 81.683594 394 79.074219 C 392.871094 77.890625 391.753906 76.707031 390.636719 75.519531 C 388.449219 73.199219 386.277344 70.867188 384.117188 68.539062 C 383.019531 67.34375 381.921875 66.148438 380.820312 64.957031 C 378.59375 62.527344 376.367188 60.09375 374.160156 57.667969 C 373.0625 56.460938 371.964844 55.257812 370.875 54.054688 C 368.027344 50.929688 365.1875 47.808594 362.339844 44.703125 C 362.015625 44.347656 362.207031 43.777344 362.675781 43.660156 C 388.496094 37.335938 413.921875 28.996094 438.75 18.652344 C 439.160156 18.480469 439.621094 18.738281 439.648438 19.167969 Z M 439.65625 19.195312 " fill-opacity="1" fill-rule="nonzero"/><path fill="#ffeef8" d="M 122.019531 43.96875 C 147.464844 50.070312 173.265625 54.226562 199.210938 56.433594 C 199.984375 56.5 200.414062 57.339844 199.996094 57.980469 C 182.585938 84.328125 165.691406 111.8125 143.789062 136.335938 C 143.203125 136.984375 141.941406 136.746094 141.667969 135.925781 C 131.03125 105.679688 123.164062 75.914062 120.75 45.007812 C 120.691406 44.332031 121.339844 43.804688 122.019531 43.96875 Z M 122.019531 43.96875 " fill-opacity="1" fill-rule="nonzero"/><path fill="#a6a5eb" d="M 43.765625 18.777344 C 68.363281 29.015625 93.550781 37.28125 119.125 43.566406 C 119.78125 43.726562 120.042969 44.511719 119.59375 45 C 98.070312 68.394531 76.878906 93.003906 51.078125 113.816406 C 50.484375 114.296875 49.433594 113.914062 49.289062 113.167969 C 43.363281 81.425781 40.097656 50.585938 42.523438 19.484375 C 42.570312 18.890625 43.203125 18.527344 43.765625 18.765625 Z M 43.765625 18.777344 " fill-opacity="1" fill-rule="nonzero"/><path fill="#a6a5eb" d="M 360.589844 43.890625 C 334.847656 50.089844 308.730469 54.285156 282.480469 56.480469 C 281.9375 56.53125 281.632812 57.121094 281.925781 57.570312 C 299.539062 84.214844 316.597656 112.050781 338.8125 136.820312 C 339.226562 137.28125 340.113281 137.109375 340.3125 136.535156 C 351.101562 105.957031 359.089844 75.882812 361.480469 44.625 C 361.519531 44.148438 361.058594 43.777344 360.582031 43.890625 Z M 360.589844 43.890625 " fill-opacity="1" fill-rule="nonzero"/><path fill="#d83d75" d="M 440.289062 30.097656 C 440.34375 31.652344 440.394531 33.210938 440.421875 34.757812 C 418.769531 43.882812 396.636719 51.523438 374.160156 57.683594 C 373.0625 56.480469 371.964844 55.277344 370.875 54.074219 C 394.4375 47.722656 417.632812 39.726562 440.289062 30.097656 Z M 440.289062 30.097656 " fill-opacity="1" fill-rule="nonzero"/><path fill="#d83d75" d="M 440.460938 44.1875 C 440.441406 45.773438 440.414062 47.347656 440.363281 48.933594 C 421.921875 56.519531 403.144531 63.0625 384.117188 68.554688 C 383.019531 67.363281 381.921875 66.167969 380.820312 64.972656 C 401.011719 59.222656 420.925781 52.296875 440.460938 44.1875 Z M 440.460938 44.1875 " fill-opacity="1" fill-rule="nonzero"/><path fill="#d83d75" d="M 439.945312 58.699219 C 439.847656 60.292969 439.742188 61.898438 439.628906 63.503906 C 424.605469 69.367188 409.382812 74.566406 394.007812 79.09375 C 392.882812 77.910156 391.761719 76.722656 390.644531 75.539062 C 407.28125 70.714844 423.738281 65.097656 439.953125 58.699219 Z M 439.945312 58.699219 " fill-opacity="1" fill-rule="nonzero"/><path fill="#d83d75" d="M 438.671875 74.289062 C 438.511719 75.902344 438.328125 77.515625 438.136719 79.132812 C 427.195312 83.210938 416.160156 86.957031 405.046875 90.347656 C 403.878906 89.191406 402.714844 88.027344 401.558594 86.859375 C 414.039062 83.105469 426.421875 78.910156 438.671875 74.277344 Z M 438.671875 74.289062 " fill-opacity="1" fill-rule="nonzero"/><path fill="#d83d75" d="M 436.914062 88.761719 C 436.683594 90.402344 436.445312 92.058594 436.199219 93.699219 C 429.566406 96.25 422.886719 98.675781 416.179688 100.980469 C 414.964844 99.863281 413.761719 98.742188 412.558594 97.617188 C 420.726562 94.847656 428.847656 91.894531 436.914062 88.761719 Z M 436.914062 88.761719 " fill-opacity="1" fill-rule="nonzero"/><path fill="#d83d75" d="M 52.941406 29.667969 C 50.941406 30.71875 50.148438 33.441406 51.316406 35.417969 C 52.472656 37.40625 55.386719 38.273438 57.410156 37.242188 C 59.4375 36.21875 60.230469 33.496094 59.121094 31.511719 C 58.003906 29.53125 55.183594 28.617188 53.128906 29.570312 C 53.0625 29.601562 53.007812 29.628906 52.941406 29.667969 Z M 52.941406 29.667969 " fill-opacity="1" fill-rule="nonzero"/><path fill="#ffcce6" d="M 100.316406 46.03125 C 97.9375 45.332031 95.148438 45.972656 94.144531 48.695312 C 93.292969 51.027344 94.6875 53.941406 97.15625 54.914062 C 99.609375 55.890625 102.695312 54.742188 103.730469 52.488281 C 105.191406 49.277344 102.992188 46.804688 100.328125 46.019531 Z M 100.316406 46.03125 " fill-opacity="1" fill-rule="nonzero"/><path fill="#ffcce6" d="M 58.777344 58.984375 C 56.542969 57.933594 53.808594 58.144531 52.367188 60.894531 C 51.238281 63.035156 52.214844 66.054688 54.554688 67.410156 C 56.894531 68.765625 60.222656 68.195312 61.558594 66.160156 C 63.421875 63.332031 61.433594 60.246094 58.777344 58.984375 Z M 58.777344 58.984375 " fill-opacity="1" fill-rule="nonzero"/><path fill="#ffcce6" d="M 73.636719 42.859375 C 71.476562 41.867188 68.832031 42.152344 67.457031 44.941406 C 66.375 47.109375 67.332031 50.082031 69.605469 51.371094 C 71.871094 52.660156 75.082031 51.992188 76.359375 49.929688 C 78.148438 47.054688 76.21875 44.042969 73.636719 42.859375 Z M 73.636719 42.859375 " fill-opacity="1" fill-rule="nonzero"/><path fill="#ffcce6" d="M 71.792969 77.363281 C 69.769531 78.5 69.15625 81.273438 70.5625 83.21875 C 71.957031 85.160156 75.109375 85.914062 77.171875 84.796875 C 79.238281 83.679688 79.847656 80.910156 78.5 78.96875 C 77.15625 77.03125 74.085938 76.226562 71.992188 77.269531 C 71.925781 77.308594 71.871094 77.335938 71.804688 77.375 Z M 71.792969 77.363281 " fill-opacity="1" fill-rule="nonzero"/><path fill="#d83d75" d="M 82.714844 59.089844 C 80.757812 60.265625 80.164062 63.035156 81.511719 64.945312 C 82.859375 66.855469 85.90625 67.542969 87.894531 66.386719 C 89.890625 65.230469 90.476562 62.460938 89.183594 60.550781 C 87.886719 58.640625 84.921875 57.90625 82.898438 58.984375 C 82.839844 59.023438 82.773438 59.050781 82.714844 59.089844 Z M 82.714844 59.089844 " fill-opacity="1" fill-rule="nonzero"/><path fill="#d83d75" d="M 56.417969 85.972656 C 54.066406 84.902344 51.21875 85.113281 49.796875 87.871094 C 48.679688 90.023438 49.777344 93.050781 52.25 94.425781 C 54.71875 95.800781 58.167969 95.21875 59.515625 93.183594 C 61.386719 90.347656 59.238281 87.242188 56.425781 85.972656 Z M 56.417969 85.972656 " fill-opacity="1" fill-rule="nonzero"/><path fill="#ffcce6" d="M 234.980469 57.972656 C 227.679688 65.078125 219.050781 71.070312 209.503906 75.558594 C 208.59375 73.542969 207.699219 71.535156 206.789062 69.53125 C 207.019531 69.425781 207.257812 69.3125 207.488281 69.195312 C 213.964844 66.054688 219.910156 62.242188 225.289062 57.789062 C 228.519531 57.875 231.75 57.933594 234.988281 57.960938 Z M 234.980469 57.972656 " fill-opacity="1" fill-rule="nonzero"/><path fill="#ffcce6" d="M 258.265625 55.546875 C 258.265625 55.546875 258.25 55.566406 258.25 55.574219 C 258.25 55.574219 258.25 55.574219 258.25 55.566406 C 258.25 55.554688 258.265625 55.546875 258.265625 55.535156 C 258.265625 55.535156 258.265625 55.535156 258.265625 55.546875 Z M 258.265625 55.546875 " fill-opacity="1" fill-rule="nonzero"/><path fill="#ffcce6" d="M 265.0625 57.351562 C 263.496094 59.613281 261.820312 61.832031 260.0625 63.960938 C 249.3125 77 234.625 87.347656 217.742188 93.539062 C 216.804688 91.539062 215.886719 89.554688 214.96875 87.558594 C 216.574219 86.964844 218.191406 86.324219 219.871094 85.609375 C 224.753906 83.515625 229.425781 81.050781 233.832031 78.261719 C 238.21875 75.480469 241.832031 72.75 245.769531 69.226562 C 249.589844 65.816406 253.089844 62.117188 256.25 58.183594 C 256.375 58.027344 256.5 57.875 256.625 57.714844 C 259.441406 57.617188 262.261719 57.503906 265.070312 57.359375 Z M 265.0625 57.351562 " fill-opacity="1" fill-rule="nonzero"/><path fill="#ffcce6" d="M 280.285156 63.234375 C 278.820312 68.871094 277.179688 74.429688 275.371094 79.953125 C 268.195312 87.777344 259.902344 94.847656 250.707031 100.941406 C 243.464844 105.746094 235.640625 109.921875 227.371094 113.371094 C 226.359375 111.382812 225.367188 109.394531 224.382812 107.410156 C 225.796875 106.816406 227.21875 106.195312 228.644531 105.535156 C 235.984375 102.171875 242.929688 98.207031 249.378906 93.738281 C 252.484375 91.589844 255.132812 89.582031 258.199219 87.023438 C 261.199219 84.519531 264.066406 81.902344 266.792969 79.179688 C 271.769531 74.203125 276.28125 68.863281 280.285156 63.234375 Z M 280.285156 63.234375 " fill-opacity="1" fill-rule="nonzero"/><path fill="#ffcce6" d="M 264.601562 108.238281 C 262.652344 112.75 260.609375 117.238281 258.476562 121.71875 C 252.035156 125.875 244.820312 129.179688 237.128906 131.40625 C 235.992188 129.4375 234.882812 127.46875 233.792969 125.484375 C 235.742188 124.9375 237.675781 124.328125 239.558594 123.648438 C 241.449219 122.960938 243.300781 122.207031 245.109375 121.394531 C 245.597656 121.175781 246.082031 120.945312 246.5625 120.714844 C 246.5625 120.714844 246.570312 120.714844 246.582031 120.714844 C 246.589844 120.714844 246.597656 120.707031 246.617188 120.695312 C 246.789062 120.609375 247.277344 120.371094 247.363281 120.324219 C 248.214844 119.894531 249.066406 119.445312 249.894531 118.988281 C 253.335938 117.085938 256.585938 114.9375 259.613281 112.578125 C 261.34375 111.230469 263.007812 109.785156 264.59375 108.257812 Z M 264.601562 108.238281 " fill-opacity="1" fill-rule="nonzero"/><g clip-path="url(#9b1a532028)"><path fill="#7676c4" d="M 241.714844 59.558594 C 160.769531 59.558594 79.390625 41.359375 1.394531 4.945312 C 0.441406 4.496094 0.0273438 3.359375 0.46875 2.402344 C 0.917969 1.445312 2.054688 1.035156 3.011719 1.476562 C 158.457031 74.058594 327.558594 73.800781 479.171875 0.757812 C 480.117188 0.300781 481.261719 0.703125 481.722656 1.648438 C 482.179688 2.59375 481.78125 3.738281 480.832031 4.199219 C 404.253906 41.09375 323.210938 59.558594 241.726562 59.558594 Z M 241.714844 59.558594 " fill-opacity="1" fill-rule="nonzero"/></g><path fill="#d83d75" d="M 770.398438 58.542969 C 769.917969 60.550781 769.429688 62.539062 768.914062 64.53125 C 767.417969 70.28125 765.738281 75.957031 763.894531 81.589844 C 760.699219 91.351562 757 100.953125 752.878906 110.46875 C 750.886719 115.074219 748.800781 119.65625 746.621094 124.226562 C 742.929688 131.976562 738.984375 139.691406 734.847656 147.402344 C 734.496094 148.054688 733.390625 148.09375 732.980469 147.472656 C 730.128906 143.074219 727.40625 138.609375 724.808594 134.113281 C 723.648438 132.105469 722.515625 130.097656 721.402344 128.070312 C 719.136719 123.972656 716.957031 119.851562 714.839844 115.707031 C 713.804688 113.679688 712.789062 111.648438 711.785156 109.621094 C 709.460938 104.921875 707.203125 100.195312 704.988281 95.476562 C 704.03125 93.4375 703.09375 91.410156 702.15625 89.371094 C 700.28125 85.296875 698.425781 81.210938 696.582031 77.136719 C 695.652344 75.078125 694.734375 73.03125 693.808594 70.984375 C 692.011719 67.007812 690.226562 63.027344 688.417969 59.078125 C 688.144531 58.476562 688.625 57.820312 689.296875 57.859375 C 697.097656 58.417969 704.898438 58.796875 712.710938 59.011719 C 716.011719 59.097656 719.3125 59.15625 722.621094 59.1875 C 729.992188 59.246094 737.355469 59.15625 744.71875 58.902344 C 747.597656 58.804688 750.476562 58.6875 753.347656 58.542969 C 758.71875 58.28125 764.089844 57.929688 769.460938 57.488281 C 770.054688 57.441406 770.535156 57.976562 770.398438 58.554688 Z M 770.398438 58.542969 " fill-opacity="1" fill-rule="nonzero"/><path fill="#ffeef8" d="M 931.746094 19.59375 C 932.039062 23.308594 932.253906 27.011719 932.390625 30.71875 C 932.449219 32.304688 932.496094 33.894531 932.527344 35.476562 C 932.59375 38.683594 932.605469 41.882812 932.566406 45.089844 C 932.546875 46.707031 932.515625 48.316406 932.46875 49.933594 C 932.378906 53.257812 932.234375 56.574219 932.039062 59.898438 C 931.941406 61.527344 931.835938 63.164062 931.71875 64.800781 C 931.453125 68.46875 931.121094 72.132812 930.742188 75.808594 C 930.574219 77.457031 930.390625 79.105469 930.195312 80.753906 C 929.8125 84.019531 929.394531 87.296875 928.933594 90.570312 C 928.699219 92.25 928.457031 93.933594 928.203125 95.613281 C 927.1875 102.378906 926.015625 109.183594 924.734375 116.027344 C 924.636719 116.574219 923.847656 116.855469 923.417969 116.503906 C 918 112.175781 912.792969 107.671875 907.746094 103.042969 C 906.507812 101.902344 905.277344 100.757812 904.046875 99.609375 C 901.449219 97.160156 898.890625 94.695312 896.371094 92.199219 C 895.179688 91.019531 893.988281 89.832031 892.808594 88.640625 C 890.210938 86.007812 887.632812 83.367188 885.09375 80.703125 C 883.941406 79.496094 882.800781 78.285156 881.65625 77.078125 C 879.421875 74.707031 877.203125 72.328125 875 69.949219 C 873.875 68.730469 872.753906 67.511719 871.628906 66.292969 C 869.355469 63.816406 867.078125 61.332031 864.824219 58.855469 C 863.703125 57.625 862.578125 56.398438 861.464844 55.167969 C 858.554688 51.980469 855.65625 48.792969 852.746094 45.625 C 852.414062 45.265625 852.609375 44.679688 853.085938 44.5625 C 879.46875 38.109375 905.453125 29.597656 930.820312 19.039062 C 931.238281 18.863281 931.707031 19.125 931.738281 19.5625 Z M 931.746094 19.59375 " fill-opacity="1" fill-rule="nonzero"/><path fill="#ffeef8" d="M 607.191406 44.875 C 633.195312 51.105469 659.554688 55.34375 686.066406 57.597656 C 686.855469 57.664062 687.296875 58.523438 686.867188 59.175781 C 669.074219 86.066406 651.8125 114.117188 629.433594 139.144531 C 628.839844 139.808594 627.550781 139.5625 627.265625 138.726562 C 616.398438 107.859375 608.363281 77.476562 605.894531 45.9375 C 605.835938 45.246094 606.5 44.707031 607.191406 44.875 Z M 607.191406 44.875 " fill-opacity="1" fill-rule="nonzero"/><path fill="#a6a5eb" d="M 527.234375 19.164062 C 552.367188 29.617188 578.105469 38.050781 604.234375 44.464844 C 604.90625 44.628906 605.171875 45.429688 604.710938 45.925781 C 582.722656 69.804688 561.066406 94.917969 534.703125 116.164062 C 534.097656 116.652344 533.023438 116.261719 532.878906 115.5 C 526.824219 83.101562 523.484375 51.628906 525.964844 19.886719 C 526.015625 19.28125 526.660156 18.910156 527.234375 19.152344 Z M 527.234375 19.164062 " fill-opacity="1" fill-rule="nonzero"/><path fill="#a6a5eb" d="M 850.960938 44.796875 C 824.65625 51.125 797.96875 55.402344 771.148438 57.644531 C 770.59375 57.695312 770.28125 58.300781 770.582031 58.757812 C 788.578125 85.949219 806.007812 114.359375 828.707031 139.640625 C 829.125 140.109375 830.035156 139.933594 830.238281 139.347656 C 841.261719 108.140625 849.425781 77.449219 851.867188 45.546875 C 851.90625 45.058594 851.4375 44.679688 850.949219 44.796875 Z M 850.960938 44.796875 " fill-opacity="1" fill-rule="nonzero"/><path fill="#d83d75" d="M 932.390625 30.71875 C 932.449219 32.304688 932.496094 33.894531 932.527344 35.476562 C 910.402344 44.785156 887.789062 52.585938 864.824219 58.875 C 863.699219 57.644531 862.578125 56.417969 861.464844 55.1875 C 885.542969 48.707031 909.238281 40.546875 932.390625 30.71875 Z M 932.390625 30.71875 " fill-opacity="1" fill-rule="nonzero"/><path fill="#d83d75" d="M 932.566406 45.097656 C 932.546875 46.714844 932.515625 48.324219 932.46875 49.945312 C 913.625 57.683594 894.4375 64.363281 874.996094 69.96875 C 873.875 68.75 872.753906 67.53125 871.628906 66.3125 C 892.261719 60.445312 912.609375 53.375 932.566406 45.097656 Z M 932.566406 45.097656 " fill-opacity="1" fill-rule="nonzero"/><path fill="#d83d75" d="M 932.039062 59.90625 C 931.941406 61.535156 931.835938 63.175781 931.71875 64.8125 C 916.367188 70.796875 900.8125 76.101562 885.105469 80.722656 C 883.953125 79.515625 882.808594 78.304688 881.667969 77.097656 C 898.664062 72.171875 915.480469 66.441406 932.050781 59.90625 Z M 932.039062 59.90625 " fill-opacity="1" fill-rule="nonzero"/><path fill="#d83d75" d="M 930.742188 75.820312 C 930.574219 77.46875 930.390625 79.113281 930.195312 80.761719 C 919.015625 84.925781 907.738281 88.746094 896.382812 92.210938 C 895.191406 91.03125 894 89.839844 892.816406 88.652344 C 905.570312 84.820312 918.222656 80.539062 930.742188 75.808594 Z M 930.742188 75.820312 " fill-opacity="1" fill-rule="nonzero"/><path fill="#d83d75" d="M 928.945312 90.589844 C 928.710938 92.269531 928.464844 93.953125 928.210938 95.632812 C 921.433594 98.234375 914.609375 100.710938 907.757812 103.0625 C 906.515625 101.917969 905.285156 100.777344 904.054688 99.628906 C 912.402344 96.800781 920.703125 93.789062 928.945312 90.589844 Z M 928.945312 90.589844 " fill-opacity="1" fill-rule="nonzero"/><path fill="#d83d75" d="M 536.609375 30.277344 C 534.566406 31.351562 533.757812 34.128906 534.949219 36.148438 C 536.128906 38.175781 539.109375 39.0625 541.179688 38.011719 C 543.246094 36.96875 544.058594 34.1875 542.925781 32.160156 C 541.785156 30.140625 538.902344 29.207031 536.804688 30.179688 C 536.734375 30.210938 536.675781 30.238281 536.609375 30.277344 Z M 536.609375 30.277344 " fill-opacity="1" fill-rule="nonzero"/><path fill="#ffcce6" d="M 585.019531 46.980469 C 582.585938 46.269531 579.734375 46.921875 578.710938 49.699219 C 577.839844 52.078125 579.265625 55.054688 581.785156 56.046875 C 584.296875 57.042969 587.449219 55.871094 588.503906 53.570312 C 589.996094 50.292969 587.753906 47.769531 585.027344 46.96875 Z M 585.019531 46.980469 " fill-opacity="1" fill-rule="nonzero"/><path fill="#ffcce6" d="M 542.574219 60.199219 C 540.289062 59.128906 537.496094 59.34375 536.023438 62.152344 C 534.871094 64.335938 535.867188 67.414062 538.257812 68.800781 C 540.652344 70.183594 544.046875 69.597656 545.414062 67.523438 C 547.320312 64.636719 545.289062 61.488281 542.574219 60.199219 Z M 542.574219 60.199219 " fill-opacity="1" fill-rule="nonzero"/><path fill="#ffcce6" d="M 557.757812 43.742188 C 555.550781 42.730469 552.847656 43.023438 551.441406 45.867188 C 550.335938 48.082031 551.3125 51.113281 553.636719 52.429688 C 555.949219 53.746094 559.230469 53.0625 560.539062 50.957031 C 562.367188 48.023438 560.394531 44.953125 557.757812 43.742188 Z M 557.757812 43.742188 " fill-opacity="1" fill-rule="nonzero"/><path fill="#ffcce6" d="M 555.871094 78.960938 C 553.804688 80.121094 553.179688 82.945312 554.613281 84.9375 C 556.039062 86.914062 559.261719 87.683594 561.371094 86.542969 C 563.480469 85.402344 564.105469 82.578125 562.726562 80.597656 C 561.351562 78.617188 558.214844 77.800781 556.078125 78.863281 C 556.007812 78.902344 555.949219 78.929688 555.882812 78.96875 Z M 555.871094 78.960938 " fill-opacity="1" fill-rule="nonzero"/><path fill="#d83d75" d="M 567.03125 60.308594 C 565.03125 61.507812 564.425781 64.335938 565.804688 66.285156 C 567.179688 68.234375 570.292969 68.9375 572.324219 67.757812 C 574.367188 66.578125 574.960938 63.75 573.644531 61.800781 C 572.316406 59.851562 569.289062 59.097656 567.21875 60.199219 C 567.160156 60.238281 567.089844 60.269531 567.03125 60.308594 Z M 567.03125 60.308594 " fill-opacity="1" fill-rule="nonzero"/><path fill="#d83d75" d="M 540.164062 87.742188 C 537.761719 86.652344 534.851562 86.867188 533.394531 89.683594 C 532.253906 91.878906 533.375 94.96875 535.90625 96.371094 C 538.425781 97.777344 541.949219 97.179688 543.324219 95.105469 C 545.238281 92.210938 543.042969 89.039062 540.171875 87.742188 Z M 540.164062 87.742188 " fill-opacity="1" fill-rule="nonzero"/><path fill="#ffcce6" d="M 722.613281 59.167969 C 715.152344 66.421875 706.335938 72.535156 696.582031 77.117188 C 695.652344 75.058594 694.734375 73.011719 693.808594 70.964844 C 694.042969 70.855469 694.285156 70.738281 694.519531 70.625 C 701.140625 67.414062 707.214844 63.523438 712.710938 58.980469 C 716.011719 59.070312 719.3125 59.128906 722.621094 59.15625 Z M 722.613281 59.167969 " fill-opacity="1" fill-rule="nonzero"/><path fill="#ffcce6" d="M 746.40625 56.691406 C 746.40625 56.691406 746.386719 56.710938 746.386719 56.71875 C 746.386719 56.71875 746.386719 56.71875 746.386719 56.710938 C 746.386719 56.699219 746.40625 56.691406 746.40625 56.679688 C 746.40625 56.679688 746.40625 56.679688 746.40625 56.691406 Z M 746.40625 56.691406 " fill-opacity="1" fill-rule="nonzero"/><path fill="#ffcce6" d="M 753.347656 58.535156 C 751.746094 60.84375 750.039062 63.105469 748.242188 65.28125 C 737.257812 78.589844 722.25 89.148438 704.996094 95.464844 C 704.039062 93.429688 703.101562 91.398438 702.167969 89.363281 C 703.804688 88.757812 705.457031 88.105469 707.175781 87.375 C 712.164062 85.238281 716.9375 82.722656 721.441406 79.875 C 725.921875 77.039062 729.613281 74.25 733.636719 70.652344 C 737.539062 67.171875 741.113281 63.398438 744.347656 59.382812 C 744.472656 59.226562 744.601562 59.070312 744.726562 58.902344 C 747.609375 58.804688 750.488281 58.6875 753.359375 58.542969 Z M 753.347656 58.535156 " fill-opacity="1" fill-rule="nonzero"/><path fill="#ffcce6" d="M 768.902344 64.539062 C 767.410156 70.292969 765.730469 75.964844 763.882812 81.601562 C 756.550781 89.585938 748.078125 96.800781 738.683594 103.023438 C 731.28125 107.925781 723.285156 112.1875 714.839844 115.707031 C 713.804688 113.679688 712.789062 111.648438 711.785156 109.621094 C 713.230469 109.019531 714.683594 108.382812 716.136719 107.710938 C 723.636719 104.28125 730.734375 100.234375 737.328125 95.671875 C 740.5 93.476562 743.203125 91.429688 746.339844 88.816406 C 749.402344 86.261719 752.332031 83.589844 755.117188 80.8125 C 760.203125 75.730469 764.8125 70.28125 768.902344 64.539062 Z M 768.902344 64.539062 " fill-opacity="1" fill-rule="nonzero"/><path fill="#ffcce6" d="M 752.878906 110.46875 C 750.886719 115.074219 748.800781 119.65625 746.621094 124.226562 C 740.039062 128.46875 732.667969 131.84375 724.808594 134.113281 C 723.648438 132.105469 722.515625 130.097656 721.402344 128.070312 C 723.394531 127.511719 725.367188 126.890625 727.289062 126.195312 C 729.222656 125.496094 731.117188 124.722656 732.960938 123.894531 C 733.460938 123.671875 733.957031 123.4375 734.445312 123.203125 C 734.445312 123.203125 734.457031 123.203125 734.464844 123.203125 C 734.476562 123.203125 734.484375 123.195312 734.503906 123.183594 C 734.679688 123.097656 735.179688 122.851562 735.265625 122.804688 C 736.136719 122.363281 737.003906 121.90625 737.851562 121.4375 C 741.367188 119.5 744.6875 117.304688 747.785156 114.898438 C 749.550781 113.523438 751.25 112.050781 752.871094 110.488281 Z M 752.878906 110.46875 " fill-opacity="1" fill-rule="nonzero"/><g clip-path="url(#41aa2fb659)"><path fill="#7676c4" d="M 729.496094 60.785156 C 646.785156 60.785156 563.636719 42.210938 483.941406 5.046875 C 482.964844 4.589844 482.546875 3.429688 482.996094 2.453125 C 483.453125 1.476562 484.617188 1.058594 485.59375 1.507812 C 644.421875 75.585938 817.207031 75.324219 972.121094 0.777344 C 973.085938 0.308594 974.257812 0.71875 974.726562 1.683594 C 975.195312 2.648438 974.785156 3.816406 973.820312 4.285156 C 895.570312 41.9375 812.761719 60.785156 729.503906 60.785156 Z M 729.496094 60.785156 " fill-opacity="1" fill-rule="nonzero"/></g></svg>