<svg xmlns="http://www.w3.org/2000/svg" xmlns:xlink="http://www.w3.org/1999/xlink" width="1000" zoomAndPan="magnify" viewBox="0 0 750 749.999995" height="1000" preserveAspectRatio="xMidYMid meet" version="1.0"><defs><clipPath id="e980ba7273"><path d="M 118.488281 112.71875 L 642.738281 112.71875 L 642.738281 636 L 118.488281 636 Z M 118.488281 112.71875 " clip-rule="nonzero"/></clipPath><clipPath id="fd2dcb7980"><path d="M 263 209 L 503 209 L 503 636.96875 L 263 636.96875 Z M 263 209 " clip-rule="nonzero"/></clipPath></defs><rect x="-75" width="900" fill="#ffffff" y="-74.999999" height="899.999994" fill-opacity="1"/><rect x="-75" width="900" fill="#faff00" y="-74.999999" height="899.999994" fill-opacity="1"/><g clip-path="url(#e980ba7273)"><path fill="#0866ff" d="M 642.808594 374.890625 C 642.808594 230.089844 525.441406 112.71875 380.660156 112.71875 C 235.882812 112.71875 118.488281 230.089844 118.488281 374.890625 C 118.488281 497.835938 203.128906 601.015625 317.320312 629.347656 L 317.320312 455.011719 L 263.246094 455.011719 L 263.246094 374.890625 L 317.320312 374.890625 L 317.320312 340.375 C 317.320312 251.148438 357.695312 209.78125 445.296875 209.78125 C 461.910156 209.78125 490.570312 213.027344 502.289062 216.300781 L 502.289062 288.914062 C 496.101562 288.253906 485.347656 287.925781 472.003906 287.925781 C 429.015625 287.925781 412.402344 304.207031 412.402344 346.539062 L 412.402344 374.867188 L 498.03125 374.867188 L 483.324219 454.988281 L 412.402344 454.988281 L 412.402344 635.113281 C 542.21875 619.441406 642.808594 508.894531 642.808594 374.867188 Z M 642.808594 374.890625 " fill-opacity="1" fill-rule="nonzero"/></g><g clip-path="url(#fd2dcb7980)"><path fill="#ffffff" d="M 483.347656 454.988281 L 498.054688 374.867188 L 412.425781 374.867188 L 412.425781 346.539062 C 412.425781 304.207031 429.039062 287.925781 472.027344 287.925781 C 485.371094 287.925781 496.125 288.253906 502.3125 288.914062 L 502.3125 216.300781 C 490.59375 213.050781 461.933594 209.78125 445.324219 209.78125 C 357.71875 209.78125 317.34375 251.148438 317.34375 340.375 L 317.34375 374.890625 L 263.269531 374.890625 L 263.269531 455.011719 L 317.34375 455.011719 L 317.34375 629.347656 C 337.625 634.382812 358.824219 637.0625 380.683594 637.0625 C 391.4375 637.0625 402.027344 636.40625 412.449219 635.136719 L 412.449219 455.011719 L 483.371094 455.011719 Z M 483.347656 454.988281 " fill-opacity="1" fill-rule="nonzero"/></g></svg>