<svg xmlns="http://www.w3.org/2000/svg" xmlns:xlink="http://www.w3.org/1999/xlink" width="1000" zoomAndPan="magnify" viewBox="0 0 750 749.999995" height="1000" preserveAspectRatio="xMidYMid meet" version="1.0"><defs><clipPath id="87676da2ce"><path d="M 267 412.824219 L 276 412.824219 L 276 432 L 267 432 Z M 267 412.824219 " clip-rule="nonzero"/></clipPath><clipPath id="34d6792a6b"><path d="M 290 453 L 307.699219 453 L 307.699219 462 L 290 462 Z M 290 453 " clip-rule="nonzero"/></clipPath><clipPath id="f8702b5fd8"><path d="M 221.449219 438 L 239 438 L 239 448 L 221.449219 448 Z M 221.449219 438 " clip-rule="nonzero"/></clipPath></defs><path fill="#ebc634" d="M 274.914062 446.621094 C 274.824219 446.679688 274.730469 446.734375 274.636719 446.792969 C 274.929688 447.257812 275.222656 447.726562 275.511719 448.195312 C 275.605469 448.140625 275.695312 448.085938 275.785156 448.03125 C 275.496094 447.558594 275.207031 447.089844 274.914062 446.621094 Z M 247.484375 463.285156 C 247.589844 463.222656 247.695312 463.160156 247.800781 463.101562 C 247.652344 462.3125 247.5 461.523438 247.351562 460.738281 C 247.246094 460.761719 247.140625 460.78125 247.035156 460.804688 C 247.183594 461.632812 247.332031 462.457031 247.484375 463.285156 Z M 276.003906 448.859375 C 275.871094 448.898438 275.789062 449.023438 275.800781 449.152344 C 275.894531 450.082031 275.988281 451.011719 277.078125 451.652344 L 276.34375 449.050781 C 276.300781 448.902344 276.148438 448.820312 276.003906 448.859375 Z M 270.308594 454.515625 C 268.332031 454.1875 267.097656 454.960938 266.046875 456.183594 C 265.511719 456.808594 265.492188 457.394531 265.867188 458.105469 C 266.933594 460.121094 269.644531 461.667969 271.890625 461.511719 C 273.015625 461.433594 273.839844 460.910156 274.257812 459.867188 C 275.363281 457.109375 276.035156 454.398438 275.089844 451.332031 C 274.449219 449.257812 273.785156 447.480469 272.109375 445.964844 C 270.464844 444.476562 268.671875 443.984375 266.597656 443.871094 C 264.039062 443.730469 261.785156 444.613281 259.457031 445.546875 C 256.195312 446.859375 254.210938 448.996094 253.777344 452.503906 C 253.476562 454.953125 253.15625 457.398438 252.925781 459.855469 C 252.695312 462.324219 253.710938 464.589844 254.285156 466.921875 C 254.527344 467.902344 254.976562 468.832031 255.355469 469.777344 C 256.054688 471.503906 256.90625 473.128906 258.332031 474.394531 C 258.726562 474.746094 259.011719 475.222656 259.34375 475.640625 C 259.25 475.761719 259.15625 475.886719 259.066406 476.011719 C 258.503906 475.6875 257.902344 475.414062 257.386719 475.023438 C 254.855469 473.097656 252.347656 471.136719 249.828125 469.191406 C 247.917969 467.71875 246.910156 465.636719 246.265625 463.421875 C 245.3125 460.164062 245.277344 456.765625 245.171875 453.402344 C 245.066406 449.933594 246.257812 446.710938 247.769531 443.703125 C 248.5 442.246094 249.988281 441.085938 251.320312 440.027344 C 253.324219 438.441406 255.757812 437.589844 258.113281 436.683594 C 261.675781 435.3125 265.367188 435.539062 269.019531 436.296875 C 270.632812 436.628906 272.273438 437.058594 273.742188 437.773438 C 276.117188 438.9375 278.320312 440.375 279.980469 442.574219 C 282.140625 445.441406 283.886719 448.511719 284.980469 451.921875 C 286.128906 455.511719 286.484375 459.246094 285.386719 462.84375 C 284.699219 465.105469 283.820312 467.507812 281.605469 468.972656 C 280.65625 469.601562 279.867188 470.480469 278.890625 471.046875 C 276.054688 472.691406 273.003906 473.011719 269.835938 472.179688 C 268.664062 471.871094 267.503906 471.515625 266.339844 471.179688 C 265.488281 470.933594 264.675781 470.703125 264.117188 469.859375 C 263.839844 469.441406 263.171875 469.273438 262.667969 469.015625 C 261.644531 468.488281 260.804688 467.863281 260.46875 466.632812 C 259.765625 464.089844 258.261719 461.785156 258.1875 459.046875 C 258.105469 456.136719 259.113281 453.539062 260.535156 451.082031 C 261.054688 450.1875 261.800781 449.5 262.957031 449.429688 C 264.089844 449.359375 265.214844 449.175781 266.34375 449.125 C 266.691406 449.109375 267.113281 449.273438 267.394531 449.496094 C 268.929688 450.695312 269.886719 452.25 270.308594 454.515625 " fill-opacity="1" fill-rule="nonzero"/><path fill="#ebc634" d="M 289.808594 446.023438 C 289.050781 444.699219 288.398438 443.554688 287.773438 442.472656 C 287.910156 442.175781 287.949219 441.960938 288.074219 441.832031 C 289.3125 440.535156 290.753906 439.441406 291.792969 437.933594 C 292.289062 437.210938 293.148438 436.933594 294.066406 436.710938 C 295.066406 436.464844 295.957031 435.769531 296.878906 435.242188 C 297.191406 435.0625 297.4375 434.621094 297.738281 434.59375 C 299.5625 434.429688 301.390625 434.300781 303.214844 434.292969 C 303.5 434.292969 303.984375 434.949219 304.039062 435.351562 C 304.320312 437.28125 303.871094 439.195312 302.375 440.375 C 299.015625 443.023438 295.375 445.253906 291.078125 446.101562 C 290.832031 446.152344 290.574219 446.15625 290.324219 446.140625 C 290.136719 446.132812 289.953125 446.058594 289.808594 446.023438 " fill-opacity="1" fill-rule="nonzero"/><g clip-path="url(#87676da2ce)"><path fill="#ebc634" d="M 273.6875 412.90625 C 274.328125 413.878906 274.832031 414.449219 275.109375 415.113281 C 275.46875 415.964844 275.785156 416.878906 275.867188 417.785156 C 276.179688 421.273438 275.367188 424.636719 274.535156 427.988281 C 274.398438 428.542969 274.25 429.101562 274.074219 429.644531 C 273.519531 431.371094 273.042969 431.671875 271.171875 431.519531 C 270.917969 431.5 270.648438 431.433594 270.414062 431.492188 C 268.457031 431.972656 268.070312 431.207031 267.824219 429.402344 C 267.589844 427.707031 267.601562 425.964844 267.65625 424.246094 C 267.742188 421.585938 269.136719 419.386719 270.464844 417.214844 C 271.378906 415.722656 272.5625 414.390625 273.6875 412.90625 " fill-opacity="1" fill-rule="nonzero"/></g><path fill="#ebc634" d="M 278.746094 477.734375 C 280.171875 476.726562 281.097656 476.886719 282.359375 477.796875 C 284.949219 479.667969 286.78125 481.964844 287.78125 484.972656 C 288.460938 487.027344 289.25 489.050781 289.839844 491.128906 C 290.207031 492.414062 289.972656 492.636719 288.730469 493.105469 C 287.921875 493.410156 287.007812 494.121094 286.339844 493.933594 C 285.644531 493.742188 285.222656 492.660156 284.625 492.019531 C 283.71875 491.054688 282.527344 490.273438 281.875 489.167969 C 279.800781 485.664062 278.550781 481.882812 278.746094 477.734375 " fill-opacity="1" fill-rule="nonzero"/><g clip-path="url(#34d6792a6b)"><path fill="#ebc634" d="M 290.027344 458.34375 C 290.269531 457.605469 290.527344 457.136719 290.574219 456.644531 C 290.753906 454.78125 291.996094 454.015625 293.597656 453.6875 C 297.242188 452.941406 300.851562 453.164062 304.328125 454.472656 C 305.292969 454.835938 306.164062 455.582031 306.941406 456.300781 C 307.703125 457.003906 307.507812 458.078125 306.628906 458.769531 C 304.945312 460.101562 303.078125 460.949219 300.894531 461.121094 C 297.921875 461.351562 295.023438 461.15625 292.308594 459.832031 C 291.484375 459.429688 290.761719 458.828125 290.027344 458.34375 " fill-opacity="1" fill-rule="nonzero"/></g><path fill="#ebc634" d="M 251.945312 414.847656 C 253.851562 415.640625 255.394531 416.726562 256.566406 418.246094 C 257.496094 419.449219 258.25 420.785156 259.082031 422.058594 C 260.617188 424.414062 260.953125 427.046875 260.683594 429.757812 C 260.589844 430.691406 260.113281 431.585938 259.734375 432.730469 C 259.113281 432.480469 258.34375 432.332031 257.777344 431.910156 C 253.023438 428.355469 250.753906 423.511719 250.570312 417.636719 C 250.5625 417.296875 250.71875 416.921875 250.894531 416.621094 C 251.074219 416.308594 251.40625 416.089844 251.605469 415.785156 C 251.757812 415.542969 251.808594 415.234375 251.945312 414.847656 " fill-opacity="1" fill-rule="nonzero"/><path fill="#ebc634" d="M 287.835938 469.699219 C 288.726562 468.941406 289.5 468.128906 290.425781 467.558594 C 290.859375 467.292969 291.65625 467.3125 292.164062 467.515625 C 295.316406 468.777344 297.992188 470.695312 300.394531 473.144531 C 301.78125 474.558594 302.453125 476.097656 302.867188 477.902344 C 303.0625 478.742188 302.824219 479.246094 301.957031 479.441406 C 299.667969 479.957031 297.449219 479.558594 295.554688 478.335938 C 292.421875 476.3125 289.894531 473.613281 288.0625 470.324219 C 287.941406 470.109375 287.890625 469.855469 287.835938 469.699219 " fill-opacity="1" fill-rule="nonzero"/><path fill="#ebc634" d="M 279.210938 433.132812 C 279.492188 432.304688 279.597656 431.648438 279.917969 431.117188 C 280.828125 429.59375 281.742188 428.058594 282.804688 426.644531 C 283.988281 425.066406 285.304688 423.589844 286.621094 422.121094 C 287.3125 421.34375 288.136719 420.714844 289.269531 421.429688 C 289.367188 421.492188 289.519531 421.457031 289.644531 421.488281 C 292.238281 422.140625 292.621094 422.929688 291.222656 425.332031 C 289.914062 427.585938 288.484375 429.773438 287 431.917969 C 285.785156 433.675781 284.4375 435.351562 283.097656 437.027344 C 282.464844 437.820312 281.664062 437.933594 281.195312 437.171875 C 280.386719 435.867188 279.820312 434.410156 279.210938 433.132812 " fill-opacity="1" fill-rule="nonzero"/><path fill="#ebc634" d="M 235.027344 484.703125 C 233.203125 484.78125 232.910156 484.34375 233.058594 482.964844 C 233.1875 481.75 233.710938 480.859375 234.53125 480.007812 C 236.335938 478.128906 238.003906 476.117188 239.859375 474.292969 C 240.753906 473.421875 241.941406 472.847656 243.007812 472.15625 C 243.761719 471.664062 244.460938 471.84375 245.101562 472.398438 C 245.625 472.851562 246.179688 473.28125 246.636719 473.796875 C 247.402344 474.660156 247.113281 475.71875 246.617188 476.46875 C 245.46875 478.207031 244.300781 480.011719 242.796875 481.417969 C 240.554688 483.511719 237.6875 484.445312 235.027344 484.703125 " fill-opacity="1" fill-rule="nonzero"/><g clip-path="url(#f8702b5fd8)"><path fill="#ebc634" d="M 221.449219 440.902344 C 223.390625 438.640625 225.40625 437.949219 227.949219 439.023438 C 230.121094 439.941406 232.378906 440.660156 234.527344 441.628906 C 235.613281 442.113281 236.546875 442.945312 237.539062 443.636719 C 237.746094 443.777344 237.945312 443.953125 238.101562 444.15625 C 239.144531 445.503906 238.46875 447.378906 236.804688 447.472656 C 232.222656 447.726562 227.886719 446.996094 224.324219 443.777344 C 223.34375 442.894531 222.453125 441.910156 221.449219 440.902344 " fill-opacity="1" fill-rule="nonzero"/></g><path fill="#ebc634" d="M 268.925781 498.96875 C 268.027344 497.640625 267.222656 496.304688 266.941406 494.6875 C 266.773438 493.753906 266.464844 492.84375 266.191406 491.929688 C 265 487.957031 265.875 484.402344 268.3125 481.152344 C 268.714844 480.617188 269.070312 480.054688 269.515625 479.402344 C 271.292969 480.792969 272.09375 482.546875 272.238281 484.542969 C 272.355469 486.179688 272.253906 487.847656 272.121094 489.492188 C 271.910156 492.074219 271.898438 494.683594 270.964844 497.179688 C 270.582031 498.207031 270.027344 498.757812 268.925781 498.96875 " fill-opacity="1" fill-rule="nonzero"/><path fill="#ebc634" d="M 250.050781 497.613281 C 249.84375 496.972656 249.53125 496.351562 249.449219 495.699219 C 248.992188 492.066406 249.585938 488.601562 251.199219 485.3125 C 251.3125 485.085938 251.417969 484.851562 251.542969 484.628906 C 253.128906 481.78125 253.46875 480.914062 257.457031 482.066406 C 258.226562 486.050781 257.039062 489.726562 255.347656 493.246094 C 254.378906 495.265625 252.25 496.820312 250.050781 497.613281 " fill-opacity="1" fill-rule="nonzero"/><path fill="#ebc634" d="M 237.609375 421.421875 C 238.171875 421.550781 238.730469 421.515625 239.054688 421.777344 C 241.949219 424.101562 244.667969 426.582031 245.773438 430.324219 C 246.453125 432.617188 246.386719 434.933594 245.972656 437.253906 C 245.820312 438.121094 245.34375 438.378906 244.625 437.90625 C 243.675781 437.277344 242.617188 436.664062 241.957031 435.78125 C 240.558594 433.90625 239.167969 431.960938 238.183594 429.851562 C 236.976562 427.273438 236.933594 424.457031 237.609375 421.421875 " fill-opacity="1" fill-rule="nonzero"/><path fill="#ebc634" d="M 222.597656 464.707031 C 223.1875 464.003906 223.492188 463.441406 223.964844 463.109375 C 227.320312 460.753906 231.128906 459.601562 235.148438 459.058594 C 236.136719 458.929688 237.132812 458.847656 238.101562 458.742188 C 238.636719 460.199219 238.617188 461.453125 238.316406 462.761719 C 238.117188 463.628906 237.808594 464.191406 236.921875 464.601562 C 234.59375 465.679688 232.261719 466.683594 229.667969 466.8125 C 228.8125 466.855469 227.902344 466.753906 227.09375 466.492188 C 225.660156 466.027344 224.285156 465.390625 222.597656 464.707031 " fill-opacity="1" fill-rule="nonzero"/><path fill="#fcb042" d="M 312.179688 401.296875 C 311.414062 398.292969 308.753906 396.113281 305.65625 396.019531 C 301.582031 395.902344 297.519531 395.347656 293.597656 394.359375 C 288.859375 393.308594 284.316406 390.96875 279.730469 389.464844 C 258.472656 382.0625 241.90625 396.886719 223.332031 388.105469 C 228.109375 388.917969 232.886719 388.796875 237.566406 387.789062 C 247.027344 385.691406 256.355469 381.226562 266.308594 380.828125 C 272.835938 380.4375 279.4375 381.65625 285.5 384.027344 C 288.734375 385.34375 292.046875 386.742188 295.40625 387.691406 C 297.03125 388.164062 298.667969 388.574219 300.3125 388.917969 C 304.816406 389.851562 308.894531 386.078125 308.238281 381.523438 C 307.863281 378.890625 307.574219 376.242188 307.519531 373.582031 C 307.285156 361.996094 301.824219 350.332031 295.769531 340.894531 C 287.308594 327.699219 274.683594 317.703125 259.964844 312.3125 C 240.976562 305.363281 213.339844 298.140625 202.433594 309.730469 C 190.730469 322.171875 163.714844 326.210938 147.398438 327.523438 C 135.15625 328.507812 124.25 335.71875 118.59375 346.628906 C 112.792969 357.828125 107.703125 375.132812 108.148438 401.09375 C 108.210938 404.855469 110.953125 408.074219 114.667969 408.652344 C 119.847656 409.457031 124.871094 410.976562 129.554688 413.320312 C 145.828125 422.765625 164.175781 427.632812 183.199219 426.664062 C 180.265625 427.667969 177.238281 428.390625 174.167969 428.855469 C 171.289062 429.300781 169.5 432.238281 170.390625 435.011719 C 174.40625 447.59375 185.871094 456.773438 198.046875 461.851562 C 202.335938 463.5625 206.339844 466.398438 209.140625 470.074219 C 215.960938 479.066406 217.71875 490.488281 217.3125 501.386719 C 217.203125 503.527344 217.023438 505.640625 216.628906 507.757812 L 215.820312 507.71875 C 214.027344 494.167969 210.730469 474.324219 197.035156 468.027344 C 188.542969 464.320312 180.433594 459.050781 174.867188 451.460938 C 171.214844 446.4375 168.679688 440.324219 168.296875 434.113281 C 168.140625 431.582031 166.128906 429.589844 163.59375 429.542969 C 160.460938 429.484375 157.335938 429.210938 154.257812 428.753906 C 144.546875 427.34375 135.210938 423.730469 126.726562 418.832031 C 124.558594 417.746094 122.328125 416.832031 120.046875 416.078125 C 114.617188 414.273438 109.144531 418.71875 109.851562 424.398438 C 111.226562 435.496094 113.484375 447.796875 116.859375 461.4375 C 143.941406 570.882812 206.757812 528.382812 206.757812 528.382812 C 229.503906 508.644531 260.914062 518.867188 260.914062 518.867188 C 299.570312 529.832031 317.636719 506.367188 326.082031 482.035156 C 332.617188 463.203125 330.421875 442.566406 320.90625 425.054688 C 317.058594 417.972656 314.222656 409.347656 312.167969 401.308594 Z M 312.179688 401.296875 " fill-opacity="1" fill-rule="nonzero"/><path fill="#ff822e" d="M 253.53125 498.902344 C 241.671875 498.792969 229.96875 501.753906 219.78125 507.839844 C 213.058594 511.855469 205.472656 517.242188 198.101562 524.277344 C 187.421875 534.476562 158.160156 532.257812 147.042969 523.054688 C 175.101562 549.792969 206.765625 528.375 206.765625 528.375 C 229.511719 508.632812 260.921875 518.859375 260.921875 518.859375 C 298.542969 529.53125 316.660156 507.582031 325.382812 483.972656 C 332.566406 464.53125 330.535156 443.007812 320.746094 424.738281 C 321.109375 427.664062 328.546875 469.960938 303.523438 492.492188 C 281.859375 511.996094 265.367188 499.011719 253.527344 498.902344 Z M 253.53125 498.902344 " fill-opacity="1" fill-rule="nonzero"/><path fill="#fcb042" d="M 276.394531 277.632812 L 273.59375 275.464844 L 275.390625 275.492188 C 278.105469 275.535156 280.46875 273.640625 281.03125 270.980469 C 281.566406 268.433594 282 266.03125 282.335938 263.917969 C 283.210938 258.457031 284.457031 253.070312 285.921875 247.742188 C 287.824219 240.84375 289.519531 227.433594 290.308594 220.558594 C 290.609375 217.964844 289.34375 215.445312 287.082031 214.136719 L 284.210938 212.480469 L 287.863281 208.117188 C 289.386719 206.304688 290.144531 203.964844 289.96875 201.605469 C 289.699219 197.898438 289.265625 192.367188 288.914062 189.605469 C 287.898438 181.664062 287.949219 173.617188 289.222656 165.710938 C 296.476562 120.558594 276.085938 116.851562 276.085938 116.851562 C 266.601562 116.851562 261.34375 125.089844 258.464844 135.382812 C 258.035156 136.914062 259.207031 138.429688 260.792969 138.367188 C 262.976562 138.277344 265.390625 138.351562 267.460938 138.828125 C 268.085938 138.972656 268.042969 139.882812 267.402344 139.949219 C 265.160156 140.171875 261.757812 140.625 258.441406 141.496094 C 257.554688 141.726562 256.878906 142.460938 256.730469 143.371094 C 255.65625 149.882812 255.269531 156.582031 255.175781 162.15625 C 255.054688 169.988281 253.804688 177.742188 251.554688 185.246094 C 248.152344 196.570312 247.144531 210.144531 247.101562 221.960938 L 247.101562 221.992188 C 247.101562 223.6875 248.015625 225.253906 249.492188 226.089844 L 257.847656 230.808594 L 249.769531 235 C 248.382812 235.71875 247.542969 237.175781 247.609375 238.734375 L 247.609375 238.769531 C 247.953125 246.851562 247.753906 254.945312 246.960938 262.996094 C 245.503906 277.832031 245.5 300.785156 259.085938 302.445312 C 266.472656 303.351562 271.714844 297.238281 275.394531 289.160156 C 276.3125 287.144531 275.9375 284.769531 274.476562 283.105469 L 269.3125 277.230469 L 275.9375 278.621094 C 276.511719 278.742188 276.855469 278 276.386719 277.636719 Z M 276.394531 277.632812 " fill-opacity="1" fill-rule="nonzero"/><path fill="#ff822e" d="M 280.78125 167.316406 C 276.945312 191.257812 280.140625 248.417969 272.289062 277.847656 L 275.9375 278.617188 C 276.511719 278.734375 276.855469 277.996094 276.386719 277.632812 L 273.589844 275.464844 L 275.382812 275.492188 C 278.101562 275.535156 280.464844 273.640625 281.023438 270.980469 C 281.5625 268.433594 281.996094 266.03125 282.332031 263.917969 C 283.207031 258.457031 284.449219 253.070312 285.917969 247.742188 C 287.820312 240.84375 289.515625 227.433594 290.304688 220.558594 C 290.605469 217.964844 289.335938 215.445312 287.074219 214.136719 L 284.207031 212.480469 L 287.859375 208.117188 C 289.382812 206.304688 290.136719 203.964844 289.960938 201.605469 C 289.695312 197.898438 289.261719 192.367188 288.910156 189.605469 C 287.894531 181.664062 287.945312 173.617188 289.21875 165.710938 C 296.46875 120.558594 276.078125 116.851562 276.078125 116.851562 C 276.078125 116.851562 285.828125 135.792969 280.773438 167.316406 Z M 280.78125 167.316406 " fill-opacity="1" fill-rule="nonzero"/><path fill="#ff822e" d="M 275.398438 289.152344 C 276.316406 287.140625 275.941406 284.761719 274.480469 283.101562 L 271.699219 279.933594 C 269.246094 288.144531 265.804688 293.859375 260.925781 295.535156 C 249.957031 299.296875 246.507812 268.90625 246.507812 268.898438 C 245.71875 283.25 247.203125 300.992188 259.089844 302.445312 C 266.476562 303.351562 271.722656 297.238281 275.398438 289.160156 Z M 275.398438 289.152344 " fill-opacity="1" fill-rule="nonzero"/><path fill="#fcb042" d="M 221.015625 261.160156 C 221.746094 237.785156 218.117188 208.566406 216.023438 194 C 215.671875 191.539062 213.84375 189.554688 211.421875 188.992188 L 199.433594 186.214844 L 212.152344 181.132812 C 213.308594 180.667969 214.015625 179.484375 213.867188 178.246094 C 213.867188 178.230469 213.867188 178.21875 213.863281 178.203125 C 213.710938 176.964844 212.742188 175.980469 211.503906 175.8125 L 192.6875 173.203125 L 206.8125 166.019531 C 209.816406 164.492188 211.464844 161.179688 210.882812 157.863281 C 210.546875 155.929688 210.199219 154.058594 209.847656 152.253906 C 209.21875 149.046875 206.621094 146.601562 203.382812 146.152344 L 192.6875 144.671875 L 202.066406 139.898438 C 204.679688 138.570312 205.988281 135.5625 205.152344 132.753906 C 194.441406 96.714844 181.3125 100.332031 181.3125 100.332031 C 155.316406 106.738281 174.816406 193.785156 174.816406 193.785156 C 174.816406 193.785156 175.847656 204.179688 177.984375 218.316406 C 178.609375 222.464844 182.523438 225.191406 186.664062 224.542969 C 188.828125 224.203125 191.15625 224.238281 193.589844 224.847656 C 193.589844 224.847656 188.925781 227.242188 183.757812 232.269531 C 181.910156 234.070312 181.074219 236.660156 181.566406 239.191406 C 187.074219 267.472656 196.066406 298.03125 208.9375 295.367188 C 213.070312 294.515625 215.929688 290.539062 217.828125 284.589844 C 218.546875 282.332031 217.898438 279.859375 216.148438 278.269531 L 202.210938 265.574219 L 214.292969 266.980469 C 217.808594 267.386719 220.910156 264.699219 221.019531 261.160156 Z M 221.015625 261.160156 " fill-opacity="1" fill-rule="nonzero"/><path fill="#ff822e" d="M 213.867188 178.234375 C 213.867188 178.234375 213.867188 178.207031 213.859375 178.195312 C 213.710938 176.957031 212.742188 175.972656 211.503906 175.804688 L 205.585938 174.984375 C 206.050781 177.679688 206.519531 180.425781 206.980469 183.195312 L 212.152344 181.128906 C 213.308594 180.667969 214.015625 179.484375 213.867188 178.246094 Z M 213.867188 178.234375 " fill-opacity="1" fill-rule="nonzero"/><path fill="#ff822e" d="M 208.929688 295.367188 C 213.066406 294.511719 215.925781 290.539062 217.824219 284.589844 C 218.542969 282.332031 217.894531 279.859375 216.144531 278.265625 L 213.460938 275.824219 C 211.808594 285.980469 207.40625 294.21875 196.390625 286.769531 C 200.066406 292.902344 204.238281 296.34375 208.925781 295.375 Z M 208.929688 295.367188 " fill-opacity="1" fill-rule="nonzero"/><path fill="#ff822e" d="M 210.882812 157.851562 C 210.546875 155.917969 210.199219 154.050781 209.847656 152.246094 C 209.21875 149.035156 206.621094 146.589844 203.382812 146.144531 L 200.335938 145.71875 C 201.457031 151.816406 202.816406 159.230469 204.242188 167.316406 L 206.808594 166.007812 C 209.8125 164.480469 211.460938 161.171875 210.878906 157.851562 Z M 210.882812 157.851562 " fill-opacity="1" fill-rule="nonzero"/><path fill="#ff822e" d="M 199.5 141.195312 L 202.0625 139.890625 C 204.675781 138.5625 205.984375 135.554688 205.148438 132.746094 C 194.4375 96.710938 181.308594 100.324219 181.308594 100.324219 C 181.308594 100.324219 195.410156 116.90625 197.738281 131.292969 C 198.058594 133.292969 198.679688 136.71875 199.5 141.191406 Z M 199.5 141.195312 " fill-opacity="1" fill-rule="nonzero"/><path fill="#ff822e" d="M 211.421875 188.992188 L 207.800781 188.152344 C 212.222656 215.171875 215.96875 243.417969 213.984375 253.398438 C 213.984375 253.398438 214.570312 259.664062 214.292969 266.980469 C 217.808594 267.386719 220.902344 264.695312 221.011719 261.160156 C 221.742188 237.785156 218.117188 208.566406 216.023438 194 C 215.671875 191.539062 213.839844 189.554688 211.421875 188.992188 Z M 211.421875 188.992188 " fill-opacity="1" fill-rule="nonzero"/><path fill="#fcb042" d="M 152.863281 260.34375 C 149.910156 253.8125 147.8125 246.9375 146.554688 239.878906 L 146.539062 239.8125 C 146.171875 237.757812 144.984375 235.941406 143.242188 234.792969 L 128.773438 225.210938 L 140.042969 227.273438 C 141.664062 227.574219 143.015625 226.007812 142.484375 224.449219 C 138.480469 212.789062 132.984375 202.660156 128.730469 195.757812 C 124.558594 189 121.441406 181.636719 119.46875 173.941406 C 117.371094 165.777344 115.144531 159.070312 112.867188 153.574219 C 109.300781 144.953125 98.722656 141.769531 90.941406 146.921875 L 86.171875 150.082031 L 95.023438 135.957031 C 96.578125 133.476562 95.171875 130.207031 92.304688 129.605469 C 87.859375 128.671875 84.910156 130.398438 84.910156 130.398438 C 66.605469 138.757812 79.875 171.96875 88.199219 189.003906 C 91.449219 195.648438 93.675781 202.730469 94.964844 210.015625 C 98.761719 231.589844 107.878906 248.273438 114.019531 257.578125 L 114.074219 257.664062 C 115.222656 259.402344 117.734375 259.410156 118.949219 257.710938 C 121.894531 253.589844 124.804688 252.296875 124.804688 252.296875 C 123.464844 255.949219 122.574219 261.816406 121.988281 267.988281 C 121.746094 270.550781 122.082031 273.136719 122.917969 275.574219 C 122.9375 275.640625 122.964844 275.699219 122.984375 275.765625 C 127.402344 288.792969 136.976562 309.378906 152.0625 303.617188 C 167.148438 297.851562 159.125 274.183594 152.855469 260.339844 Z M 152.863281 260.34375 " fill-opacity="1" fill-rule="nonzero"/><path fill="#ff822e" d="M 152.863281 260.34375 C 149.910156 253.8125 147.8125 246.9375 146.554688 239.878906 L 146.539062 239.8125 C 146.171875 237.757812 144.984375 235.941406 143.242188 234.792969 L 136.519531 230.339844 C 145.175781 251.160156 161.453125 292.597656 149.085938 296.453125 C 132.160156 301.734375 122.984375 275.769531 122.984375 275.769531 C 127.402344 288.796875 136.976562 309.382812 152.0625 303.621094 C 167.148438 297.859375 159.125 274.1875 152.855469 260.34375 Z M 152.863281 260.34375 " fill-opacity="1" fill-rule="nonzero"/><path fill="#ff822e" d="M 134.828125 226.320312 L 140.046875 227.273438 C 141.667969 227.574219 143.019531 226.007812 142.488281 224.449219 C 138.488281 212.789062 132.988281 202.660156 128.734375 195.757812 C 124.5625 189 121.449219 181.636719 119.472656 173.941406 C 117.375 165.777344 115.148438 159.070312 112.875 153.574219 C 109.304688 144.953125 98.726562 141.769531 90.949219 146.921875 C 90.949219 146.921875 107.09375 148.636719 110.175781 170.671875 C 113.257812 192.703125 131.667969 219.070312 131.667969 219.070312 C 131.667969 219.070312 132.925781 221.847656 134.828125 226.320312 Z M 134.828125 226.320312 " fill-opacity="1" fill-rule="nonzero"/><path fill="#fcb042" d="M 86.027344 282.585938 C 86.027344 282.585938 86.007812 282.566406 85.992188 282.550781 C 83.753906 280.375 80.867188 279.003906 77.761719 278.765625 L 62.019531 277.5625 L 73.308594 272.789062 C 75.636719 271.804688 76.511719 268.933594 75.113281 266.820312 C 69.925781 259.007812 63.792969 252.664062 58.597656 248.042969 C 53.800781 243.773438 49.492188 238.988281 45.75 233.789062 C 43.796875 231.066406 40.59375 229.535156 37.253906 229.746094 L 22.039062 230.695312 L 28.589844 224.65625 C 32.964844 220.625 32.75 213.601562 28.074219 209.917969 C 20.023438 203.578125 14.777344 206.785156 14.777344 206.785156 C 0.113281 219.765625 11.6875 237.441406 20.132812 247.039062 C 24.679688 252.210938 28.609375 257.878906 31.921875 263.917969 C 41.695312 281.742188 53.964844 295.128906 59.515625 300.730469 C 61.46875 302.699219 63.195312 304.867188 64.671875 307.214844 C 65.136719 307.945312 65.664062 308.769531 66.25 309.664062 C 68.65625 313.332031 73.863281 313.960938 76.9375 310.835938 C 78.234375 309.515625 79.75 308.289062 81.519531 307.183594 C 81.519531 307.183594 79.046875 315.390625 80.539062 325.914062 C 80.757812 327.449219 81.507812 328.867188 82.640625 329.917969 C 89.882812 336.636719 97.8125 340.613281 104.128906 335.191406 C 121.542969 320.261719 96.832031 293.0625 86.015625 282.578125 Z M 86.027344 282.585938 " fill-opacity="1" fill-rule="nonzero"/><path fill="#ff822e" d="M 82.648438 329.917969 C 89.890625 336.636719 97.816406 340.609375 104.136719 335.191406 C 121.546875 320.261719 96.839844 293.0625 86.023438 282.578125 L 85.988281 282.542969 C 83.695312 280.332031 80.710938 278.984375 77.53125 278.742188 L 72.179688 278.332031 L 97.992188 311.742188 C 100.617188 315.144531 101.785156 319.519531 100.90625 323.726562 C 99.832031 328.859375 95.699219 333.707031 82.644531 329.914062 Z M 82.648438 329.917969 " fill-opacity="1" fill-rule="nonzero"/><path fill="#ff822e" d="M 25.519531 216.96875 C 26.046875 218.28125 27.507812 220.621094 29.570312 223.597656 C 32.890625 219.484375 32.363281 213.300781 28.078125 209.921875 C 20.027344 203.582031 14.78125 206.789062 14.78125 206.789062 C 14.78125 206.789062 22.453125 209.28125 25.523438 216.976562 Z M 25.519531 216.96875 " fill-opacity="1" fill-rule="nonzero"/><path fill="#ff822e" d="M 69.226562 274.515625 L 73.300781 272.789062 C 75.632812 271.804688 76.507812 268.933594 75.105469 266.820312 C 69.921875 259.011719 63.789062 252.664062 58.597656 248.046875 C 53.800781 243.773438 49.492188 238.988281 45.75 233.789062 C 43.796875 231.070312 40.59375 229.535156 37.253906 229.746094 L 34.148438 229.9375 C 45.511719 245.242188 63.789062 267.472656 63.789062 267.472656 L 69.226562 274.511719 Z M 69.226562 274.515625 " fill-opacity="1" fill-rule="nonzero"/><path fill="#fcb042" d="M 405.238281 344.78125 C 395.371094 350.398438 387.707031 359.925781 382.773438 367.699219 C 381.398438 369.871094 379.671875 371.898438 377.707031 373.796875 C 375.367188 376.0625 374.6875 379.542969 376.105469 382.476562 L 377.769531 385.917969 L 366.226562 384.0625 C 364.660156 383.808594 363.050781 384.066406 361.640625 384.792969 C 354.589844 388.414062 347.765625 390.875 343.882812 392.144531 C 341.097656 393.054688 338.570312 394.644531 336.546875 396.769531 C 329.527344 404.117188 329.289062 411.699219 332.65625 417.71875 C 337.660156 426.675781 349.386719 429.300781 358.027344 423.773438 C 358.035156 423.769531 358.046875 423.765625 358.050781 423.757812 C 359.761719 422.667969 360.476562 420.523438 359.746094 418.628906 C 357.472656 412.722656 354.613281 409.957031 354.613281 409.957031 C 359.035156 410.808594 362.824219 412.855469 365.980469 415.34375 C 367.574219 416.597656 369.78125 416.742188 371.5625 415.769531 C 379.761719 411.269531 390.15625 406.132812 402.488281 401.179688 C 404.703125 400.289062 406.265625 398.265625 406.558594 395.894531 L 408.042969 383.929688 L 418.515625 391.433594 C 420.515625 392.867188 423.160156 393.066406 425.347656 391.933594 C 427.738281 390.695312 429.894531 389.417969 431.835938 388.117188 C 458.585938 370.121094 433.257812 328.839844 405.230469 344.78125 Z M 405.238281 344.78125 " fill-opacity="1" fill-rule="nonzero"/><path fill="#ff822e" d="M 331.1875 414.242188 C 331.542969 415.453125 332.035156 416.613281 332.65625 417.726562 C 337.660156 426.679688 349.386719 429.304688 358.027344 423.78125 C 358.035156 423.777344 358.046875 423.769531 358.050781 423.765625 C 359.761719 422.671875 360.476562 420.527344 359.746094 418.632812 C 359.613281 418.285156 359.476562 417.953125 359.34375 417.628906 C 357.007812 418.714844 355.113281 419.546875 353.800781 420.054688 C 341.644531 424.757812 331.21875 414.277344 331.1875 414.238281 Z M 331.1875 414.242188 " fill-opacity="1" fill-rule="nonzero"/><path fill="#ff822e" d="M 406.566406 395.894531 L 406.839844 393.679688 C 393.472656 400.628906 376.753906 409.21875 365.261719 414.804688 C 365.507812 414.984375 365.75 415.160156 365.984375 415.347656 C 367.578125 416.605469 369.785156 416.75 371.566406 415.773438 C 379.769531 411.273438 390.160156 406.136719 402.492188 401.183594 C 404.710938 400.292969 406.269531 398.273438 406.566406 395.898438 Z M 406.566406 395.894531 " fill-opacity="1" fill-rule="nonzero"/><path fill="#ff822e" d="M 436.015625 349.625 C 446.199219 371.636719 428.539062 382.332031 428.539062 382.332031 C 428.539062 382.332031 423.238281 385.132812 415.421875 389.214844 L 418.523438 391.4375 C 420.527344 392.875 423.171875 393.074219 425.359375 391.941406 C 427.75 390.699219 429.90625 389.421875 431.84375 388.121094 C 447.066406 377.882812 445.421875 360.109375 436.019531 349.625 Z M 436.015625 349.625 " fill-opacity="1" fill-rule="nonzero"/><path fill="#7b68ff" d="M 486.5625 496.644531 C 487.207031 494.109375 489.449219 492.269531 492.0625 492.195312 C 495.503906 492.09375 498.929688 491.621094 502.238281 490.792969 C 506.234375 489.90625 510.074219 487.933594 513.941406 486.660156 C 531.875 480.417969 545.855469 492.925781 561.527344 485.515625 C 557.503906 486.203125 553.464844 486.097656 549.519531 485.246094 C 541.542969 483.476562 533.667969 479.714844 525.269531 479.375 C 519.761719 479.046875 514.195312 480.074219 509.074219 482.074219 C 506.34375 483.183594 503.550781 484.367188 500.71875 485.167969 C 499.347656 485.566406 497.96875 485.910156 496.578125 486.203125 C 492.777344 486.992188 489.335938 483.804688 489.886719 479.960938 C 490.207031 477.738281 490.449219 475.507812 490.492188 473.257812 C 490.691406 463.480469 495.300781 453.640625 500.40625 445.679688 C 507.542969 434.546875 518.199219 426.105469 530.617188 421.5625 C 546.644531 415.699219 569.960938 409.605469 579.160156 419.386719 C 589.039062 429.878906 611.832031 433.289062 625.597656 434.398438 C 635.929688 435.226562 645.132812 441.3125 649.898438 450.519531 C 654.792969 459.964844 659.085938 474.566406 658.710938 496.476562 C 658.65625 499.648438 656.339844 502.367188 653.207031 502.855469 C 648.835938 503.535156 644.59375 504.816406 640.648438 506.796875 C 626.914062 514.761719 611.433594 518.867188 595.382812 518.050781 C 597.859375 518.902344 600.414062 519.511719 603.003906 519.90625 C 605.429688 520.28125 606.941406 522.761719 606.195312 525.097656 C 602.804688 535.714844 593.132812 543.457031 582.859375 547.746094 C 579.242188 549.183594 575.855469 551.582031 573.496094 554.6875 C 567.742188 562.269531 566.261719 571.910156 566.605469 581.105469 C 566.699219 582.90625 566.847656 584.695312 567.175781 586.480469 L 567.859375 586.445312 C 569.378906 575.015625 572.15625 558.265625 583.710938 552.957031 C 590.882812 549.828125 597.722656 545.382812 602.417969 538.980469 C 605.5 534.738281 607.640625 529.582031 607.964844 524.34375 C 608.09375 522.210938 609.792969 520.523438 611.929688 520.484375 C 614.570312 520.433594 617.210938 520.207031 619.808594 519.816406 C 628.003906 518.628906 635.882812 515.578125 643.039062 511.445312 C 644.867188 510.53125 646.75 509.757812 648.675781 509.117188 C 653.257812 507.59375 657.871094 511.34375 657.277344 516.136719 C 656.121094 525.5 654.210938 535.882812 651.363281 547.390625 C 628.515625 639.738281 575.507812 603.878906 575.507812 603.878906 C 556.316406 587.222656 529.8125 595.851562 529.8125 595.851562 C 497.195312 605.105469 481.949219 585.304688 474.824219 564.773438 C 469.316406 548.878906 471.164062 531.46875 479.191406 516.691406 C 482.4375 510.714844 484.832031 503.4375 486.5625 496.65625 Z M 486.5625 496.644531 " fill-opacity="1" fill-rule="nonzero"/><path fill="#5c51f2" d="M 536.042969 579.003906 C 546.054688 578.914062 555.933594 581.410156 564.519531 586.542969 C 570.199219 589.933594 576.601562 594.472656 582.820312 600.414062 C 591.828125 609.023438 616.511719 607.148438 625.898438 599.382812 C 602.222656 621.941406 575.503906 603.871094 575.503906 603.871094 C 556.316406 587.214844 529.808594 595.839844 529.808594 595.839844 C 498.0625 604.84375 482.777344 586.328125 475.417969 566.40625 C 469.355469 550.003906 471.074219 531.839844 479.328125 516.421875 C 479.019531 518.890625 472.746094 554.578125 493.863281 573.59375 C 512.140625 590.050781 526.058594 579.09375 536.050781 578.996094 Z M 536.042969 579.003906 " fill-opacity="1" fill-rule="nonzero"/><path fill="#7b68ff" d="M 516.757812 392.296875 L 519.121094 390.46875 L 517.605469 390.492188 C 515.316406 390.527344 513.316406 388.925781 512.84375 386.683594 C 512.394531 384.535156 512.03125 382.511719 511.742188 380.726562 C 511.007812 376.117188 509.957031 371.570312 508.714844 367.078125 C 507.109375 361.257812 505.679688 349.941406 505.011719 344.140625 C 504.757812 341.953125 505.832031 339.820312 507.734375 338.722656 L 510.15625 337.324219 L 507.074219 333.644531 C 505.792969 332.113281 505.15625 330.144531 505.300781 328.148438 C 505.53125 325.027344 505.890625 320.351562 506.191406 318.023438 C 507.042969 311.320312 507.003906 304.535156 505.929688 297.867188 C 499.8125 259.765625 517.015625 256.636719 517.015625 256.636719 C 525.019531 256.636719 529.457031 263.589844 531.882812 272.277344 C 532.246094 273.570312 531.257812 274.847656 529.914062 274.792969 C 528.070312 274.71875 526.039062 274.777344 524.289062 275.1875 C 523.757812 275.308594 523.796875 276.074219 524.339844 276.125 C 526.230469 276.316406 529.101562 276.695312 531.898438 277.429688 C 532.648438 277.621094 533.21875 278.242188 533.34375 279.007812 C 534.25 284.503906 534.578125 290.160156 534.652344 294.863281 C 534.757812 301.472656 535.808594 308.015625 537.710938 314.339844 C 540.578125 323.898438 541.433594 335.347656 541.46875 345.324219 L 541.46875 345.351562 C 541.46875 346.78125 540.695312 348.105469 539.449219 348.8125 L 532.398438 352.792969 L 539.214844 356.332031 C 540.382812 356.9375 541.09375 358.164062 541.039062 359.476562 L 541.039062 359.507812 C 540.75 366.324219 540.917969 373.160156 541.585938 379.949219 C 542.816406 392.46875 542.820312 411.835938 531.355469 413.238281 C 525.121094 414 520.699219 408.847656 517.59375 402.023438 C 516.816406 400.324219 517.136719 398.320312 518.367188 396.917969 L 522.722656 391.953125 L 517.136719 393.132812 C 516.648438 393.238281 516.359375 392.613281 516.753906 392.304688 Z M 516.757812 392.296875 " fill-opacity="1" fill-rule="nonzero"/><path fill="#5c51f2" d="M 513.054688 299.214844 C 516.292969 319.414062 513.597656 367.648438 520.222656 392.476562 L 517.140625 393.125 C 516.652344 393.226562 516.363281 392.601562 516.757812 392.292969 L 519.121094 390.464844 L 517.605469 390.488281 C 515.316406 390.523438 513.316406 388.921875 512.84375 386.679688 C 512.394531 384.53125 512.03125 382.503906 511.742188 380.722656 C 511.007812 376.109375 509.957031 371.566406 508.714844 367.070312 C 507.109375 361.253906 505.679688 349.9375 505.011719 344.136719 C 504.757812 341.949219 505.832031 339.816406 507.734375 338.71875 L 510.15625 337.320312 L 507.074219 333.640625 C 505.792969 332.109375 505.15625 330.140625 505.300781 328.144531 C 505.53125 325.019531 505.890625 320.347656 506.191406 318.019531 C 507.042969 311.316406 507.003906 304.53125 505.929688 297.859375 C 499.8125 259.761719 517.015625 256.632812 517.015625 256.632812 C 517.015625 256.632812 508.789062 272.613281 513.054688 299.214844 Z M 513.054688 299.214844 " fill-opacity="1" fill-rule="nonzero"/><path fill="#5c51f2" d="M 517.59375 402.019531 C 516.816406 400.320312 517.136719 398.316406 518.367188 396.910156 L 520.714844 394.242188 C 522.785156 401.167969 525.691406 405.988281 529.804688 407.40625 C 539.054688 410.582031 541.96875 384.933594 541.96875 384.925781 C 542.632812 397.035156 541.382812 412.007812 531.351562 413.234375 C 525.117188 413.996094 520.695312 408.839844 517.59375 402.019531 Z M 517.59375 402.019531 " fill-opacity="1" fill-rule="nonzero"/><path fill="#7b68ff" d="M 563.480469 378.398438 C 562.867188 358.679688 565.929688 334.023438 567.691406 321.730469 C 567.992188 319.65625 569.539062 317.976562 571.574219 317.503906 L 581.691406 315.15625 L 570.957031 310.867188 C 569.980469 310.472656 569.386719 309.472656 569.511719 308.429688 C 569.511719 308.417969 569.511719 308.40625 569.511719 308.394531 C 569.636719 307.351562 570.457031 306.519531 571.5 306.375 L 587.378906 304.175781 L 575.457031 298.117188 C 572.925781 296.828125 571.53125 294.03125 572.023438 291.234375 C 572.308594 289.601562 572.601562 288.027344 572.898438 286.5 C 573.421875 283.792969 575.621094 281.730469 578.351562 281.351562 L 587.378906 280.105469 L 579.464844 276.078125 C 577.261719 274.953125 576.152344 272.417969 576.859375 270.050781 C 585.894531 239.640625 596.976562 242.695312 596.976562 242.695312 C 618.910156 248.105469 602.457031 321.550781 602.457031 321.550781 C 602.457031 321.550781 601.589844 330.320312 599.785156 342.246094 C 599.257812 345.75 595.957031 348.046875 592.460938 347.503906 C 590.632812 347.222656 588.667969 347.246094 586.617188 347.761719 C 586.617188 347.761719 590.550781 349.78125 594.914062 354.027344 C 596.472656 355.546875 597.179688 357.734375 596.761719 359.871094 C 592.113281 383.734375 584.527344 409.519531 573.667969 407.269531 C 570.179688 406.550781 567.769531 403.199219 566.160156 398.171875 C 565.554688 396.265625 566.101562 394.183594 567.578125 392.835938 L 579.339844 382.125 L 569.144531 383.3125 C 566.175781 383.660156 563.5625 381.386719 563.46875 378.40625 Z M 563.480469 378.398438 " fill-opacity="1" fill-rule="nonzero"/><path fill="#5c51f2" d="M 569.519531 308.433594 C 569.519531 308.433594 569.519531 308.410156 569.519531 308.398438 C 569.644531 307.355469 570.460938 306.523438 571.503906 306.378906 L 576.5 305.6875 C 576.109375 307.964844 575.714844 310.277344 575.324219 312.613281 L 570.957031 310.871094 C 569.980469 310.476562 569.382812 309.484375 569.511719 308.433594 Z M 569.519531 308.433594 " fill-opacity="1" fill-rule="nonzero"/><path fill="#5c51f2" d="M 573.679688 407.265625 C 570.1875 406.542969 567.777344 403.191406 566.171875 398.167969 C 565.566406 396.261719 566.113281 394.179688 567.585938 392.832031 L 569.851562 390.765625 C 571.242188 399.335938 574.960938 406.292969 584.253906 400 C 581.152344 405.171875 577.628906 408.074219 573.679688 407.261719 Z M 573.679688 407.265625 " fill-opacity="1" fill-rule="nonzero"/><path fill="#5c51f2" d="M 572.03125 291.234375 C 572.320312 289.601562 572.609375 288.027344 572.90625 286.5 C 573.433594 283.792969 575.632812 281.730469 578.359375 281.351562 L 580.929688 280.996094 C 579.984375 286.136719 578.835938 292.390625 577.628906 299.214844 L 575.460938 298.109375 C 572.933594 296.824219 571.535156 294.027344 572.027344 291.230469 Z M 572.03125 291.234375 " fill-opacity="1" fill-rule="nonzero"/><path fill="#5c51f2" d="M 581.632812 277.175781 L 579.46875 276.078125 C 577.265625 274.953125 576.15625 272.417969 576.863281 270.050781 C 585.898438 239.640625 596.980469 242.695312 596.980469 242.695312 C 596.980469 242.695312 585.082031 256.6875 583.117188 268.828125 C 582.84375 270.511719 582.320312 273.40625 581.625 277.175781 Z M 581.632812 277.175781 " fill-opacity="1" fill-rule="nonzero"/><path fill="#5c51f2" d="M 571.578125 317.503906 L 574.632812 316.796875 C 570.90625 339.597656 567.742188 363.433594 569.414062 371.851562 C 569.414062 371.851562 568.917969 377.136719 569.152344 383.3125 C 566.191406 383.65625 563.578125 381.386719 563.480469 378.40625 C 562.867188 358.683594 565.929688 334.027344 567.699219 321.734375 C 567.996094 319.660156 569.539062 317.980469 571.578125 317.507812 Z M 571.578125 317.503906 " fill-opacity="1" fill-rule="nonzero"/><path fill="#7b68ff" d="M 620.988281 377.707031 C 623.480469 372.199219 625.25 366.394531 626.3125 360.445312 L 626.324219 360.382812 C 626.628906 358.652344 627.632812 357.121094 629.105469 356.144531 L 641.3125 348.0625 L 631.804688 349.800781 C 630.4375 350.050781 629.292969 348.734375 629.746094 347.414062 C 633.121094 337.578125 637.761719 329.023438 641.351562 323.207031 C 644.871094 317.503906 647.5 311.292969 649.167969 304.796875 C 650.9375 297.90625 652.816406 292.246094 654.734375 287.613281 C 657.746094 280.339844 666.667969 277.652344 673.234375 282 L 677.261719 284.664062 L 669.789062 272.746094 C 668.480469 270.652344 669.667969 267.898438 672.082031 267.390625 C 675.828125 266.605469 678.324219 268.054688 678.324219 268.054688 C 693.769531 275.105469 682.574219 303.132812 675.546875 317.507812 C 672.808594 323.117188 670.921875 329.089844 669.839844 335.238281 C 666.632812 353.441406 658.945312 367.519531 653.757812 375.371094 L 653.714844 375.441406 C 652.746094 376.90625 650.628906 376.914062 649.605469 375.484375 C 647.113281 372.007812 644.664062 370.917969 644.664062 370.917969 C 645.792969 374 646.542969 378.945312 647.039062 384.152344 C 647.25 386.316406 646.960938 388.5 646.253906 390.558594 C 646.234375 390.613281 646.21875 390.660156 646.199219 390.71875 C 642.472656 401.710938 634.394531 419.082031 621.664062 414.21875 C 608.933594 409.355469 615.703125 389.382812 620.992188 377.703125 Z M 620.988281 377.707031 " fill-opacity="1" fill-rule="nonzero"/><path fill="#5c51f2" d="M 620.988281 377.707031 C 623.480469 372.199219 625.25 366.394531 626.3125 360.445312 L 626.324219 360.382812 C 626.628906 358.652344 627.632812 357.121094 629.105469 356.144531 L 634.78125 352.386719 C 627.476562 369.957031 613.742188 404.917969 624.179688 408.175781 C 638.460938 412.632812 646.199219 390.722656 646.199219 390.722656 C 642.472656 401.714844 634.394531 419.085938 621.664062 414.222656 C 608.933594 409.359375 615.703125 389.386719 620.992188 377.707031 Z M 620.988281 377.707031 " fill-opacity="1" fill-rule="nonzero"/><path fill="#5c51f2" d="M 636.203125 349.003906 L 631.800781 349.808594 C 630.433594 350.054688 629.289062 348.738281 629.742188 347.421875 C 633.117188 337.582031 637.753906 329.03125 641.347656 323.210938 C 644.867188 317.507812 647.496094 311.296875 649.164062 304.804688 C 650.933594 297.910156 652.8125 292.253906 654.730469 287.617188 C 657.742188 280.34375 666.664062 277.65625 673.230469 282.003906 C 673.230469 282.003906 659.605469 283.449219 657.007812 302.042969 C 654.40625 320.636719 638.867188 342.882812 638.867188 342.882812 C 638.867188 342.882812 637.804688 345.226562 636.199219 349.003906 Z M 636.203125 349.003906 " fill-opacity="1" fill-rule="nonzero"/><path fill="#7b68ff" d="M 677.382812 396.476562 C 677.382812 396.476562 677.402344 396.457031 677.414062 396.453125 C 679.304688 394.617188 681.738281 393.457031 684.363281 393.257812 L 697.644531 392.242188 L 688.121094 388.21875 C 686.152344 387.382812 685.417969 384.964844 686.601562 383.183594 C 690.972656 376.589844 696.152344 371.238281 700.53125 367.339844 C 704.582031 363.742188 708.21875 359.703125 711.375 355.3125 C 713.023438 353.019531 715.722656 351.726562 718.542969 351.898438 L 731.382812 352.703125 L 725.855469 347.609375 C 722.160156 344.207031 722.34375 338.28125 726.285156 335.171875 C 733.082031 329.820312 737.507812 332.527344 737.507812 332.527344 C 749.882812 343.476562 740.117188 358.394531 732.992188 366.492188 C 729.15625 370.851562 725.832031 375.632812 723.039062 380.734375 C 714.792969 395.773438 704.4375 407.066406 699.757812 411.796875 C 698.113281 413.457031 696.648438 415.289062 695.402344 417.269531 C 695.015625 417.886719 694.566406 418.582031 694.070312 419.339844 C 692.042969 422.433594 687.644531 422.964844 685.054688 420.324219 C 683.960938 419.210938 682.683594 418.175781 681.1875 417.242188 C 681.1875 417.242188 683.269531 424.164062 682.011719 433.050781 C 681.828125 434.34375 681.199219 435.535156 680.238281 436.425781 C 674.128906 442.09375 667.4375 445.445312 662.105469 440.871094 C 647.417969 428.277344 668.261719 405.328125 677.390625 396.480469 Z M 677.382812 396.476562 " fill-opacity="1" fill-rule="nonzero"/><path fill="#5c51f2" d="M 680.234375 436.421875 C 674.125 442.089844 667.433594 445.441406 662.101562 440.867188 C 647.410156 428.273438 668.257812 405.324219 677.386719 396.476562 L 677.414062 396.453125 C 679.347656 394.582031 681.867188 393.449219 684.546875 393.242188 L 689.066406 392.898438 L 667.289062 421.09375 C 665.074219 423.964844 664.085938 427.660156 664.828125 431.207031 C 665.734375 435.535156 669.21875 439.628906 680.238281 436.425781 Z M 680.234375 436.421875 " fill-opacity="1" fill-rule="nonzero"/><path fill="#5c51f2" d="M 728.4375 341.113281 C 727.996094 342.222656 726.765625 344.195312 725.019531 346.703125 C 722.21875 343.234375 722.664062 338.019531 726.28125 335.167969 C 733.078125 329.816406 737.503906 332.523438 737.503906 332.523438 C 737.503906 332.523438 731.035156 334.625 728.441406 341.113281 Z M 728.4375 341.113281 " fill-opacity="1" fill-rule="nonzero"/><path fill="#5c51f2" d="M 691.554688 389.667969 L 688.117188 388.210938 C 686.148438 387.378906 685.414062 384.957031 686.59375 383.179688 C 690.96875 376.585938 696.148438 371.234375 700.527344 367.335938 C 704.574219 363.734375 708.210938 359.699219 711.371094 355.304688 C 713.019531 353.015625 715.71875 351.71875 718.535156 351.894531 L 721.15625 352.058594 C 711.570312 364.96875 696.144531 383.730469 696.144531 383.730469 Z M 691.554688 389.667969 " fill-opacity="1" fill-rule="nonzero"/><path fill="#7b68ff" d="M 408.035156 448.960938 C 416.359375 453.695312 422.828125 461.734375 426.988281 468.300781 C 428.152344 470.128906 429.609375 471.847656 431.261719 473.445312 C 433.234375 475.359375 433.8125 478.296875 432.621094 480.765625 L 431.21875 483.671875 L 440.953125 482.105469 C 442.277344 481.890625 443.636719 482.109375 444.824219 482.722656 C 450.773438 485.773438 456.527344 487.851562 459.804688 488.921875 C 462.152344 489.695312 464.289062 491.03125 465.996094 492.820312 C 471.921875 499.023438 472.121094 505.421875 469.285156 510.5 C 465.058594 518.050781 455.164062 520.277344 447.875 515.613281 C 447.867188 515.613281 447.859375 515.601562 447.855469 515.59375 C 446.410156 514.675781 445.804688 512.867188 446.421875 511.269531 C 448.335938 506.289062 450.757812 503.953125 450.757812 503.953125 C 447.023438 504.675781 443.828125 506.402344 441.164062 508.5 C 439.816406 509.558594 437.957031 509.683594 436.457031 508.859375 C 429.539062 505.058594 420.761719 500.726562 410.359375 496.546875 C 408.492188 495.792969 407.167969 494.085938 406.925781 492.085938 L 405.671875 481.992188 L 396.839844 488.320312 C 395.148438 489.53125 392.917969 489.699219 391.074219 488.742188 C 389.054688 487.699219 387.238281 486.621094 385.601562 485.523438 C 363.03125 470.335938 384.402344 435.503906 408.050781 448.957031 Z M 408.035156 448.960938 " fill-opacity="1" fill-rule="nonzero"/><path fill="#5c51f2" d="M 470.519531 507.566406 C 470.222656 508.585938 469.800781 509.566406 469.277344 510.503906 C 465.054688 518.054688 455.160156 520.28125 447.871094 515.617188 C 447.863281 515.617188 447.855469 515.605469 447.851562 515.601562 C 446.40625 514.679688 445.800781 512.871094 446.417969 511.273438 C 446.53125 510.980469 446.648438 510.703125 446.761719 510.429688 C 448.734375 511.34375 450.332031 512.050781 451.4375 512.476562 C 461.699219 516.445312 470.492188 507.601562 470.527344 507.570312 Z M 470.519531 507.566406 " fill-opacity="1" fill-rule="nonzero"/><path fill="#5c51f2" d="M 406.917969 492.085938 L 406.683594 490.214844 C 417.960938 496.078125 432.070312 503.328125 441.765625 508.042969 C 441.5625 508.191406 441.351562 508.339844 441.160156 508.5 C 439.8125 509.558594 437.953125 509.683594 436.453125 508.859375 C 429.535156 505.058594 420.757812 500.726562 410.355469 496.546875 C 408.488281 495.792969 407.167969 494.085938 406.921875 492.085938 Z M 406.917969 492.085938 " fill-opacity="1" fill-rule="nonzero"/><path fill="#5c51f2" d="M 382.070312 453.039062 C 373.476562 471.613281 388.375 480.640625 388.375 480.640625 C 388.375 480.640625 392.851562 483 399.445312 486.445312 L 396.832031 488.320312 C 395.140625 489.53125 392.910156 489.699219 391.066406 488.742188 C 389.046875 487.699219 387.226562 486.621094 385.59375 485.523438 C 372.75 476.882812 374.136719 461.886719 382.074219 453.039062 Z M 382.070312 453.039062 " fill-opacity="1" fill-rule="nonzero"/></svg>