<svg xmlns="http://www.w3.org/2000/svg" xmlns:xlink="http://www.w3.org/1999/xlink" width="1000" zoomAndPan="magnify" viewBox="0 0 750 749.999995" height="1000" preserveAspectRatio="xMidYMid meet" version="1.0"><path fill="#ebc634" d="M 464.921875 293.316406 C 464.109375 293.804688 463.308594 294.300781 462.503906 294.789062 C 465.042969 298.847656 467.578125 302.910156 470.117188 306.976562 C 470.90625 306.496094 471.691406 306.015625 472.480469 305.535156 C 469.957031 301.460938 467.445312 297.394531 464.921875 293.316406 Z M 226.375 437.902344 C 227.296875 437.375 228.226562 436.84375 229.152344 436.316406 C 227.835938 429.480469 226.53125 422.636719 225.21875 415.800781 C 224.300781 416 223.386719 416.203125 222.46875 416.398438 C 223.769531 423.566406 225.074219 430.734375 226.375 437.902344 Z M 474.378906 312.742188 C 473.222656 313.070312 472.503906 314.144531 472.617188 315.292969 C 473.433594 323.34375 474.238281 331.398438 483.726562 336.980469 L 477.335938 314.382812 C 476.976562 313.117188 475.65625 312.378906 474.378906 312.742188 Z M 424.847656 361.816406 C 407.65625 358.957031 396.921875 365.695312 387.796875 376.308594 C 383.15625 381.703125 382.96875 386.792969 386.242188 392.96875 C 395.503906 410.457031 419.089844 423.882812 438.605469 422.539062 C 448.40625 421.855469 455.578125 417.316406 459.210938 408.25 C 468.800781 384.332031 474.65625 360.789062 466.4375 334.175781 C 460.875 316.1875 455.105469 300.777344 440.535156 287.613281 C 426.226562 274.691406 410.621094 270.441406 392.597656 269.445312 C 370.351562 268.214844 350.757812 275.882812 330.515625 284.003906 C 302.148438 295.390625 284.878906 313.902344 281.117188 344.367188 C 278.488281 365.613281 275.695312 386.84375 273.707031 408.152344 C 271.703125 429.59375 280.53125 449.242188 285.523438 469.460938 C 287.625 477.96875 291.527344 486.058594 294.835938 494.25 C 300.902344 509.234375 308.335938 523.324219 320.726562 534.316406 C 324.148438 537.363281 326.613281 541.492188 329.507812 545.117188 C 328.707031 546.199219 327.894531 547.277344 327.09375 548.359375 C 322.207031 545.523438 316.964844 543.15625 312.5 539.773438 C 290.476562 523.058594 268.671875 506.0625 246.769531 489.183594 C 230.15625 476.378906 221.390625 458.316406 215.773438 439.109375 C 207.511719 410.84375 207.203125 381.34375 206.285156 352.164062 C 205.347656 322.070312 215.738281 294.105469 228.867188 268.003906 C 235.230469 255.335938 248.15625 245.265625 259.761719 236.09375 C 277.167969 222.335938 298.34375 214.945312 318.820312 207.078125 C 349.796875 195.175781 381.902344 197.15625 413.660156 203.707031 C 427.667969 206.597656 441.953125 210.320312 454.707031 216.535156 C 475.378906 226.621094 494.542969 239.101562 508.960938 258.203125 C 527.75 283.089844 542.925781 309.703125 552.429688 339.300781 C 562.429688 370.460938 565.519531 402.882812 555.980469 434.082031 C 549.984375 453.714844 542.339844 474.5625 523.085938 487.285156 C 514.851562 492.71875 507.984375 500.351562 499.496094 505.257812 C 474.816406 519.523438 448.289062 522.324219 420.761719 515.089844 C 410.570312 512.410156 400.480469 509.324219 390.355469 506.414062 C 382.9375 504.273438 375.890625 502.285156 371.011719 494.960938 C 368.59375 491.328125 362.800781 489.871094 358.421875 487.628906 C 349.519531 483.050781 342.230469 477.65625 339.28125 466.976562 C 333.179688 444.894531 320.117188 424.902344 319.457031 401.140625 C 318.753906 375.871094 327.511719 353.328125 339.890625 332.019531 C 344.386719 324.269531 350.886719 318.285156 360.9375 317.679688 C 370.777344 317.085938 380.558594 315.496094 390.398438 315.039062 C 393.417969 314.894531 397.089844 316.34375 399.535156 318.25 C 412.859375 328.652344 421.191406 342.152344 424.847656 361.816406 " fill-opacity="1" fill-rule="nonzero"/><path fill="#ebc634" d="M 594.433594 288.109375 C 587.84375 276.632812 582.148438 266.714844 576.742188 257.316406 C 577.921875 254.71875 578.257812 252.890625 579.339844 251.753906 C 590.109375 240.492188 602.632812 231.011719 611.683594 217.910156 C 616.007812 211.648438 623.46875 209.261719 631.449219 207.304688 C 640.132812 205.171875 647.902344 199.144531 655.917969 194.566406 C 658.636719 193.015625 660.765625 189.1875 663.394531 188.945312 C 679.234375 187.511719 695.132812 186.394531 711.015625 186.335938 C 713.492188 186.328125 717.679688 192.039062 718.183594 195.519531 C 720.597656 212.273438 716.695312 228.867188 703.6875 239.101562 C 674.480469 262.082031 642.84375 281.4375 605.460938 288.816406 C 603.328125 289.234375 601.078125 289.28125 598.902344 289.152344 C 597.28125 289.0625 595.6875 288.417969 594.433594 288.109375 " fill-opacity="1" fill-rule="nonzero"/><path fill="#ebc634" d="M 454.234375 0.761719 C 459.816406 9.203125 464.203125 14.140625 466.617188 19.914062 C 469.71875 27.289062 472.496094 35.214844 473.203125 43.09375 C 475.910156 73.371094 468.832031 102.535156 461.625 131.609375 C 460.425781 136.441406 459.140625 141.269531 457.617188 146.003906 C 452.792969 160.976562 448.640625 163.585938 432.382812 162.265625 C 430.175781 162.078125 427.824219 161.53125 425.761719 162.042969 C 408.746094 166.191406 405.398438 159.550781 403.25 143.894531 C 401.230469 129.183594 401.328125 114.0625 401.800781 99.164062 C 402.539062 76.078125 414.675781 56.964844 426.21875 38.148438 C 434.183594 25.179688 444.46875 13.625 454.234375 0.761719 " fill-opacity="1" fill-rule="nonzero"/><path fill="#ebc634" d="M 498.234375 563.300781 C 510.621094 554.566406 518.679688 555.945312 529.65625 563.847656 C 552.183594 580.074219 568.109375 600 576.796875 626.125 C 582.71875 643.941406 589.570312 661.488281 594.710938 679.523438 C 597.894531 690.675781 595.847656 692.605469 585.035156 696.671875 C 578.003906 699.320312 570.078125 705.488281 564.257812 703.882812 C 558.230469 702.21875 554.546875 692.8125 549.34375 687.269531 C 541.46875 678.878906 531.113281 672.117188 525.421875 662.515625 C 507.40625 632.105469 496.53125 599.296875 498.234375 563.300781 " fill-opacity="1" fill-rule="nonzero"/><path fill="#ebc634" d="M 596.320312 395.023438 C 598.449219 388.625 600.664062 384.546875 601.078125 380.292969 C 602.632812 364.121094 613.449219 357.464844 627.386719 354.617188 C 659.054688 348.15625 690.441406 350.078125 720.675781 361.433594 C 729.089844 364.59375 736.632812 371.078125 743.394531 377.304688 C 750.015625 383.390625 748.34375 392.722656 740.695312 398.746094 C 726.050781 410.289062 709.8125 417.644531 690.824219 419.125 C 664.972656 421.136719 639.789062 419.453125 616.15625 407.957031 C 609.003906 404.464844 602.699219 399.25 596.320312 395.023438 " fill-opacity="1" fill-rule="nonzero"/><path fill="#ebc634" d="M 265.179688 17.578125 C 281.738281 24.484375 295.160156 33.910156 305.363281 47.09375 C 313.429688 57.519531 320 69.109375 327.234375 80.175781 C 340.589844 100.621094 343.5 123.445312 341.160156 146.964844 C 340.355469 155.070312 336.191406 162.835938 332.894531 172.765625 C 327.511719 170.589844 320.808594 169.3125 315.898438 165.652344 C 274.539062 134.820312 254.816406 92.777344 253.230469 41.78125 C 253.140625 38.855469 254.523438 35.605469 256.046875 32.984375 C 257.605469 30.277344 260.496094 28.363281 262.207031 25.722656 C 263.558594 23.628906 264.003906 20.949219 265.179688 17.578125 " fill-opacity="1" fill-rule="nonzero"/><path fill="#ebc634" d="M 577.273438 493.582031 C 585.027344 486.992188 591.753906 479.9375 599.792969 475.003906 C 603.570312 472.6875 610.492188 472.859375 614.898438 474.621094 C 642.316406 485.566406 665.585938 502.226562 686.492188 523.480469 C 698.539062 535.726562 704.371094 549.101562 707.988281 564.75 C 709.679688 572.050781 707.589844 576.40625 700.070312 578.101562 C 680.164062 582.589844 660.863281 579.113281 644.402344 568.515625 C 617.132812 550.964844 595.183594 527.554688 579.234375 498.984375 C 578.199219 497.121094 577.753906 494.9375 577.273438 493.582031 " fill-opacity="1" fill-rule="nonzero"/><path fill="#ebc634" d="M 502.265625 176.269531 C 504.710938 169.089844 505.652344 163.390625 508.40625 158.785156 C 516.324219 145.5625 524.28125 132.246094 533.527344 119.945312 C 543.796875 106.273438 555.253906 93.445312 566.699219 80.703125 C 572.734375 73.976562 579.902344 68.5 589.742188 74.714844 C 590.589844 75.246094 591.925781 74.9375 592.992188 75.210938 C 615.558594 80.875 618.882812 87.71875 606.738281 108.578125 C 595.351562 128.125 582.90625 147.105469 570.015625 165.710938 C 559.425781 180.992188 547.707031 195.511719 536.082031 210.042969 C 530.554688 216.949219 523.613281 217.9375 519.515625 211.304688 C 512.503906 199.980469 507.585938 187.363281 502.265625 176.269531 " fill-opacity="1" fill-rule="nonzero"/><path fill="#ebc634" d="M 118.066406 623.785156 C 102.203125 624.460938 99.667969 620.667969 100.953125 608.675781 C 102.078125 598.132812 106.625 590.433594 113.757812 583.023438 C 129.460938 566.738281 143.953125 549.257812 160.101562 533.445312 C 167.847656 525.867188 178.191406 520.90625 187.453125 514.894531 C 194.007812 510.632812 200.109375 512.183594 205.664062 516.988281 C 210.210938 520.921875 215.039062 524.652344 219.007812 529.125 C 225.667969 536.628906 223.160156 545.816406 218.859375 552.304688 C 208.859375 567.398438 198.699219 583.046875 185.613281 595.273438 C 166.144531 613.449219 141.183594 621.523438 118.066406 623.785156 " fill-opacity="1" fill-rule="nonzero"/><path fill="#ebc634" d="M -0.015625 243.671875 C 16.867188 224.046875 34.410156 218.066406 56.515625 227.378906 C 75.398438 235.34375 95.027344 241.59375 113.710938 249.976562 C 123.15625 254.210938 131.269531 261.429688 139.910156 267.402344 C 141.710938 268.648438 143.445312 270.171875 144.789062 271.90625 C 153.855469 283.621094 148.007812 299.890625 133.511719 300.703125 C 93.691406 302.917969 55.980469 296.574219 25.003906 268.640625 C 16.484375 260.964844 8.730469 252.445312 -0.015625 243.671875 " fill-opacity="1" fill-rule="nonzero"/><path fill="#ebc634" d="M 412.84375 747.546875 C 405.03125 736.042969 398.042969 724.457031 395.5625 710.421875 C 394.128906 702.308594 391.4375 694.40625 389.046875 686.480469 C 378.699219 652.023438 386.300781 621.179688 407.515625 592.953125 C 410.988281 588.324219 414.089844 583.421875 417.960938 577.769531 C 433.425781 589.855469 440.382812 605.066406 441.636719 622.378906 C 442.664062 636.601562 441.789062 651.058594 440.617188 665.316406 C 438.777344 687.742188 438.6875 710.375 430.582031 732.050781 C 427.246094 740.964844 422.398438 745.722656 412.84375 747.546875 " fill-opacity="1" fill-rule="nonzero"/><path fill="#ebc634" d="M 248.703125 735.796875 C 246.902344 730.234375 244.199219 724.835938 243.488281 719.1875 C 239.5 687.679688 244.667969 657.59375 258.695312 629.066406 C 259.671875 627.085938 260.601562 625.074219 261.683594 623.144531 C 275.472656 598.425781 278.4375 590.90625 313.109375 600.910156 C 319.789062 635.476562 309.46875 667.371094 294.769531 697.894531 C 286.324219 715.425781 267.832031 728.90625 248.703125 735.796875 " fill-opacity="1" fill-rule="nonzero"/><path fill="#ebc634" d="M 140.515625 74.640625 C 145.417969 75.757812 150.28125 75.472656 153.097656 77.730469 C 178.265625 97.898438 201.902344 119.40625 211.519531 151.878906 C 217.417969 171.78125 216.839844 191.886719 213.261719 212.023438 C 211.925781 219.558594 207.765625 221.804688 201.535156 217.691406 C 193.277344 212.242188 184.0625 206.921875 178.332031 199.25 C 166.171875 182.964844 154.089844 166.085938 145.515625 147.796875 C 135.015625 125.417969 134.648438 100.980469 140.515625 74.640625 " fill-opacity="1" fill-rule="nonzero"/><path fill="#ebc634" d="M 9.96875 450.253906 C 15.09375 444.160156 17.765625 439.265625 21.867188 436.398438 C 51.066406 415.964844 84.167969 405.953125 119.117188 401.253906 C 127.71875 400.105469 136.382812 399.394531 144.789062 398.5 C 149.457031 411.128906 149.292969 422.019531 146.671875 433.359375 C 144.9375 440.902344 142.242188 445.773438 134.542969 449.339844 C 114.3125 458.695312 94.007812 467.410156 71.46875 468.519531 C 64.035156 468.890625 56.125 468.027344 49.074219 465.75 C 36.609375 461.722656 24.644531 456.175781 9.96875 450.253906 " fill-opacity="1" fill-rule="nonzero"/></svg>