<svg xmlns="http://www.w3.org/2000/svg" xmlns:xlink="http://www.w3.org/1999/xlink" width="1000" zoomAndPan="magnify" viewBox="0 0 750 749.999995" height="1000" preserveAspectRatio="xMidYMid meet" version="1.0"><path fill="#ebc634" d="M 729.460938 -9.585938 C 728.191406 -8.820312 726.929688 -8.042969 725.671875 -7.277344 C 729.652344 -0.90625 733.632812 5.464844 737.613281 11.847656 C 738.847656 11.09375 740.085938 10.339844 741.320312 9.585938 C 737.363281 3.191406 733.417969 -3.191406 729.460938 -9.585938 Z M 355.179688 217.28125 C 356.628906 216.457031 358.089844 215.621094 359.539062 214.796875 C 357.476562 204.070312 355.425781 193.328125 353.367188 182.601562 C 351.929688 182.917969 350.492188 183.238281 349.054688 183.542969 C 351.09375 194.789062 353.140625 206.035156 355.179688 217.28125 Z M 744.300781 20.890625 C 742.488281 21.410156 741.359375 23.09375 741.535156 24.894531 C 742.816406 37.53125 744.078125 50.167969 758.964844 58.929688 L 748.941406 23.46875 C 748.375 21.480469 746.304688 20.328125 744.300781 20.890625 Z M 666.582031 97.894531 C 639.613281 93.410156 622.773438 103.984375 608.449219 120.636719 C 601.171875 129.101562 600.878906 137.085938 606.011719 146.777344 C 620.546875 174.214844 657.550781 195.285156 688.171875 193.175781 C 703.550781 192.105469 714.800781 184.980469 720.5 170.753906 C 735.550781 133.222656 744.738281 96.28125 731.839844 54.523438 C 723.113281 26.296875 714.058594 2.121094 691.199219 -18.535156 C 668.75 -38.8125 644.265625 -45.480469 615.988281 -47.046875 C 581.082031 -48.976562 550.339844 -36.941406 518.578125 -24.199219 C 474.070312 -6.335938 446.972656 22.71875 441.070312 70.515625 C 436.949219 103.855469 432.570312 137.167969 429.449219 170.601562 C 426.304688 204.246094 440.152344 235.074219 447.984375 266.800781 C 451.28125 280.15625 457.40625 292.847656 462.601562 305.695312 C 472.117188 329.214844 483.777344 351.316406 503.21875 368.570312 C 508.589844 373.351562 512.453125 379.828125 517 385.515625 C 515.738281 387.210938 514.46875 388.90625 513.207031 390.601562 C 505.539062 386.152344 497.320312 382.441406 490.3125 377.132812 C 455.757812 350.90625 421.546875 324.234375 387.179688 297.75 C 361.117188 277.65625 347.359375 249.3125 338.550781 219.179688 C 325.582031 174.828125 325.101562 128.535156 323.664062 82.75 C 322.191406 35.527344 338.492188 -8.347656 359.089844 -49.304688 C 369.078125 -69.183594 389.359375 -84.988281 407.566406 -99.378906 C 434.875 -120.964844 468.101562 -132.5625 500.230469 -144.90625 C 548.835938 -163.582031 599.207031 -160.472656 649.035156 -150.191406 C 671.011719 -145.660156 693.425781 -139.816406 713.433594 -130.066406 C 745.867188 -114.238281 775.9375 -94.65625 798.558594 -64.6875 C 828.039062 -25.636719 851.851562 16.121094 866.761719 62.566406 C 882.449219 111.460938 887.300781 162.335938 872.332031 211.289062 C 862.921875 242.09375 850.933594 274.808594 820.726562 294.769531 C 807.804688 303.292969 797.027344 315.269531 783.707031 322.972656 C 744.984375 345.359375 703.363281 349.75 660.175781 338.398438 C 644.183594 334.195312 628.355469 329.355469 612.464844 324.785156 C 600.832031 321.429688 589.773438 318.308594 582.117188 306.816406 C 578.324219 301.117188 569.230469 298.832031 562.367188 295.308594 C 548.398438 288.128906 536.960938 279.660156 532.332031 262.902344 C 522.757812 228.257812 502.265625 196.886719 501.230469 159.601562 C 500.125 119.953125 513.867188 84.578125 533.289062 51.144531 C 540.34375 38.980469 550.542969 29.59375 566.3125 28.640625 C 581.75 27.710938 597.097656 25.214844 612.539062 24.496094 C 617.273438 24.269531 623.03125 26.542969 626.871094 29.535156 C 647.773438 45.855469 660.847656 67.042969 666.582031 97.894531 " fill-opacity="1" fill-rule="nonzero"/><path fill="#ebc634" d="M 185.246094 508.953125 C 160.359375 510.011719 156.378906 504.066406 158.394531 485.246094 C 160.160156 468.703125 167.296875 456.621094 178.484375 444.996094 C 203.125 419.441406 225.863281 392.015625 251.199219 367.203125 C 263.351562 355.308594 279.582031 347.527344 294.113281 338.09375 C 304.394531 331.40625 313.972656 333.84375 322.6875 341.378906 C 329.824219 347.550781 337.394531 353.402344 343.625 360.421875 C 354.074219 372.195312 350.140625 386.609375 343.390625 396.796875 C 327.703125 420.480469 311.757812 445.03125 291.230469 464.214844 C 260.679688 492.738281 221.519531 505.410156 185.246094 508.953125 " fill-opacity="1" fill-rule="nonzero"/><path fill="#ebc634" d="M -0.0234375 -87.484375 C 26.464844 -118.277344 53.988281 -127.664062 88.671875 -113.050781 C 118.304688 -100.554688 149.101562 -90.746094 178.414062 -77.59375 C 193.230469 -70.949219 205.960938 -59.621094 219.515625 -50.25 C 222.34375 -48.292969 225.0625 -45.902344 227.171875 -43.183594 C 241.398438 -24.800781 232.226562 0.730469 209.484375 2.003906 C 147.003906 5.476562 87.835938 -4.472656 39.230469 -48.304688 C 25.863281 -60.351562 13.695312 -73.71875 -0.0234375 -87.484375 " fill-opacity="1" fill-rule="nonzero"/><path fill="#ebc634" d="M 647.75 703.152344 C 635.492188 685.101562 624.527344 666.917969 620.640625 644.898438 C 618.390625 632.167969 614.164062 619.765625 610.417969 607.332031 C 594.175781 553.265625 606.105469 504.867188 639.390625 460.578125 C 644.84375 453.3125 649.707031 445.621094 655.785156 436.753906 C 680.042969 455.714844 690.960938 479.582031 692.929688 506.75 C 694.542969 529.066406 693.164062 551.746094 691.328125 574.121094 C 688.441406 609.308594 688.300781 644.824219 675.582031 678.835938 C 670.351562 692.824219 662.742188 700.292969 647.75 703.152344 " fill-opacity="1" fill-rule="nonzero"/><path fill="#ebc634" d="M 390.21875 684.710938 C 387.390625 675.984375 383.152344 667.519531 382.03125 658.652344 C 375.777344 609.214844 383.882812 562.003906 405.894531 517.242188 C 407.425781 514.132812 408.882812 510.976562 410.582031 507.953125 C 432.214844 469.160156 436.867188 457.363281 491.265625 473.058594 C 501.75 527.300781 485.554688 577.347656 462.496094 625.242188 C 449.246094 652.75 420.226562 673.902344 390.21875 684.710938 " fill-opacity="1" fill-rule="nonzero"/><path fill="#ebc634" d="M 15.640625 236.664062 C 23.683594 227.101562 27.875 219.425781 34.308594 214.925781 C 80.121094 182.859375 132.058594 167.152344 186.894531 159.777344 C 200.390625 157.976562 213.980469 156.859375 227.171875 155.457031 C 234.496094 175.277344 234.238281 192.363281 230.128906 210.15625 C 227.40625 221.992188 223.179688 229.636719 211.097656 235.230469 C 179.355469 249.914062 147.5 263.585938 112.132812 265.328125 C 100.472656 265.90625 88.058594 264.550781 77 260.984375 C 57.4375 254.660156 38.664062 245.957031 15.640625 236.664062 " fill-opacity="1" fill-rule="nonzero"/></svg>