<svg xmlns="http://www.w3.org/2000/svg" xmlns:xlink="http://www.w3.org/1999/xlink" width="1000" zoomAndPan="magnify" viewBox="0 0 750 749.999995" height="1000" preserveAspectRatio="xMidYMid meet" version="1.0"><defs><clipPath id="12a207299e"><path d="M 102.292969 102.292969 L 647.542969 102.292969 L 647.542969 647.542969 L 102.292969 647.542969 Z M 102.292969 102.292969 " clip-rule="nonzero"/></clipPath></defs><rect x="-75" width="900" fill="#ffffff" y="-74.999999" height="899.999994" fill-opacity="1"/><rect x="-75" width="900" fill="#faff00" y="-74.999999" height="899.999994" fill-opacity="1"/><g clip-path="url(#12a207299e)"><path fill="#000000" d="M 647.636719 374.964844 C 647.636719 379.425781 647.527344 383.886719 647.308594 388.34375 C 647.089844 392.800781 646.761719 397.25 646.324219 401.691406 C 645.886719 406.132812 645.339844 410.558594 644.6875 414.972656 C 644.03125 419.386719 643.269531 423.785156 642.398438 428.160156 C 641.527344 432.539062 640.550781 436.890625 639.464844 441.21875 C 638.382812 445.546875 637.191406 449.847656 635.898438 454.117188 C 634.601562 458.386719 633.203125 462.625 631.699219 466.824219 C 630.195312 471.027344 628.589844 475.1875 626.882812 479.3125 C 625.175781 483.433594 623.367188 487.511719 621.457031 491.546875 C 619.550781 495.582031 617.542969 499.566406 615.441406 503.5 C 613.335938 507.4375 611.136719 511.320312 608.84375 515.148438 C 606.550781 518.972656 604.164062 522.742188 601.683594 526.453125 C 599.203125 530.164062 596.636719 533.8125 593.976562 537.394531 C 591.320312 540.980469 588.574219 544.496094 585.742188 547.945312 C 582.914062 551.394531 580 554.773438 577.003906 558.082031 C 574.003906 561.386719 570.929688 564.617188 567.773438 567.773438 C 564.617188 570.929688 561.386719 574.003906 558.082031 577.003906 C 554.773438 580 551.394531 582.914062 547.945312 585.742188 C 544.496094 588.574219 540.980469 591.320312 537.394531 593.976562 C 533.8125 596.636719 530.164062 599.203125 526.453125 601.683594 C 522.742188 604.164062 518.972656 606.550781 515.148438 608.84375 C 511.320312 611.136719 507.4375 613.335938 503.5 615.441406 C 499.566406 617.542969 495.582031 619.550781 491.546875 621.457031 C 487.511719 623.367188 483.433594 625.175781 479.3125 626.882812 C 475.1875 628.589844 471.027344 630.195312 466.824219 631.699219 C 462.625 633.203125 458.386719 634.601562 454.117188 635.898438 C 449.847656 637.191406 445.546875 638.382812 441.21875 639.464844 C 436.890625 640.550781 432.539062 641.527344 428.160156 642.398438 C 423.785156 643.269531 419.386719 644.03125 414.972656 644.6875 C 410.558594 645.339844 406.132812 645.886719 401.691406 646.324219 C 397.25 646.761719 392.800781 647.089844 388.34375 647.308594 C 383.886719 647.527344 379.425781 647.636719 374.964844 647.636719 C 370.503906 647.636719 366.042969 647.527344 361.585938 647.308594 C 357.128906 647.089844 352.679688 646.761719 348.238281 646.324219 C 343.796875 645.886719 339.371094 645.339844 334.953125 644.6875 C 330.539062 644.03125 326.144531 643.269531 321.769531 642.398438 C 317.390625 641.527344 313.039062 640.550781 308.710938 639.464844 C 304.382812 638.382812 300.082031 637.191406 295.8125 635.898438 C 291.542969 634.601562 287.304688 633.203125 283.105469 631.699219 C 278.902344 630.195312 274.738281 628.589844 270.617188 626.882812 C 266.496094 625.175781 262.414062 623.367188 258.382812 621.457031 C 254.347656 619.550781 250.363281 617.542969 246.425781 615.441406 C 242.492188 613.335938 238.609375 611.136719 234.78125 608.84375 C 230.953125 606.550781 227.1875 604.164062 223.476562 601.683594 C 219.765625 599.203125 216.117188 596.636719 212.535156 593.976562 C 208.949219 591.320312 205.433594 588.574219 201.980469 585.742188 C 198.53125 582.914062 195.15625 580 191.847656 577.003906 C 188.542969 574.003906 185.3125 570.929688 182.15625 567.773438 C 179 564.617188 175.921875 561.386719 172.925781 558.082031 C 169.929688 554.773438 167.015625 551.394531 164.183594 547.945312 C 161.355469 544.496094 158.609375 540.980469 155.953125 537.394531 C 153.292969 533.8125 150.722656 530.164062 148.246094 526.453125 C 145.765625 522.742188 143.378906 518.972656 141.085938 515.148438 C 138.789062 511.320312 136.589844 507.4375 134.488281 503.5 C 132.382812 499.566406 130.378906 495.582031 128.472656 491.546875 C 126.5625 487.511719 124.753906 483.433594 123.046875 479.3125 C 121.339844 475.1875 119.734375 471.027344 118.230469 466.824219 C 116.726562 462.625 115.328125 458.386719 114.03125 454.117188 C 112.738281 449.847656 111.546875 445.546875 110.460938 441.21875 C 109.378906 436.890625 108.402344 432.539062 107.53125 428.160156 C 106.660156 423.785156 105.898438 419.386719 105.242188 414.972656 C 104.585938 410.558594 104.042969 406.132812 103.605469 401.691406 C 103.167969 397.25 102.839844 392.800781 102.621094 388.34375 C 102.402344 383.886719 102.292969 379.425781 102.292969 374.964844 C 102.292969 370.503906 102.402344 366.042969 102.621094 361.585938 C 102.839844 357.128906 103.167969 352.679688 103.605469 348.238281 C 104.042969 343.796875 104.585938 339.371094 105.242188 334.957031 C 105.898438 330.539062 106.660156 326.144531 107.53125 321.769531 C 108.402344 317.390625 109.378906 313.039062 110.460938 308.710938 C 111.546875 304.382812 112.738281 300.082031 114.03125 295.8125 C 115.328125 291.542969 116.726562 287.304688 118.230469 283.105469 C 119.734375 278.902344 121.339844 274.738281 123.046875 270.617188 C 124.753906 266.496094 126.5625 262.414062 128.472656 258.382812 C 130.378906 254.347656 132.382812 250.363281 134.488281 246.425781 C 136.589844 242.492188 138.789062 238.609375 141.085938 234.78125 C 143.378906 230.953125 145.765625 227.1875 148.246094 223.476562 C 150.722656 219.765625 153.292969 216.117188 155.953125 212.535156 C 158.609375 208.949219 161.355469 205.433594 164.183594 201.984375 C 167.015625 198.53125 169.929688 195.15625 172.925781 191.847656 C 175.921875 188.542969 179 185.3125 182.15625 182.15625 C 185.3125 179 188.542969 175.921875 191.847656 172.925781 C 195.15625 169.929688 198.53125 167.015625 201.980469 164.183594 C 205.433594 161.355469 208.949219 158.609375 212.535156 155.953125 C 216.117188 153.292969 219.765625 150.722656 223.476562 148.246094 C 227.1875 145.765625 230.953125 143.378906 234.78125 141.085938 C 238.609375 138.789062 242.492188 136.589844 246.425781 134.488281 C 250.363281 132.382812 254.347656 130.378906 258.382812 128.472656 C 262.414062 126.5625 266.496094 124.753906 270.617188 123.046875 C 274.738281 121.339844 278.902344 119.734375 283.105469 118.230469 C 287.304688 116.726562 291.542969 115.328125 295.8125 114.03125 C 300.082031 112.738281 304.382812 111.546875 308.710938 110.460938 C 313.039062 109.378906 317.390625 108.402344 321.769531 107.53125 C 326.144531 106.660156 330.539062 105.898438 334.953125 105.242188 C 339.371094 104.585938 343.796875 104.042969 348.238281 103.605469 C 352.679688 103.167969 357.128906 102.839844 361.585938 102.621094 C 366.042969 102.402344 370.503906 102.292969 374.964844 102.292969 C 379.425781 102.292969 383.886719 102.402344 388.34375 102.621094 C 392.800781 102.839844 397.25 103.167969 401.691406 103.605469 C 406.132812 104.042969 410.558594 104.585938 414.972656 105.242188 C 419.386719 105.898438 423.785156 106.660156 428.160156 107.53125 C 432.539062 108.402344 436.890625 109.378906 441.21875 110.460938 C 445.546875 111.546875 449.847656 112.738281 454.117188 114.03125 C 458.386719 115.328125 462.625 116.726562 466.824219 118.230469 C 471.027344 119.734375 475.1875 121.339844 479.3125 123.046875 C 483.433594 124.753906 487.511719 126.5625 491.546875 128.472656 C 495.582031 130.378906 499.566406 132.382812 503.5 134.488281 C 507.4375 136.589844 511.320312 138.789062 515.148438 141.085938 C 518.972656 143.378906 522.742188 145.765625 526.453125 148.246094 C 530.164062 150.722656 533.8125 153.292969 537.394531 155.953125 C 540.980469 158.609375 544.496094 161.355469 547.945312 164.183594 C 551.394531 167.015625 554.773438 169.929688 558.082031 172.925781 C 561.386719 175.921875 564.617188 179 567.773438 182.15625 C 570.929688 185.3125 574.003906 188.542969 577.003906 191.847656 C 580 195.15625 582.914062 198.53125 585.742188 201.984375 C 588.574219 205.433594 591.320312 208.949219 593.976562 212.535156 C 596.636719 216.117188 599.203125 219.765625 601.683594 223.476562 C 604.164062 227.1875 606.550781 230.953125 608.84375 234.78125 C 611.136719 238.609375 613.335938 242.492188 615.441406 246.425781 C 617.542969 250.363281 619.550781 254.347656 621.457031 258.382812 C 623.367188 262.414062 625.175781 266.496094 626.882812 270.617188 C 628.589844 274.738281 630.195312 278.902344 631.699219 283.105469 C 633.203125 287.304688 634.601562 291.542969 635.898438 295.8125 C 637.191406 300.082031 638.382812 304.382812 639.464844 308.710938 C 640.550781 313.039062 641.527344 317.390625 642.398438 321.769531 C 643.269531 326.144531 644.03125 330.539062 644.6875 334.957031 C 645.339844 339.371094 645.886719 343.796875 646.324219 348.238281 C 646.761719 352.679688 647.089844 357.128906 647.308594 361.585938 C 647.527344 366.042969 647.636719 370.503906 647.636719 374.964844 Z M 647.636719 374.964844 " fill-opacity="1" fill-rule="nonzero"/></g><path fill="#25f4ee" d="M 338.769531 335.984375 L 338.769531 321.191406 C 333.804688 320.511719 328.769531 320.101562 323.636719 320.101562 C 261.726562 320.101562 211.367188 370.460938 211.367188 432.371094 C 211.367188 470.359375 230.347656 503.964844 259.304688 524.304688 C 240.613281 504.230469 229.523438 477.355469 229.523438 447.84375 C 229.523438 386.828125 278.09375 337.386719 338.769531 335.984375 Z M 338.769531 335.984375 " fill-opacity="1" fill-rule="nonzero"/><path fill="#25f4ee" d="M 341.40625 499.4375 C 369.03125 499.4375 391.886719 477.136719 392.90625 449.777344 L 393.148438 205.652344 L 437.40625 205.652344 C 437.40625 205.652344 437.335938 205.3125 437.335938 205.3125 C 436.414062 200.300781 435.90625 195.121094 435.90625 189.839844 L 374.917969 189.839844 L 374.820312 434.308594 C 373.800781 461.691406 351.261719 483.652344 323.636719 483.652344 C 315.039062 483.652344 306.976562 481.496094 299.859375 477.769531 C 309.179688 490.671875 324.3125 499.460938 341.429688 499.460938 Z M 341.40625 499.4375 " fill-opacity="1" fill-rule="nonzero"/><path fill="#25f4ee" d="M 520.792969 288.988281 L 520.792969 274.65625 C 503.746094 274.65625 487.886719 269.59375 474.570312 260.902344 C 486.410156 274.511719 502.511719 285.066406 520.792969 288.964844 Z M 520.792969 288.988281 " fill-opacity="1" fill-rule="nonzero"/><path fill="#fe2c55" d="M 474.570312 260.925781 C 461.59375 246.011719 453.703125 226.570312 453.703125 205.289062 L 437.09375 205.289062 C 441.402344 228.53125 455.46875 248.480469 474.570312 260.925781 Z M 474.570312 260.925781 " fill-opacity="1" fill-rule="nonzero"/><path fill="#fe2c55" d="M 323.636719 380.605469 C 295.355469 380.605469 272.015625 404.066406 272.015625 432.347656 C 272.015625 452.03125 283.515625 469.148438 299.835938 477.742188 C 293.757812 469.316406 290.125 459.003906 290.125 447.84375 C 290.125 419.5625 313.128906 396.5625 341.40625 396.5625 C 346.683594 396.5625 351.746094 397.433594 356.539062 398.933594 L 356.539062 336.660156 C 351.574219 335.984375 346.539062 335.570312 341.40625 335.570312 C 340.511719 335.570312 339.640625 335.621094 338.769531 335.644531 L 338.527344 335.644531 C 338.527344 335.644531 338.355469 382.785156 338.355469 382.785156 C 333.5625 381.285156 328.914062 380.628906 323.636719 380.628906 Z M 323.636719 380.605469 " fill-opacity="1" fill-rule="nonzero"/><path fill="#fe2c55" d="M 520.792969 288.261719 L 520.5 288.214844 L 520.5 335.304688 C 488.855469 335.304688 459.464844 324.894531 435.542969 307.726562 L 435.542969 432.347656 C 435.542969 494.257812 385.546875 544.300781 323.636719 544.300781 C 299.714844 544.300781 277.535156 537.0625 259.28125 524.253906 C 279.789062 546.261719 309.011719 560.089844 341.40625 560.089844 C 403.316406 560.089844 453.675781 509.726562 453.675781 447.816406 L 453.675781 323.855469 C 477.597656 341.019531 506.917969 351.140625 538.539062 351.140625 L 538.539062 290.152344 C 532.4375 290.152344 526.507812 289.496094 520.769531 288.261719 Z M 520.792969 288.261719 " fill-opacity="1" fill-rule="nonzero"/><path fill="#ffffff" d="M 435.90625 432.347656 L 435.90625 308.382812 C 459.828125 325.546875 489.148438 335.667969 520.769531 335.667969 L 520.769531 288.261719 C 502.488281 284.339844 486.410156 274.535156 474.546875 260.925781 C 455.445312 248.457031 441.644531 228.53125 437.335938 205.289062 L 392.664062 205.289062 L 392.566406 449.753906 C 391.550781 477.136719 369.007812 499.097656 341.382812 499.097656 C 324.265625 499.097656 309.132812 490.648438 299.8125 477.71875 C 283.492188 469.125 272.332031 452.03125 272.332031 432.324219 C 272.332031 404.042969 295.332031 381.042969 323.613281 381.042969 C 328.890625 381.042969 333.949219 381.914062 338.742188 383.414062 L 338.742188 335.597656 C 278.042969 337.023438 229.113281 386.78125 229.113281 447.816406 C 229.113281 477.332031 240.589844 504.207031 259.257812 524.277344 C 277.488281 537.085938 299.664062 544.617188 323.613281 544.617188 C 385.519531 544.617188 435.882812 494.257812 435.882812 432.347656 Z M 435.90625 432.347656 " fill-opacity="1" fill-rule="nonzero"/></svg>