<svg xmlns="http://www.w3.org/2000/svg" xmlns:xlink="http://www.w3.org/1999/xlink" width="1500" zoomAndPan="magnify" viewBox="0 0 1125 749.999995" height="1000" preserveAspectRatio="xMidYMid meet" version="1.0"><defs><filter x="0%" y="0%" width="100%" height="100%" id="6f5feb782c"><feColorMatrix values="0 0 0 0 1 0 0 0 0 1 0 0 0 0 1 0 0 0 1 0" color-interpolation-filters="sRGB"/></filter><clipPath id="bbd2eb5b69"><path d="M 0 0 L 1125 0 L 1125 272.375 L 0 272.375 Z M 0 0 " clip-rule="nonzero"/></clipPath><mask id="40849d1eb5"><g filter="url(#6f5feb782c)"><rect x="-112.5" width="1350" fill="#000000" y="-74.999999" height="899.999994" fill-opacity="0.99"/></g></mask><clipPath id="4cf3db2ba1"><path d="M 0 0 L 1125 0 L 1125 272.375 L 0 272.375 Z M 0 0 " clip-rule="nonzero"/></clipPath><clipPath id="f136afad20"><rect x="0" width="1125" y="0" height="273"/></clipPath><mask id="23aa094ee0"><g filter="url(#6f5feb782c)"><rect x="-112.5" width="1350" fill="#000000" y="-74.999999" height="899.999994" fill-opacity="0.99"/></g></mask><clipPath id="c04ec24427"><rect x="0" width="36" y="0" height="32"/></clipPath><mask id="48530b9a91"><g filter="url(#6f5feb782c)"><rect x="-112.5" width="1350" fill="#000000" y="-74.999999" height="899.999994" fill-opacity="0.99"/></g></mask><clipPath id="5d1edfd38f"><path d="M 1 0.441406 L 19 0.441406 L 19 17.71875 L 1 17.71875 Z M 1 0.441406 " clip-rule="nonzero"/></clipPath><clipPath id="3146953cca"><rect x="0" width="20" y="0" height="18"/></clipPath><mask id="b138bdce32"><g filter="url(#6f5feb782c)"><rect x="-112.5" width="1350" fill="#000000" y="-74.999999" height="899.999994" fill-opacity="0.99"/></g></mask><clipPath id="ea9ab278fb"><path d="M 1 1 L 17.71875 1 L 17.71875 94.71875 L 1 94.71875 Z M 1 1 " clip-rule="nonzero"/></clipPath><clipPath id="bb8143b98c"><rect x="0" width="18" y="0" height="95"/></clipPath><mask id="0226f0ec11"><g filter="url(#6f5feb782c)"><rect x="-112.5" width="1350" fill="#000000" y="-74.999999" height="899.999994" fill-opacity="0.99"/></g></mask><clipPath id="b40af9e2cd"><path d="M 0.320312 1 L 26.71875 1 L 26.71875 41 L 0.320312 41 Z M 0.320312 1 " clip-rule="nonzero"/></clipPath><clipPath id="4775d8c45b"><rect x="0" width="27" y="0" height="42"/></clipPath><mask id="c07ebbc597"><g filter="url(#6f5feb782c)"><rect x="-112.5" width="1350" fill="#000000" y="-74.999999" height="899.999994" fill-opacity="0.99"/></g></mask><clipPath id="5bc54209e1"><path d="M 1 0.480469 L 27 0.480469 L 27 27 L 1 27 Z M 1 0.480469 " clip-rule="nonzero"/></clipPath><clipPath id="deab8e3dc5"><rect x="0" width="28" y="0" height="28"/></clipPath><mask id="5f96d3732e"><g filter="url(#6f5feb782c)"><rect x="-112.5" width="1350" fill="#000000" y="-74.999999" height="899.999994" fill-opacity="0.99"/></g></mask><clipPath id="046cced7c6"><path d="M 1 1 L 71 1 L 71 78.878906 L 1 78.878906 Z M 1 1 " clip-rule="nonzero"/></clipPath><clipPath id="e393157176"><rect x="0" width="72" y="0" height="79"/></clipPath><mask id="3c3d8b247a"><g filter="url(#6f5feb782c)"><rect x="-112.5" width="1350" fill="#000000" y="-74.999999" height="899.999994" fill-opacity="0.99"/></g></mask><clipPath id="376e542036"><path d="M 0.078125 0.320312 L 36.320312 0.320312 L 36.320312 37 L 0.078125 37 Z M 0.078125 0.320312 " clip-rule="nonzero"/></clipPath><clipPath id="75c2fa9df6"><rect x="0" width="37" y="0" height="38"/></clipPath><mask id="586407dd6a"><g filter="url(#6f5feb782c)"><rect x="-112.5" width="1350" fill="#000000" y="-74.999999" height="899.999994" fill-opacity="0.99"/></g></mask><clipPath id="a72257eace"><path d="M 0.121094 0.480469 L 47 0.480469 L 47 51 L 0.121094 51 Z M 0.121094 0.480469 " clip-rule="nonzero"/></clipPath><clipPath id="4a9fbf1a28"><rect x="0" width="48" y="0" height="52"/></clipPath><mask id="c6d7fb0e52"><g filter="url(#6f5feb782c)"><rect x="-112.5" width="1350" fill="#000000" y="-74.999999" height="899.999994" fill-opacity="0.99"/></g></mask><clipPath id="9913afa3ef"><path d="M 0.0390625 1 L 23 1 L 23 36.839844 L 0.0390625 36.839844 Z M 0.0390625 1 " clip-rule="nonzero"/></clipPath><clipPath id="65dba840e2"><rect x="0" width="24" y="0" height="37"/></clipPath><mask id="01cad78e2a"><g filter="url(#6f5feb782c)"><rect x="-112.5" width="1350" fill="#000000" y="-74.999999" height="899.999994" fill-opacity="0.99"/></g></mask><clipPath id="b0fcae2872"><path d="M 0.679688 1 L 22 1 L 22 30.839844 L 0.679688 30.839844 Z M 0.679688 1 " clip-rule="nonzero"/></clipPath><clipPath id="b7c659a210"><rect x="0" width="23" y="0" height="31"/></clipPath><mask id="5e5ab43f69"><g filter="url(#6f5feb782c)"><rect x="-112.5" width="1350" fill="#000000" y="-74.999999" height="899.999994" fill-opacity="0.99"/></g></mask><clipPath id="31f10a38d5"><path d="M 0.199219 1 L 26.839844 1 L 26.839844 22 L 0.199219 22 Z M 0.199219 1 " clip-rule="nonzero"/></clipPath><clipPath id="84726684f8"><rect x="0" width="27" y="0" height="23"/></clipPath><mask id="0e937432d9"><g filter="url(#6f5feb782c)"><rect x="-112.5" width="1350" fill="#000000" y="-74.999999" height="899.999994" fill-opacity="0.99"/></g></mask><clipPath id="620ff2622d"><rect x="0" width="17" y="0" height="17"/></clipPath><mask id="c63575cb6f"><g filter="url(#6f5feb782c)"><rect x="-112.5" width="1350" fill="#000000" y="-74.999999" height="899.999994" fill-opacity="0.99"/></g></mask><clipPath id="155ef35c4a"><path d="M 0.199219 1 L 13 1 L 13 14.28125 L 0.199219 14.28125 Z M 0.199219 1 " clip-rule="nonzero"/></clipPath><clipPath id="cc2c706ba2"><rect x="0" width="14" y="0" height="15"/></clipPath><clipPath id="a1fabb2867"><path d="M 88.753906 0 L 258.726562 0 L 258.726562 12.421875 L 88.753906 12.421875 Z M 88.753906 0 " clip-rule="nonzero"/></clipPath><clipPath id="852147bd2d"><path d="M 0.753906 0 L 170.726562 0 L 170.726562 12.421875 L 0.753906 12.421875 Z M 0.753906 0 " clip-rule="nonzero"/></clipPath><clipPath id="6be26b4631"><rect x="0" width="171" y="0" height="13"/></clipPath><clipPath id="abbb44d340"><path d="M 545.007812 0 L 714.976562 0 L 714.976562 12.421875 L 545.007812 12.421875 Z M 545.007812 0 " clip-rule="nonzero"/></clipPath><clipPath id="9c375ff9a4"><path d="M 0.0078125 0 L 169.976562 0 L 169.976562 12.421875 L 0.0078125 12.421875 Z M 0.0078125 0 " clip-rule="nonzero"/></clipPath><clipPath id="27782d9871"><rect x="0" width="170" y="0" height="13"/></clipPath><clipPath id="59c2d80114"><path d="M 675.054688 0 L 845.023438 0 L 845.023438 5.78125 L 675.054688 5.78125 Z M 675.054688 0 " clip-rule="nonzero"/></clipPath><clipPath id="0b80969572"><path d="M 0.0546875 0 L 170 0 L 170 5.78125 L 0.0546875 5.78125 Z M 0.0546875 0 " clip-rule="nonzero"/></clipPath><clipPath id="78aca3581c"><rect x="0" width="171" y="0" height="6"/></clipPath><clipPath id="d9aeb1b144"><path d="M 1055.324219 0 L 1125 0 L 1125 12.421875 L 1055.324219 12.421875 Z M 1055.324219 0 " clip-rule="nonzero"/></clipPath><clipPath id="80d46e8594"><path d="M 0.324219 0 L 70 0 L 70 12.421875 L 0.324219 12.421875 Z M 0.324219 0 " clip-rule="nonzero"/></clipPath><clipPath id="71b09224fd"><rect x="0" width="70" y="0" height="13"/></clipPath><clipPath id="4e70d5aeda"><path d="M 912.886719 0 L 1082.855469 0 L 1082.855469 5.78125 L 912.886719 5.78125 Z M 912.886719 0 " clip-rule="nonzero"/></clipPath><clipPath id="11a07398f6"><path d="M 0.886719 0 L 170.855469 0 L 170.855469 5.78125 L 0.886719 5.78125 Z M 0.886719 0 " clip-rule="nonzero"/></clipPath><clipPath id="8dcf181241"><rect x="0" width="171" y="0" height="6"/></clipPath><clipPath id="cebeabb583"><path d="M 639.496094 0 L 663.902344 0 L 663.902344 22.183594 L 639.496094 22.183594 Z M 639.496094 0 " clip-rule="nonzero"/></clipPath><clipPath id="92eaf94176"><path d="M 0.496094 0 L 24.902344 0 L 24.902344 22.183594 L 0.496094 22.183594 Z M 0.496094 0 " clip-rule="nonzero"/></clipPath><clipPath id="f559b79bd4"><rect x="0" width="25" y="0" height="23"/></clipPath></defs><g clip-path="url(#bbd2eb5b69)"><g mask="url(#40849d1eb5)"><g transform="matrix(1, 0, 0, 1, 0, -0.000000000000042435)"><g clip-path="url(#f136afad20)"><g clip-path="url(#4cf3db2ba1)"><path fill="#702e1e" d="M 1124.96875 -97.988281 L 0 -97.988281 L 0 214.996094 C 0.539062 215.003906 1.054688 214.996094 1.527344 214.929688 C 3.570312 214.652344 5.121094 213.738281 6.535156 212.527344 C 8.417969 210.902344 10.871094 207.945312 11.695312 205.113281 C 12.519531 202.28125 13.84375 198.523438 13.214844 192.570312 C 12.585938 186.617188 9.210938 179.273438 8.148438 171.117188 C 7.089844 162.964844 6.222656 155.054688 6.101562 140.035156 C 5.984375 125.015625 6.613281 102.871094 7.167969 83.769531 C 7.21875 81.898438 7.269531 80.070312 7.324219 78.25 C 7.53125 74.371094 7.75 70.839844 7.976562 67.820312 C 8.769531 57.253906 9.628906 52.792969 11.140625 48.335938 C 11.15625 48.300781 11.171875 48.261719 11.179688 48.21875 C 11.269531 48 11.359375 47.773438 11.457031 47.558594 C 13.171875 43.769531 15.703125 40.398438 18.578125 37.554688 C 20.082031 36.222656 22.140625 34.664062 24.695312 33.554688 C 28.246094 32.019531 32.746094 31.363281 36.742188 32.28125 C 41.871094 34.386719 46.644531 38.273438 49.628906 44.015625 C 50.402344 45.730469 51.097656 47.664062 51.71875 49.871094 C 52.0625 51.070312 52.378906 52.351562 52.671875 53.699219 C 52.777344 54.289062 52.867188 54.882812 52.949219 55.488281 C 53.652344 60.765625 53.523438 66.546875 53.34375 71.847656 C 53.164062 77.152344 52.941406 81.949219 52.511719 86.160156 C 52.078125 90.375 51.441406 93.992188 50.078125 98.625 C 48.722656 103.269531 46.644531 108.914062 45.910156 114.195312 C 45.175781 119.472656 45.78125 124.363281 47.847656 128.578125 C 49.914062 132.792969 53.449219 136.320312 57.539062 137.902344 C 61.617188 139.480469 66.253906 139.113281 70.074219 136.246094 C 73.890625 133.378906 76.886719 128.007812 77.933594 122.394531 C 78.984375 116.777344 78.046875 110.90625 76.574219 105.957031 C 75.097656 101.007812 73.0625 96.964844 71.683594 91.585938 C 70.296875 86.210938 69.5625 79.503906 69.542969 71.308594 C 69.519531 63.125 70.199219 53.457031 71.539062 46.457031 C 72.882812 39.457031 74.878906 35.113281 76.820312 32.65625 C 78.757812 30.199219 80.652344 29.632812 82.242188 29.4375 C 83.820312 29.25 85.109375 29.4375 86.972656 29.921875 C 87.601562 30.089844 88.296875 30.289062 89.03125 30.5 C 92.835938 31.8125 96.804688 32.761719 100.324219 33.046875 C 101.109375 33.105469 101.875 33.128906 102.617188 33.136719 C 103.925781 33.269531 105.242188 33.351562 106.605469 33.351562 C 109.265625 33.351562 112.125 33.046875 115.023438 33.414062 C 115.800781 33.511719 116.574219 33.660156 117.324219 33.847656 C 119.300781 34.4375 121.042969 35.292969 122.195312 36.339844 C 122.96875 37.042969 123.46875 37.832031 123.8125 38.773438 C 124.332031 40.191406 124.488281 41.949219 124.636719 44.277344 C 124.652344 44.539062 124.667969 44.800781 124.691406 45.078125 C 124.960938 49.445312 125.3125 55.691406 125.671875 66.292969 C 126.03125 76.902344 126.382812 91.878906 126.742188 105.785156 C 127.101562 119.691406 127.453125 132.523438 126.742188 140.992188 C 126.03125 149.460938 124.242188 153.558594 124.78125 157.128906 C 125.3125 160.695312 128.171875 163.726562 131.476562 164.4375 C 134.777344 165.148438 138.527344 163.546875 140.582031 160.605469 C 142.632812 157.660156 142.992188 153.386719 142.003906 150.175781 C 141.023438 146.96875 138.691406 144.828125 137.628906 134.039062 C 136.558594 123.246094 136.738281 103.816406 137.1875 88.308594 C 137.636719 72.800781 138.347656 61.207031 139.957031 54.613281 C 141.570312 48.015625 144.070312 46.414062 146.203125 43.46875 C 148.335938 40.527344 150.136719 36.25 155.578125 34.199219 C 157.488281 33.480469 159.863281 33.039062 162.40625 32.640625 C 167.15625 32.851562 167.941406 32.785156 171.863281 32.117188 C 176.386719 31.347656 185.441406 29.804688 192.351562 33.847656 C 199.265625 37.890625 204.070312 47.527344 209.117188 52.304688 C 214.15625 57.082031 219.429688 57.007812 223.34375 55.464844 C 227.261719 53.921875 229.808594 50.925781 231.589844 53.457031 C 233.371094 55.988281 234.382812 64.0625 235.011719 72.890625 C 235.640625 81.71875 235.894531 91.296875 235.125 99.839844 C 234.351562 108.382812 232.554688 115.886719 232.914062 122.011719 C 233.265625 128.128906 235.761719 132.863281 239.046875 133.589844 C 242.34375 134.3125 246.421875 131.035156 247.210938 125.671875 C 247.996094 120.3125 245.488281 112.859375 244.347656 105.859375 C 243.21875 98.859375 243.472656 92.304688 244.609375 87.886719 C 245.75 83.476562 247.769531 81.210938 249.65625 78.429688 C 251.546875 75.660156 253.320312 72.378906 255.527344 68.089844 C 257.738281 63.808594 260.386719 58.511719 263.804688 58.132812 C 267.21875 57.75 271.378906 62.292969 273.835938 68.21875 C 276.292969 74.140625 277.058594 81.457031 276.683594 90.53125 C 276.636719 91.671875 276.570312 92.832031 276.496094 94.015625 C 276.105469 99.953125 275.386719 106.503906 274.929688 113.347656 C 274.75 116.082031 274.609375 118.867188 274.539062 121.667969 C 274.285156 132.882812 275.296875 144.484375 275.925781 155.078125 C 276.554688 165.675781 276.808594 175.25 275.925781 182.558594 C 275.042969 189.867188 273.019531 194.914062 274.285156 199.324219 C 275.550781 203.734375 280.089844 207.515625 283.878906 207.269531 C 287.667969 207.015625 290.691406 202.730469 291.582031 196.425781 C 292.472656 190.121094 291.203125 181.804688 289.316406 172.726562 C 287.421875 163.652344 284.898438 153.820312 284.898438 141.59375 C 284.898438 129.363281 287.425781 114.742188 289.945312 101.375 C 292.460938 88.007812 294.992188 75.90625 296.257812 65.949219 C 297.515625 55.988281 297.515625 48.171875 300.171875 43.003906 C 302.832031 37.839844 308.132812 35.316406 312.421875 32.542969 C 313.261719 32.003906 314.054688 31.453125 314.863281 30.90625 C 317.714844 29.308594 320.425781 27.789062 323.625 26.539062 C 326.402344 25.453125 329.539062 24.585938 332.84375 23.917969 C 335.742188 23.445312 338.898438 23.042969 342.164062 22.667969 C 345.648438 22.441406 348.910156 22.539062 351.300781 23.199219 C 354.691406 24.136719 356.296875 26.1875 357.277344 28.949219 C 358.257812 31.714844 358.617188 35.1875 358.921875 39.867188 C 359.082031 42.210938 359.222656 44.847656 359.238281 47.503906 C 359.246094 49.496094 359.179688 51.503906 358.984375 53.390625 C 358.914062 54.019531 358.839844 54.640625 358.742188 55.242188 C 358.554688 56.445312 358.300781 57.578125 357.996094 58.671875 C 357.089844 61.941406 355.734375 64.789062 354.316406 67.769531 C 352.679688 71.242188 350.964844 74.882812 350.777344 78.632812 C 350.746094 79.171875 350.753906 79.710938 350.792969 80.25 C 351.105469 84.570312 353.695312 89.035156 357.304688 91.886719 C 360.914062 94.738281 365.566406 95.992188 369.984375 95.722656 C 374.402344 95.453125 378.601562 93.667969 381.363281 90.90625 C 384.136719 88.144531 385.476562 84.398438 385.691406 80.476562 C 385.773438 79.007812 385.699219 77.511719 385.476562 75.984375 C 385.09375 73.4375 384.277344 70.800781 383.011719 68.046875 C 381.003906 63.636719 377.882812 58.910156 376.40625 54.894531 C 375.675781 52.890625 375.351562 51.0625 375.320312 49.332031 C 375.292969 47.601562 375.5625 45.964844 376.003906 44.339844 C 376.667969 41.898438 377.742188 39.476562 379.5 36.863281 C 380.085938 35.996094 380.742188 35.097656 381.492188 34.175781 C 382.167969 33.347656 382.90625 32.484375 383.695312 31.632812 C 385.011719 30.207031 386.457031 28.785156 387.902344 27.496094 C 387.917969 27.484375 387.925781 27.484375 387.933594 27.46875 C 389.070312 26.554688 391.347656 24.726562 393.621094 23.542969 C 394.027344 23.335938 394.429688 23.15625 394.828125 22.980469 C 396.65625 22.210938 398.421875 21.835938 399.859375 21.785156 L 399.933594 21.785156 C 401.695312 21.738281 402.953125 22.1875 404.308594 23.011719 C 405.671875 23.835938 407.144531 25.042969 408.195312 26.578125 C 409.242188 28.113281 409.863281 29.984375 410.359375 31.789062 C 410.84375 33.59375 411.203125 35.332031 411.652344 37.628906 C 412.101562 39.929688 412.636719 42.78125 414.957031 44.25 C 416.117188 44.980469 417.726562 45.371094 419.359375 45.363281 L 419.382812 45.363281 C 421.007812 45.347656 422.660156 44.9375 423.925781 44.070312 C 424.691406 43.542969 425.320312 42.855469 425.84375 42.085938 C 427.070312 40.308594 427.789062 38.109375 428.605469 36.550781 C 429.101562 35.871094 429.746094 35.054688 430.492188 34.378906 C 430.742188 34.15625 431.003906 33.945312 431.28125 33.757812 C 432.195312 33.136719 433.21875 32.800781 434.335938 32.769531 L 434.566406 32.769531 C 435.257812 32.808594 435.945312 32.949219 436.648438 33.1875 C 437.089844 33.339844 437.546875 33.539062 438.011719 33.773438 C 438.289062 33.914062 438.582031 34.070312 438.871094 34.246094 C 439.074219 34.363281 439.277344 34.476562 439.488281 34.609375 C 440.421875 35.308594 441.320312 36.199219 442.136719 37.316406 C 442.714844 38.117188 443.246094 39.023438 443.710938 40.324219 C 443.835938 40.683594 443.964844 41.082031 444.085938 41.507812 C 444.691406 43.703125 445.15625 46.847656 445.417969 51.757812 C 445.453125 52.378906 445.484375 53.03125 445.507812 53.714844 C 445.539062 54.378906 445.558594 55.082031 445.582031 55.800781 L 445.582031 55.871094 C 445.605469 56.589844 445.621094 57.335938 445.632812 58.101562 L 445.632812 58.144531 C 445.648438 58.917969 445.664062 59.710938 445.671875 60.527344 L 445.671875 60.59375 C 445.6875 61.832031 445.703125 63.117188 445.710938 64.445312 L 445.710938 64.472656 C 445.769531 74.761719 445.582031 87.425781 445.628906 98.433594 C 445.628906 100.320312 445.648438 102.160156 445.664062 103.949219 L 445.664062 104.121094 C 445.695312 106.765625 445.730469 109.3125 445.777344 111.773438 L 445.777344 112.039062 C 445.941406 121.246094 446.160156 129.207031 446.113281 136.472656 C 446.054688 147.097656 445.425781 156.230469 444.363281 161.714844 C 443.289062 167.195312 441.769531 169.019531 441.058594 172.203125 C 440.339844 175.386719 440.421875 179.910156 442.347656 183.277344 C 442.5625 183.652344 442.804688 184.011719 443.058594 184.355469 C 445.109375 187.097656 448.425781 188.796875 451.503906 188.476562 C 454.964844 188.109375 458.109375 185.171875 459.601562 182.066406 C 461.007812 179.101562 460.902344 175.976562 460.347656 173.132812 C 460.320312 172.988281 460.296875 172.847656 460.265625 172.707031 C 460.011719 171.5 459.667969 170.363281 459.308594 169.238281 C 458.785156 167.597656 458.207031 166.003906 457.71875 164.378906 C 456.925781 161.71875 456.386719 158.957031 456.183594 145.515625 C 456.183594 145.082031 456.171875 144.640625 456.171875 144.183594 C 456.171875 143.726562 456.164062 143.261719 456.15625 142.785156 C 456.132812 140.875 456.117188 138.785156 456.109375 136.566406 L 456.109375 136.554688 C 456.050781 121.585938 456.253906 100.648438 456.648438 86.742188 C 457.121094 70.261719 457.878906 63.640625 458.476562 59.507812 C 459.074219 55.382812 459.515625 53.742188 460.371094 52.671875 C 461.222656 51.601562 462.484375 51.101562 463.71875 50.875 C 464.480469 50.742188 465.238281 50.71875 466 50.777344 C 466.265625 50.800781 466.535156 50.832031 466.804688 50.867188 C 472.292969 52.84375 478.140625 54.019531 484.136719 53.726562 C 487.761719 53.546875 491.429688 52.828125 495.03125 51.75 C 496.109375 51.429688 497.183594 51.078125 498.253906 50.6875 C 499.390625 50.277344 500.523438 49.835938 501.644531 49.363281 C 508.660156 46.382812 515.085938 42.324219 519.886719 38.535156 C 520.386719 38.136719 520.867188 37.75 521.332031 37.359375 C 521.421875 37.285156 521.511719 37.210938 521.601562 37.136719 C 522.078125 36.730469 522.535156 36.332031 522.976562 35.9375 C 523.703125 36.492188 524.414062 37.050781 525.121094 37.636719 C 546.65625 55.546875 554.40625 88.332031 554.652344 120.527344 C 554.824219 142.46875 551.515625 164.125 547.75 182.746094 C 547.472656 184.132812 547.1875 185.496094 546.902344 186.851562 C 546.699219 187.808594 546.5 188.753906 546.296875 189.695312 C 544.992188 195.761719 543.667969 201.445312 542.460938 206.609375 C 541.257812 211.785156 540.164062 216.457031 539.210938 220.710938 C 538.921875 222.019531 538.644531 223.292969 538.386719 224.53125 L 538.230469 225.292969 C 535.820312 236.898438 534.863281 245.265625 536.457031 252.691406 C 538.785156 263.601562 546.59375 272.511719 555.167969 272.078125 C 557.683594 271.953125 560.253906 271.015625 562.703125 269.496094 C 563.046875 269.277344 563.390625 269.054688 563.726562 268.8125 C 563.894531 268.703125 564.050781 268.582031 564.214844 268.460938 C 569.464844 264.574219 573.859375 258.015625 575.246094 251 C 577.394531 240.140625 572.363281 228.199219 569.351562 214.179688 C 566.332031 200.164062 565.34375 184.058594 566.328125 169.875 C 567.308594 155.691406 570.28125 143.441406 571.597656 128.488281 C 572.339844 120.085938 572.5625 110.839844 572.667969 101.652344 L 572.667969 101.585938 C 572.707031 98.535156 572.730469 95.496094 572.75 92.5 L 572.75 92.449219 C 572.765625 90.464844 572.78125 88.503906 572.804688 86.570312 C 572.824219 84.585938 572.855469 82.632812 572.894531 80.722656 C 572.902344 80.226562 572.914062 79.734375 572.921875 79.238281 C 572.945312 78.355469 572.96875 77.480469 573 76.613281 C 573.011719 76.085938 573.035156 75.5625 573.058594 75.046875 C 573.089844 74.222656 573.132812 73.40625 573.179688 72.597656 C 573.207031 72.042969 573.246094 71.496094 573.28125 70.949219 C 573.335938 70.179688 573.394531 69.414062 573.460938 68.660156 C 573.46875 68.570312 573.476562 68.488281 573.484375 68.398438 C 574.203125 60.738281 575.804688 53.90625 579.664062 47.992188 C 580.742188 46.335938 581.992188 44.757812 583.453125 43.253906 C 589.113281 37.398438 598.285156 32.507812 609.449219 28.851562 C 610.207031 28.695312 610.984375 28.53125 611.875 28.359375 C 614.054688 27.933594 617.085938 27.394531 620.539062 26.945312 C 621.289062 26.847656 622.050781 26.757812 622.832031 26.667969 C 622.929688 26.667969 623.027344 26.644531 623.121094 26.636719 C 623.933594 26.546875 624.746094 26.472656 625.59375 26.398438 C 625.667969 26.398438 625.75 26.382812 625.824219 26.375 C 635.066406 25.601562 645.648438 25.984375 651.457031 30.539062 C 660.800781 37.847656 661.328125 55.375 663.371094 72.457031 C 665.273438 88.472656 668.5 104.101562 668.484375 117.003906 C 668.484375 117.863281 668.46875 118.710938 668.441406 119.546875 C 668.441406 119.644531 668.425781 119.734375 668.425781 119.832031 C 667.871094 133.054688 663.363281 143.066406 659.851562 153.085938 C 656.316406 163.171875 653.792969 173.257812 655.304688 181.578125 C 656.820312 189.898438 662.375 196.457031 668.695312 196.203125 C 673.695312 196 679.15625 191.53125 682.097656 185.546875 C 682.871094 183.976562 683.476562 182.304688 683.84375 180.574219 C 685.5 172.773438 682.503906 163.863281 682.324219 155.09375 C 682.308594 154.507812 682.316406 153.925781 682.324219 153.339844 C 682.554688 144.753906 685.992188 136.375 687.128906 127.425781 C 687.226562 126.652344 687.316406 125.882812 687.378906 125.105469 C 687.378906 125.035156 687.378906 124.960938 687.394531 124.894531 C 688.097656 115.121094 685.609375 104.601562 685.175781 93.085938 C 684.960938 87.289062 685.257812 81.230469 686.050781 75.015625 C 686.847656 68.800781 688.132812 62.414062 689.902344 55.953125 C 690.351562 54.304688 690.828125 52.65625 691.359375 51.015625 C 692.140625 48.914062 693.089844 46.523438 694.183594 44.253906 C 694.542969 43.507812 694.917969 42.78125 695.300781 42.070312 C 696.820312 39.304688 698.542969 37.015625 700.375 35.15625 C 700.390625 35.144531 700.398438 35.128906 700.414062 35.121094 C 701.523438 34.003906 702.675781 33.039062 703.875 32.222656 C 707.046875 30.035156 710.433594 28.882812 713.699219 28.703125 C 716.960938 28.523438 720.078125 29.324219 723.964844 31.195312 C 727.601562 32.949219 731.917969 35.644531 734.5 39.6875 C 734.671875 39.957031 734.835938 40.234375 734.992188 40.511719 C 737.496094 45.011719 737.855469 51.078125 737.675781 56.109375 C 737.585938 58.625 737.359375 60.886719 737.285156 62.960938 C 737.261719 63.476562 737.253906 63.988281 737.253906 64.480469 C 737.261719 65.964844 737.398438 67.355469 737.765625 68.675781 C 738.746094 72.195312 741.425781 75.226562 744.636719 75.628906 C 744.839844 75.652344 745.042969 75.667969 745.246094 75.675781 C 745.730469 75.691406 746.234375 75.636719 746.726562 75.539062 C 749.347656 75.039062 751.933594 73.160156 753.160156 70.769531 C 753.9375 69.257812 754.171875 67.535156 754.171875 65.703125 C 754.171875 65.246094 754.15625 64.773438 754.125 64.300781 C 754.097656 63.828125 754.066406 63.351562 754.019531 62.863281 C 753.9375 61.890625 753.832031 60.902344 753.742188 59.898438 C 753.382812 55.882812 753.300781 51.699219 753.078125 48.179688 C 752.851562 44.660156 752.5 41.808594 752.988281 39.53125 C 753.332031 37.945312 754.097656 36.648438 755.292969 35.710938 C 755.8125 35.308594 756.402344 34.972656 757.082031 34.714844 C 758.722656 34.101562 760.863281 33.929688 762.917969 33.546875 C 763.703125 33.398438 764.472656 33.226562 765.207031 32.980469 C 765.296875 32.949219 765.386719 32.902344 765.476562 32.875 C 767.984375 31.953125 769.949219 30.238281 771.316406 28.480469 C 771.585938 28.125 771.835938 27.773438 772.074219 27.429688 C 772.382812 26.980469 772.667969 26.539062 772.9375 26.121094 C 773.386719 25.429688 773.820312 24.800781 774.304688 24.316406 C 774.328125 24.292969 774.351562 24.261719 774.375 24.242188 C 774.523438 24.097656 774.671875 23.964844 774.835938 23.851562 C 776.132812 22.914062 777.921875 22.914062 779.613281 23.320312 C 781.308594 23.722656 782.917969 24.523438 784.4375 25.550781 C 785.734375 26.425781 786.96875 27.46875 787.972656 28.671875 C 788.855469 30.007812 789.476562 31.511719 789.957031 33.195312 C 791.550781 38.789062 791.550781 46.34375 792.351562 56.699219 C 793.152344 67.058594 794.839844 80.753906 795.460938 92.777344 C 796.082031 104.804688 795.660156 115.992188 794.015625 125.5 C 792.375 135.011719 789.492188 143.121094 789.542969 149.066406 C 789.589844 155.011719 792.785156 159.0625 797.003906 160.605469 C 799.636719 161.5625 802.707031 161.601562 805.277344 160.433594 C 805.292969 160.433594 805.304688 160.417969 805.320312 160.410156 C 806.078125 160.058594 806.78125 159.609375 807.425781 159.039062 C 808.070312 158.464844 808.644531 157.78125 809.125 156.964844 C 811.699219 152.628906 811.484375 144.796875 810.046875 137.667969 C 808.609375 130.539062 805.933594 124.101562 805.113281 112.21875 C 804.289062 100.332031 805.3125 82.992188 805.832031 70.128906 C 806.347656 57.261719 806.347656 48.867188 807.164062 43.558594 C 807.84375 39.164062 809.085938 36.878906 811.238281 35.496094 C 811.515625 35.316406 811.8125 35.152344 812.121094 35 C 812.128906 35 812.136719 35 812.144531 34.984375 C 812.324219 34.894531 812.511719 34.8125 812.703125 34.738281 C 813.363281 34.46875 814.105469 34.246094 814.875 34.035156 C 815.28125 33.929688 815.699219 33.824219 816.125 33.71875 C 816.515625 33.628906 816.90625 33.539062 817.300781 33.449219 C 818.441406 33.203125 819.609375 32.949219 820.785156 32.640625 C 821.914062 32.34375 823.039062 32.003906 824.109375 31.546875 C 824.160156 31.527344 824.207031 31.503906 824.25 31.480469 C 827.515625 30.066406 830.257812 27.707031 833.460938 25.699219 C 833.925781 25.410156 834.398438 25.125 834.882812 24.855469 C 835.0625 24.75 835.25 24.652344 835.4375 24.554688 C 835.746094 24.390625 836.050781 24.234375 836.375 24.074219 C 836.472656 24.03125 836.578125 23.984375 836.671875 23.933594 C 838.644531 23.003906 840.867188 22.234375 843.5625 21.605469 C 845.695312 21.101562 848.136719 20.691406 850.984375 20.355469 L 861.234375 20.355469 C 865.921875 20.804688 870.535156 21.214844 873.882812 22.144531 C 879.316406 23.640625 881.46875 26.496094 882.980469 29.167969 C 884.492188 31.839844 885.390625 34.335938 885.839844 37.457031 C 886.289062 40.578125 886.289062 44.324219 886.289062 50.472656 C 886.289062 56.617188 886.289062 65.175781 886.378906 72.753906 C 886.394531 74.328125 886.417969 75.855469 886.4375 77.339844 C 886.394531 80.226562 886.371094 83.058594 886.386719 85.730469 C 886.304688 87.949219 886.140625 89.96875 885.847656 91.746094 C 885.046875 96.558594 883.257812 99.59375 882.84375 103.1875 C 882.433594 106.78125 883.398438 110.9375 885.96875 112.855469 C 887.089844 113.691406 888.519531 114.105469 889.949219 114.066406 C 891.792969 114.027344 893.648438 113.257812 894.886719 111.738281 C 897.078125 109.035156 897.3125 103.957031 896.351562 99.90625 C 895.402344 95.855469 893.253906 92.824219 892.632812 84.265625 C 892.011719 75.707031 892.902344 61.621094 893.164062 51.550781 C 893.425781 41.476562 893.074219 35.414062 894.414062 32.386719 C 895.355469 30.246094 897.15625 29.617188 898.972656 29.023438 C 899.730469 28.777344 900.488281 28.539062 901.199219 28.203125 C 901.496094 28.058594 901.789062 27.894531 902.074219 27.714844 C 904.050781 26.488281 905.628906 24.621094 907.269531 23.917969 C 907.734375 23.714844 908.214844 23.613281 908.679688 23.605469 C 910.070312 23.574219 911.382812 24.414062 912.183594 26.148438 C 913.253906 28.464844 913.433594 32.386719 913.785156 38.542969 C 914.136719 44.699219 914.683594 53.429688 914.59375 59.488281 C 914.503906 65.542969 913.792969 69.117188 913.949219 72.449219 C 914.105469 75.789062 915.132812 78.886719 917.050781 80.027344 C 917.882812 80.519531 918.882812 80.640625 919.851562 80.378906 C 920.089844 80.3125 920.328125 80.214844 920.5625 80.101562 C 920.59375 80.085938 920.621094 80.070312 920.652344 80.054688 C 921.574219 79.570312 922.394531 78.699219 922.914062 77.433594 C 923.976562 74.828125 923.738281 70.554688 923.136719 66.882812 C 923.070312 66.488281 923.003906 66.089844 922.929688 65.710938 C 922.1875 61.816406 921.117188 58.960938 920.839844 54.410156 C 920.5625 49.863281 921.117188 43.265625 921.46875 39.074219 C 921.828125 34.882812 922 32.917969 923.339844 31.316406 C 924.679688 29.714844 927.179688 28.464844 929.234375 27.039062 C 931.285156 25.617188 932.894531 24.007812 935.304688 22.871094 C 937.71875 21.730469 941.28125 20.984375 945.570312 20.535156 C 946.191406 20.464844 946.875 20.421875 947.535156 20.367188 L 952.144531 20.527344 C 953.785156 20.585938 956.019531 20.660156 958.488281 20.878906 C 958.789062 20.902344 959.082031 20.929688 959.386719 20.960938 C 960.332031 21.050781 961.304688 21.171875 962.292969 21.3125 C 962.816406 21.386719 963.339844 21.46875 963.863281 21.558594 C 964.90625 21.738281 965.945312 21.957031 966.980469 22.210938 C 972.019531 23.753906 976.085938 26.539062 979.035156 30.539062 C 982.160156 34.769531 984.050781 40.339844 984.945312 49.191406 C 985.835938 58.042969 985.722656 70.179688 985.609375 78.035156 C 985.542969 82.722656 985.484375 85.867188 985.789062 87.972656 C 985.640625 98.664062 985.46875 109.035156 985.160156 116.441406 C 984.765625 125.972656 984.15625 130.59375 982.914062 135.675781 C 981.664062 140.761719 979.769531 146.296875 979.183594 151.289062 C 978.601562 156.285156 979.3125 160.730469 981.371094 164.019531 C 983.160156 166.878906 985.976562 168.863281 989.203125 169.507812 C 989.308594 169.53125 989.40625 169.546875 989.511719 169.558594 C 989.894531 169.628906 990.28125 169.679688 990.679688 169.710938 L 990.792969 169.710938 C 994.597656 169.941406 998.796875 168.347656 1001.171875 165 C 1003.566406 161.625 1004.121094 156.464844 1002.78125 150.585938 C 1001.449219 144.707031 998.226562 138.109375 996.625 126.609375 C 995.023438 115.109375 995.023438 98.707031 995.023438 84.976562 C 995.023438 81.253906 995.023438 77.710938 995.058594 74.378906 C 995.433594 68.367188 995.578125 61.835938 996.136719 57.375 C 997.042969 50.132812 1000.765625 46.988281 1003.476562 44.71875 C 1003.632812 44.628906 1003.804688 44.527344 1004 44.40625 C 1004 44.40625 1004.0625 44.367188 1004.089844 44.351562 C 1004.195312 44.285156 1004.308594 44.21875 1004.425781 44.152344 C 1004.863281 43.910156 1005.296875 43.679688 1005.730469 43.441406 C 1009.300781 41.476562 1012.875 39.164062 1015.636719 36.132812 C 1018.40625 33.097656 1020.371094 29.355469 1021.882812 26.679688 C 1022.863281 24.953125 1025.160156 23.140625 1027.160156 21.980469 C 1028.945312 21.957031 1031.210938 22.796875 1033.210938 24.097656 C 1035.523438 25.609375 1037.496094 27.753906 1039.589844 30.664062 C 1041.6875 33.578125 1043.917969 37.261719 1044.257812 44.421875 C 1044.59375 51.578125 1043.042969 62.21875 1045.859375 67.976562 C 1047.265625 70.859375 1049.773438 72.515625 1052.285156 72.875 C 1054.792969 73.234375 1057.316406 72.285156 1058.746094 69.953125 C 1061.621094 65.289062 1060.175781 55.082031 1060.519531 47.664062 C 1060.609375 46.464844 1060.714844 45.320312 1060.835938 44.21875 C 1061.597656 38.730469 1063.515625 34.925781 1066.0625 31.511719 C 1067.199219 29.992188 1068.472656 28.539062 1069.878906 27.289062 C 1070.316406 26.945312 1070.816406 26.597656 1071.347656 26.410156 C 1072.359375 26.050781 1073.453125 26.238281 1074.394531 27.175781 C 1075.210938 27.992188 1075.914062 29.382812 1076.246094 32.011719 C 1076.34375 33.9375 1076.320312 36.175781 1076.378906 38.527344 C 1076.402344 39.277344 1076.425781 40.039062 1076.46875 40.796875 C 1076.46875 42.398438 1076.484375 43.933594 1076.574219 45.214844 C 1076.808594 48.597656 1077.554688 50.195312 1078.507812 51.828125 C 1078.542969 51.886719 1078.589844 51.953125 1078.625 52.011719 C 1078.65625 52.082031 1078.6875 52.15625 1078.722656 52.214844 C 1079.246094 53.25 1079.875 54.082031 1080.558594 54.792969 C 1081.050781 55.390625 1081.578125 55.96875 1082.175781 56.484375 C 1083.179688 57.34375 1084.347656 58.0625 1085.375 58.828125 C 1085.523438 58.96875 1085.679688 59.105469 1085.84375 59.246094 C 1086.953125 60.40625 1087.71875 61.695312 1088.429688 63.15625 C 1088.609375 63.695312 1088.773438 64.234375 1088.945312 64.75 C 1089.460938 66.25 1090.113281 67.527344 1090.742188 68.585938 C 1091.371094 69.640625 1091.953125 70.488281 1092.6875 71.234375 C 1093.414062 71.984375 1094.359375 72.703125 1095.257812 73.308594 C 1095.601562 73.550781 1096.191406 73.789062 1096.402344 73.992188 C 1097.007812 74.296875 1097.683594 74.566406 1098.410156 74.726562 C 1099.285156 74.910156 1100.230469 74.964844 1101.164062 74.851562 C 1101.390625 74.828125 1101.613281 74.792969 1101.839844 74.738281 C 1101.890625 74.726562 1101.945312 74.710938 1101.996094 74.703125 C 1102.175781 74.65625 1102.355469 74.605469 1102.527344 74.546875 C 1103.210938 74.320312 1103.859375 74 1104.460938 73.542969 C 1104.683594 73.375 1104.894531 73.195312 1105.097656 73.003906 C 1106.640625 71.488281 1107.492188 68.964844 1108.414062 67.003906 C 1108.488281 66.847656 1108.5625 66.691406 1108.636719 66.53125 C 1108.757812 66.292969 1108.878906 66.054688 1109.003906 65.84375 C 1109.828125 64.445312 1110.808594 63.710938 1111.769531 63.546875 C 1112.660156 63.5 1113.519531 63.988281 1114.179688 64.714844 C 1114.425781 64.996094 1114.652344 65.320312 1114.839844 65.738281 C 1114.882812 65.835938 1114.921875 65.941406 1114.964844 66.039062 C 1115.59375 67.671875 1115.925781 70.671875 1116.203125 77.703125 C 1116.476562 84.78125 1116.710938 95.9375 1116.898438 107.941406 C 1116.875 111.625 1116.84375 115.625 1116.835938 120.019531 C 1116.800781 133.835938 1116.875 151.476562 1116.292969 163.503906 C 1115.699219 175.527344 1112.847656 183.796875 1112.058594 190.910156 C 1111.273438 198.023438 1111.230469 202.507812 1113.230469 207.164062 C 1114.351562 209.785156 1116.644531 211.851562 1118.988281 213.207031 C 1119.046875 213.238281 1119.097656 213.269531 1119.160156 213.296875 C 1119.535156 213.507812 1119.90625 213.695312 1120.28125 213.867188 C 1121.675781 214.511719 1123.03125 214.894531 1124.101562 214.984375 C 1124.339844 214.996094 1124.566406 214.996094 1124.789062 215.003906 L 1124.789062 -97.988281 Z M 1124.96875 -97.988281 " fill-opacity="1" fill-rule="nonzero"/></g></g></g></g></g><g mask="url(#23aa094ee0)"><g transform="matrix(1, 0, 0, 1, 597, 98)"><g clip-path="url(#c04ec24427)"><path fill="#702e1e" d="M 10.742188 30.726562 C 14.636719 30.90625 16.925781 25.605469 20.992188 23.496094 C 25.058594 21.382812 30.894531 22.4375 33.28125 19.878906 C 35.671875 17.316406 34.605469 11.140625 30.1875 6.820312 C 25.769531 2.5 17.992188 0.0273438 11.714844 2.410156 C 5.441406 4.789062 0.671875 12.023438 1.023438 18.46875 C 1.375 24.910156 6.855469 30.5625 10.742188 30.734375 Z M 10.742188 30.726562 " fill-opacity="1" fill-rule="nonzero"/></g></g></g><g mask="url(#48530b9a91)"><g transform="matrix(1, 0, 0, 1, 315, 103)"><g clip-path="url(#3146953cca)"><g clip-path="url(#5d1edfd38f)"><path fill="#702e1e" d="M 1.625 9.578125 C 1.78125 12.445312 3.277344 15.46875 5.539062 16.691406 C 7.800781 17.910156 10.8125 17.335938 13.640625 16.007812 C 16.472656 14.683594 19.109375 12.617188 18.972656 9.785156 C 18.832031 6.957031 15.910156 3.363281 12.921875 1.820312 C 9.925781 0.277344 6.878906 0.777344 4.761719 2.378906 C 2.648438 3.992188 1.464844 6.699219 1.632812 9.570312 Z M 1.625 9.578125 " fill-opacity="1" fill-rule="nonzero"/></g></g></g></g><g mask="url(#b138bdce32)"><g transform="matrix(1, 0, 0, 1, 1039, 86)"><g clip-path="url(#bb8143b98c)"><g clip-path="url(#ea9ab278fb)"><path fill="#702e1e" d="M 1.453125 83.296875 C 0.898438 86.628906 1.386719 90.644531 3.5625 92.679688 C 5.742188 94.71875 9.613281 94.769531 11.671875 93.199219 C 13.726562 91.632812 13.964844 88.441406 13.816406 85.441406 C 13.664062 82.4375 13.140625 79.613281 13.140625 77.316406 C 13.140625 75.015625 13.671875 73.257812 14.378906 71.398438 C 15.082031 69.550781 15.964844 67.601562 16.144531 65.925781 C 16.324219 64.25 15.792969 62.839844 16.144531 60.101562 C 16.496094 57.359375 17.730469 53.300781 16.699219 49.09375 C 15.664062 44.882812 12.355469 40.527344 9.523438 35.054688 C 6.695312 29.578125 4.351562 22.996094 3.722656 16.558594 C 3.101562 10.117188 4.199219 3.828125 4.386719 1.984375 C 4.574219 0.144531 3.839844 2.742188 3.300781 5.214844 C 2.761719 7.683594 2.417969 10.027344 2.410156 14.339844 C 2.402344 18.652344 2.734375 24.945312 5.285156 31.363281 C 7.839844 37.769531 12.609375 44.300781 12.96875 51.542969 C 13.320312 58.773438 9.253906 66.71875 6.433594 72.015625 C 3.609375 77.308594 2.015625 79.957031 1.460938 83.289062 L 1.453125 83.289062 Z M 1.453125 83.296875 " fill-opacity="1" fill-rule="nonzero"/></g></g></g></g><g mask="url(#0226f0ec11)"><g transform="matrix(1, 0, 0, 1, 496, 69)"><g clip-path="url(#4775d8c45b)"><g clip-path="url(#b40af9e2cd)"><path fill="#702e1e" d="M 2.058594 16.484375 C 0.199219 21.957031 0.558594 25.835938 2.320312 28.21875 C 4.085938 30.601562 7.269531 31.484375 9.921875 33.339844 C 12.570312 35.191406 14.691406 38.019531 17.257812 39.519531 C 19.828125 41.015625 22.824219 41.195312 24.507812 39.429688 C 26.191406 37.660156 26.535156 33.953125 25.300781 30.335938 C 24.066406 26.722656 21.234375 23.1875 20.171875 19.21875 C 19.117188 15.25 19.820312 10.832031 18.757812 7.042969 C 17.699219 3.246094 14.863281 0.0703125 11.417969 2.011719 C 7.964844 3.949219 3.898438 11.011719 2.050781 16.484375 L 2.066406 16.484375 Z M 2.058594 16.484375 " fill-opacity="1" fill-rule="nonzero"/></g></g></g></g><g mask="url(#c07ebbc597)"><g transform="matrix(1, 0, 0, 1, 404, 90)"><g clip-path="url(#deab8e3dc5)"><g clip-path="url(#5bc54209e1)"><path fill="#702e1e" d="M 1.796875 7.765625 C 1.363281 10.257812 2.863281 13.007812 3.527344 15.484375 C 4.195312 17.964844 3.765625 23.625 5.578125 25.308594 C 7.390625 26.996094 11.308594 26.433594 13.957031 24.964844 C 16.609375 23.496094 17.980469 21.125 19.792969 19.8125 C 21.605469 18.503906 23.859375 18.257812 25.289062 16.757812 C 26.726562 15.261719 27.347656 12.511719 25.976562 9.515625 C 24.605469 6.523438 21.230469 3.28125 17.726562 1.78125 C 14.222656 0.285156 10.605469 0.53125 7.601562 1.78125 C 4.597656 3.03125 2.226562 5.277344 1.789062 7.773438 Z M 1.796875 7.765625 " fill-opacity="1" fill-rule="nonzero"/></g></g></g></g><g mask="url(#5f96d3732e)"><g transform="matrix(1, 0, 0, 1, 337, 116)"><g clip-path="url(#e393157176)"><g clip-path="url(#046cced7c6)"><path fill="#702e1e" d="M 59.265625 21.421875 C 57.207031 23.847656 56.578125 27.113281 54.421875 29.980469 C 52.257812 32.847656 48.542969 35.320312 46.335938 38.140625 C 44.125 40.964844 43.414062 44.140625 38.949219 48.003906 C 34.488281 51.867188 26.265625 56.40625 19.839844 58.546875 C 13.417969 60.6875 8.773438 60.425781 5.457031 62.539062 C 2.140625 64.65625 0.15625 69.15625 1.71875 72.773438 C 3.285156 76.390625 8.414062 79.132812 11.769531 78.269531 C 15.132812 77.410156 16.71875 72.953125 18.839844 71.433594 C 20.957031 69.914062 23.609375 71.320312 25.113281 69.644531 C 26.617188 67.96875 26.960938 63.203125 29.710938 59.851562 C 32.453125 56.496094 37.582031 54.554688 41.003906 50.992188 C 44.433594 47.425781 46.148438 42.246094 48.414062 39.003906 C 50.675781 35.761719 53.484375 34.457031 55.417969 31.703125 C 57.347656 28.945312 58.414062 24.730469 60.554688 22.050781 C 62.695312 19.371094 65.921875 18.222656 67.90625 13.820312 C 69.890625 9.417969 70.617188 1.765625 70.484375 1.554688 C 70.347656 1.355469 69.34375 8.59375 67.089844 13.003906 C 64.835938 17.414062 61.332031 18.996094 59.265625 21.421875 L 59.25 21.421875 Z M 59.265625 21.421875 " fill-opacity="1" fill-rule="nonzero"/></g></g></g></g><g mask="url(#3c3d8b247a)"><g transform="matrix(1, 0, 0, 1, 166, 70)"><g clip-path="url(#75c2fa9df6)"><g clip-path="url(#376e542036)"><path fill="#702e1e" d="M 20.203125 36.578125 C 24.816406 37.785156 30.523438 35.613281 33.488281 30.527344 C 36.453125 25.453125 36.671875 17.460938 35.023438 11.660156 C 33.375 5.855469 29.863281 2.222656 26.390625 1.0625 C 22.914062 -0.0976562 19.492188 1.207031 16.222656 1.453125 C 12.949219 1.699219 9.847656 0.882812 6.621094 2.652344 C 3.394531 4.417969 0.0546875 8.769531 0.359375 13.117188 C 0.667969 17.46875 4.613281 21.828125 8.351562 26.296875 C 12.085938 30.777344 15.597656 35.375 20.203125 36.578125 Z M 20.203125 36.578125 " fill-opacity="1" fill-rule="nonzero"/></g></g></g></g><g mask="url(#586407dd6a)"><g transform="matrix(1, 0, 0, 1, 837, 132)"><g clip-path="url(#4a9fbf1a28)"><g clip-path="url(#a72257eace)"><path fill="#702e1e" d="M 2.609375 16.160156 C 0.152344 20.59375 -0.96875 28.410156 1.800781 33.785156 C 4.570312 39.164062 11.234375 42.082031 17.726562 45.316406 C 24.226562 48.546875 30.5625 52.078125 36.164062 50.53125 C 41.765625 48.980469 46.640625 42.351562 46.945312 33.855469 C 47.253906 25.355469 43.007812 14.96875 37.988281 8.632812 C 32.972656 2.300781 27.183594 0.0078125 22.820312 0.847656 C 18.460938 1.683594 15.527344 5.660156 12.179688 8.175781 C 8.824219 10.6875 5.058594 11.734375 2.601562 16.167969 Z M 2.609375 16.160156 " fill-opacity="1" fill-rule="nonzero"/></g></g></g></g><g mask="url(#c6d7fb0e52)"><g transform="matrix(1, 0, 0, 1, 941, 75)"><g clip-path="url(#65dba840e2)"><g clip-path="url(#9913afa3ef)"><path fill="#702e1e" d="M 11.25 35.734375 C 14.882812 37.066406 17.542969 33.960938 19.699219 30.925781 C 21.855469 27.894531 23.480469 24.9375 22.8125 21.753906 C 22.144531 18.570312 19.179688 15.171875 17.773438 11.332031 C 16.367188 7.480469 16.515625 3.199219 13.992188 1.714844 C 11.46875 0.242188 6.285156 1.566406 4.070312 3.566406 C 1.855469 5.566406 2.585938 8.222656 2.144531 11.554688 C 1.703125 14.886719 0.078125 18.871094 1.554688 23.753906 C 3.03125 28.636719 7.628906 34.402344 11.257812 35.734375 Z M 11.25 35.734375 " fill-opacity="1" fill-rule="nonzero"/></g></g></g></g><g mask="url(#01cad78e2a)"><g transform="matrix(1, 0, 0, 1, 703, 81)"><g clip-path="url(#b7c659a210)"><g clip-path="url(#b0fcae2872)"><path fill="#702e1e" d="M 19.519531 5.195312 C 18.6875 2.507812 15.304688 0.84375 11.8125 1.390625 C 8.324219 1.945312 4.738281 4.71875 2.777344 7.71875 C 0.820312 10.722656 0.515625 13.949219 1.5625 17.304688 C 2.617188 20.660156 5.042969 24.140625 7.867188 26.695312 C 10.691406 29.253906 13.902344 30.894531 16.671875 29.914062 C 19.445312 28.933594 21.75 25.332031 21.71875 22.457031 C 21.683594 19.582031 19.292969 17.433594 18.957031 14.503906 C 18.621094 11.574219 20.335938 7.875 19.503906 5.1875 L 19.511719 5.1875 Z M 19.519531 5.195312 " fill-opacity="1" fill-rule="nonzero"/></g></g></g></g><g mask="url(#5e5ab43f69)"><g transform="matrix(1, 0, 0, 1, 55, 173)"><g clip-path="url(#84726684f8)"><g clip-path="url(#31f10a38d5)"><path fill="#702e1e" d="M 16.105469 21.21875 C 19.953125 21.734375 23.371094 22.769531 24.996094 20.851562 C 26.621094 18.933594 26.46875 14.042969 25.21875 10.128906 C 23.960938 6.210938 21.585938 3.253906 18.78125 1.921875 C 15.972656 0.589844 12.707031 0.886719 9.148438 2.589844 C 5.59375 4.289062 1.738281 7.394531 0.777344 10.644531 C -0.179688 13.902344 1.738281 17.300781 4.851562 19.003906 C 7.964844 20.703125 12.265625 20.703125 16.105469 21.21875 Z M 16.105469 21.21875 " fill-opacity="1" fill-rule="nonzero"/></g></g></g></g><g mask="url(#0e937432d9)"><g transform="matrix(1, 0, 0, 1, 834, 44)"><g clip-path="url(#620ff2622d)"><path fill="#702e1e" d="M 6.515625 1.550781 C 3.527344 2.285156 1.753906 3.640625 1.332031 5.527344 C 0.914062 7.40625 1.859375 9.816406 2.328125 11.644531 C 2.800781 13.472656 2.800781 14.730469 4.574219 15.253906 C 6.359375 15.777344 9.914062 15.570312 11.808594 14.519531 C 13.6875 13.472656 13.898438 11.59375 14.640625 9.136719 C 15.382812 6.679688 16.625 3.648438 15.164062 2.179688 C 13.703125 0.71875 9.511719 0.824219 6.523438 1.550781 Z M 6.515625 1.550781 " fill-opacity="1" fill-rule="nonzero"/></g></g></g><g mask="url(#c63575cb6f)"><g transform="matrix(1, 0, 0, 1, 1075, 99)"><g clip-path="url(#cc2c706ba2)"><g clip-path="url(#155ef35c4a)"><path fill="#702e1e" d="M 3.910156 12.414062 C 5.035156 13.480469 5.566406 14.332031 7.144531 14.019531 C 8.71875 13.703125 11.339844 12.230469 12.328125 10.8125 C 13.316406 9.398438 12.6875 8.042969 12.207031 6.101562 C 11.730469 4.164062 11.40625 1.632812 9.675781 1.191406 C 7.945312 0.75 4.808594 2.390625 2.855469 4.007812 C 0.902344 5.625 0.113281 7.210938 0.59375 8.640625 C 1.066406 10.078125 2.796875 11.351562 3.925781 12.414062 Z M 3.910156 12.414062 " fill-opacity="1" fill-rule="nonzero"/></g></g></g></g><path fill="#702e1e" d="M 58.640625 11.816406 C 57.890625 14.09375 55.433594 15.328125 53.15625 14.582031 L 28.882812 6.570312 C 26.605469 5.820312 25.371094 3.363281 26.117188 1.085938 C 26.867188 -1.1875 29.324219 -2.425781 31.597656 -1.675781 L 55.875 6.335938 C 58.152344 7.085938 59.386719 9.542969 58.640625 11.816406 Z M 170.335938 -48.714844 L 189.796875 -65.292969 C 191.625 -66.851562 191.84375 -69.59375 190.285156 -71.410156 C 188.726562 -73.238281 185.988281 -73.457031 184.167969 -71.898438 L 164.707031 -55.320312 C 162.878906 -53.761719 162.664062 -51.023438 164.21875 -49.203125 C 165.777344 -47.375 168.519531 -47.15625 170.335938 -48.714844 Z M 363.460938 -7.9375 L 347.820312 -28.160156 C 346.351562 -30.054688 343.625 -30.40625 341.730469 -28.941406 C 339.835938 -27.472656 339.484375 -24.746094 340.953125 -22.851562 L 356.59375 -2.625 C 358.0625 -0.730469 360.789062 -0.378906 362.683594 -1.847656 C 364.578125 -3.316406 364.929688 -6.042969 363.460938 -7.9375 Z M 495.4375 -30.496094 L 513.511719 -48.574219 C 515.207031 -50.265625 515.207031 -53.019531 513.511719 -54.714844 C 511.820312 -56.40625 509.066406 -56.40625 507.375 -54.714844 L 489.296875 -36.636719 C 487.605469 -34.945312 487.605469 -32.1875 489.296875 -30.496094 C 490.988281 -28.804688 493.746094 -28.804688 495.4375 -30.496094 Z M 686.21875 -85.105469 L 668.140625 -67.03125 C 666.449219 -65.339844 666.449219 -62.582031 668.140625 -60.890625 C 669.832031 -59.199219 672.589844 -59.199219 674.28125 -60.890625 L 692.355469 -78.96875 C 694.050781 -80.660156 694.050781 -83.414062 692.355469 -85.105469 C 690.664062 -86.800781 687.910156 -86.800781 686.21875 -85.105469 Z M 790.863281 -68.730469 L 815.722656 -62.769531 C 818.050781 -62.207031 820.394531 -63.648438 820.957031 -65.984375 C 821.519531 -68.3125 820.082031 -70.65625 817.742188 -71.21875 L 792.882812 -77.175781 C 790.554688 -77.738281 788.210938 -76.300781 787.648438 -73.964844 C 787.089844 -71.636719 788.527344 -69.292969 790.863281 -68.730469 Z M 1000.285156 -30.226562 L 1019.980469 -13.917969 C 1021.828125 -12.390625 1024.5625 -12.644531 1026.089844 -14.496094 C 1027.617188 -16.34375 1027.363281 -19.078125 1025.515625 -20.605469 L 1005.820312 -36.914062 C 1003.972656 -38.441406 1001.238281 -38.1875 999.710938 -36.335938 C 998.183594 -34.488281 998.4375 -31.753906 1000.285156 -30.226562 Z M 1000.285156 -30.226562 " fill-opacity="1" fill-rule="nonzero"/><path fill="#bb7e6f" d="M 569.484375 252.820312 C 568.804688 255.089844 567.554688 258.90625 564.246094 262.082031 C 562.949219 263.324219 558.890625 267.226562 555.0625 265.921875 C 553.800781 265.488281 552.007812 264.304688 551.726562 262.589844 C 551.101562 258.871094 558.320312 257.207031 562.34375 251.539062 C 566.691406 245.398438 563.960938 239.265625 562.941406 223.210938 C 562.597656 217.796875 562.359375 209.742188 563.097656 199.746094 C 563.511719 202.820312 564.117188 207.382812 564.84375 212.9375 C 565.578125 218.59375 565.675781 219.773438 565.929688 221.347656 C 568.421875 236.734375 572.4375 242.972656 569.480469 252.820312 Z M 581.925781 32.84375 C 579.371094 34.722656 572.578125 39.867188 568.527344 49.0625 C 566.707031 53.210938 566.0625 56.753906 565.667969 59.441406 C 563.179688 76.214844 565.578125 90.261719 566.542969 105.238281 C 566.941406 111.386719 567.269531 120.320312 566.746094 131.289062 C 567.15625 128.480469 567.703125 124.28125 568.160156 119.171875 C 569.597656 102.894531 568.542969 93.828125 568.765625 82.625 C 568.925781 74.917969 569.726562 63.980469 572.734375 50.644531 C 574.472656 46.855469 578.546875 39.382812 586.8125 33.046875 C 592.984375 28.3125 599.992188 25.429688 606.910156 24.1875 C 602.390625 24.382812 591.90625 25.46875 581.917969 32.835938 Z M 71 130.691406 C 71.539062 130.046875 73.972656 127.066406 75.140625 122.28125 C 76.226562 117.816406 75.660156 114.089844 74.683594 109.410156 C 72.582031 99.285156 71.039062 96.582031 69.488281 89.878906 C 67.46875 81.171875 67.378906 74.183594 67.347656 69.402344 C 67.316406 64.929688 67.308594 57.261719 69.535156 47.542969 C 71.21875 40.191406 73.578125 34.289062 75.523438 30.125 C 70.207031 38.054688 68.140625 44.332031 67.25 47.96875 C 66.769531 49.917969 66.34375 52.28125 66.300781 52.507812 C 65.398438 57.457031 65.175781 61.132812 64.90625 65.792969 C 64.605469 70.941406 64.457031 73.519531 64.652344 77.210938 C 64.832031 80.574219 65.183594 82.992188 65.585938 85.738281 C 66.605469 92.671875 68.007812 98.191406 68.546875 100.242188 C 69.824219 105.140625 70.214844 105.46875 70.746094 108.621094 C 71.511719 113.175781 71.414062 116.671875 71.351562 117.96875 C 71.226562 120.804688 71.082031 123.761719 69.796875 127.359375 C 68.582031 130.742188 66.792969 133.429688 65.0625 135.460938 C 66.570312 134.671875 68.890625 133.214844 71.007812 130.691406 Z M 287.144531 102.257812 C 287.472656 100.492188 288.117188 97.195312 289.382812 90.621094 C 290.136719 86.699219 290.933594 82.773438 291.660156 78.84375 C 292.804688 72.613281 293.800781 66.367188 294.121094 60.027344 C 294.308594 56.273438 294.472656 52.507812 295.101562 48.785156 C 295.460938 46.667969 296.152344 44.308594 297.605469 41.671875 C 298.464844 40.101562 300.164062 37.5 305.667969 33.277344 C 308.707031 30.941406 313.195312 27.894531 319.191406 25.09375 C 314.226562 25.96875 305.683594 28.261719 298.164062 35.1875 C 296.9375 36.320312 295.402344 37.726562 293.917969 39.832031 C 288.027344 48.164062 290.796875 55.972656 290.078125 70.726562 C 289.554688 81.410156 287.964844 79.898438 285.832031 98.792969 C 284.875 107.265625 284.441406 114.277344 284.214844 118.984375 C 285.367188 111.933594 286.402344 106.226562 287.152344 102.265625 Z M 4.15625 118.722656 C 4.34375 93.28125 6.003906 69.519531 8.558594 47.699219 C 5.726562 59.847656 4.589844 69.683594 4.074219 76.46875 C 3.953125 78.003906 4.019531 77.40625 3.421875 88.308594 C 2.277344 109.15625 2.148438 109.304688 2.050781 114.132812 C 1.925781 120.355469 2.023438 127.179688 2.605469 136.164062 C 2.949219 141.457031 3.40625 146.730469 4.753906 151.886719 C 4.289062 141.226562 4.074219 130.164062 4.15625 118.730469 Z M 801.390625 115.308594 C 801.742188 120.011719 802.320312 124.632812 802.320312 124.632812 C 802.722656 127.859375 802.957031 129.011719 803.277344 131.289062 C 804.566406 140.34375 805.300781 145.5 803.660156 151.183594 C 803.15625 152.914062 802.207031 155.503906 800.222656 158.457031 C 801.128906 158.558594 803.417969 158.6875 805.277344 157.242188 C 806.886719 155.992188 807.378906 154.171875 807.671875 152.792969 C 809.042969 146.316406 807.996094 139.609375 807.898438 139.015625 C 806.046875 127.695312 804.601562 124.363281 803.652344 115.242188 C 803.449219 113.289062 803.359375 111.96875 803.195312 109.566406 C 802.601562 100.699219 802.648438 93.855469 803.046875 76.484375 C 803.34375 63.539062 803.414062 63.164062 803.351562 63.15625 C 802.730469 63.109375 800.535156 104.078125 801.375 115.316406 Z M 453.054688 161.261719 C 453.609375 165.015625 453.625 167.277344 453.660156 171.792969 C 453.691406 176.097656 453.4375 177.429688 452.980469 178.679688 C 451.429688 182.941406 448.226562 184.5 448.808594 185.570312 C 449.324219 186.527344 452.480469 186.378906 454.648438 184.886719 C 457.886719 182.664062 458.027344 178.125 458.070312 176.515625 C 458.132812 174.621094 457.796875 173.875 456.949219 169.824219 C 456.949219 169.824219 456.140625 165.957031 455.339844 160.738281 C 454.648438 156.261719 454.628906 152.921875 454.621094 148.226562 C 454.605469 140.425781 454.621094 131.4375 454.734375 121.367188 C 452.367188 146.226562 452.394531 156.710938 453.070312 161.269531 L 453.0625 161.269531 Z M 840.371094 16.402344 C 837.773438 16.746094 835.789062 17.53125 835.214844 17.761719 C 832.300781 18.953125 831.027344 20.273438 827.929688 22.457031 C 827.929688 22.457031 824.625 24.792969 820.640625 26.929688 C 818.082031 28.300781 814.277344 30.011719 809.117188 31.21875 C 812.195312 31.242188 817.085938 30.917969 822.4375 28.75 C 829.433594 25.902344 831.535156 22.203125 838.140625 19.816406 C 841.175781 18.722656 845.957031 17.605469 852.707031 18.503906 C 850.332031 17.390625 845.808594 15.6875 840.367188 16.40625 Z M 503.03125 35.398438 C 500.320312 36.46875 496.015625 38.167969 490.136719 39.941406 C 487.957031 40.601562 483.808594 41.800781 478.460938 42.96875 C 474.53125 43.828125 471.003906 44.433594 468.007812 44.886719 C 472.5 46.1875 480.332031 47.753906 489.679688 45.96875 C 497.8125 44.414062 503.425781 41.027344 506.203125 39.304688 C 512.34375 35.515625 516.546875 31.203125 519.121094 28.125 C 512.945312 31.277344 507.464844 33.644531 503.046875 35.398438 Z M 147.785156 31.332031 C 145.941406 32.117188 142.496094 33.621094 139.675781 37.128906 C 137.5625 39.761719 136.792969 42.285156 135.554688 46.375 C 134.859375 48.667969 134.050781 51.953125 133.632812 56.148438 C 133.277344 59.671875 133.457031 62.992188 133.839844 69.46875 C 134.183594 75.4375 134.476562 80.402344 134.640625 83.199219 C 134.722656 78.761719 134.972656 69.28125 135.773438 59.882812 C 135.976562 57.488281 136.238281 54.84375 137.457031 51.652344 C 138.960938 47.707031 141.402344 44.316406 142.144531 43.28125 C 142.9375 42.1875 143.597656 41.394531 145.359375 38.976562 C 146.808594 36.976562 147.6875 35.675781 147.894531 35.398438 C 149.273438 33.464844 153.121094 31.25 164.167969 30.296875 C 161.433594 29.609375 154.816406 28.34375 147.785156 31.332031 Z M 1006.164062 40.191406 C 1009.480469 38.109375 1011.472656 36.851562 1013.421875 34.769531 C 1017.660156 30.214844 1016.777344 26.898438 1021.019531 23.207031 C 1022.878906 21.589844 1024.78125 20.722656 1026.023438 20.257812 C 1023.328125 19.949219 1021.558594 20.535156 1020.535156 21.011719 C 1015.054688 23.589844 1016.332031 30.109375 1010.097656 34.265625 C 1007.902344 35.734375 1006.867188 35.496094 1004.488281 37.523438 C 1002.046875 39.589844 1000.617188 41.957031 999.785156 43.65625 C 1001.433594 42.894531 1003.664062 41.769531 1006.164062 40.199219 Z M 674.273438 190.316406 C 678.535156 187.230469 679.605469 182.402344 680.300781 179.070312 C 680.75 176.921875 680.542969 176.570312 680.097656 164.789062 C 679.890625 159.332031 679.695312 154.121094 680.144531 148.714844 C 680.773438 141.121094 682.429688 136 683.199219 133.078125 C 685.117188 125.785156 686.171875 114.394531 681.714844 96.875 C 684.496094 111.601562 682.921875 122.320312 680.9375 129.433594 C 678.894531 136.753906 676.128906 141.261719 675.800781 150.636719 C 675.597656 156.484375 676.585938 157.207031 676.609375 167.425781 C 676.640625 179.144531 675.351562 182.972656 673.515625 185.921875 C 671.332031 189.464844 668.417969 191.636719 666.390625 192.886719 C 668.109375 192.824219 671.324219 192.453125 674.28125 190.308594 Z M 253.679688 60.183594 C 251.328125 62.511719 249.71875 64.121094 248.0625 66.800781 C 246.324219 69.609375 245.480469 72.027344 244.695312 74.351562 C 243.25 78.617188 242.132812 83.792969 242.714844 84.046875 C 242.867188 84.113281 243.136719 83.835938 245.488281 79.652344 C 247.164062 76.648438 248.011719 75.144531 249.132812 72.957031 C 251.710938 67.933594 251.738281 67.507812 252.847656 65.4375 C 256.667969 58.347656 260.921875 54.917969 260.613281 54.542969 C 260.320312 54.183594 256.605469 57.300781 253.703125 60.183594 Z M 285.886719 202.214844 C 286.851562 201.929688 288.332031 200.742188 289.015625 194.144531 C 289.816406 186.363281 288.574219 180.132812 287.652344 175.820312 C 286.515625 170.472656 285.023438 164.085938 283.097656 156.890625 C 284.71875 164.566406 284.746094 171.246094 285.347656 176.316406 C 286.582031 186.730469 285.675781 191.664062 284.003906 194.90625 C 283.257812 196.367188 281.535156 199.191406 282.644531 200.964844 C 283.273438 201.976562 284.753906 202.550781 285.890625 202.222656 Z M 993.863281 131.160156 C 994.003906 132.578125 994.191406 134.441406 994.558594 136.964844 C 995.785156 145.300781 997.15625 147.972656 996.828125 153.550781 C 996.699219 155.738281 996.59375 157.316406 995.765625 159.226562 C 993.914062 163.503906 990.378906 164.976562 990.835938 165.890625 C 991.277344 166.78125 995.144531 166.601562 997.582031 164.46875 C 1000.382812 162.019531 1000.542969 157.675781 1000.625 155.429688 C 1000.660156 154.40625 1000.625 153.6875 1000.527344 152.734375 C 1000.03125 148.046875 997.472656 139.976562 997.15625 138.972656 C 996.011719 135.332031 995.605469 132.269531 994.777344 126.144531 C 993.398438 115.855469 993.90625 110.546875 993.710938 110.546875 C 993.457031 110.546875 992.722656 119.960938 993.847656 131.167969 Z M 377.148438 90.488281 C 378.363281 89.617188 380.984375 87.703125 382.351562 84.195312 C 382.457031 83.933594 382.78125 83.097656 382.996094 81.941406 C 383.640625 78.507812 382.824219 75.71875 382.210938 73.625 C 381.925781 72.648438 381.648438 72.015625 381.15625 70.832031 C 379.277344 66.292969 377.824219 64.179688 376.347656 61.105469 C 375.515625 59.367188 374.4375 56.828125 373.511719 53.535156 C 373.59375 54.992188 373.78125 57.308594 374.320312 60.09375 C 375.980469 68.726562 378.929688 71.296875 378.871094 77.96875 C 378.855469 79.667969 378.804688 82.386719 377.386719 85.449219 C 375.246094 90.074219 371.375 92.457031 369.570312 93.40625 C 371.179688 93.203125 374.175781 92.605469 377.15625 90.480469 Z M 220.917969 49.046875 C 219.0625 48.433594 218.074219 47.503906 216.035156 45.875 C 215.730469 45.625 213.257812 43.84375 208.324219 40.265625 C 206.585938 39.007812 204.011719 37.203125 200.738281 35.113281 C 202.625 37.929688 204.699219 40.921875 206.953125 44.046875 C 208.40625 46.058594 209.671875 47.746094 211.84375 49.4375 C 213.3125 50.574219 214.6875 51.316406 215.671875 51.78125 C 216.679688 52.019531 218.074219 52.214844 219.699219 52.074219 C 223.074219 51.773438 225.449219 50.179688 226.519531 49.347656 C 225.136719 49.601562 223.089844 49.765625 220.910156 49.046875 Z M 769.199219 26.988281 C 771.242188 24.863281 772.34375 22.585938 772.941406 20.929688 C 771.152344 22.832031 768.71875 25.070312 765.558594 27.191406 C 761.621094 29.832031 757.886719 31.390625 755.03125 32.335938 C 756.542969 32.386719 763.898438 32.484375 769.207031 26.988281 Z M 134.957031 130.390625 C 134.898438 136.664062 135.285156 142.902344 136.058594 149.132812 C 136.5 152.683594 137 156.210938 137.871094 159.683594 C 138.035156 159.4375 138.183594 159.175781 138.378906 158.957031 C 140.011719 157.144531 140.519531 155.054688 140.070312 152.667969 C 139.839844 151.433594 139.539062 150.210938 139.140625 149.027344 C 138.542969 147.246094 137.964844 145.457031 137.234375 143.726562 C 136.714844 142.5 136.792969 141.195312 136.527344 139.945312 C 135.734375 136.132812 135.464844 132.269531 135.367188 128.382812 C 134.679688 128.9375 134.964844 129.710938 134.957031 130.398438 Z M 690.058594 44.667969 C 691.878906 41.074219 693.863281 37.261719 697.792969 33.308594 C 702.414062 28.671875 707.339844 26.238281 710.539062 24.980469 C 707.804688 25.222656 702.808594 26.046875 697.792969 29.378906 C 692.101562 33.152344 689.519531 38.078125 687.78125 41.492188 C 682.953125 50.980469 683.148438 60.210938 683.640625 65.078125 C 684.972656 55.929688 687.828125 49.054688 690.050781 44.667969 Z M 1058.320312 47.324219 C 1057.105469 50.972656 1056.5 54.019531 1056.164062 56.167969 C 1055.457031 60.714844 1055.652344 63.425781 1053.632812 65.964844 C 1052.359375 67.566406 1050.742188 68.417969 1049.589844 68.890625 C 1050.515625 69.355469 1053.167969 70.523438 1055.25 69.394531 C 1057.78125 68.023438 1058.019531 64.085938 1058.183594 61.3125 C 1058.289062 59.570312 1058.109375 58.851562 1057.980469 56.769531 C 1057.847656 54.535156 1057.808594 51.316406 1058.320312 47.320312 Z M 35.695312 25.566406 C 29.210938 23.867188 23.917969 26.113281 22.203125 26.867188 C 19.222656 28.1875 17.371094 29.855469 16.992188 30.199219 C 13.164062 33.707031 11.882812 37.949219 11.433594 39.890625 C 12.574219 38.09375 16.75 31.960938 24.875 29.511719 C 36.609375 25.96875 46.253906 33.234375 47.234375 33.980469 C 46.386719 32.671875 42.765625 27.414062 35.703125 25.558594 Z M 240.417969 131.078125 C 241.203125 131.238281 241.667969 130.929688 242.042969 130.578125 C 243.503906 129.199219 244.476562 127.589844 244.640625 125.5 C 244.875 122.550781 244.445312 119.667969 243.929688 116.800781 C 243.773438 115.910156 243.824219 114.929688 243.105469 114.050781 C 241.878906 119.75 240.566406 125.320312 240.410156 131.085938 L 240.417969 131.085938 Z M 890.535156 67.085938 C 890.378906 70.015625 890.363281 73.382812 890.332031 80.109375 C 890.273438 92.34375 890.609375 94.449219 891.140625 96.3125 C 891.285156 96.808594 891.785156 98.523438 892.046875 100.886719 C 892.308594 103.238281 892.453125 105.074219 891.800781 107.15625 C 891.484375 108.144531 890.640625 110.148438 888.003906 112.007812 C 889.03125 112.042969 891.390625 111.984375 893.164062 110.390625 C 895.425781 108.351562 895.335938 105.109375 895.230469 102.714844 C 895.058594 98.632812 893.726562 96.882812 892.59375 93.226562 C 891.84375 90.777344 891.726562 87.199219 891.484375 80.046875 C 891.269531 73.609375 891.394531 68.621094 891.539062 63.441406 C 891.664062 58.691406 891.84375 54.761719 891.996094 52.027344 C 891.441406 55.890625 890.847656 61.015625 890.527344 67.070312 L 890.527344 67.085938 Z M 748.953125 45.519531 C 748.195312 50.628906 748.164062 58.40625 748.15625 61.433594 C 748.15625 63.515625 748.179688 65.304688 747.050781 67.085938 C 745.882812 68.929688 744.234375 69.550781 744.414062 70.71875 C 744.5625 71.65625 745.792969 72.386719 746.847656 72.433594 C 748.816406 72.515625 750.121094 70.148438 750.441406 69.574219 C 751.445312 67.746094 751.394531 65.984375 751.296875 63.957031 C 751.0625 59.164062 750.949219 56.769531 750.6875 55.375 C 750.039062 51.902344 749.699219 46.335938 751.191406 37.308594 C 749.820312 40.773438 749.234375 43.648438 748.960938 45.527344 Z M 920.847656 69.347656 C 920.847656 69.347656 921.085938 73.59375 919.527344 76.003906 C 918.976562 76.859375 918.261719 77.511719 918.261719 77.511719 C 917.84375 77.898438 917.441406 78.175781 917.140625 78.363281 C 917.746094 78.558594 918.773438 78.777344 919.796875 78.363281 C 921.691406 77.59375 922.195312 75.179688 922.457031 73.96875 C 922.875 71.945312 922.605469 70.441406 921.925781 67.078125 C 921.289062 63.925781 920.742188 61.3125 920.335938 59.433594 C 920.695312 63.476562 920.871094 66.757812 920.871094 69.355469 L 920.863281 69.355469 Z M 93.601562 27.503906 C 97.105469 28.472656 97.734375 29.167969 100.78125 29.789062 C 105.8125 30.824219 108.074219 29.730469 112.410156 29.921875 C 115.382812 30.058594 119.671875 30.808594 124.847656 33.757812 C 120.828125 29.535156 117.148438 28.121094 114.535156 27.601562 C 111.292969 26.964844 110.433594 27.855469 105.132812 27.398438 C 100.085938 26.964844 99.007812 25.992188 94.671875 25.484375 C 91.960938 25.167969 87.960938 25.027344 82.886719 26.089844 C 85.355469 26.074219 89.152344 26.277344 93.601562 27.503906 L 93.609375 27.503906 Z M 1098.238281 73.210938 C 1100.28125 73.75 1102.601562 73.332031 1104.191406 72.027344 C 1106.046875 70.492188 1105.628906 68.785156 1107.492188 65.714844 C 1108.707031 63.710938 1110.152344 62.355469 1111.132812 61.554688 C 1110.023438 62.078125 1108.445312 62.976562 1106.960938 64.503906 C 1104.484375 67.058594 1104.511719 69.0625 1102.789062 70.335938 C 1101.449219 71.316406 1098.980469 71.917969 1093.992188 69.953125 C 1094.261719 70.410156 1095.566406 72.507812 1098.238281 73.210938 Z M 421.132812 41.636719 C 423.207031 41.097656 424.382812 39.464844 425.109375 38.453125 C 426.511719 36.503906 426.054688 35.71875 427.589844 33.234375 C 428.308594 32.066406 429.101562 30.777344 430.394531 29.894531 C 433.292969 27.925781 437.128906 29.054688 438.289062 29.4375 C 437.996094 29.046875 436.230469 26.816406 433.054688 26.488281 C 430.734375 26.238281 428.480469 27.109375 427.0625 28.53125 C 426.121094 29.480469 425.679688 30.554688 424.796875 32.695312 C 423.917969 34.828125 424.082031 35.277344 423.28125 36.484375 C 422.195312 38.109375 420.78125 38.933594 420.167969 39.285156 C 418.460938 40.265625 416.835938 40.503906 415.921875 40.570312 C 416.445312 40.921875 418.648438 42.285156 421.15625 41.636719 Z M 961.214844 98.328125 C 961.46875 94.867188 959.722656 92.300781 959.09375 91.460938 C 959.363281 93.828125 959.140625 95.765625 958.894531 97.0625 C 958.59375 98.640625 957.964844 101.726562 955.5 104.578125 C 954.339844 105.925781 953.128906 106.8125 952.265625 107.355469 C 952.707031 107.71875 953.359375 108.121094 954.160156 108.160156 C 956.25 108.242188 957.835938 105.726562 958.992188 103.875 C 960.097656 102.109375 961.042969 100.59375 961.214844 98.320312 Z M 1049.125 177.675781 C 1050.082031 176.957031 1050.457031 176.007812 1050.710938 175.332031 C 1051.175781 174.121094 1051.152344 173.078125 1050.9375 169.988281 C 1050.695312 166.503906 1050.449219 166.496094 1050.480469 164.804688 C 1050.515625 162.761719 1050.898438 161.261719 1051.273438 159.773438 C 1051.714844 158.019531 1052.492188 155.617188 1053.929688 152.921875 C 1052.042969 155.484375 1051.035156 157.871094 1050.480469 159.511719 C 1050.082031 160.695312 1049.339844 162.917969 1049.230469 165.867188 C 1049.125 168.585938 1049.648438 169.289062 1049.265625 172.152344 C 1048.914062 174.78125 1048.253906 175.84375 1047.753906 176.464844 C 1046.886719 177.542969 1045.828125 178.105469 1045.132812 178.394531 C 1045.558594 178.492188 1047.523438 178.867188 1049.117188 177.675781 Z M 8.402344 188.460938 C 8.230469 191.558594 7.988281 195.804688 5.519531 200.117188 C 4.394531 202.089844 3.371094 203.085938 2.785156 205.496094 C 2.1875 207.972656 2.179688 211.464844 3.316406 211.851562 C 4.851562 212.382812 8.617188 207.324219 10.214844 202.007812 C 11.34375 198.238281 11.15625 195.117188 10.96875 192.390625 C 10.746094 189.15625 9.988281 184.035156 7.25 178.082031 C 8.445312 182.394531 8.519531 186.050781 8.386719 188.453125 Z M 73.421875 177.453125 C 73.863281 178.3125 74.460938 179.675781 74.84375 181.429688 C 75.292969 183.519531 75.90625 186.355469 74.542969 188.242188 C 72.867188 190.550781 69.226562 190.054688 69.234375 190.820312 C 69.242188 191.457031 71.796875 191.980469 73.785156 192.03125 C 75.507812 192.078125 76.847656 192.113281 77.761719 191.261719 C 79.1875 189.933594 78.648438 187.328125 78.339844 185.816406 C 77.539062 181.929688 75.21875 179.136719 73.425781 177.445312 L 73.421875 177.445312 Z M 195.738281 91.324219 C 195.347656 92.515625 194.710938 94.507812 192.832031 96.066406 C 192.773438 96.117188 192.726562 96.15625 192.6875 96.179688 C 189.6875 98.566406 187.164062 97.644531 185.734375 99.390625 C 185.164062 100.085938 184.804688 101.164062 185.113281 102.035156 C 185.644531 103.5 187.980469 103.929688 189.347656 103.90625 C 192.523438 103.84375 194.847656 101.269531 195.804688 100.019531 C 195.835938 99.972656 195.992188 99.773438 196.171875 99.515625 C 199.339844 94.949219 198.8125 87.648438 198.761719 86.996094 C 198.597656 84.984375 198.101562 81.875 196.492188 78.3125 C 197.015625 84.4375 196.449219 89.140625 195.738281 91.332031 L 195.746094 91.332031 Z M 324.816406 118.273438 C 325.609375 118.148438 327.457031 117.839844 329.21875 116.457031 C 330.058594 115.796875 331.023438 115.039062 331.335938 113.730469 C 331.613281 112.589844 331.246094 111.632812 330.878906 110.703125 C 330.0625 108.628906 328.664062 107.183594 327.488281 106.265625 C 327.652344 106.601562 329.332031 110.234375 327.285156 113.9375 C 325.28125 117.570312 321.414062 118.132812 321.019531 118.175781 C 322.058594 118.394531 323.355469 118.507812 324.816406 118.273438 Z M 341.242188 186.625 C 341.289062 186.878906 341.84375 189.949219 344.480469 191.066406 C 347.339844 192.277344 350.125 190.128906 350.34375 189.957031 C 352.238281 188.453125 351.496094 187.121094 353.480469 185.816406 C 354.730469 184.992188 356.511719 184.550781 357.925781 184.199219 C 359.191406 183.886719 359.558594 183.90625 360.152344 183.496094 C 360.546875 183.21875 361.085938 182.710938 362.066406 180.269531 C 362.390625 179.460938 362.792969 178.367188 363.175781 177.039062 C 361.910156 180.214844 360.359375 181.347656 359.179688 181.789062 C 358.9375 181.878906 358.046875 182.050781 356.242188 182.394531 C 353.34375 182.949219 353.023438 182.925781 352.242188 183.300781 C 351.457031 183.683594 350.8125 184.257812 349.511719 185.421875 C 347.59375 187.132812 347.554688 187.546875 346.832031 187.890625 C 345.847656 188.363281 344.1875 188.460938 341.222656 186.625 Z M 411.21875 113.226562 C 411.824219 114.125 415.253906 113.355469 417.785156 111.609375 C 420.265625 109.910156 419.742188 108.765625 422.234375 107.066406 C 424.953125 105.214844 426.816406 105.71875 427.796875 104.039062 C 428.589844 102.675781 428.171875 100.941406 427.699219 99.695312 C 427.484375 100.871094 427.019531 101.988281 426.082031 102.722656 C 424.832031 103.71875 423.769531 103.210938 421.636719 104.136719 C 420.300781 104.714844 420.570312 104.976562 418.402344 106.363281 C 415.757812 108.039062 415.171875 107.769531 413.75 108.988281 C 412.269531 110.253906 410.6875 112.441406 411.21875 113.226562 L 411.210938 113.226562 Z M 518.664062 106.160156 C 519.570312 105.582031 519.273438 103.621094 518.964844 101.765625 C 517.992188 95.8125 515.175781 93.167969 513.507812 89.042969 C 512.496094 86.539062 511.558594 82.667969 512.441406 77.074219 C 509.851562 84.363281 510.40625 89.492188 511.378906 92.824219 C 512.539062 96.777344 514.898438 100.207031 513.960938 101 C 512.9375 101.859375 509.199219 98.574219 508.960938 98.882812 C 508.59375 99.34375 516.417969 107.582031 518.664062 106.152344 Z M 607.707031 125.328125 C 609.40625 125.375 609.929688 123.644531 612.757812 121.1875 C 613.964844 120.140625 617.238281 117.355469 621.574219 116.628906 C 622.9375 116.394531 625.363281 116.207031 628.484375 117.226562 C 627.90625 116.539062 626.882812 115.488281 625.292969 114.800781 C 622.457031 113.566406 619.738281 114.292969 618.21875 114.726562 C 615.066406 115.617188 615.171875 116.703125 611.292969 118.515625 C 606.890625 120.566406 604.5 120.214844 604.164062 121.644531 C 603.828125 123.082031 605.8125 125.285156 607.707031 125.328125 L 607.710938 125.328125 Z M 717.324219 108.390625 C 719.554688 108.089844 720.730469 106.277344 720.863281 106.070312 C 722.105469 104.078125 721.46875 101.800781 721.164062 100.714844 C 720.542969 98.515625 719.695312 98.664062 719.1875 96.558594 C 718.863281 95.226562 718.992188 93.925781 719.246094 91.324219 C 719.398438 89.8125 719.589844 88.5625 719.75 87.679688 C 718.503906 88.988281 717.808594 90.277344 717.433594 91.125 C 716.886719 92.351562 715.773438 94.828125 716.527344 97.382812 C 716.976562 98.910156 717.628906 98.894531 718.042969 100.609375 C 718.234375 101.417969 718.691406 103.328125 717.742188 104.648438 C 716.746094 106.023438 714.433594 106.457031 712.082031 105.65625 C 713.242188 107.582031 715.316406 108.660156 717.335938 108.382812 Z M 843.152344 57.480469 C 843.53125 57.328125 844.273438 57.039062 844.992188 56.355469 C 844.992188 56.355469 845.503906 55.878906 845.914062 55.1875 C 847.066406 53.265625 847.621094 48.964844 847.652344 48.703125 C 846.992188 50.449219 846.296875 51.847656 845.742188 52.859375 C 844.796875 54.574219 844.304688 55.449219 843.351562 56.222656 C 841.929688 57.382812 840.296875 57.703125 839.316406 57.800781 C 840.050781 57.929688 841.546875 58.085938 843.152344 57.472656 Z M 866.558594 177.054688 C 867.269531 178.320312 869.179688 178.882812 870.355469 178.605469 C 873.453125 177.871094 875.3125 175.632812 876.089844 174.675781 C 881.640625 167.832031 878.546875 157.378906 877.566406 154.074219 C 876.644531 150.953125 874.667969 145.949219 870.183594 140.710938 C 871.882812 143.695312 873.84375 148.175781 874.285156 153.8125 C 874.691406 158.949219 875.140625 164.769531 871.554688 168.175781 C 870.519531 169.15625 868.773438 170.285156 867.398438 172.789062 C 866.699219 174.054688 865.800781 175.730469 866.558594 177.054688 L 866.550781 177.054688 Z M 921.132812 26.777344 C 923.070312 26.832031 924.574219 26.433594 925.730469 25.917969 C 927.382812 25.175781 927.976562 24.261719 930.378906 22.585938 C 931.742188 21.632812 933.480469 20.496094 934.421875 19.957031 C 936.210938 18.9375 939.523438 17.613281 945.03125 18.003906 C 943.511719 17.277344 939.3125 15.507812 934.625 16.804688 C 933.949219 16.992188 932.324219 17.449219 930.582031 18.65625 C 928.34375 20.1875 927.90625 21.566406 925.730469 23.605469 C 924.761719 24.503906 923.273438 25.699219 921.132812 26.785156 Z M 1082.828125 111.476562 C 1083.652344 111.324219 1084.199219 110.929688 1084.691406 110.570312 C 1085.34375 110.089844 1086.167969 109.484375 1086.511719 108.503906 C 1086.667969 108.0625 1086.734375 107.507812 1086.054688 105.117188 C 1085.816406 104.273438 1085.457031 103.105469 1084.945312 101.734375 C 1084.847656 102.371094 1084.757812 103.34375 1084.894531 104.511719 C 1085.105469 106.277344 1085.621094 106.714844 1085.394531 107.792969 C 1085.089844 109.289062 1083.757812 110.164062 1083.375 110.421875 C 1082.296875 111.132812 1081.234375 111.25 1080.714844 111.273438 C 1081.089844 111.414062 1081.871094 111.65625 1082.8125 111.484375 Z M 433.929688 -15.574219 L 433.929688 -41.136719 C 433.929688 -43.535156 431.984375 -45.480469 429.585938 -45.480469 C 427.191406 -45.480469 425.246094 -43.535156 425.246094 -41.136719 L 425.246094 -15.574219 C 425.246094 -13.175781 427.191406 -11.230469 429.585938 -11.230469 C 431.984375 -11.230469 433.929688 -13.175781 433.929688 -15.574219 Z M 112.417969 -11.710938 L 99.636719 -33.851562 C 98.4375 -35.925781 95.777344 -36.636719 93.703125 -35.4375 C 91.632812 -34.242188 90.917969 -31.582031 92.117188 -29.507812 L 104.898438 -7.367188 C 106.097656 -5.292969 108.757812 -4.582031 110.832031 -5.777344 C 112.90625 -6.976562 113.617188 -9.636719 112.417969 -11.710938 Z M 256.523438 -54.265625 L 281.847656 -57.753906 C 284.222656 -58.082031 285.886719 -60.269531 285.554688 -62.644531 C 285.226562 -65.015625 283.039062 -66.679688 280.664062 -66.351562 L 255.339844 -62.859375 C 252.96875 -62.53125 251.304688 -60.34375 251.636719 -57.96875 C 251.964844 -55.597656 254.152344 -53.933594 256.523438 -54.265625 Z M 943.339844 -5.398438 L 933.148438 -28.84375 C 932.191406 -31.042969 929.636719 -32.046875 927.4375 -31.097656 C 925.234375 -30.136719 924.230469 -27.585938 925.183594 -25.382812 L 935.375 -1.9375 C 936.332031 0.265625 938.886719 1.265625 941.085938 0.316406 C 943.289062 -0.640625 944.292969 -3.195312 943.339844 -5.398438 Z M 1095.878906 -2.230469 L 1070.472656 0.652344 C 1068.089844 0.921875 1066.375 3.070312 1066.644531 5.453125 C 1066.914062 7.835938 1069.0625 9.550781 1071.445312 9.28125 L 1096.851562 6.394531 C 1099.234375 6.125 1100.949219 3.976562 1100.679688 1.597656 C 1100.410156 -0.785156 1098.261719 -2.5 1095.878906 -2.230469 Z M 551.15625 7.699219 L 575.941406 1.445312 C 578.261719 0.863281 579.675781 -1.503906 579.085938 -3.824219 C 578.5 -6.144531 576.136719 -7.5625 573.8125 -6.96875 L 549.027344 -0.71875 C 546.707031 -0.132812 545.292969 2.234375 545.882812 4.554688 C 546.46875 6.875 548.835938 8.289062 551.15625 7.699219 Z M 725.148438 -45.292969 L 725.148438 -19.730469 C 725.148438 -17.332031 727.09375 -15.386719 729.492188 -15.386719 C 731.886719 -15.386719 733.832031 -17.332031 733.832031 -19.730469 L 733.832031 -45.292969 C 733.832031 -47.691406 731.886719 -49.636719 729.492188 -49.636719 C 727.09375 -49.636719 725.148438 -47.691406 725.148438 -45.292969 Z M 725.148438 -45.292969 " fill-opacity="1" fill-rule="nonzero"/><path fill="#f4aed2" d="M 354.796875 -60.5625 C 353.808594 -62.746094 354.78125 -65.316406 356.96875 -66.304688 L 380.265625 -76.832031 C 382.449219 -77.820312 385.019531 -76.847656 386.007812 -74.660156 C 386.996094 -72.476562 386.023438 -69.90625 383.835938 -68.917969 L 360.539062 -58.390625 C 358.355469 -57.402344 355.785156 -58.375 354.796875 -60.5625 Z M 223.890625 2.113281 L 223.890625 -23.449219 C 223.890625 -25.847656 221.945312 -27.792969 219.546875 -27.792969 C 217.152344 -27.792969 215.207031 -25.847656 215.207031 -23.449219 L 215.207031 2.113281 C 215.207031 4.507812 217.152344 6.457031 219.546875 6.457031 C 221.945312 6.457031 223.890625 4.507812 223.890625 2.113281 Z M 1061.859375 -58.40625 L 1073.617188 -81.109375 C 1074.71875 -83.234375 1073.886719 -85.855469 1071.761719 -86.957031 C 1069.632812 -88.058594 1067.011719 -87.226562 1065.910156 -85.101562 L 1054.15625 -62.394531 C 1053.054688 -60.269531 1053.886719 -57.648438 1056.011719 -56.546875 C 1058.140625 -55.445312 1060.761719 -56.277344 1061.859375 -58.40625 Z M 61.394531 -69.597656 L 86.921875 -68.148438 C 89.316406 -68.011719 91.367188 -69.839844 91.503906 -72.234375 C 91.636719 -74.632812 89.8125 -76.683594 87.414062 -76.816406 L 61.886719 -78.269531 C 59.492188 -78.40625 57.441406 -76.578125 57.304688 -74.183594 C 57.171875 -71.785156 59 -69.734375 61.394531 -69.597656 Z M 851.671875 -18.238281 L 873.8125 -31.019531 C 875.886719 -32.21875 876.601562 -34.878906 875.402344 -36.953125 C 874.203125 -39.027344 871.546875 -39.738281 869.472656 -38.539062 L 847.328125 -25.757812 C 845.253906 -24.558594 844.542969 -21.902344 845.742188 -19.828125 C 846.941406 -17.753906 849.597656 -17.042969 851.671875 -18.238281 Z M 654.214844 18.5625 L 672.289062 0.488281 C 673.980469 -1.203125 673.980469 -3.960938 672.289062 -5.652344 C 670.597656 -7.34375 667.839844 -7.34375 666.148438 -5.652344 L 648.074219 12.425781 C 646.378906 14.117188 646.378906 16.871094 648.074219 18.5625 C 649.765625 20.257812 652.519531 20.257812 654.214844 18.5625 Z M 538.671875 -80.765625 L 564.199219 -79.3125 C 566.597656 -79.175781 568.648438 -81.003906 568.78125 -83.398438 C 568.917969 -85.796875 567.089844 -87.847656 564.695312 -87.984375 L 539.167969 -89.433594 C 536.769531 -89.570312 534.71875 -87.742188 534.585938 -85.347656 C 534.449219 -82.949219 536.277344 -80.898438 538.671875 -80.765625 Z M 538.671875 -80.765625 " fill-opacity="1" fill-rule="nonzero"/><path fill="#702e1e" d="M 173.363281 22.113281 C 172.261719 24.242188 169.640625 25.070312 167.515625 23.972656 L 144.8125 12.214844 C 142.683594 11.113281 141.851562 8.492188 142.953125 6.367188 C 144.054688 4.238281 146.675781 3.410156 148.800781 4.507812 L 171.503906 16.265625 C 173.632812 17.367188 174.464844 19.988281 173.363281 22.113281 Z M 284.964844 25.050781 L 300.464844 4.71875 C 301.917969 2.808594 301.550781 0.0898438 299.648438 -1.367188 C 297.738281 -2.820312 295.019531 -2.453125 293.558594 -0.550781 L 278.058594 19.777344 C 276.605469 21.6875 276.972656 24.40625 278.875 25.867188 C 280.785156 27.316406 283.503906 26.949219 284.964844 25.050781 Z M 476.558594 15.023438 L 451.699219 9.0625 C 449.371094 8.5 447.027344 9.9375 446.464844 12.273438 C 445.902344 14.601562 447.339844 16.945312 449.679688 17.507812 L 474.539062 23.46875 C 476.867188 24.03125 479.210938 22.59375 479.773438 20.257812 C 480.332031 17.929688 478.894531 15.585938 476.558594 15.023438 Z M 617.445312 -40.574219 L 594.742188 -52.332031 C 592.617188 -53.433594 589.996094 -52.601562 588.894531 -50.476562 C 587.792969 -48.347656 588.625 -45.726562 590.753906 -44.628906 L 613.457031 -32.871094 C 615.582031 -31.769531 618.203125 -32.601562 619.304688 -34.726562 C 620.40625 -36.855469 619.574219 -39.476562 617.445312 -40.574219 Z M 791.917969 10.542969 L 807.417969 -9.785156 C 808.871094 -11.695312 808.503906 -14.414062 806.601562 -15.871094 C 804.691406 -17.324219 801.972656 -16.957031 800.515625 -15.058594 L 785.015625 5.273438 C 783.5625 7.183594 783.929688 9.902344 785.832031 11.359375 C 787.738281 12.8125 790.457031 12.445312 791.917969 10.542969 Z M 930.925781 -71.742188 L 956.488281 -71.742188 C 958.886719 -71.742188 960.832031 -73.6875 960.832031 -76.085938 C 960.832031 -78.480469 958.886719 -80.425781 956.488281 -80.425781 L 930.925781 -80.425781 C 928.53125 -80.425781 926.582031 -78.480469 926.582031 -76.085938 C 926.582031 -73.6875 928.527344 -71.742188 930.925781 -71.742188 Z M 15.035156 -61.160156 C 13.476562 -62.988281 10.738281 -63.203125 8.917969 -61.648438 L 0 -54.054688 L 0 -42.648438 L 14.542969 -55.042969 C 16.367188 -56.601562 16.585938 -59.339844 15.027344 -61.160156 Z M 1124.976562 -54.054688 L 1114.433594 -45.070312 C 1112.605469 -43.511719 1112.390625 -40.769531 1113.949219 -38.949219 C 1115.503906 -37.125 1118.246094 -36.90625 1120.066406 -38.464844 L 1124.976562 -42.648438 Z M 1124.976562 -54.054688 " fill-opacity="1" fill-rule="nonzero"/><g clip-path="url(#a1fabb2867)"><g transform="matrix(1, 0, 0, 1, 88, -0.000000000000042435)"><g clip-path="url(#6be26b4631)"><g clip-path="url(#852147bd2d)"><path fill="#702e1e" d="M 0.753906 -62.578125 L 170.675781 -62.578125 L 170.675781 12.421875 L 0.753906 12.421875 Z M 0.753906 -62.578125 " fill-opacity="1" fill-rule="nonzero"/></g></g></g></g><g clip-path="url(#abbb44d340)"><g transform="matrix(1, 0, 0, 1, 545, -0.000000000000042435)"><g clip-path="url(#27782d9871)"><g clip-path="url(#9c375ff9a4)"><path fill="#702e1e" d="M 0.0078125 -62.578125 L 169.925781 -62.578125 L 169.925781 12.421875 L 0.0078125 12.421875 Z M 0.0078125 -62.578125 " fill-opacity="1" fill-rule="nonzero"/></g></g></g></g><g clip-path="url(#59c2d80114)"><g transform="matrix(1, 0, 0, 1, 675, -0.000000000000042435)"><g clip-path="url(#78aca3581c)"><g clip-path="url(#0b80969572)"><path fill="#702e1e" d="M 0.0546875 -69.214844 L 169.972656 -69.214844 L 169.972656 5.78125 L 0.0546875 5.78125 Z M 0.0546875 -69.214844 " fill-opacity="1" fill-rule="nonzero"/></g></g></g></g><g clip-path="url(#d9aeb1b144)"><g transform="matrix(1, 0, 0, 1, 1055, -0.000000000000042435)"><g clip-path="url(#71b09224fd)"><g clip-path="url(#80d46e8594)"><path fill="#702e1e" d="M 0.324219 -62.578125 L 170.246094 -62.578125 L 170.246094 12.421875 L 0.324219 12.421875 Z M 0.324219 -62.578125 " fill-opacity="1" fill-rule="nonzero"/></g></g></g></g><g clip-path="url(#4e70d5aeda)"><g transform="matrix(1, 0, 0, 1, 912, -0.000000000000042435)"><g clip-path="url(#8dcf181241)"><g clip-path="url(#11a07398f6)"><path fill="#702e1e" d="M 0.886719 -69.214844 L 170.804688 -69.214844 L 170.804688 5.78125 L 0.886719 5.78125 Z M 0.886719 -69.214844 " fill-opacity="1" fill-rule="nonzero"/></g></g></g></g><g clip-path="url(#cebeabb583)"><g transform="matrix(1, 0, 0, 1, 639, -0.000000000000042435)"><g clip-path="url(#f559b79bd4)"><g clip-path="url(#92eaf94176)"><path fill="#702e1e" d="M 0.496094 -52.8125 L 24.902344 -52.8125 L 24.902344 22.21875 L 0.496094 22.21875 Z M 0.496094 -52.8125 " fill-opacity="1" fill-rule="nonzero"/></g></g></g></g></svg>