<svg xmlns="http://www.w3.org/2000/svg" xmlns:xlink="http://www.w3.org/1999/xlink" width="2000" zoomAndPan="magnify" viewBox="0 0 1500 749.999995" height="1000" preserveAspectRatio="xMidYMid meet" version="1.0"><defs><clipPath id="4f434c1674"><path d="M 0 0 L 190.703125 0 L 190.703125 3.757812 L 0 3.757812 Z M 0 0 " clip-rule="nonzero"/></clipPath><clipPath id="bc6bbf84ed"><path d="M 0 0 L 190.703125 0 L 190.703125 3.757812 L 0 3.757812 Z M 0 0 " clip-rule="nonzero"/></clipPath><clipPath id="095a76a315"><rect x="0" width="191" y="0" height="4"/></clipPath><clipPath id="00f0950b23"><path d="M 183.933594 0 L 408.933594 0 L 408.933594 21.617188 L 183.933594 21.617188 Z M 183.933594 0 " clip-rule="nonzero"/></clipPath><clipPath id="e3d86e4274"><path d="M 0.933594 0 L 225.933594 0 L 225.933594 21.617188 L 0.933594 21.617188 Z M 0.933594 0 " clip-rule="nonzero"/></clipPath><clipPath id="2cff59a168"><rect x="0" width="226" y="0" height="22"/></clipPath><clipPath id="b7df9ca888"><path d="M 301.589844 0 L 381.78125 0 L 381.78125 25.570312 L 301.589844 25.570312 Z M 301.589844 0 " clip-rule="nonzero"/></clipPath><clipPath id="728193cae8"><path d="M 0.589844 0 L 80.78125 0 L 80.78125 25.570312 L 0.589844 25.570312 Z M 0.589844 0 " clip-rule="nonzero"/></clipPath><clipPath id="36377d4aea"><rect x="0" width="81" y="0" height="26"/></clipPath><clipPath id="964ba0319f"><path d="M 585.371094 0 L 665.566406 0 L 665.566406 21.617188 L 585.371094 21.617188 Z M 585.371094 0 " clip-rule="nonzero"/></clipPath><clipPath id="2d9ac7de11"><path d="M 0.371094 0 L 80.566406 0 L 80.566406 21.617188 L 0.371094 21.617188 Z M 0.371094 0 " clip-rule="nonzero"/></clipPath><clipPath id="5122783f21"><rect x="0" width="81" y="0" height="22"/></clipPath><clipPath id="2db6bb1b0c"><path d="M 840.023438 0 L 952.148438 0 L 952.148438 14.222656 L 840.023438 14.222656 Z M 840.023438 0 " clip-rule="nonzero"/></clipPath><clipPath id="9c21a3d11e"><path d="M 0.0234375 0 L 112.148438 0 L 112.148438 14.222656 L 0.0234375 14.222656 Z M 0.0234375 0 " clip-rule="nonzero"/></clipPath><clipPath id="43cbca5b9c"><rect x="0" width="113" y="0" height="15"/></clipPath><clipPath id="f56920c122"><path d="M 1027.148438 0 L 1139.273438 0 L 1139.273438 3.757812 L 1027.148438 3.757812 Z M 1027.148438 0 " clip-rule="nonzero"/></clipPath><clipPath id="331d5459de"><path d="M 0.148438 0 L 112.273438 0 L 112.273438 3.757812 L 0.148438 3.757812 Z M 0.148438 0 " clip-rule="nonzero"/></clipPath><clipPath id="01c5dc385a"><rect x="0" width="113" y="0" height="4"/></clipPath><clipPath id="7d51e0c0cb"><path d="M 38.960938 0 L 97.699219 0 L 97.699219 7.917969 L 38.960938 7.917969 Z M 38.960938 0 " clip-rule="nonzero"/></clipPath><clipPath id="a3c17aa492"><path d="M 0.960938 0 L 59.699219 0 L 59.699219 7.917969 L 0.960938 7.917969 Z M 0.960938 0 " clip-rule="nonzero"/></clipPath><clipPath id="06812a7586"><rect x="0" width="60" y="0" height="8"/></clipPath></defs><path fill="#ee70ae" d="M 1499.960938 -143.589844 L 0 -143.589844 L 0 273.621094 C 0.71875 273.632812 1.40625 273.621094 2.035156 273.53125 C 4.761719 273.164062 6.828125 271.945312 8.714844 270.328125 C 11.222656 268.164062 14.496094 264.21875 15.59375 260.445312 C 16.691406 256.675781 18.460938 251.664062 17.621094 243.726562 C 16.78125 235.792969 12.28125 226 10.863281 215.128906 C 9.453125 204.261719 8.296875 193.71875 8.136719 173.695312 C 7.976562 153.671875 8.816406 124.15625 9.554688 98.695312 C 9.625 96.199219 9.695312 93.761719 9.765625 91.335938 C 10.042969 86.167969 10.332031 81.457031 10.632812 77.433594 C 11.691406 63.347656 12.839844 57.398438 14.855469 51.460938 C 14.875 51.410156 14.894531 51.359375 14.90625 51.300781 C 15.027344 51.011719 15.144531 50.710938 15.277344 50.421875 C 17.5625 45.371094 20.9375 40.878906 24.769531 37.085938 C 26.777344 35.3125 29.523438 33.234375 32.925781 31.757812 C 37.660156 29.710938 43.660156 28.832031 48.992188 30.058594 C 55.832031 32.863281 62.191406 38.046875 66.175781 45.703125 C 67.203125 47.988281 68.132812 50.5625 68.960938 53.507812 C 69.417969 55.105469 69.839844 56.8125 70.226562 58.609375 C 70.367188 59.394531 70.488281 60.183594 70.597656 60.992188 C 71.535156 68.03125 71.367188 75.738281 71.125 82.804688 C 70.886719 89.871094 70.585938 96.269531 70.019531 101.878906 C 69.4375 107.496094 68.589844 112.320312 66.773438 118.496094 C 64.964844 124.6875 62.191406 132.210938 61.210938 139.25 C 60.234375 146.285156 61.042969 152.804688 63.796875 158.425781 C 66.554688 164.042969 71.265625 168.746094 76.71875 170.851562 C 82.160156 172.957031 88.339844 172.46875 93.429688 168.644531 C 98.523438 164.824219 102.515625 157.664062 103.914062 150.179688 C 105.3125 142.695312 104.0625 134.867188 102.097656 128.269531 C 100.128906 121.671875 97.414062 116.28125 95.578125 109.113281 C 93.730469 101.949219 92.75 93.003906 92.722656 82.085938 C 92.691406 71.175781 93.601562 58.289062 95.386719 48.957031 C 97.175781 39.621094 99.839844 33.832031 102.425781 30.558594 C 105.011719 27.285156 107.539062 26.527344 109.65625 26.265625 C 111.761719 26.019531 113.476562 26.265625 115.964844 26.917969 C 116.804688 27.136719 117.730469 27.40625 118.710938 27.683594 C 123.78125 29.429688 129.074219 30.699219 133.765625 31.078125 C 134.8125 31.160156 135.832031 31.1875 136.820312 31.199219 C 138.566406 31.378906 140.324219 31.488281 142.140625 31.488281 C 145.6875 31.488281 149.5 31.078125 153.363281 31.566406 C 154.402344 31.699219 155.429688 31.898438 156.429688 32.144531 C 159.066406 32.933594 161.390625 34.074219 162.929688 35.46875 C 163.957031 36.410156 164.625 37.457031 165.085938 38.714844 C 165.773438 40.601562 165.984375 42.945312 166.183594 46.050781 C 166.203125 46.398438 166.222656 46.75 166.253906 47.117188 C 166.613281 52.9375 167.082031 61.261719 167.5625 75.398438 C 168.042969 89.539062 168.511719 109.503906 168.988281 128.039062 C 169.46875 146.578125 169.9375 163.683594 168.988281 174.972656 C 168.042969 186.261719 165.65625 191.722656 166.375 196.484375 C 167.082031 201.234375 170.898438 205.277344 175.300781 206.226562 C 179.703125 207.175781 184.703125 205.039062 187.441406 201.117188 C 190.175781 197.191406 190.65625 191.492188 189.335938 187.210938 C 188.027344 182.9375 184.925781 180.085938 183.507812 165.699219 C 182.078125 151.316406 182.316406 125.414062 182.917969 104.742188 C 183.515625 84.070312 184.464844 68.621094 186.613281 59.824219 C 188.757812 51.03125 192.09375 48.894531 194.9375 44.972656 C 197.785156 41.050781 200.179688 35.351562 207.4375 32.617188 C 209.984375 31.65625 213.148438 31.070312 216.542969 30.539062 C 222.875 30.820312 223.921875 30.730469 229.152344 29.839844 C 235.183594 28.8125 247.253906 26.757812 256.46875 32.144531 C 265.683594 37.535156 272.09375 50.382812 278.824219 56.75 C 285.542969 63.121094 292.570312 63.019531 297.792969 60.964844 C 303.015625 58.90625 306.410156 54.914062 308.785156 58.289062 C 311.164062 61.664062 312.511719 72.421875 313.347656 84.191406 C 314.1875 95.960938 314.527344 108.726562 313.5 120.113281 C 312.46875 131.503906 310.074219 141.503906 310.554688 149.671875 C 311.023438 157.824219 314.347656 164.132812 318.730469 165.101562 C 323.121094 166.070312 328.5625 161.699219 329.613281 154.550781 C 330.660156 147.40625 327.316406 137.472656 325.796875 128.140625 C 324.292969 118.808594 324.628906 110.074219 326.148438 104.183594 C 327.664062 98.304688 330.363281 95.28125 332.878906 91.578125 C 335.394531 87.882812 337.757812 83.511719 340.703125 77.792969 C 343.648438 72.082031 347.183594 65.027344 351.738281 64.515625 C 356.289062 64.007812 361.839844 70.066406 365.117188 77.960938 C 368.390625 85.859375 369.410156 95.609375 368.910156 107.707031 C 368.851562 109.226562 368.761719 110.773438 368.660156 112.347656 C 368.140625 120.265625 367.183594 129 366.574219 138.121094 C 366.332031 141.765625 366.144531 145.476562 366.054688 149.210938 C 365.714844 164.164062 367.0625 179.625 367.902344 193.75 C 368.738281 207.875 369.078125 220.640625 367.902344 230.382812 C 366.722656 240.125 364.027344 246.851562 365.714844 252.730469 C 367.402344 258.609375 373.453125 263.652344 378.503906 263.320312 C 383.554688 262.980469 387.589844 257.273438 388.777344 248.867188 C 389.964844 240.464844 388.269531 229.375 385.753906 217.277344 C 383.226562 205.179688 379.863281 192.074219 379.863281 175.773438 C 379.863281 159.472656 383.238281 139.976562 386.589844 122.160156 C 389.945312 104.34375 393.320312 88.214844 395.007812 74.9375 C 396.683594 61.664062 396.683594 51.242188 400.230469 44.355469 C 403.773438 37.464844 410.84375 34.101562 416.5625 30.410156 C 417.679688 29.691406 418.738281 28.953125 419.816406 28.222656 C 423.621094 26.097656 427.238281 24.070312 431.5 22.40625 C 435.203125 20.957031 439.386719 19.800781 443.789062 18.910156 C 447.652344 18.28125 451.867188 17.742188 456.21875 17.242188 C 460.863281 16.945312 465.214844 17.074219 468.402344 17.953125 C 472.921875 19.199219 475.058594 21.933594 476.367188 25.617188 C 477.675781 29.300781 478.15625 33.933594 478.5625 40.171875 C 478.773438 43.296875 478.964844 46.808594 478.984375 50.351562 C 478.992188 53.007812 478.902344 55.683594 478.644531 58.199219 C 478.554688 59.035156 478.453125 59.867188 478.324219 60.664062 C 478.074219 62.269531 477.734375 63.777344 477.328125 65.234375 C 476.117188 69.597656 474.3125 73.390625 472.425781 77.363281 C 470.238281 81.996094 467.953125 86.847656 467.703125 91.847656 C 467.660156 92.566406 467.671875 93.285156 467.722656 94.003906 C 468.140625 99.761719 471.59375 105.710938 476.40625 109.515625 C 481.21875 113.316406 487.421875 114.984375 493.3125 114.625 C 499.203125 114.265625 504.800781 111.890625 508.488281 108.207031 C 512.179688 104.523438 513.96875 99.53125 514.257812 94.300781 C 514.367188 92.347656 514.265625 90.347656 513.96875 88.3125 C 513.457031 84.917969 512.371094 81.40625 510.683594 77.734375 C 508.007812 71.851562 503.84375 65.554688 501.878906 60.203125 C 500.898438 57.53125 500.46875 55.09375 500.429688 52.789062 C 500.390625 50.484375 500.75 48.296875 501.335938 46.128906 C 502.226562 42.875 503.652344 39.652344 506 36.167969 C 506.777344 35.011719 507.65625 33.8125 508.65625 32.585938 C 509.554688 31.476562 510.542969 30.328125 511.589844 29.191406 C 513.347656 27.296875 515.277344 25.398438 517.203125 23.683594 C 517.222656 23.660156 517.234375 23.660156 517.242188 23.640625 C 518.761719 22.425781 521.796875 19.988281 524.832031 18.410156 C 525.371094 18.132812 525.910156 17.894531 526.4375 17.664062 C 528.875 16.636719 531.230469 16.136719 533.148438 16.066406 L 533.246094 16.066406 C 535.59375 16.007812 537.269531 16.605469 539.078125 17.703125 C 540.894531 18.800781 542.863281 20.40625 544.257812 22.453125 C 545.65625 24.5 546.484375 26.996094 547.144531 29.402344 C 547.792969 31.808594 548.273438 34.121094 548.871094 37.1875 C 549.472656 40.25 550.179688 44.054688 553.273438 46.011719 C 554.820312 46.988281 556.96875 47.507812 559.144531 47.5 L 559.175781 47.5 C 561.339844 47.476562 563.546875 46.929688 565.234375 45.769531 C 566.253906 45.074219 567.09375 44.15625 567.792969 43.125 C 569.429688 40.761719 570.386719 37.824219 571.476562 35.75 C 572.132812 34.839844 572.992188 33.753906 573.992188 32.855469 C 574.320312 32.554688 574.671875 32.277344 575.039062 32.027344 C 576.257812 31.199219 577.625 30.75 579.113281 30.710938 L 579.421875 30.710938 C 580.339844 30.757812 581.261719 30.949219 582.199219 31.269531 C 582.789062 31.46875 583.398438 31.738281 584.015625 32.046875 C 584.386719 32.234375 584.773438 32.445312 585.164062 32.675781 C 585.433594 32.835938 585.703125 32.984375 585.984375 33.164062 C 587.230469 34.09375 588.429688 35.28125 589.515625 36.769531 C 590.285156 37.835938 590.996094 39.042969 591.613281 40.78125 C 591.78125 41.257812 591.953125 41.789062 592.113281 42.359375 C 592.921875 45.28125 593.539062 49.476562 593.890625 56.023438 C 593.941406 56.851562 593.980469 57.71875 594.007812 58.628906 C 594.050781 59.515625 594.078125 60.453125 594.109375 61.414062 L 594.109375 61.503906 C 594.140625 62.460938 594.160156 63.457031 594.179688 64.476562 L 594.179688 64.535156 C 594.199219 65.566406 594.21875 66.625 594.230469 67.710938 L 594.230469 67.800781 C 594.25 69.449219 594.269531 71.164062 594.277344 72.929688 L 594.277344 72.972656 C 594.359375 86.6875 594.109375 103.566406 594.167969 118.238281 C 594.167969 120.753906 594.199219 123.210938 594.21875 125.59375 L 594.21875 125.824219 C 594.257812 129.347656 594.308594 132.742188 594.367188 136.027344 L 594.367188 136.375 C 594.589844 148.652344 594.878906 159.261719 594.816406 168.945312 C 594.738281 183.109375 593.898438 195.285156 592.480469 202.59375 C 591.054688 209.898438 589.027344 212.335938 588.078125 216.578125 C 587.121094 220.820312 587.230469 226.847656 589.796875 231.339844 C 590.085938 231.839844 590.40625 232.320312 590.746094 232.777344 C 593.480469 236.429688 597.902344 238.695312 602.007812 238.269531 C 606.621094 237.777344 610.8125 233.867188 612.800781 229.722656 C 614.675781 225.769531 614.535156 221.609375 613.796875 217.816406 C 613.757812 217.625 613.726562 217.4375 613.6875 217.246094 C 613.347656 215.640625 612.890625 214.121094 612.410156 212.625 C 611.710938 210.4375 610.941406 208.3125 610.292969 206.148438 C 609.234375 202.601562 608.515625 198.921875 608.246094 181.003906 C 608.246094 180.425781 608.226562 179.835938 608.226562 179.226562 C 608.226562 178.617188 608.21875 178 608.207031 177.359375 C 608.175781 174.8125 608.15625 172.03125 608.148438 169.074219 L 608.148438 169.054688 C 608.066406 149.101562 608.335938 121.191406 608.867188 102.65625 C 609.496094 80.6875 610.503906 71.863281 611.300781 66.355469 C 612.101562 60.855469 612.691406 58.667969 613.828125 57.242188 C 614.964844 55.8125 616.644531 55.144531 618.289062 54.84375 C 619.308594 54.664062 620.316406 54.636719 621.335938 54.714844 C 621.683594 54.746094 622.042969 54.785156 622.402344 54.835938 C 629.722656 57.46875 637.519531 59.039062 645.515625 58.648438 C 650.347656 58.410156 655.242188 57.449219 660.042969 56.011719 C 661.480469 55.582031 662.910156 55.113281 664.335938 54.59375 C 665.855469 54.046875 667.363281 53.457031 668.859375 52.828125 C 678.214844 48.855469 686.78125 43.445312 693.179688 38.394531 C 693.851562 37.867188 694.488281 37.347656 695.109375 36.828125 C 695.226562 36.726562 695.347656 36.628906 695.46875 36.527344 C 696.105469 35.988281 696.714844 35.460938 697.304688 34.929688 C 698.273438 35.671875 699.222656 36.417969 700.160156 37.195312 C 728.875 61.074219 739.207031 104.773438 739.535156 147.695312 C 739.765625 176.941406 735.351562 205.808594 730.332031 230.632812 C 729.960938 232.476562 729.582031 234.296875 729.203125 236.101562 C 728.933594 237.378906 728.664062 238.636719 728.394531 239.894531 C 726.65625 247.980469 724.890625 255.554688 723.28125 262.441406 C 721.675781 269.339844 720.21875 275.570312 718.949219 281.238281 C 718.558594 282.984375 718.191406 284.683594 717.851562 286.328125 L 717.640625 287.347656 C 714.425781 302.820312 713.148438 313.96875 715.277344 323.871094 C 718.378906 338.414062 728.792969 350.292969 740.226562 349.714844 C 743.582031 349.542969 747.003906 348.296875 750.269531 346.269531 C 750.730469 345.980469 751.1875 345.679688 751.636719 345.359375 C 751.855469 345.210938 752.066406 345.050781 752.285156 344.890625 C 759.285156 339.710938 765.144531 330.96875 766.992188 321.613281 C 769.859375 307.140625 763.148438 291.21875 759.136719 272.535156 C 755.113281 253.847656 753.792969 232.378906 755.101562 213.472656 C 756.410156 194.566406 760.375 178.238281 762.128906 158.304688 C 763.117188 147.105469 763.417969 134.777344 763.558594 122.53125 L 763.558594 122.441406 C 763.609375 118.378906 763.636719 114.324219 763.667969 110.332031 L 763.667969 110.261719 C 763.6875 107.617188 763.707031 105.003906 763.738281 102.425781 C 763.769531 99.78125 763.808594 97.175781 763.859375 94.632812 C 763.867188 93.972656 763.886719 93.3125 763.898438 92.65625 C 763.925781 91.476562 763.957031 90.308594 763.996094 89.152344 C 764.015625 88.453125 764.046875 87.753906 764.078125 87.066406 C 764.117188 85.96875 764.175781 84.878906 764.238281 83.800781 C 764.277344 83.0625 764.328125 82.335938 764.375 81.605469 C 764.445312 80.578125 764.527344 79.558594 764.617188 78.550781 C 764.625 78.429688 764.636719 78.320312 764.644531 78.203125 C 765.605469 67.992188 767.742188 58.886719 772.882812 51 C 774.320312 48.796875 775.988281 46.691406 777.933594 44.683594 C 785.484375 36.878906 797.714844 30.359375 812.601562 25.488281 C 813.609375 25.277344 814.644531 25.058594 815.835938 24.828125 C 818.738281 24.261719 822.785156 23.542969 827.386719 22.945312 C 828.382812 22.8125 829.402344 22.695312 830.441406 22.574219 C 830.570312 22.574219 830.699219 22.542969 830.832031 22.535156 C 831.910156 22.414062 832.996094 22.316406 834.125 22.214844 C 834.226562 22.214844 834.335938 22.195312 834.433594 22.183594 C 846.753906 21.15625 860.863281 21.664062 868.609375 27.734375 C 881.070312 37.476562 881.769531 60.84375 884.496094 83.613281 C 887.03125 104.960938 891.332031 125.792969 891.3125 142.992188 C 891.3125 144.140625 891.292969 145.269531 891.253906 146.386719 C 891.253906 146.515625 891.234375 146.636719 891.234375 146.765625 C 890.496094 164.394531 884.484375 177.738281 879.800781 191.09375 C 875.089844 204.539062 871.726562 217.984375 873.742188 229.074219 C 875.757812 240.164062 883.167969 248.90625 891.59375 248.570312 C 898.261719 248.300781 905.539062 242.339844 909.464844 234.363281 C 910.492188 232.269531 911.300781 230.042969 911.792969 227.738281 C 913.996094 217.335938 910.003906 205.457031 909.765625 193.769531 C 909.746094 192.992188 909.753906 192.210938 909.765625 191.433594 C 910.074219 179.984375 914.65625 168.816406 916.175781 156.886719 C 916.304688 155.859375 916.421875 154.832031 916.503906 153.792969 C 916.503906 153.703125 916.503906 153.601562 916.523438 153.511719 C 917.460938 140.488281 914.148438 126.464844 913.566406 111.113281 C 913.277344 103.386719 913.679688 95.308594 914.734375 87.027344 C 915.792969 78.742188 917.511719 70.226562 919.867188 61.613281 C 920.46875 59.417969 921.105469 57.21875 921.816406 55.035156 C 922.851562 52.230469 924.121094 49.046875 925.578125 46.019531 C 926.058594 45.023438 926.558594 44.054688 927.066406 43.105469 C 929.09375 39.421875 931.390625 36.367188 933.835938 33.894531 C 933.855469 33.875 933.867188 33.851562 933.886719 33.84375 C 935.363281 32.355469 936.902344 31.070312 938.5 29.980469 C 942.730469 27.066406 947.246094 25.527344 951.597656 25.289062 C 955.949219 25.050781 960.105469 26.117188 965.285156 28.613281 C 970.136719 30.949219 975.886719 34.542969 979.332031 39.933594 C 979.5625 40.292969 979.78125 40.660156 979.992188 41.03125 C 983.328125 47.027344 983.804688 55.113281 983.566406 61.820312 C 983.445312 65.175781 983.148438 68.191406 983.046875 70.957031 C 983.015625 71.644531 983.007812 72.324219 983.007812 72.980469 C 983.015625 74.957031 983.195312 76.8125 983.6875 78.570312 C 984.992188 83.261719 988.566406 87.304688 992.851562 87.84375 C 993.121094 87.875 993.390625 87.894531 993.660156 87.902344 C 994.308594 87.925781 994.976562 87.855469 995.636719 87.722656 C 999.132812 87.054688 1002.574219 84.550781 1004.214844 81.367188 C 1005.25 79.351562 1005.5625 77.054688 1005.5625 74.609375 C 1005.5625 74 1005.539062 73.371094 1005.5 72.742188 C 1005.460938 72.113281 1005.421875 71.472656 1005.359375 70.824219 C 1005.25 69.527344 1005.113281 68.210938 1004.992188 66.871094 C 1004.511719 61.523438 1004.402344 55.941406 1004.101562 51.25 C 1003.804688 46.558594 1003.335938 42.757812 1003.984375 39.722656 C 1004.441406 37.605469 1005.460938 35.878906 1007.058594 34.632812 C 1007.746094 34.09375 1008.535156 33.644531 1009.445312 33.304688 C 1011.632812 32.484375 1014.488281 32.257812 1017.222656 31.746094 C 1018.269531 31.546875 1019.300781 31.316406 1020.277344 30.988281 C 1020.398438 30.949219 1020.515625 30.890625 1020.636719 30.847656 C 1023.980469 29.621094 1026.597656 27.335938 1028.425781 24.988281 C 1028.785156 24.519531 1029.113281 24.050781 1029.433594 23.59375 C 1029.84375 22.992188 1030.222656 22.40625 1030.582031 21.84375 C 1031.179688 20.925781 1031.757812 20.089844 1032.40625 19.441406 C 1032.4375 19.410156 1032.46875 19.371094 1032.496094 19.339844 C 1032.699219 19.148438 1032.898438 18.96875 1033.117188 18.820312 C 1034.84375 17.574219 1037.230469 17.574219 1039.488281 18.113281 C 1041.742188 18.652344 1043.890625 19.71875 1045.917969 21.085938 C 1047.644531 22.253906 1049.289062 23.640625 1050.628906 25.25 C 1051.808594 27.027344 1052.636719 29.03125 1053.273438 31.277344 C 1055.402344 38.734375 1055.402344 48.804688 1056.46875 62.609375 C 1057.539062 76.414062 1059.785156 94.671875 1060.613281 110.703125 C 1061.441406 126.734375 1060.882812 141.644531 1058.6875 154.320312 C 1056.5 167 1052.65625 177.808594 1052.726562 185.734375 C 1052.785156 193.660156 1057.046875 199.058594 1062.667969 201.117188 C 1066.183594 202.394531 1070.277344 202.445312 1073.703125 200.886719 C 1073.722656 200.886719 1073.742188 200.867188 1073.761719 200.855469 C 1074.769531 200.386719 1075.707031 199.789062 1076.566406 199.03125 C 1077.425781 198.261719 1078.195312 197.351562 1078.832031 196.265625 C 1082.269531 190.484375 1081.980469 180.042969 1080.0625 170.542969 C 1078.144531 161.039062 1074.582031 152.457031 1073.480469 136.613281 C 1072.382812 120.773438 1073.75 97.65625 1074.441406 80.507812 C 1075.128906 63.359375 1075.128906 52.167969 1076.21875 45.09375 C 1077.125 39.234375 1078.785156 36.1875 1081.648438 34.34375 C 1082.019531 34.101562 1082.417969 33.882812 1082.828125 33.683594 C 1082.835938 33.683594 1082.847656 33.683594 1082.855469 33.664062 C 1083.097656 33.542969 1083.347656 33.433594 1083.605469 33.335938 C 1084.484375 32.976562 1085.472656 32.675781 1086.5 32.394531 C 1087.039062 32.257812 1087.601562 32.117188 1088.167969 31.976562 C 1088.6875 31.855469 1089.207031 31.738281 1089.734375 31.617188 C 1091.253906 31.289062 1092.8125 30.949219 1094.378906 30.539062 C 1095.886719 30.140625 1097.382812 29.691406 1098.8125 29.082031 C 1098.882812 29.050781 1098.941406 29.023438 1099 28.992188 C 1103.355469 27.105469 1107.007812 23.960938 1111.28125 21.285156 C 1111.902344 20.898438 1112.53125 20.519531 1113.179688 20.160156 C 1113.417969 20.019531 1113.667969 19.890625 1113.917969 19.757812 C 1114.328125 19.539062 1114.734375 19.328125 1115.164062 19.121094 C 1115.296875 19.058594 1115.433594 19 1115.566406 18.929688 C 1118.191406 17.691406 1121.15625 16.664062 1124.75 15.828125 C 1127.59375 15.15625 1130.851562 14.609375 1134.644531 14.160156 L 1148.3125 14.160156 C 1154.5625 14.757812 1160.710938 15.308594 1165.175781 16.546875 C 1172.425781 18.542969 1175.289062 22.34375 1177.304688 25.90625 C 1179.324219 29.472656 1180.519531 32.796875 1181.121094 36.957031 C 1181.71875 41.121094 1181.71875 46.109375 1181.71875 54.304688 C 1181.71875 62.5 1181.71875 73.910156 1181.839844 84.011719 C 1181.859375 86.105469 1181.890625 88.144531 1181.917969 90.121094 C 1181.859375 93.972656 1181.828125 97.746094 1181.847656 101.308594 C 1181.738281 104.265625 1181.519531 106.960938 1181.128906 109.324219 C 1180.0625 115.742188 1177.675781 119.785156 1177.125 124.578125 C 1176.578125 129.367188 1177.863281 134.90625 1181.289062 137.464844 C 1182.789062 138.582031 1184.695312 139.128906 1186.601562 139.078125 C 1189.058594 139.03125 1191.535156 138.003906 1193.179688 135.976562 C 1196.105469 132.371094 1196.414062 125.605469 1195.136719 120.203125 C 1193.871094 114.804688 1191.003906 110.761719 1190.175781 99.351562 C 1189.347656 87.945312 1190.535156 69.167969 1190.882812 55.742188 C 1191.234375 42.316406 1190.765625 34.234375 1192.550781 30.199219 C 1193.808594 27.34375 1196.207031 26.507812 1198.632812 25.71875 C 1199.640625 25.390625 1200.648438 25.070312 1201.597656 24.621094 C 1201.996094 24.429688 1202.386719 24.210938 1202.765625 23.972656 C 1205.402344 22.335938 1207.507812 19.847656 1209.695312 18.910156 C 1210.3125 18.640625 1210.953125 18.5 1211.570312 18.492188 C 1213.429688 18.453125 1215.175781 19.570312 1216.242188 21.886719 C 1217.671875 24.96875 1217.910156 30.199219 1218.378906 38.40625 C 1218.847656 46.609375 1219.578125 58.25 1219.457031 66.324219 C 1219.339844 74.398438 1218.390625 79.160156 1218.601562 83.601562 C 1218.808594 88.054688 1220.175781 92.1875 1222.734375 93.703125 C 1223.839844 94.363281 1225.179688 94.523438 1226.46875 94.171875 C 1226.785156 94.082031 1227.105469 93.953125 1227.414062 93.804688 C 1227.457031 93.785156 1227.496094 93.761719 1227.535156 93.742188 C 1228.761719 93.09375 1229.863281 91.9375 1230.550781 90.25 C 1231.96875 86.777344 1231.648438 81.078125 1230.851562 76.1875 C 1230.761719 75.65625 1230.671875 75.128906 1230.570312 74.617188 C 1229.582031 69.429688 1228.15625 65.625 1227.785156 59.554688 C 1227.414062 53.496094 1228.15625 44.703125 1228.625 39.113281 C 1229.101562 33.523438 1229.332031 30.910156 1231.121094 28.773438 C 1232.90625 26.636719 1236.242188 24.96875 1238.976562 23.074219 C 1241.710938 21.175781 1243.859375 19.03125 1247.074219 17.511719 C 1250.289062 15.996094 1255.042969 14.996094 1260.761719 14.398438 C 1261.589844 14.308594 1262.5 14.25 1263.378906 14.179688 L 1269.527344 14.390625 C 1271.714844 14.46875 1274.691406 14.570312 1277.984375 14.859375 C 1278.382812 14.886719 1278.773438 14.929688 1279.183594 14.96875 C 1280.441406 15.085938 1281.738281 15.246094 1283.054688 15.4375 C 1283.753906 15.535156 1284.453125 15.648438 1285.152344 15.765625 C 1286.539062 16.007812 1287.929688 16.296875 1289.304688 16.636719 C 1296.027344 18.691406 1301.445312 22.40625 1305.378906 27.734375 C 1309.542969 33.375 1312.070312 40.800781 1313.257812 52.597656 C 1314.445312 64.398438 1314.296875 80.578125 1314.148438 91.046875 C 1314.058594 97.296875 1313.976562 101.488281 1314.386719 104.292969 C 1314.1875 118.546875 1313.957031 132.371094 1313.546875 142.246094 C 1313.019531 154.949219 1312.210938 161.109375 1310.550781 167.886719 C 1308.886719 174.664062 1306.359375 182.042969 1305.582031 188.699219 C 1304.800781 195.355469 1305.75 201.285156 1308.496094 205.667969 C 1310.882812 209.480469 1314.636719 212.125 1318.9375 212.984375 C 1319.078125 213.015625 1319.207031 213.035156 1319.347656 213.054688 C 1319.859375 213.144531 1320.378906 213.214844 1320.90625 213.253906 L 1321.054688 213.253906 C 1326.128906 213.5625 1331.730469 211.4375 1334.894531 206.976562 C 1338.089844 202.472656 1338.828125 195.597656 1337.039062 187.761719 C 1335.261719 179.925781 1330.96875 171.132812 1328.832031 155.800781 C 1326.695312 140.46875 1326.695312 118.609375 1326.695312 100.300781 C 1326.695312 95.339844 1326.695312 90.617188 1326.746094 86.175781 C 1327.246094 78.160156 1327.4375 69.457031 1328.183594 63.507812 C 1329.394531 53.855469 1334.355469 49.664062 1337.96875 46.640625 C 1338.179688 46.519531 1338.40625 46.378906 1338.667969 46.21875 C 1338.667969 46.21875 1338.746094 46.171875 1338.789062 46.152344 C 1338.925781 46.0625 1339.078125 45.972656 1339.238281 45.882812 C 1339.816406 45.5625 1340.394531 45.253906 1340.972656 44.933594 C 1345.738281 42.316406 1350.5 39.234375 1354.183594 35.191406 C 1357.875 31.148438 1360.492188 26.15625 1362.507812 22.59375 C 1363.816406 20.289062 1366.882812 17.871094 1369.546875 16.324219 C 1371.925781 16.296875 1374.949219 17.414062 1377.617188 19.152344 C 1380.699219 21.167969 1383.324219 24.023438 1386.121094 27.90625 C 1388.917969 31.789062 1391.890625 36.699219 1392.339844 46.242188 C 1392.789062 55.78125 1390.722656 69.96875 1394.476562 77.644531 C 1396.355469 81.484375 1399.699219 83.691406 1403.042969 84.171875 C 1406.390625 84.648438 1409.753906 83.382812 1411.660156 80.277344 C 1415.496094 74.058594 1413.566406 60.453125 1414.027344 50.5625 C 1414.148438 48.964844 1414.285156 47.4375 1414.445312 45.972656 C 1415.464844 38.65625 1418.019531 33.582031 1421.414062 29.03125 C 1422.933594 27.007812 1424.628906 25.070312 1426.507812 23.402344 C 1427.085938 22.945312 1427.753906 22.484375 1428.464844 22.234375 C 1429.8125 21.753906 1431.269531 22.003906 1432.527344 23.253906 C 1433.617188 24.339844 1434.554688 26.199219 1434.992188 29.699219 C 1435.125 32.265625 1435.09375 35.25 1435.171875 38.386719 C 1435.203125 39.382812 1435.234375 40.402344 1435.292969 41.410156 C 1435.292969 43.546875 1435.3125 45.59375 1435.433594 47.296875 C 1435.742188 51.808594 1436.742188 53.9375 1438.007812 56.113281 C 1438.058594 56.191406 1438.117188 56.28125 1438.167969 56.363281 C 1438.207031 56.453125 1438.25 56.550781 1438.296875 56.632812 C 1438.996094 58.007812 1439.835938 59.117188 1440.746094 60.066406 C 1441.402344 60.863281 1442.101562 61.632812 1442.902344 62.320312 C 1444.238281 63.46875 1445.796875 64.425781 1447.164062 65.445312 C 1447.363281 65.636719 1447.574219 65.816406 1447.792969 66.003906 C 1449.269531 67.550781 1450.289062 69.269531 1451.238281 71.214844 C 1451.476562 71.933594 1451.695312 72.652344 1451.925781 73.339844 C 1452.613281 75.335938 1453.484375 77.042969 1454.324219 78.453125 C 1455.160156 79.859375 1455.941406 80.988281 1456.917969 81.984375 C 1457.886719 82.984375 1459.144531 83.941406 1460.34375 84.75 C 1460.800781 85.070312 1461.589844 85.390625 1461.871094 85.660156 C 1462.679688 86.066406 1463.578125 86.425781 1464.546875 86.636719 C 1465.714844 86.886719 1466.972656 86.957031 1468.21875 86.804688 C 1468.519531 86.777344 1468.820312 86.726562 1469.117188 86.65625 C 1469.1875 86.636719 1469.257812 86.617188 1469.328125 86.605469 C 1469.566406 86.546875 1469.808594 86.476562 1470.039062 86.398438 C 1470.945312 86.097656 1471.816406 85.667969 1472.613281 85.058594 C 1472.914062 84.839844 1473.191406 84.601562 1473.460938 84.339844 C 1475.519531 82.324219 1476.65625 78.960938 1477.886719 76.34375 C 1477.984375 76.136719 1478.085938 75.925781 1478.183594 75.714844 C 1478.34375 75.398438 1478.503906 75.078125 1478.671875 74.796875 C 1479.773438 72.929688 1481.078125 71.953125 1482.359375 71.734375 C 1483.546875 71.675781 1484.695312 72.324219 1485.574219 73.289062 C 1485.902344 73.671875 1486.203125 74.097656 1486.449219 74.660156 C 1486.511719 74.789062 1486.5625 74.929688 1486.621094 75.058594 C 1487.460938 77.234375 1487.898438 81.234375 1488.269531 90.609375 C 1488.636719 100.042969 1488.945312 114.914062 1489.195312 130.914062 C 1489.167969 135.824219 1489.128906 141.15625 1489.117188 147.015625 C 1489.066406 165.429688 1489.167969 188.949219 1488.386719 204.980469 C 1487.597656 221.007812 1483.796875 232.027344 1482.746094 241.511719 C 1481.699219 250.996094 1481.640625 256.972656 1484.304688 263.183594 C 1485.800781 266.675781 1488.859375 269.429688 1491.980469 271.238281 C 1492.0625 271.277344 1492.132812 271.316406 1492.210938 271.355469 C 1492.710938 271.636719 1493.210938 271.886719 1493.710938 272.117188 C 1495.566406 272.972656 1497.375 273.484375 1498.800781 273.601562 C 1499.121094 273.621094 1499.421875 273.621094 1499.71875 273.632812 L 1499.71875 -143.589844 Z M 1499.960938 -143.589844 " fill-opacity="0.99" fill-rule="nonzero"/><path fill="#ee70ae" d="M 810.324219 158.625 C 815.515625 158.863281 818.570312 151.796875 823.992188 148.980469 C 829.414062 146.167969 837.191406 147.574219 840.375 144.160156 C 843.558594 140.746094 842.140625 132.511719 836.25 126.753906 C 830.359375 120.992188 819.988281 117.699219 811.621094 120.875 C 803.253906 124.046875 796.894531 133.691406 797.363281 142.285156 C 797.832031 150.867188 805.140625 158.40625 810.324219 158.632812 Z M 810.324219 158.625 " fill-opacity="0.99" fill-rule="nonzero"/><path fill="#ee70ae" d="M 422.164062 137.09375 C 422.375 140.917969 424.371094 144.949219 427.386719 146.578125 C 430.402344 148.203125 434.414062 147.433594 438.1875 145.667969 C 441.960938 143.902344 445.476562 141.144531 445.296875 137.375 C 445.109375 133.601562 441.214844 128.808594 437.230469 126.753906 C 433.238281 124.695312 429.171875 125.363281 426.347656 127.5 C 423.53125 129.648438 421.953125 133.261719 422.175781 137.082031 Z M 422.164062 137.09375 " fill-opacity="0.99" fill-rule="nonzero"/><path fill="#ee70ae" d="M 1387.269531 212.703125 C 1386.53125 217.148438 1387.179688 222.496094 1390.085938 225.210938 C 1392.992188 227.925781 1398.152344 227.996094 1400.898438 225.902344 C 1403.632812 223.8125 1403.953125 219.5625 1403.753906 215.558594 C 1403.554688 211.558594 1402.855469 207.792969 1402.855469 204.730469 C 1402.855469 201.664062 1403.5625 199.320312 1404.503906 196.84375 C 1405.441406 194.378906 1406.617188 191.78125 1406.859375 189.546875 C 1407.097656 187.3125 1406.390625 185.433594 1406.859375 181.78125 C 1407.328125 178.128906 1408.976562 172.71875 1407.597656 167.109375 C 1406.21875 161.5 1401.808594 155.6875 1398.03125 148.394531 C 1394.257812 141.097656 1391.132812 132.324219 1390.296875 123.738281 C 1389.464844 115.152344 1390.933594 106.769531 1391.183594 104.3125 C 1391.433594 101.859375 1390.453125 105.320312 1389.734375 108.617188 C 1389.015625 111.910156 1388.558594 115.035156 1388.546875 120.785156 C 1388.539062 126.53125 1388.976562 134.917969 1392.382812 143.472656 C 1395.785156 152.015625 1402.144531 160.71875 1402.625 170.371094 C 1403.09375 180.015625 1397.671875 190.605469 1393.910156 197.664062 C 1390.144531 204.71875 1388.019531 208.253906 1387.28125 212.695312 L 1387.269531 212.695312 Z M 1387.269531 212.703125 " fill-opacity="0.99" fill-rule="nonzero"/><path fill="#ee70ae" d="M 664.078125 100.980469 C 661.601562 108.277344 662.082031 113.445312 664.425781 116.621094 C 666.78125 119.796875 671.027344 120.972656 674.5625 123.449219 C 678.09375 125.914062 680.921875 129.6875 684.34375 131.683594 C 687.769531 133.679688 691.761719 133.917969 694.007812 131.5625 C 696.257812 129.207031 696.714844 124.265625 695.066406 119.445312 C 693.421875 114.625 689.644531 109.914062 688.230469 104.625 C 686.820312 99.332031 687.757812 93.445312 686.339844 88.394531 C 684.933594 83.332031 681.148438 79.101562 676.558594 81.683594 C 671.953125 84.269531 666.535156 93.683594 664.066406 100.980469 L 664.085938 100.980469 Z M 664.078125 100.980469 " fill-opacity="0.99" fill-rule="nonzero"/><path fill="#ee70ae" d="M 541.0625 117.351562 C 540.484375 120.671875 542.480469 124.335938 543.371094 127.640625 C 544.257812 130.945312 543.691406 138.492188 546.105469 140.738281 C 548.523438 142.984375 553.742188 142.234375 557.277344 140.277344 C 560.8125 138.320312 562.640625 135.15625 565.054688 133.410156 C 567.472656 131.664062 570.476562 131.335938 572.382812 129.335938 C 574.300781 127.339844 575.128906 123.679688 573.300781 119.6875 C 571.476562 115.691406 566.972656 111.371094 562.300781 109.375 C 557.628906 107.378906 552.804688 107.707031 548.800781 109.375 C 544.796875 111.042969 541.632812 114.035156 541.054688 117.359375 Z M 541.0625 117.351562 " fill-opacity="0.99" fill-rule="nonzero"/><path fill="#ee70ae" d="M 528.355469 170.210938 C 525.609375 173.445312 524.769531 177.796875 521.894531 181.621094 C 519.007812 185.445312 514.058594 188.738281 511.113281 192.5 C 508.167969 196.265625 507.21875 200.496094 501.269531 205.648438 C 495.316406 210.796875 484.355469 216.847656 475.789062 219.703125 C 467.222656 222.554688 461.03125 222.207031 456.609375 225.023438 C 452.1875 227.847656 449.539062 233.847656 451.628906 238.667969 C 453.714844 243.488281 460.554688 247.140625 465.027344 245.992188 C 469.507812 244.84375 471.625 238.90625 474.449219 236.878906 C 477.277344 234.855469 480.8125 236.730469 482.816406 234.496094 C 484.824219 232.257812 485.285156 225.910156 488.949219 221.4375 C 492.601562 216.964844 499.441406 214.382812 504.003906 209.628906 C 508.578125 204.878906 510.863281 197.972656 513.886719 193.648438 C 516.902344 189.328125 520.648438 187.589844 523.222656 183.917969 C 525.796875 180.246094 527.214844 174.625 530.070312 171.050781 C 532.925781 167.476562 537.230469 165.949219 539.875 160.082031 C 542.523438 154.210938 543.492188 144.011719 543.3125 143.730469 C 543.132812 143.460938 541.792969 153.113281 538.789062 158.992188 C 535.78125 164.871094 531.109375 166.980469 528.355469 170.210938 L 528.335938 170.210938 Z M 528.355469 170.210938 " fill-opacity="0.99" fill-rule="nonzero"/><path fill="#ee70ae" d="M 248.273438 129.097656 C 254.421875 130.707031 262.03125 127.8125 265.984375 121.03125 C 269.9375 114.265625 270.226562 103.613281 268.03125 95.878906 C 265.835938 88.144531 261.152344 83.300781 256.519531 81.753906 C 251.886719 80.207031 247.324219 81.945312 242.960938 82.273438 C 238.597656 82.605469 234.464844 81.515625 230.160156 83.871094 C 225.859375 86.226562 221.40625 92.027344 221.816406 97.824219 C 222.222656 103.625 227.484375 109.433594 232.46875 115.394531 C 237.449219 121.363281 242.132812 127.492188 248.273438 129.097656 Z M 248.273438 129.097656 " fill-opacity="0.99" fill-rule="nonzero"/><path fill="#ee70ae" d="M 1119.480469 184.527344 C 1116.203125 190.4375 1114.707031 200.855469 1118.402344 208.023438 C 1122.09375 215.191406 1130.980469 219.082031 1139.636719 223.394531 C 1148.300781 227.695312 1156.75 232.410156 1164.21875 230.34375 C 1171.683594 228.277344 1178.183594 219.441406 1178.59375 208.113281 C 1179.003906 196.785156 1173.34375 182.9375 1166.652344 174.496094 C 1159.964844 166.050781 1152.246094 162.996094 1146.425781 164.113281 C 1140.613281 165.230469 1136.703125 170.53125 1132.238281 173.886719 C 1127.765625 177.230469 1122.742188 178.628906 1119.46875 184.535156 Z M 1119.480469 184.527344 " fill-opacity="0.99" fill-rule="nonzero"/><path fill="#ee70ae" d="M 1269.667969 134.636719 C 1274.511719 136.414062 1278.054688 132.273438 1280.929688 128.230469 C 1283.804688 124.1875 1285.972656 120.246094 1285.082031 116.003906 C 1284.195312 111.761719 1280.242188 107.226562 1278.363281 102.109375 C 1276.488281 96.976562 1276.6875 91.269531 1273.324219 89.292969 C 1269.957031 87.324219 1263.050781 89.089844 1260.09375 91.757812 C 1257.136719 94.421875 1258.117188 97.964844 1257.527344 102.40625 C 1256.9375 106.847656 1254.773438 112.160156 1256.738281 118.667969 C 1258.707031 125.175781 1264.835938 132.863281 1269.679688 134.636719 Z M 1269.667969 134.636719 " fill-opacity="0.99" fill-rule="nonzero"/><path fill="#ee70ae" d="M 963.359375 101.929688 C 962.25 98.34375 957.738281 96.128906 953.085938 96.859375 C 948.433594 97.597656 943.648438 101.289062 941.035156 105.292969 C 938.429688 109.292969 938.019531 113.597656 939.417969 118.070312 C 940.824219 122.539062 944.058594 127.183594 947.824219 130.585938 C 951.585938 134 955.871094 136.183594 959.566406 134.878906 C 963.257812 133.570312 966.332031 128.769531 966.292969 124.9375 C 966.242188 121.101562 963.058594 118.238281 962.609375 114.335938 C 962.160156 110.433594 964.445312 105.5 963.339844 101.917969 L 963.347656 101.917969 Z M 963.359375 101.929688 " fill-opacity="0.99" fill-rule="nonzero"/><path fill="#ee70ae" d="M 94.808594 245.921875 C 99.941406 246.613281 104.492188 247.988281 106.660156 245.433594 C 108.824219 242.878906 108.625 236.359375 106.957031 231.140625 C 105.28125 225.921875 102.117188 221.976562 98.371094 220.199219 C 94.628906 218.425781 90.277344 218.824219 85.53125 221.089844 C 80.789062 223.355469 75.648438 227.496094 74.371094 231.828125 C 73.09375 236.171875 75.648438 240.703125 79.800781 242.96875 C 83.957031 245.234375 89.6875 245.234375 94.808594 245.921875 Z M 94.808594 245.921875 " fill-opacity="0.99" fill-rule="nonzero"/><path fill="#ee70ae" d="M 1120.6875 47.746094 C 1116.703125 48.726562 1114.335938 50.53125 1113.777344 53.046875 C 1113.21875 55.554688 1114.476562 58.765625 1115.105469 61.203125 C 1115.734375 63.636719 1115.734375 65.316406 1118.101562 66.015625 C 1120.476562 66.714844 1125.21875 66.433594 1127.746094 65.035156 C 1130.25 63.636719 1130.53125 61.132812 1131.519531 57.859375 C 1132.507812 54.585938 1134.164062 50.542969 1132.21875 48.585938 C 1130.269531 46.640625 1124.679688 46.78125 1120.695312 47.746094 Z M 1120.6875 47.746094 " fill-opacity="0.99" fill-rule="nonzero"/><path fill="#ee70ae" d="M 1438.546875 135.546875 C 1440.046875 136.964844 1440.753906 138.101562 1442.859375 137.683594 C 1444.957031 137.261719 1448.453125 135.296875 1449.769531 133.410156 C 1451.089844 131.523438 1450.25 129.71875 1449.609375 127.132812 C 1448.972656 124.546875 1448.542969 121.171875 1446.234375 120.582031 C 1443.929688 119.996094 1439.746094 122.179688 1437.140625 124.335938 C 1434.535156 126.492188 1433.484375 128.609375 1434.125 130.515625 C 1434.753906 132.433594 1437.058594 134.128906 1438.566406 135.546875 Z M 1438.546875 135.546875 " fill-opacity="0.99" fill-rule="nonzero"/><path fill="#008bd8" d="M 78.183594 2.78125 C 77.1875 5.816406 73.910156 7.460938 70.875 6.464844 L 38.507812 -4.214844 C 35.472656 -5.214844 33.824219 -8.488281 34.824219 -11.523438 C 35.824219 -14.558594 39.097656 -16.203125 42.132812 -15.207031 L 74.5 -4.527344 C 77.535156 -3.527344 79.183594 -0.253906 78.183594 2.78125 Z M 227.117188 -77.910156 L 253.066406 -100.011719 C 255.5 -102.085938 255.789062 -105.738281 253.714844 -108.164062 C 251.636719 -110.601562 247.984375 -110.890625 245.558594 -108.816406 L 219.609375 -86.714844 C 217.171875 -84.640625 216.882812 -80.984375 218.960938 -78.558594 C 221.035156 -76.125 224.691406 -75.835938 227.117188 -77.910156 Z M 484.613281 -23.550781 L 463.757812 -50.511719 C 461.800781 -53.035156 458.167969 -53.507812 455.640625 -51.550781 C 453.113281 -49.59375 452.644531 -45.960938 454.601562 -43.433594 L 475.460938 -16.472656 C 477.417969 -13.949219 481.050781 -13.480469 483.578125 -15.4375 C 486.101562 -17.390625 486.570312 -21.027344 484.613281 -23.550781 Z M 660.582031 -53.625 L 684.683594 -77.722656 C 686.941406 -79.976562 686.941406 -83.652344 684.683594 -85.90625 C 682.429688 -88.164062 678.753906 -88.164062 676.496094 -85.90625 L 652.394531 -61.8125 C 650.140625 -59.554688 650.140625 -55.882812 652.394531 -53.625 C 654.652344 -51.371094 658.328125 -51.371094 660.582031 -53.625 Z M 914.957031 -126.421875 L 890.855469 -102.328125 C 888.597656 -100.070312 888.597656 -96.398438 890.855469 -94.140625 C 893.109375 -91.886719 896.785156 -91.886719 899.042969 -94.140625 L 923.144531 -118.238281 C 925.398438 -120.492188 925.398438 -124.167969 923.144531 -126.421875 C 920.886719 -128.679688 917.210938 -128.679688 914.957031 -126.421875 Z M 1054.484375 -104.59375 L 1087.628906 -96.648438 C 1090.734375 -95.898438 1093.859375 -97.816406 1094.609375 -100.929688 C 1095.355469 -104.035156 1093.441406 -107.15625 1090.324219 -107.90625 L 1057.179688 -115.851562 C 1054.074219 -116.601562 1050.949219 -114.683594 1050.199219 -111.570312 C 1049.449219 -108.464844 1051.367188 -105.339844 1054.484375 -104.59375 Z M 1333.714844 -53.265625 L 1359.972656 -31.527344 C 1362.441406 -29.492188 1366.085938 -29.828125 1368.121094 -32.296875 C 1370.15625 -34.761719 1369.816406 -38.402344 1367.351562 -40.441406 L 1341.09375 -62.179688 C 1338.628906 -64.214844 1334.984375 -63.878906 1332.945312 -61.410156 C 1330.910156 -58.945312 1331.25 -55.304688 1333.714844 -53.265625 Z M 1333.714844 -53.265625 " fill-opacity="1" fill-rule="nonzero"/><path fill="#f4aed2" d="M 759.316406 324.039062 C 758.40625 327.066406 756.738281 332.15625 752.328125 336.386719 C 750.597656 338.042969 745.1875 343.246094 740.085938 341.507812 C 738.398438 340.929688 736.011719 339.351562 735.632812 337.066406 C 734.804688 332.105469 744.429688 329.890625 749.789062 322.332031 C 755.589844 314.148438 751.945312 305.972656 750.589844 284.574219 C 750.128906 277.355469 749.808594 266.617188 750.796875 253.289062 C 751.347656 257.390625 752.15625 263.472656 753.125 270.878906 C 754.101562 278.414062 754.234375 279.992188 754.574219 282.085938 C 757.898438 302.597656 763.25 310.914062 759.304688 324.039062 Z M 775.898438 30.808594 C 772.492188 33.3125 763.4375 40.171875 758.035156 52.429688 C 755.609375 57.960938 754.753906 62.679688 754.222656 66.265625 C 750.910156 88.621094 754.101562 107.347656 755.390625 127.3125 C 755.921875 135.507812 756.359375 147.414062 755.660156 162.039062 C 756.210938 158.292969 756.9375 152.695312 757.546875 145.886719 C 759.464844 124.1875 758.058594 112.097656 758.355469 97.167969 C 758.566406 86.894531 759.632812 72.3125 763.648438 54.535156 C 765.964844 49.484375 771.394531 39.523438 782.417969 31.078125 C 790.644531 24.769531 799.988281 20.925781 809.214844 19.269531 C 803.183594 19.53125 789.207031 20.976562 775.886719 30.800781 Z M 94.667969 161.238281 C 95.386719 160.378906 98.632812 156.40625 100.191406 150.03125 C 101.636719 144.082031 100.878906 139.109375 99.582031 132.871094 C 96.773438 119.375 94.71875 115.773438 92.652344 106.839844 C 89.957031 95.230469 89.835938 85.917969 89.796875 79.539062 C 89.757812 73.582031 89.746094 63.359375 92.710938 50.402344 C 94.957031 40.601562 98.101562 32.734375 100.699219 27.1875 C 93.609375 37.757812 90.855469 46.121094 89.667969 50.972656 C 89.027344 53.566406 88.457031 56.722656 88.398438 57.019531 C 87.199219 63.617188 86.902344 68.519531 86.542969 74.726562 C 86.140625 81.59375 85.941406 85.027344 86.203125 89.949219 C 86.441406 94.433594 86.910156 97.65625 87.449219 101.320312 C 88.808594 110.5625 90.675781 117.917969 91.394531 120.652344 C 93.101562 127.183594 93.621094 127.621094 94.328125 131.824219 C 95.347656 137.890625 95.21875 142.554688 95.136719 144.28125 C 94.96875 148.0625 94.777344 152.007812 93.0625 156.796875 C 91.445312 161.308594 89.058594 164.890625 86.75 167.597656 C 88.757812 166.550781 91.851562 164.601562 94.679688 161.238281 Z M 382.855469 123.339844 C 383.296875 120.984375 384.15625 116.589844 385.84375 107.828125 C 386.851562 102.597656 387.910156 97.367188 388.878906 92.125 C 390.40625 83.820312 391.734375 75.496094 392.164062 67.042969 C 392.410156 62.042969 392.632812 57.019531 393.46875 52.058594 C 393.949219 49.234375 394.867188 46.089844 396.804688 42.578125 C 397.953125 40.480469 400.21875 37.015625 407.558594 31.386719 C 411.613281 28.273438 417.589844 24.210938 425.589844 20.476562 C 418.96875 21.644531 407.578125 24.699219 397.554688 33.933594 C 395.917969 35.441406 393.871094 37.316406 391.894531 40.121094 C 384.035156 51.230469 387.730469 61.640625 386.769531 81.304688 C 386.070312 95.550781 383.957031 93.535156 381.109375 118.71875 C 379.832031 130.015625 379.253906 139.359375 378.953125 145.636719 C 380.492188 136.234375 381.867188 128.628906 382.867188 123.347656 Z M 5.542969 145.289062 C 5.789062 111.371094 8.007812 79.699219 11.410156 50.613281 C 7.636719 66.804688 6.121094 79.917969 5.429688 88.960938 C 5.273438 91.007812 5.363281 90.210938 4.5625 104.742188 C 3.035156 132.53125 2.867188 132.730469 2.734375 139.167969 C 2.566406 147.464844 2.695312 156.558594 3.472656 168.535156 C 3.933594 175.59375 4.542969 182.621094 6.339844 189.496094 C 5.722656 175.285156 5.429688 160.539062 5.542969 145.296875 Z M 1068.519531 140.738281 C 1068.988281 147.003906 1069.757812 153.164062 1069.757812 153.164062 C 1070.296875 157.464844 1070.605469 159.003906 1071.035156 162.039062 C 1072.753906 174.105469 1073.730469 180.984375 1071.546875 188.558594 C 1070.875 190.863281 1069.609375 194.320312 1066.964844 198.25 C 1068.171875 198.390625 1071.226562 198.5625 1073.703125 196.632812 C 1075.847656 194.96875 1076.507812 192.542969 1076.898438 190.707031 C 1078.722656 182.070312 1077.328125 173.128906 1077.195312 172.339844 C 1074.730469 157.246094 1072.804688 152.804688 1071.535156 140.648438 C 1071.265625 138.042969 1071.144531 136.285156 1070.925781 133.082031 C 1070.136719 121.261719 1070.199219 112.140625 1070.726562 88.980469 C 1071.125 71.722656 1071.214844 71.226562 1071.136719 71.214844 C 1070.308594 71.15625 1067.382812 125.765625 1068.5 140.746094 Z M 604.074219 201.996094 C 604.8125 206.996094 604.832031 210.007812 604.882812 216.027344 C 604.921875 221.769531 604.582031 223.542969 603.972656 225.210938 C 601.90625 230.890625 597.632812 232.96875 598.414062 234.394531 C 599.101562 235.671875 603.304688 235.472656 606.199219 233.488281 C 610.511719 230.523438 610.703125 224.472656 610.761719 222.328125 C 610.84375 219.800781 610.394531 218.804688 609.265625 213.402344 C 609.265625 213.402344 608.1875 208.253906 607.117188 201.296875 C 606.199219 195.328125 606.171875 190.875 606.160156 184.617188 C 606.140625 174.214844 606.160156 162.238281 606.308594 148.8125 C 603.15625 181.953125 603.195312 195.925781 604.09375 202.003906 L 604.082031 202.003906 Z M 1120.496094 8.890625 C 1117.03125 9.347656 1114.386719 10.394531 1113.617188 10.707031 C 1109.734375 12.292969 1108.035156 14.050781 1103.902344 16.964844 C 1103.902344 16.964844 1099.5 20.078125 1094.1875 22.921875 C 1090.773438 24.75 1085.703125 27.035156 1078.824219 28.644531 C 1082.925781 28.671875 1089.445312 28.242188 1096.585938 25.347656 C 1105.910156 21.554688 1108.714844 16.625 1117.523438 13.441406 C 1121.566406 11.984375 1127.945312 10.496094 1136.941406 11.695312 C 1133.777344 10.207031 1127.746094 7.941406 1120.488281 8.898438 Z M 670.707031 34.210938 C 667.09375 35.640625 661.351562 37.90625 653.515625 40.273438 C 650.609375 41.148438 645.078125 42.746094 637.949219 44.304688 C 632.707031 45.453125 628.003906 46.261719 624.011719 46.859375 C 630 48.597656 640.445312 50.683594 652.90625 48.308594 C 663.746094 46.230469 671.234375 41.71875 674.941406 39.421875 C 683.125 34.371094 688.726562 28.621094 692.164062 24.519531 C 683.925781 28.722656 676.617188 31.875 670.726562 34.210938 Z M 197.042969 28.792969 C 194.589844 29.839844 189.996094 31.847656 186.230469 36.519531 C 183.417969 40.03125 182.386719 43.394531 180.742188 48.847656 C 179.8125 51.898438 178.734375 56.28125 178.175781 61.871094 C 177.707031 66.574219 177.945312 70.996094 178.453125 79.628906 C 178.914062 87.585938 179.304688 94.203125 179.523438 97.9375 C 179.632812 92.015625 179.960938 79.378906 181.03125 66.851562 C 181.300781 63.660156 181.648438 60.136719 183.277344 55.882812 C 185.285156 50.621094 188.539062 46.101562 189.527344 44.722656 C 190.585938 43.265625 191.464844 42.207031 193.808594 38.984375 C 195.746094 36.320312 196.914062 34.582031 197.195312 34.210938 C 199.03125 31.636719 204.164062 28.683594 218.890625 27.414062 C 215.246094 26.496094 206.417969 24.808594 197.042969 28.792969 Z M 1341.554688 40.601562 C 1345.976562 37.824219 1348.632812 36.148438 1351.226562 33.375 C 1356.878906 27.304688 1355.699219 22.882812 1361.363281 17.960938 C 1363.835938 15.804688 1366.375 14.648438 1368.03125 14.03125 C 1364.4375 13.621094 1362.082031 14.398438 1360.710938 15.039062 C 1353.40625 18.472656 1355.113281 27.164062 1346.796875 32.707031 C 1343.871094 34.660156 1342.492188 34.34375 1339.316406 37.046875 C 1336.0625 39.800781 1334.15625 42.957031 1333.046875 45.222656 C 1335.242188 44.203125 1338.21875 42.707031 1341.554688 40.609375 Z M 899.03125 240.722656 C 904.710938 236.609375 906.140625 230.171875 907.070312 225.730469 C 907.667969 222.867188 907.386719 222.398438 906.800781 206.695312 C 906.519531 199.417969 906.261719 192.472656 906.859375 185.265625 C 907.699219 175.144531 909.902344 168.316406 910.933594 164.421875 C 913.488281 154.703125 914.894531 139.519531 908.957031 116.160156 C 912.660156 135.796875 910.5625 150.078125 907.917969 159.5625 C 905.191406 169.324219 901.507812 175.332031 901.066406 187.832031 C 900.796875 195.625 902.117188 196.585938 902.144531 210.210938 C 902.1875 225.832031 900.46875 230.929688 898.023438 234.863281 C 895.109375 239.585938 891.222656 242.480469 888.519531 244.148438 C 890.816406 244.066406 895.097656 243.566406 899.042969 240.714844 Z M 338.238281 67.25 C 335.105469 70.355469 332.957031 72.503906 330.75 76.074219 C 328.433594 79.820312 327.304688 83.042969 326.257812 86.136719 C 324.332031 91.828125 322.84375 98.722656 323.621094 99.0625 C 323.820312 99.152344 324.179688 98.785156 327.316406 93.203125 C 329.550781 89.203125 330.679688 87.195312 332.179688 84.28125 C 335.613281 77.582031 335.652344 77.015625 337.128906 74.257812 C 342.222656 64.804688 347.894531 60.234375 347.484375 59.734375 C 347.09375 59.257812 342.140625 63.410156 338.269531 67.25 Z M 381.179688 256.582031 C 382.46875 256.203125 384.445312 254.617188 385.351562 245.824219 C 386.421875 235.453125 384.765625 227.148438 383.535156 221.398438 C 382.019531 214.273438 380.03125 205.757812 377.464844 196.164062 C 379.621094 206.394531 379.664062 215.300781 380.460938 222.058594 C 382.109375 235.941406 380.902344 242.519531 378.675781 246.84375 C 377.675781 248.789062 375.378906 252.550781 376.855469 254.917969 C 377.695312 256.265625 379.671875 257.03125 381.191406 256.59375 Z M 1325.148438 161.867188 C 1325.339844 163.753906 1325.589844 166.238281 1326.078125 169.605469 C 1327.714844 180.714844 1329.542969 184.277344 1329.101562 191.714844 C 1328.933594 194.628906 1328.792969 196.734375 1327.6875 199.277344 C 1325.21875 204.980469 1320.507812 206.945312 1321.117188 208.164062 C 1321.707031 209.351562 1326.855469 209.109375 1330.113281 206.265625 C 1333.847656 203.003906 1334.054688 197.214844 1334.164062 194.21875 C 1334.214844 192.851562 1334.164062 191.894531 1334.035156 190.625 C 1333.375 184.375 1329.960938 173.617188 1329.542969 172.277344 C 1328.015625 167.429688 1327.476562 163.34375 1326.367188 155.179688 C 1324.53125 141.464844 1325.210938 134.386719 1324.949219 134.386719 C 1324.609375 134.386719 1323.632812 146.933594 1325.128906 161.878906 Z M 502.867188 107.648438 C 504.484375 106.488281 507.976562 103.933594 509.804688 99.261719 C 509.945312 98.914062 510.375 97.796875 510.664062 96.257812 C 511.523438 91.675781 510.433594 87.964844 509.613281 85.167969 C 509.234375 83.871094 508.867188 83.023438 508.207031 81.445312 C 505.699219 75.398438 503.765625 72.582031 501.796875 68.480469 C 500.6875 66.164062 499.25 62.78125 498.011719 58.386719 C 498.121094 60.335938 498.371094 63.417969 499.089844 67.132812 C 501.308594 78.640625 505.242188 82.066406 505.160156 90.957031 C 505.140625 93.222656 505.070312 96.847656 503.183594 100.929688 C 500.328125 107.097656 495.167969 110.273438 492.761719 111.539062 C 494.90625 111.269531 498.902344 110.472656 502.875 107.636719 Z M 294.558594 52.410156 C 292.082031 51.589844 290.765625 50.351562 288.050781 48.175781 C 287.640625 47.847656 284.34375 45.472656 277.765625 40.699219 C 275.449219 39.023438 272.015625 36.617188 267.652344 33.832031 C 270.167969 37.585938 272.933594 41.578125 275.9375 45.742188 C 277.875 48.425781 279.5625 50.671875 282.457031 52.929688 C 284.414062 54.445312 286.253906 55.433594 287.558594 56.050781 C 288.90625 56.371094 290.765625 56.632812 292.929688 56.441406 C 297.433594 56.042969 300.597656 53.917969 302.027344 52.808594 C 300.179688 53.148438 297.453125 53.367188 294.546875 52.410156 Z M 1025.597656 23.003906 C 1028.324219 20.167969 1029.792969 17.132812 1030.589844 14.929688 C 1028.203125 17.464844 1024.960938 20.449219 1020.746094 23.273438 C 1015.496094 26.796875 1010.511719 28.871094 1006.710938 30.128906 C 1008.726562 30.199219 1018.53125 30.328125 1025.609375 23.003906 Z M 179.941406 160.839844 C 179.863281 169.203125 180.382812 177.519531 181.410156 185.824219 C 182 190.554688 182.667969 195.257812 183.824219 199.886719 C 184.046875 199.558594 184.246094 199.210938 184.503906 198.921875 C 186.679688 196.503906 187.359375 193.71875 186.761719 190.535156 C 186.453125 188.886719 186.050781 187.261719 185.523438 185.683594 C 184.722656 183.308594 183.957031 180.921875 182.976562 178.617188 C 182.289062 176.980469 182.386719 175.242188 182.039062 173.578125 C 180.980469 168.496094 180.621094 163.34375 180.492188 158.164062 C 179.574219 158.902344 179.953125 159.933594 179.941406 160.851562 Z M 920.078125 46.570312 C 922.503906 41.777344 925.148438 36.699219 930.390625 31.429688 C 936.550781 25.25 943.121094 22.003906 947.382812 20.328125 C 943.738281 20.648438 937.082031 21.746094 930.390625 26.1875 C 922.804688 31.21875 919.359375 37.785156 917.042969 42.335938 C 910.601562 54.984375 910.863281 67.292969 911.519531 73.78125 C 913.296875 61.582031 917.101562 52.417969 920.066406 46.570312 Z M 1411.09375 50.113281 C 1409.476562 54.972656 1408.664062 59.035156 1408.214844 61.902344 C 1407.277344 67.960938 1407.539062 71.574219 1404.84375 74.957031 C 1403.144531 77.09375 1400.988281 78.230469 1399.449219 78.859375 C 1400.6875 79.480469 1404.222656 81.035156 1407 79.53125 C 1410.375 77.703125 1410.691406 72.453125 1410.914062 68.757812 C 1411.050781 66.433594 1410.8125 65.476562 1410.644531 62.699219 C 1410.464844 59.726562 1410.414062 55.433594 1411.09375 50.101562 Z M 47.59375 21.105469 C 38.949219 18.839844 31.890625 21.835938 29.601562 22.84375 C 25.628906 24.601562 23.164062 26.828125 22.652344 27.285156 C 17.550781 31.957031 15.84375 37.617188 15.246094 40.203125 C 16.761719 37.804688 22.335938 29.632812 33.167969 26.367188 C 48.8125 21.644531 61.671875 31.328125 62.980469 32.324219 C 61.851562 30.578125 57.019531 23.570312 47.605469 21.097656 Z M 320.558594 161.757812 C 321.605469 161.96875 322.222656 161.558594 322.722656 161.089844 C 324.671875 159.253906 325.96875 157.105469 326.1875 154.320312 C 326.496094 150.390625 325.929688 146.546875 325.238281 142.722656 C 325.03125 141.535156 325.101562 140.226562 324.140625 139.058594 C 322.503906 146.65625 320.757812 154.082031 320.546875 161.769531 L 320.558594 161.769531 Z M 1187.378906 76.453125 C 1187.171875 80.359375 1187.152344 84.851562 1187.109375 93.8125 C 1187.03125 110.125 1187.480469 112.929688 1188.1875 115.414062 C 1188.378906 116.070312 1189.046875 118.359375 1189.398438 121.511719 C 1189.746094 124.644531 1189.9375 127.09375 1189.066406 129.867188 C 1188.648438 131.183594 1187.519531 133.859375 1184.003906 136.335938 C 1185.375 136.386719 1188.519531 136.304688 1190.882812 134.179688 C 1193.898438 131.464844 1193.78125 127.140625 1193.640625 123.949219 C 1193.410156 118.507812 1191.632812 116.171875 1190.125 111.300781 C 1189.128906 108.035156 1188.96875 103.265625 1188.648438 93.734375 C 1188.359375 85.148438 1188.527344 78.5 1188.71875 71.59375 C 1188.886719 65.265625 1189.128906 60.023438 1189.328125 56.382812 C 1188.589844 61.53125 1187.800781 68.359375 1187.371094 76.433594 L 1187.371094 76.453125 Z M 998.601562 47.707031 C 997.59375 54.515625 997.554688 64.886719 997.542969 68.917969 C 997.542969 71.695312 997.574219 74.078125 996.066406 76.453125 C 994.507812 78.910156 992.3125 79.738281 992.550781 81.296875 C 992.75 82.542969 994.390625 83.523438 995.796875 83.582031 C 998.421875 83.691406 1000.160156 80.539062 1000.589844 79.769531 C 1001.925781 77.332031 1001.855469 74.988281 1001.726562 72.28125 C 1001.417969 65.894531 1001.269531 62.699219 1000.917969 60.84375 C 1000.050781 56.210938 999.601562 48.796875 1001.585938 36.757812 C 999.761719 41.378906 998.980469 45.210938 998.613281 47.71875 Z M 1227.796875 79.46875 C 1227.796875 79.46875 1228.113281 85.128906 1226.039062 88.34375 C 1225.300781 89.480469 1224.351562 90.347656 1224.351562 90.347656 C 1223.792969 90.867188 1223.253906 91.238281 1222.851562 91.488281 C 1223.660156 91.746094 1225.03125 92.035156 1226.398438 91.488281 C 1228.921875 90.460938 1229.59375 87.246094 1229.941406 85.628906 C 1230.5 82.933594 1230.140625 80.925781 1229.234375 76.445312 C 1228.382812 72.242188 1227.65625 68.757812 1227.117188 66.253906 C 1227.597656 71.644531 1227.824219 76.015625 1227.824219 79.480469 L 1227.816406 79.480469 Z M 124.800781 23.691406 C 129.472656 24.980469 130.3125 25.90625 134.375 26.738281 C 141.085938 28.113281 144.097656 26.65625 149.878906 26.917969 C 153.84375 27.09375 159.566406 28.09375 166.464844 32.027344 C 161.101562 26.398438 156.199219 24.511719 152.714844 23.820312 C 148.390625 22.972656 147.246094 24.160156 140.175781 23.550781 C 133.445312 22.972656 132.007812 21.675781 126.226562 20.996094 C 122.613281 20.578125 117.28125 20.386719 110.511719 21.804688 C 113.808594 21.785156 118.871094 22.054688 124.800781 23.691406 L 124.808594 23.691406 Z M 1464.316406 84.621094 C 1467.042969 85.339844 1470.136719 84.78125 1472.253906 83.042969 C 1474.730469 80.996094 1474.171875 78.722656 1476.65625 74.628906 C 1478.273438 71.953125 1480.203125 70.148438 1481.507812 69.078125 C 1480.03125 69.777344 1477.925781 70.976562 1475.949219 73.011719 C 1472.644531 76.414062 1472.683594 79.089844 1470.386719 80.785156 C 1468.601562 82.09375 1465.304688 82.894531 1458.65625 80.277344 C 1459.015625 80.886719 1460.753906 83.683594 1464.316406 84.621094 Z M 561.511719 42.527344 C 564.277344 41.808594 565.84375 39.632812 566.8125 38.285156 C 568.679688 35.691406 568.070312 34.640625 570.117188 31.328125 C 571.078125 29.769531 572.132812 28.054688 573.863281 26.875 C 577.726562 24.25 582.835938 25.757812 584.386719 26.265625 C 583.996094 25.75 581.640625 22.773438 577.40625 22.335938 C 574.3125 22.003906 571.304688 23.164062 569.417969 25.058594 C 568.160156 26.328125 567.570312 27.753906 566.394531 30.609375 C 565.226562 33.453125 565.445312 34.054688 564.375 35.660156 C 562.929688 37.824219 561.042969 38.925781 560.222656 39.394531 C 557.945312 40.699219 555.78125 41.019531 554.5625 41.109375 C 555.261719 41.578125 558.195312 43.394531 561.542969 42.527344 Z M 1281.621094 118.097656 C 1281.957031 113.488281 1279.632812 110.0625 1278.792969 108.945312 C 1279.152344 112.097656 1278.855469 114.683594 1278.523438 116.410156 C 1278.125 118.519531 1277.285156 122.628906 1274 126.433594 C 1272.453125 128.230469 1270.835938 129.40625 1269.6875 130.136719 C 1270.277344 130.617188 1271.144531 131.15625 1272.214844 131.203125 C 1275 131.3125 1277.117188 127.960938 1278.652344 125.496094 C 1280.132812 123.140625 1281.390625 121.121094 1281.621094 118.089844 Z M 1398.832031 223.875 C 1400.109375 222.914062 1400.609375 221.648438 1400.949219 220.75 C 1401.566406 219.132812 1401.539062 217.746094 1401.246094 213.621094 C 1400.929688 208.980469 1400.597656 208.972656 1400.640625 206.714844 C 1400.6875 203.992188 1401.199219 201.996094 1401.699219 200.007812 C 1402.285156 197.671875 1403.324219 194.46875 1405.242188 190.875 C 1402.726562 194.289062 1401.378906 197.472656 1400.640625 199.660156 C 1400.109375 201.234375 1399.121094 204.199219 1398.972656 208.132812 C 1398.832031 211.757812 1399.53125 212.695312 1399.023438 216.507812 C 1398.550781 220.011719 1397.671875 221.429688 1397.003906 222.257812 C 1395.847656 223.695312 1394.4375 224.441406 1393.511719 224.832031 C 1394.078125 224.960938 1396.695312 225.460938 1398.820312 223.875 Z M 11.203125 238.246094 C 10.972656 242.378906 10.652344 248.039062 7.359375 253.789062 C 5.859375 256.414062 4.492188 257.742188 3.714844 260.957031 C 2.914062 264.261719 2.90625 268.910156 4.421875 269.429688 C 6.46875 270.140625 11.492188 263.390625 13.617188 256.304688 C 15.125 251.285156 14.875 247.121094 14.625 243.488281 C 14.328125 239.175781 13.320312 232.347656 9.664062 224.414062 C 11.261719 230.164062 11.363281 235.035156 11.183594 238.238281 Z M 97.894531 223.574219 C 98.480469 224.722656 99.28125 226.539062 99.789062 228.875 C 100.390625 231.660156 101.207031 235.441406 99.390625 237.957031 C 97.15625 241.03125 92.300781 240.375 92.3125 241.390625 C 92.324219 242.242188 95.726562 242.9375 98.382812 243.007812 C 100.679688 243.070312 102.464844 243.117188 103.683594 241.980469 C 105.582031 240.214844 104.863281 236.742188 104.453125 234.722656 C 103.382812 229.542969 100.289062 225.820312 97.902344 223.566406 L 97.894531 223.566406 Z M 260.980469 108.765625 C 260.464844 110.351562 259.613281 113.007812 257.109375 115.085938 C 257.027344 115.152344 256.96875 115.203125 256.917969 115.234375 C 252.914062 118.417969 249.550781 117.191406 247.644531 119.515625 C 246.886719 120.445312 246.40625 121.882812 246.816406 123.039062 C 247.523438 124.996094 250.640625 125.566406 252.464844 125.535156 C 256.699219 125.453125 259.792969 122.019531 261.074219 120.355469 C 261.113281 120.292969 261.320312 120.023438 261.5625 119.6875 C 265.785156 113.597656 265.085938 103.863281 265.015625 102.996094 C 264.796875 100.3125 264.136719 96.167969 261.992188 91.417969 C 262.691406 99.582031 261.929688 105.851562 260.980469 108.777344 L 260.992188 108.777344 Z M 433.085938 144.691406 C 434.144531 144.519531 436.613281 144.109375 438.957031 142.265625 C 440.074219 141.386719 441.363281 140.378906 441.78125 138.628906 C 442.152344 137.113281 441.664062 135.835938 441.175781 134.597656 C 440.085938 131.832031 438.21875 129.90625 436.652344 128.679688 C 436.871094 129.128906 439.105469 133.96875 436.382812 138.910156 C 433.707031 143.75 428.554688 144.5 428.023438 144.558594 C 429.414062 144.847656 431.140625 145 433.085938 144.691406 Z M 454.992188 235.800781 C 455.050781 236.140625 455.789062 240.234375 459.304688 241.722656 C 463.117188 243.339844 466.832031 240.472656 467.121094 240.242188 C 469.648438 238.238281 468.660156 236.460938 471.304688 234.722656 C 472.972656 233.625 475.347656 233.039062 477.238281 232.566406 C 478.921875 232.148438 479.414062 232.179688 480.203125 231.628906 C 480.730469 231.261719 481.449219 230.582031 482.757812 227.328125 C 483.1875 226.25 483.726562 224.792969 484.234375 223.027344 C 482.546875 227.257812 480.480469 228.765625 478.902344 229.355469 C 478.585938 229.472656 477.394531 229.703125 474.988281 230.164062 C 471.125 230.902344 470.695312 230.871094 469.660156 231.371094 C 468.609375 231.878906 467.75 232.648438 466.015625 234.195312 C 463.457031 236.480469 463.410156 237.03125 462.441406 237.488281 C 461.132812 238.117188 458.914062 238.246094 454.960938 235.800781 Z M 548.292969 137.960938 C 549.101562 139.160156 553.675781 138.132812 557.046875 135.804688 C 560.351562 133.539062 559.65625 132.011719 562.980469 129.746094 C 566.601562 127.28125 569.089844 127.949219 570.398438 125.714844 C 571.457031 123.898438 570.898438 121.582031 570.265625 119.925781 C 569.976562 121.492188 569.359375 122.980469 568.109375 123.957031 C 566.445312 125.285156 565.027344 124.605469 562.179688 125.84375 C 560.402344 126.613281 560.761719 126.960938 557.867188 128.808594 C 554.34375 131.042969 553.5625 130.683594 551.667969 132.3125 C 549.691406 134 547.582031 136.914062 548.292969 137.960938 L 548.28125 137.960938 Z M 691.554688 128.539062 C 692.761719 127.769531 692.363281 125.15625 691.953125 122.679688 C 690.65625 114.746094 686.902344 111.222656 684.675781 105.722656 C 683.328125 102.386719 682.078125 97.226562 683.257812 89.769531 C 679.800781 99.484375 680.542969 106.320312 681.839844 110.761719 C 683.386719 116.03125 686.53125 120.605469 685.285156 121.660156 C 683.914062 122.808594 678.933594 118.429688 678.613281 118.835938 C 678.125 119.457031 688.558594 130.4375 691.554688 128.53125 Z M 810.273438 154.09375 C 812.539062 154.152344 813.238281 151.847656 817.011719 148.574219 C 818.621094 147.175781 822.984375 143.460938 828.765625 142.492188 C 830.582031 142.183594 833.816406 141.933594 837.980469 143.292969 C 837.210938 142.375 835.84375 140.976562 833.726562 140.058594 C 829.941406 138.410156 826.316406 139.378906 824.292969 139.957031 C 820.085938 141.144531 820.226562 142.59375 815.054688 145.007812 C 809.183594 147.742188 806 147.273438 805.550781 149.179688 C 805.101562 151.097656 807.746094 154.03125 810.273438 154.09375 L 810.285156 154.09375 Z M 956.429688 131.515625 C 959.40625 131.113281 960.972656 128.699219 961.152344 128.417969 C 962.808594 125.765625 961.960938 122.730469 961.550781 121.28125 C 960.722656 118.347656 959.59375 118.546875 958.914062 115.742188 C 958.488281 113.964844 958.65625 112.230469 958.996094 108.765625 C 959.195312 106.75 959.453125 105.082031 959.664062 103.90625 C 958.007812 105.652344 957.078125 107.367188 956.578125 108.496094 C 955.851562 110.132812 954.363281 113.4375 955.371094 116.839844 C 955.96875 118.878906 956.839844 118.855469 957.386719 121.144531 C 957.648438 122.222656 958.257812 124.765625 956.988281 126.523438 C 955.660156 128.359375 952.574219 128.9375 949.441406 127.871094 C 950.988281 130.4375 953.753906 131.875 956.449219 131.503906 Z M 1124.203125 63.648438 C 1124.710938 63.449219 1125.699219 63.058594 1126.65625 62.152344 C 1126.65625 62.152344 1127.335938 61.511719 1127.886719 60.59375 C 1129.421875 58.027344 1130.160156 52.300781 1130.203125 51.949219 C 1129.324219 54.277344 1128.394531 56.140625 1127.65625 57.488281 C 1126.398438 59.777344 1125.738281 60.945312 1124.472656 61.972656 C 1122.574219 63.519531 1120.398438 63.949219 1119.089844 64.078125 C 1120.066406 64.246094 1122.066406 64.457031 1124.199219 63.636719 Z M 1155.410156 223.046875 C 1156.359375 224.734375 1158.90625 225.480469 1160.472656 225.113281 C 1164.605469 224.132812 1167.082031 221.148438 1168.121094 219.871094 C 1175.519531 210.75 1171.394531 196.8125 1170.085938 192.410156 C 1168.859375 188.25 1166.222656 181.582031 1160.242188 174.59375 C 1162.511719 178.578125 1165.125 184.546875 1165.714844 192.0625 C 1166.253906 198.910156 1166.851562 206.664062 1162.070312 211.207031 C 1160.691406 212.515625 1158.367188 214.023438 1156.53125 217.355469 C 1155.601562 219.042969 1154.402344 221.277344 1155.410156 223.046875 L 1155.402344 223.046875 Z M 1228.175781 22.722656 C 1230.761719 22.792969 1232.765625 22.265625 1234.304688 21.574219 C 1236.511719 20.585938 1237.300781 19.371094 1240.503906 17.132812 C 1242.320312 15.867188 1244.636719 14.347656 1245.898438 13.628906 C 1248.28125 12.273438 1252.695312 10.507812 1260.042969 11.023438 C 1258.015625 10.058594 1252.417969 7.703125 1246.167969 9.429688 C 1245.265625 9.679688 1243.101562 10.285156 1240.773438 11.894531 C 1237.789062 13.941406 1237.210938 15.777344 1234.304688 18.492188 C 1233.015625 19.6875 1231.03125 21.285156 1228.175781 22.734375 Z M 1443.769531 135.625 C 1444.867188 135.425781 1445.597656 134.898438 1446.257812 134.417969 C 1447.125 133.78125 1448.222656 132.972656 1448.683594 131.664062 C 1448.890625 131.074219 1448.980469 130.335938 1448.074219 127.152344 C 1447.753906 126.023438 1447.273438 124.46875 1446.59375 122.640625 C 1446.464844 123.488281 1446.347656 124.785156 1446.527344 126.34375 C 1446.804688 128.699219 1447.492188 129.277344 1447.195312 130.714844 C 1446.785156 132.710938 1445.007812 133.878906 1444.5 134.21875 C 1443.0625 135.167969 1441.644531 135.328125 1440.953125 135.355469 C 1441.453125 135.546875 1442.492188 135.867188 1443.75 135.636719 Z M 578.574219 -33.734375 L 578.574219 -67.808594 C 578.574219 -71.003906 575.976562 -73.597656 572.785156 -73.597656 C 569.589844 -73.597656 566.992188 -71.003906 566.992188 -67.808594 L 566.992188 -33.734375 C 566.992188 -30.539062 569.589844 -27.941406 572.785156 -27.941406 C 575.976562 -27.941406 578.574219 -30.539062 578.574219 -33.734375 Z M 149.890625 -28.582031 L 132.847656 -58.097656 C 131.25 -60.863281 127.707031 -61.8125 124.941406 -60.214844 C 122.175781 -58.617188 121.226562 -55.074219 122.824219 -52.308594 L 139.867188 -22.792969 C 141.464844 -20.027344 145.007812 -19.078125 147.773438 -20.675781 C 150.539062 -22.273438 151.488281 -25.816406 149.890625 -28.582031 Z M 342.03125 -85.308594 L 375.796875 -89.960938 C 378.964844 -90.398438 381.179688 -93.3125 380.742188 -96.476562 C 380.300781 -99.640625 377.386719 -101.855469 374.222656 -101.417969 L 340.457031 -96.765625 C 337.289062 -96.328125 335.074219 -93.414062 335.511719 -90.25 C 335.953125 -87.085938 338.867188 -84.867188 342.03125 -85.308594 Z M 1257.789062 -20.167969 L 1244.199219 -51.421875 C 1242.921875 -54.355469 1239.515625 -55.691406 1236.582031 -54.425781 C 1233.644531 -53.148438 1232.308594 -49.742188 1233.574219 -46.808594 L 1247.164062 -15.554688 C 1248.441406 -12.621094 1251.847656 -11.285156 1254.78125 -12.550781 C 1257.71875 -13.828125 1259.054688 -17.234375 1257.789062 -20.167969 Z M 1461.171875 -15.945312 L 1427.296875 -12.101562 C 1424.121094 -11.742188 1421.835938 -8.878906 1422.195312 -5.703125 C 1422.554688 -2.53125 1425.417969 -0.242188 1428.59375 -0.601562 L 1462.46875 -4.445312 C 1465.644531 -4.804688 1467.929688 -7.671875 1467.570312 -10.84375 C 1467.210938 -14.019531 1464.347656 -16.304688 1461.171875 -15.945312 Z M 734.875 -2.710938 L 767.921875 -11.042969 C 771.015625 -11.824219 772.902344 -14.976562 772.113281 -18.070312 C 771.335938 -21.164062 768.179688 -23.050781 765.085938 -22.261719 L 732.039062 -13.929688 C 728.945312 -13.148438 727.058594 -9.996094 727.84375 -6.902344 C 728.625 -3.808594 731.777344 -1.921875 734.875 -2.710938 Z M 966.863281 -73.351562 L 966.863281 -39.273438 C 966.863281 -36.078125 969.457031 -33.484375 972.652344 -33.484375 C 975.847656 -33.484375 978.445312 -36.078125 978.445312 -39.273438 L 978.445312 -73.351562 C 978.445312 -76.542969 975.847656 -79.140625 972.652344 -79.140625 C 969.457031 -79.140625 966.863281 -76.542969 966.863281 -73.351562 Z M 966.863281 -73.351562 " fill-opacity="1" fill-rule="nonzero"/><path fill="#f9b800" d="M 473.0625 -93.703125 C 471.746094 -96.617188 473.042969 -100.039062 475.957031 -101.359375 L 507.019531 -115.390625 C 509.933594 -116.710938 513.359375 -115.414062 514.675781 -112.496094 C 515.996094 -109.582031 514.695312 -106.160156 511.78125 -104.84375 L 480.722656 -90.808594 C 477.804688 -89.488281 474.382812 -90.789062 473.0625 -93.703125 Z M 298.523438 -10.15625 L 298.523438 -44.234375 C 298.523438 -47.425781 295.925781 -50.023438 292.730469 -50.023438 C 289.535156 -50.023438 286.941406 -47.425781 286.941406 -44.234375 L 286.941406 -10.15625 C 286.941406 -6.960938 289.535156 -4.367188 292.730469 -4.367188 C 295.925781 -4.367188 298.523438 -6.960938 298.523438 -10.15625 Z M 1415.816406 -90.828125 L 1431.488281 -121.09375 C 1432.957031 -123.925781 1431.847656 -127.421875 1429.011719 -128.886719 C 1426.179688 -130.355469 1422.683594 -129.246094 1421.214844 -126.414062 L 1405.539062 -96.148438 C 1404.074219 -93.3125 1405.179688 -89.820312 1408.015625 -88.351562 C 1410.851562 -86.886719 1414.347656 -87.992188 1415.816406 -90.828125 Z M 81.859375 -105.75 L 115.894531 -103.8125 C 119.089844 -103.632812 121.824219 -106.070312 122.003906 -109.265625 C 122.183594 -112.457031 119.75 -115.191406 116.554688 -115.371094 L 82.519531 -117.308594 C 79.324219 -117.488281 76.585938 -115.054688 76.40625 -111.859375 C 76.226562 -108.664062 78.664062 -105.929688 81.859375 -105.75 Z M 1135.5625 -37.285156 L 1165.085938 -54.324219 C 1167.851562 -55.921875 1168.800781 -59.464844 1167.203125 -62.230469 C 1165.605469 -64.996094 1162.058594 -65.941406 1159.292969 -64.347656 L 1129.773438 -47.308594 C 1127.007812 -45.710938 1126.058594 -42.167969 1127.65625 -39.402344 C 1129.253906 -36.636719 1132.796875 -35.6875 1135.5625 -37.285156 Z M 872.285156 11.773438 L 896.386719 -12.320312 C 898.640625 -14.578125 898.640625 -18.25 896.386719 -20.507812 C 894.128906 -22.761719 890.457031 -22.761719 888.199219 -20.507812 L 864.097656 3.589844 C 861.839844 5.84375 861.839844 9.519531 864.097656 11.773438 C 866.355469 14.03125 870.027344 14.03125 872.285156 11.773438 Z M 718.230469 -120.632812 L 752.265625 -118.695312 C 755.460938 -118.515625 758.195312 -120.953125 758.375 -124.144531 C 758.554688 -127.339844 756.121094 -130.074219 752.925781 -130.253906 L 718.890625 -132.191406 C 715.695312 -132.371094 712.960938 -129.9375 712.78125 -126.742188 C 712.601562 -123.546875 715.035156 -120.8125 718.230469 -120.632812 Z M 718.230469 -120.632812 " fill-opacity="1" fill-rule="nonzero"/><path fill="#ee0000" d="M 231.148438 16.503906 C 229.683594 19.339844 226.1875 20.449219 223.351562 18.980469 L 193.082031 3.308594 C 190.246094 1.84375 189.136719 -1.652344 190.605469 -4.484375 C 192.074219 -7.320312 195.566406 -8.429688 198.402344 -6.960938 L 228.675781 8.710938 C 231.507812 10.175781 232.617188 13.671875 231.148438 16.503906 Z M 379.953125 20.417969 L 400.617188 -6.683594 C 402.554688 -9.226562 402.066406 -12.851562 399.53125 -14.796875 C 396.984375 -16.734375 393.359375 -16.246094 391.414062 -13.710938 L 370.746094 13.390625 C 368.808594 15.9375 369.300781 19.558594 371.835938 21.507812 C 374.382812 23.441406 378.003906 22.953125 379.953125 20.417969 Z M 635.414062 7.050781 L 602.265625 -0.894531 C 599.160156 -1.640625 596.035156 0.273438 595.289062 3.390625 C 594.539062 6.492188 596.457031 9.617188 599.570312 10.367188 L 632.71875 18.3125 C 635.824219 19.058594 638.949219 17.144531 639.695312 14.03125 C 640.445312 10.925781 638.527344 7.800781 635.414062 7.050781 Z M 823.261719 -67.0625 L 792.992188 -82.734375 C 790.15625 -84.199219 786.660156 -83.09375 785.195312 -80.257812 C 783.726562 -77.421875 784.835938 -73.929688 787.667969 -72.460938 L 817.941406 -56.789062 C 820.777344 -55.324219 824.269531 -56.429688 825.738281 -59.265625 C 827.207031 -62.101562 826.097656 -65.59375 823.261719 -67.0625 Z M 1055.890625 1.082031 L 1076.558594 -26.015625 C 1078.492188 -28.5625 1078.003906 -32.183594 1075.46875 -34.132812 C 1072.921875 -36.066406 1069.300781 -35.578125 1067.351562 -33.042969 L 1046.683594 -5.945312 C 1044.75 -3.398438 1045.238281 0.226562 1047.773438 2.171875 C 1050.320312 4.109375 1053.945312 3.617188 1055.890625 1.082031 Z M 1241.234375 -108.605469 L 1275.320312 -108.605469 C 1278.515625 -108.605469 1281.109375 -111.199219 1281.109375 -114.394531 C 1281.109375 -117.589844 1278.515625 -120.183594 1275.320312 -120.183594 L 1241.234375 -120.183594 C 1238.039062 -120.183594 1235.441406 -117.589844 1235.441406 -114.394531 C 1235.441406 -111.199219 1238.039062 -108.605469 1241.234375 -108.605469 Z M 20.046875 -94.5 C 17.972656 -96.9375 14.316406 -97.226562 11.890625 -95.148438 L 0 -85.027344 L 0 -69.828125 L 19.390625 -86.347656 C 21.824219 -88.421875 22.113281 -92.074219 20.039062 -94.5 Z M 1499.96875 -85.027344 L 1485.914062 -73.050781 C 1483.476562 -70.972656 1483.1875 -67.320312 1485.261719 -64.894531 C 1487.339844 -62.460938 1490.996094 -62.171875 1493.421875 -64.246094 L 1499.96875 -69.828125 Z M 1499.96875 -85.027344 " fill-opacity="1" fill-rule="nonzero"/><g clip-path="url(#4f434c1674)"><g transform="matrix(1, 0, 0, 1, 0, -0.000000000000042435)"><g clip-path="url(#095a76a315)"><g clip-path="url(#bc6bbf84ed)"><path fill="#ee70ae" d="M -34.296875 -185.527344 L 190.476562 -185.527344 L 190.476562 3.757812 L -34.296875 3.757812 Z M -34.296875 -185.527344 " fill-opacity="1" fill-rule="nonzero"/></g></g></g></g><g clip-path="url(#00f0950b23)"><g transform="matrix(1, 0, 0, 1, 183, -0.000000000000042435)"><g clip-path="url(#2cff59a168)"><g clip-path="url(#e3d86e4274)"><path fill="#ee70ae" d="M 0.933594 -167.667969 L 225.707031 -167.667969 L 225.707031 21.617188 L 0.933594 21.617188 Z M 0.933594 -167.667969 " fill-opacity="1" fill-rule="nonzero"/></g></g></g></g><g clip-path="url(#b7df9ca888)"><g transform="matrix(1, 0, 0, 1, 301, -0.000000000000042435)"><g clip-path="url(#36377d4aea)"><g clip-path="url(#728193cae8)"><path fill="#ee70ae" d="M 0.589844 -163.710938 L 80.78125 -163.710938 L 80.78125 25.492188 L 0.589844 25.492188 Z M 0.589844 -163.710938 " fill-opacity="1" fill-rule="nonzero"/></g></g></g></g><g clip-path="url(#964ba0319f)"><g transform="matrix(1, 0, 0, 1, 585, -0.000000000000042435)"><g clip-path="url(#5122783f21)"><g clip-path="url(#2d9ac7de11)"><path fill="#ee70ae" d="M 0.371094 -167.667969 L 80.566406 -167.667969 L 80.566406 21.535156 L 0.371094 21.535156 Z M 0.371094 -167.667969 " fill-opacity="1" fill-rule="nonzero"/></g></g></g></g><g clip-path="url(#2db6bb1b0c)"><g transform="matrix(1, 0, 0, 1, 840, -0.000000000000042435)"><g clip-path="url(#43cbca5b9c)"><g clip-path="url(#9c21a3d11e)"><path fill="#ee70ae" d="M 0.0234375 -175.0625 L 112.148438 -175.0625 L 112.148438 14.152344 L 0.0234375 14.152344 Z M 0.0234375 -175.0625 " fill-opacity="1" fill-rule="nonzero"/></g></g></g></g><g clip-path="url(#f56920c122)"><g transform="matrix(1, 0, 0, 1, 1027, -0.000000000000042435)"><g clip-path="url(#01c5dc385a)"><g clip-path="url(#331d5459de)"><path fill="#ee70ae" d="M 0.148438 -185.527344 L 112.277344 -185.527344 L 112.277344 3.6875 L 0.148438 3.6875 Z M 0.148438 -185.527344 " fill-opacity="1" fill-rule="nonzero"/></g></g></g></g><g clip-path="url(#7d51e0c0cb)"><g transform="matrix(1, 0, 0, 1, 38, -0.000000000000042435)"><g clip-path="url(#06812a7586)"><g clip-path="url(#a3c17aa492)"><path fill="#ee70ae" d="M 0.960938 -0.40625 L 59.683594 -0.40625 L 59.683594 7.917969 L 0.960938 7.917969 Z M 0.960938 -0.40625 " fill-opacity="1" fill-rule="nonzero"/></g></g></g></g></svg>