<svg xmlns="http://www.w3.org/2000/svg" xmlns:xlink="http://www.w3.org/1999/xlink" width="1200" zoomAndPan="magnify" viewBox="0 0 900 749.999995" height="1000" preserveAspectRatio="xMidYMid meet" version="1.0"><defs><clipPath id="a0d00a11fd"><path d="M 495.445312 367 L 519 367 L 519 416 L 495.445312 416 Z M 495.445312 367 " clip-rule="nonzero"/></clipPath><clipPath id="b5cb4bae02"><path d="M 583 328.605469 L 668.695312 328.605469 L 668.695312 453.855469 L 583 453.855469 Z M 583 328.605469 " clip-rule="nonzero"/></clipPath><clipPath id="cbe6999f06"><path d="M 0 106.074219 L 896 106.074219 L 896 614 L 0 614 Z M 0 106.074219 " clip-rule="nonzero"/></clipPath></defs><g clip-path="url(#a0d00a11fd)"><path fill="#3589a1" d="M 495.445312 391.230469 C 495.445312 404.105469 505.582031 414.59375 518.324219 415.261719 L 518.324219 367.199219 C 505.582031 367.871094 495.445312 378.355469 495.445312 391.230469 Z M 495.445312 391.230469 " fill-opacity="1" fill-rule="nonzero"/></g><path fill="#3589a1" d="M 583.074219 415.328125 L 583.074219 367.132812 L 519.609375 367.132812 C 519.175781 367.132812 518.753906 367.175781 518.328125 367.199219 L 518.328125 415.261719 C 518.753906 415.285156 519.179688 415.328125 519.609375 415.328125 Z M 583.074219 415.328125 " fill-opacity="1" fill-rule="nonzero"/><g clip-path="url(#b5cb4bae02)"><path fill="#3589a1" d="M 583.128906 415.328125 L 583.128906 444.601562 C 583.128906 453.476562 588.957031 456.386719 596.082031 451.074219 L 663.355469 400.890625 C 670.476562 395.582031 670.480469 386.882812 663.355469 381.566406 L 596.082031 331.386719 C 588.957031 326.074219 583.128906 328.984375 583.128906 337.855469 L 583.128906 367.136719 L 583.074219 367.136719 L 583.074219 415.328125 Z M 583.128906 415.328125 " fill-opacity="1" fill-rule="nonzero"/></g><g clip-path="url(#cbe6999f06)"><path fill="#6e002a" d="M 484.070312 244.53125 C 484.171875 244.53125 484.253906 244.492188 484.320312 244.417969 C 484.386719 244.34375 484.417969 244.257812 484.410156 244.160156 C 482.640625 216.882812 481.238281 189.582031 480.949219 162.230469 C 480.875 154.730469 481.148438 147.648438 481.78125 140.984375 C 483.390625 124.011719 490.851562 106.0625 511.191406 106.5 C 520.664062 106.703125 530.84375 110.5 540.027344 115.003906 C 547.328125 118.589844 555.589844 123.058594 564.808594 128.40625 C 584.800781 140 604.695312 151.757812 624.492188 163.675781 C 663.335938 187.058594 702.027344 210.695312 740.5625 234.585938 C 743.242188 236.246094 745.886719 237.871094 748.492188 239.460938 C 791.433594 265.597656 821.703125 284.007812 857.597656 307.410156 C 866.671875 313.332031 874.660156 319.308594 881.566406 325.339844 C 886.851562 329.953125 891.847656 336.785156 893.90625 343.503906 C 899.9375 363.164062 883.910156 380.578125 870.367188 392.378906 C 860.929688 400.601562 850.671875 408.796875 839.597656 416.960938 C 777.457031 462.78125 714.027344 509.023438 651.769531 552.519531 C 630.6875 567.253906 608.308594 581.746094 585.332031 594.210938 C 576.429688 599.046875 566.652344 603.472656 556.003906 607.488281 C 549.339844 610 542.933594 611.746094 536.785156 612.730469 C 514.105469 616.359375 502.457031 597.128906 497.433594 578.492188 C 495.058594 569.679688 493.417969 560.332031 492.523438 550.453125 C 490.402344 527.09375 488.96875 498.707031 488.070312 481.078125 C 487.878906 477.304688 487.375 473.746094 486.566406 470.398438 C 485.5625 466.246094 482.910156 463.207031 479.066406 461.589844 C 471.507812 458.429688 462.519531 457.628906 454.25 457.023438 C 451.585938 456.828125 448.488281 456.691406 444.949219 456.605469 C 430.804688 456.273438 416.253906 456.390625 401.292969 456.960938 C 386.5 457.527344 361.316406 458.402344 325.746094 459.578125 C 314.929688 459.933594 290.988281 460.25 253.917969 460.519531 C 223.40625 460.742188 191.742188 461.761719 158.925781 463.582031 C 128.820312 465.25 98.847656 468.390625 68.710938 469.613281 C 58.890625 470.007812 47.8125 469.753906 38.613281 466.722656 C 24.378906 462.035156 15.886719 450.589844 10.949219 436.816406 C 7.9375 428.417969 5.734375 419.578125 4.335938 410.292969 C 0.796875 386.820312 0.0546875 362.757812 0.777344 339.058594 C 1.050781 330.089844 1.882812 321.601562 4.667969 313.117188 C 15.570312 279.917969 51.570312 273.652344 81.605469 270.429688 C 88.890625 269.648438 98.449219 268.78125 110.273438 267.832031 C 170.84375 262.953125 224.898438 259.023438 272.441406 256.046875 C 275.636719 255.847656 278.734375 255.636719 281.730469 255.421875 C 311.980469 253.246094 342.230469 251.109375 372.480469 249.019531 C 409.65625 246.449219 446.867188 245.5625 484.070312 244.53125 Z M 484.070312 244.53125 " fill-opacity="1" fill-rule="nonzero"/></g></svg>