<svg xmlns="http://www.w3.org/2000/svg" xmlns:xlink="http://www.w3.org/1999/xlink" width="1000" zoomAndPan="magnify" viewBox="0 0 750 749.999995" height="1000" preserveAspectRatio="xMidYMid meet" version="1.0"><path fill="#000000" d="M 750.132812 375.066406 C 750.132812 381.203125 749.984375 387.339844 749.679688 393.46875 C 749.378906 399.601562 748.929688 405.722656 748.328125 411.828125 C 747.726562 417.9375 746.972656 424.027344 746.074219 430.101562 C 745.171875 436.171875 744.125 442.21875 742.925781 448.238281 C 741.730469 454.257812 740.382812 460.246094 738.894531 466.199219 C 737.402344 472.15625 735.765625 478.070312 733.984375 483.941406 C 732.199219 489.816406 730.277344 495.644531 728.207031 501.421875 C 726.140625 507.203125 723.933594 512.925781 721.582031 518.597656 C 719.234375 524.269531 716.746094 529.878906 714.121094 535.429688 C 711.5 540.976562 708.738281 546.457031 705.847656 551.871094 C 702.953125 557.285156 699.925781 562.625 696.773438 567.890625 C 693.617188 573.152344 690.332031 578.339844 686.921875 583.441406 C 683.511719 588.546875 679.980469 593.5625 676.324219 598.492188 C 672.667969 603.421875 668.890625 608.261719 664.996094 613.007812 C 661.101562 617.75 657.09375 622.398438 652.972656 626.945312 C 648.851562 631.492188 644.617188 635.9375 640.277344 640.277344 C 635.9375 644.617188 631.492188 648.851562 626.945312 652.972656 C 622.398438 657.09375 617.75 661.101562 613.007812 664.996094 C 608.261719 668.890625 603.421875 672.667969 598.492188 676.324219 C 593.5625 679.980469 588.546875 683.511719 583.441406 686.921875 C 578.339844 690.332031 573.152344 693.617188 567.890625 696.773438 C 562.625 699.925781 557.285156 702.953125 551.871094 705.847656 C 546.457031 708.738281 540.976562 711.5 535.429688 714.121094 C 529.878906 716.746094 524.269531 719.234375 518.597656 721.582031 C 512.925781 723.933594 507.203125 726.140625 501.421875 728.207031 C 495.644531 730.277344 489.816406 732.199219 483.941406 733.984375 C 478.070312 735.765625 472.15625 737.402344 466.199219 738.894531 C 460.246094 740.382812 454.257812 741.730469 448.238281 742.925781 C 442.21875 744.125 436.171875 745.171875 430.101562 746.074219 C 424.027344 746.972656 417.9375 747.726562 411.828125 748.328125 C 405.722656 748.929688 399.601562 749.378906 393.46875 749.679688 C 387.339844 749.984375 381.203125 750.132812 375.066406 750.132812 C 368.929688 750.132812 362.792969 749.984375 356.664062 749.679688 C 350.53125 749.378906 344.414062 748.929688 338.304688 748.328125 C 332.195312 747.726562 326.105469 746.972656 320.03125 746.074219 C 313.960938 745.171875 307.914062 744.125 301.894531 742.925781 C 295.875 741.730469 289.886719 740.382812 283.933594 738.894531 C 277.980469 737.402344 272.0625 735.765625 266.191406 733.984375 C 260.316406 732.199219 254.488281 730.277344 248.710938 728.207031 C 242.929688 726.140625 237.207031 723.933594 231.535156 721.582031 C 225.863281 719.234375 220.253906 716.746094 214.703125 714.121094 C 209.15625 711.5 203.675781 708.738281 198.261719 705.847656 C 192.847656 702.953125 187.507812 699.925781 182.242188 696.773438 C 176.980469 693.617188 171.792969 690.332031 166.691406 686.921875 C 161.585938 683.511719 156.570312 679.980469 151.640625 676.324219 C 146.710938 672.667969 141.871094 668.890625 137.125 664.996094 C 132.382812 661.101562 127.734375 657.09375 123.1875 652.972656 C 118.640625 648.851562 114.195312 644.617188 109.855469 640.277344 C 105.515625 635.9375 101.28125 631.492188 97.160156 626.945312 C 93.039062 622.398438 89.03125 617.75 85.136719 613.007812 C 81.242188 608.261719 77.46875 603.421875 73.808594 598.492188 C 70.152344 593.5625 66.621094 588.546875 63.210938 583.441406 C 59.800781 578.339844 56.515625 573.152344 53.359375 567.890625 C 50.207031 562.625 47.179688 557.285156 44.289062 551.871094 C 41.394531 546.457031 38.636719 540.976562 36.011719 535.429688 C 33.386719 529.878906 30.898438 524.269531 28.550781 518.597656 C 26.203125 512.925781 23.992188 507.203125 21.925781 501.421875 C 19.855469 495.644531 17.933594 489.816406 16.148438 483.941406 C 14.367188 478.070312 12.730469 472.15625 11.242188 466.199219 C 9.75 460.246094 8.40625 454.257812 7.207031 448.238281 C 6.007812 442.21875 4.960938 436.171875 4.058594 430.101562 C 3.160156 424.027344 2.40625 417.9375 1.804688 411.828125 C 1.203125 405.722656 0.753906 399.601562 0.453125 393.46875 C 0.152344 387.339844 0 381.203125 0 375.066406 C 0 368.929688 0.152344 362.792969 0.453125 356.664062 C 0.753906 350.53125 1.203125 344.414062 1.804688 338.304688 C 2.40625 332.195312 3.160156 326.105469 4.058594 320.03125 C 4.960938 313.960938 6.007812 307.914062 7.207031 301.894531 C 8.40625 295.875 9.75 289.886719 11.242188 283.933594 C 12.730469 277.980469 14.367188 272.066406 16.148438 266.191406 C 17.933594 260.316406 19.855469 254.488281 21.925781 248.710938 C 23.992188 242.929688 26.203125 237.207031 28.550781 231.535156 C 30.898438 225.863281 33.386719 220.253906 36.011719 214.703125 C 38.636719 209.15625 41.394531 203.675781 44.289062 198.261719 C 47.179688 192.847656 50.207031 187.507812 53.359375 182.242188 C 56.515625 176.980469 59.800781 171.792969 63.210938 166.691406 C 66.621094 161.585938 70.152344 156.570312 73.808594 151.640625 C 77.46875 146.710938 81.242188 141.871094 85.136719 137.125 C 89.03125 132.382812 93.039062 127.734375 97.160156 123.1875 C 101.28125 118.640625 105.515625 114.195312 109.855469 109.855469 C 114.195312 105.515625 118.640625 101.28125 123.1875 97.160156 C 127.734375 93.039062 132.382812 89.03125 137.125 85.136719 C 141.871094 81.242188 146.710938 77.46875 151.640625 73.808594 C 156.570312 70.152344 161.585938 66.621094 166.691406 63.210938 C 171.792969 59.800781 176.980469 56.515625 182.242188 53.359375 C 187.507812 50.207031 192.847656 47.179688 198.261719 44.289062 C 203.675781 41.394531 209.15625 38.636719 214.703125 36.011719 C 220.253906 33.386719 225.863281 30.898438 231.535156 28.550781 C 237.207031 26.203125 242.929688 23.992188 248.710938 21.925781 C 254.488281 19.855469 260.316406 17.933594 266.191406 16.148438 C 272.0625 14.367188 277.980469 12.730469 283.933594 11.242188 C 289.886719 9.75 295.875 8.40625 301.894531 7.207031 C 307.914062 6.007812 313.960938 4.960938 320.03125 4.058594 C 326.105469 3.160156 332.195312 2.40625 338.304688 1.804688 C 344.414062 1.203125 350.53125 0.753906 356.664062 0.453125 C 362.792969 0.152344 368.929688 0 375.066406 0 C 381.203125 0 387.339844 0.152344 393.46875 0.453125 C 399.601562 0.753906 405.722656 1.203125 411.828125 1.804688 C 417.9375 2.40625 424.027344 3.160156 430.101562 4.058594 C 436.171875 4.960938 442.21875 6.007812 448.238281 7.207031 C 454.257812 8.40625 460.246094 9.75 466.199219 11.242188 C 472.15625 12.730469 478.070312 14.367188 483.941406 16.148438 C 489.816406 17.933594 495.644531 19.855469 501.421875 21.925781 C 507.203125 23.992188 512.925781 26.203125 518.597656 28.550781 C 524.269531 30.898438 529.878906 33.386719 535.429688 36.011719 C 540.976562 38.636719 546.457031 41.394531 551.871094 44.289062 C 557.285156 47.179688 562.625 50.207031 567.890625 53.359375 C 573.152344 56.515625 578.339844 59.800781 583.441406 63.210938 C 588.546875 66.621094 593.5625 70.152344 598.492188 73.808594 C 603.421875 77.46875 608.261719 81.242188 613.007812 85.136719 C 617.75 89.03125 622.398438 93.039062 626.945312 97.160156 C 631.492188 101.28125 635.9375 105.515625 640.277344 109.855469 C 644.617188 114.195312 648.851562 118.640625 652.972656 123.1875 C 657.09375 127.734375 661.101562 132.382812 664.996094 137.125 C 668.890625 141.871094 672.667969 146.710938 676.324219 151.640625 C 679.980469 156.570312 683.511719 161.585938 686.921875 166.691406 C 690.332031 171.792969 693.617188 176.980469 696.773438 182.242188 C 699.925781 187.507812 702.953125 192.847656 705.847656 198.261719 C 708.738281 203.675781 711.5 209.15625 714.121094 214.703125 C 716.746094 220.253906 719.234375 225.863281 721.582031 231.535156 C 723.933594 237.207031 726.140625 242.929688 728.207031 248.710938 C 730.277344 254.488281 732.199219 260.316406 733.984375 266.191406 C 735.765625 272.066406 737.402344 277.980469 738.894531 283.933594 C 740.382812 289.886719 741.730469 295.875 742.925781 301.894531 C 744.125 307.914062 745.171875 313.960938 746.074219 320.03125 C 746.972656 326.105469 747.726562 332.195312 748.328125 338.304688 C 748.929688 344.414062 749.378906 350.53125 749.679688 356.664062 C 749.984375 362.792969 750.132812 368.929688 750.132812 375.066406 Z M 750.132812 375.066406 " fill-opacity="1" fill-rule="nonzero"/><path fill="#25f4ee" d="M 325.277344 321.449219 L 325.277344 301.097656 C 318.449219 300.167969 311.523438 299.601562 304.460938 299.601562 C 219.304688 299.601562 150.035156 368.871094 150.035156 454.03125 C 150.035156 506.285156 176.144531 552.507812 215.976562 580.484375 C 190.265625 552.875 175.011719 515.90625 175.011719 475.3125 C 175.011719 391.386719 241.820312 323.378906 325.277344 321.449219 Z M 325.277344 321.449219 " fill-opacity="1" fill-rule="nonzero"/><path fill="#25f4ee" d="M 328.90625 546.28125 C 366.90625 546.28125 398.347656 515.609375 399.746094 477.976562 L 400.078125 142.171875 L 460.957031 142.171875 C 460.957031 142.171875 460.855469 141.707031 460.855469 141.707031 C 459.589844 134.8125 458.890625 127.6875 458.890625 120.425781 L 375 120.425781 L 374.867188 456.695312 C 373.46875 494.359375 342.460938 524.566406 304.460938 524.566406 C 292.640625 524.566406 281.550781 521.601562 271.757812 516.472656 C 284.582031 534.226562 305.394531 546.316406 328.941406 546.316406 Z M 328.90625 546.28125 " fill-opacity="1" fill-rule="nonzero"/><path fill="#25f4ee" d="M 575.65625 256.804688 L 575.65625 237.089844 C 552.210938 237.089844 530.394531 230.128906 512.078125 218.171875 C 528.363281 236.890625 550.511719 251.410156 575.65625 256.773438 Z M 575.65625 256.804688 " fill-opacity="1" fill-rule="nonzero"/><path fill="#fe2c55" d="M 512.078125 218.207031 C 494.226562 197.691406 483.371094 170.949219 483.371094 141.675781 L 460.523438 141.675781 C 466.453125 173.644531 485.800781 201.089844 512.078125 218.207031 Z M 512.078125 218.207031 " fill-opacity="1" fill-rule="nonzero"/><path fill="#fe2c55" d="M 304.460938 382.828125 C 265.5625 382.828125 233.460938 415.097656 233.460938 453.996094 C 233.460938 481.074219 249.277344 504.617188 271.726562 516.441406 C 263.367188 504.851562 258.371094 490.664062 258.371094 475.3125 C 258.371094 436.410156 290.007812 404.773438 328.90625 404.773438 C 336.167969 404.773438 343.128906 405.972656 349.722656 408.039062 L 349.722656 322.378906 C 342.894531 321.449219 335.96875 320.882812 328.90625 320.882812 C 327.675781 320.882812 326.476562 320.949219 325.277344 320.980469 L 324.945312 320.980469 C 324.945312 320.980469 324.710938 385.824219 324.710938 385.824219 C 318.117188 383.757812 311.722656 382.859375 304.460938 382.859375 Z M 304.460938 382.828125 " fill-opacity="1" fill-rule="nonzero"/><path fill="#fe2c55" d="M 575.65625 255.804688 L 575.253906 255.738281 L 575.253906 320.515625 C 531.726562 320.515625 491.296875 306.195312 458.394531 282.582031 L 458.394531 453.996094 C 458.394531 539.152344 389.621094 607.992188 304.460938 607.992188 C 271.558594 607.992188 241.050781 598.035156 215.941406 580.417969 C 244.148438 610.691406 284.347656 629.707031 328.90625 629.707031 C 414.066406 629.707031 483.335938 560.433594 483.335938 475.277344 L 483.335938 304.761719 C 516.242188 328.375 556.570312 342.296875 600.066406 342.296875 L 600.066406 258.402344 C 591.675781 258.402344 583.515625 257.503906 575.621094 255.804688 Z M 575.65625 255.804688 " fill-opacity="1" fill-rule="nonzero"/><path fill="#ffffff" d="M 458.890625 453.996094 L 458.890625 283.480469 C 491.796875 307.09375 532.128906 321.015625 575.621094 321.015625 L 575.621094 255.804688 C 550.476562 250.410156 528.363281 236.921875 512.042969 218.207031 C 485.769531 201.054688 466.785156 173.644531 460.855469 141.675781 L 399.410156 141.675781 L 399.277344 477.941406 C 397.878906 515.609375 366.875 545.816406 328.875 545.816406 C 305.328125 545.816406 284.515625 534.191406 271.691406 516.40625 C 249.246094 504.585938 233.890625 481.074219 233.890625 453.964844 C 233.890625 415.0625 265.53125 383.425781 304.429688 383.425781 C 311.691406 383.425781 318.648438 384.625 325.246094 386.691406 L 325.246094 320.914062 C 241.75 322.878906 174.445312 391.320312 174.445312 475.277344 C 174.445312 515.875 190.230469 552.84375 215.90625 580.449219 C 240.984375 598.070312 271.492188 608.425781 304.429688 608.425781 C 389.585938 608.425781 458.859375 539.152344 458.859375 453.996094 Z M 458.890625 453.996094 " fill-opacity="1" fill-rule="nonzero"/></svg>